<?xml version="1.0" encoding="utf-8"?>
<!-- Generator: Adobe Illustrator 16.0.0, SVG Export Plug-In . SVG Version: 6.00 Build 0)  -->
<!DOCTYPE svg PUBLIC "-//W3C//DTD SVG 1.1//EN" "http://www.w3.org/Graphics/SVG/1.1/DTD/svg11.dtd">
<svg version="1.1" id="Layer_1" xmlns="http://www.w3.org/2000/svg" xmlns:xlink="http://www.w3.org/1999/xlink" x="0px" y="0px"
	 width="200px" height="200px" viewBox="0 0 200 200" enable-background="new 0 0 200 200" xml:space="preserve">
<g id="XMLID_1_">
	<g>
		<polygon fill="#D66627" points="200,150.65 228.49,200 171.51,200 		"/>
		<polygon fill="#D66627" points="143.02,150.65 171.51,200 114.53,200 		"/>
		<polygon fill="#D66627" points="85.47,150.65 113.96,200 56.98,200 		"/>
		<polygon fill="#D66627" points="28.49,150.65 56.98,200 0,200 		"/>
		<polygon fill="#D66627" points="200,50.85 228.49,100.19 199.42,100.19 171.51,100.19 		"/>
		<polygon fill="#D66627" points="142.45,50.85 170.94,100.19 142.45,100.19 113.96,100.19 		"/>
		<polygon fill="#D66627" points="85.47,50.85 113.96,100.19 85.47,100.19 56.98,100.19 		"/>
		<polygon fill="#D66627" points="28.49,50.85 56.98,100.19 28.49,100.19 0,100.19 		"/>
		<polygon fill="#D61D48" points="200,149.54 200,150.65 171.51,200 143.02,150.65 143.02,149.54 170.93,149.54 		"/>
		<polygon fill="#D61D48" points="199.42,100.19 170.93,149.54 142.45,100.19 170.94,100.19 171.51,100.19 		"/>
		<polygon fill="#D61D48" points="200,50.22 200,50.85 171.51,100.19 170.94,100.19 142.45,50.85 142.45,50.22 170.93,50.22 
			170.94,50.22 		"/>
		<polygon fill="#D61D48" points="142.45,50.22 142.45,50.85 113.96,100.19 85.47,50.85 85.47,50.22 113.96,50.22 		"/>
		<polygon fill="#D61D48" points="142.45,100.19 113.96,149.54 85.47,100.19 113.96,100.19 		"/>
		<polygon fill="#D61D48" points="143.02,149.54 143.02,150.65 114.53,200 113.96,200 85.47,150.65 85.47,149.54 113.96,149.54 		
			"/>
		<polygon fill="#D61D48" points="85.47,149.54 85.47,150.65 56.98,200 28.49,150.65 28.49,149.54 56.98,149.54 		"/>
		<polygon fill="#D61D48" points="85.47,100.19 56.98,149.54 28.49,100.19 56.98,100.19 		"/>
		<polygon fill="#D61D48" points="85.47,50.22 85.47,50.85 56.98,100.19 28.49,50.85 28.49,50.22 56.98,50.22 		"/>
		<polygon fill="#D61379" points="199.42,100.19 227.91,149.54 200,149.54 170.93,149.54 		"/>
		<polygon fill="#D61379" points="142.45,100.19 170.93,149.54 143.02,149.54 113.96,149.54 		"/>
		<polygon fill="#D61379" points="85.47,100.19 113.96,149.54 85.47,149.54 56.98,149.54 		"/>
		<polygon fill="#D61379" points="28.49,100.19 56.98,149.54 28.49,149.54 0,149.54 		"/>
		<polygon fill="#D61379" points="199.42,0.88 227.91,50.22 200,50.22 170.94,50.22 170.94,50.21 		"/>
		<polygon fill="#D61379" points="170.94,50.21 170.93,50.22 142.45,50.22 113.96,50.22 142.45,0.88 		"/>
		<polygon fill="#D61379" points="85.47,0.88 113.96,50.22 85.47,50.22 56.98,50.22 		"/>
		<polygon fill="#D61379" points="28.49,0.88 56.98,50.22 28.49,50.22 0,50.22 		"/>
	</g>
	<g>
		<polygon fill="none" stroke="#D8D6D7" stroke-miterlimit="10" points="28.49,50.22 0,50.22 28.49,0.88 56.98,50.22 		"/>
		<polygon fill="none" stroke="#D8D6D7" stroke-miterlimit="10" points="56.98,50.22 85.47,0.88 113.96,50.22 85.47,50.22 		"/>
		<polyline fill="none" stroke="#D8D6D7" stroke-miterlimit="10" points="170.93,50.22 142.45,50.22 113.96,50.22 142.45,0.88 
			170.94,50.21 170.94,50.22 		"/>
		<polygon fill="none" stroke="#D8D6D7" stroke-miterlimit="10" points="28.49,100.19 0,100.19 28.49,50.85 56.98,100.19 		"/>
		<polygon fill="none" stroke="#D8D6D7" stroke-miterlimit="10" points="56.98,100.19 85.47,50.85 113.96,100.19 85.47,100.19 		"/>
		<polygon fill="none" stroke="#D8D6D7" stroke-miterlimit="10" points="113.96,100.19 142.45,50.85 170.94,100.19 142.45,100.19 		
			"/>
		<polygon fill="none" stroke="#D8D6D7" stroke-miterlimit="10" points="171.51,100.19 200,50.85 228.49,100.19 199.42,100.19 		"/>
		<polygon fill="none" stroke="#D8D6D7" stroke-miterlimit="10" points="170.93,50.22 170.94,50.21 199.42,0.88 227.91,50.22 
			200,50.22 170.94,50.22 		"/>
		<polygon fill="none" stroke="#D8D6D7" stroke-miterlimit="10" points="28.49,149.54 0,149.54 28.49,100.19 56.98,149.54 		"/>
		<polygon fill="none" stroke="#D8D6D7" stroke-miterlimit="10" points="56.98,200 0,200 28.49,150.65 		"/>
		<polygon fill="none" stroke="#D8D6D7" stroke-miterlimit="10" points="56.98,149.54 85.47,100.19 113.96,149.54 85.47,149.54 		
			"/>
		<polygon fill="none" stroke="#D8D6D7" stroke-miterlimit="10" points="56.98,200 85.47,150.65 113.96,200 		"/>
		<polygon fill="none" stroke="#D8D6D7" stroke-miterlimit="10" points="113.96,149.54 142.45,100.19 170.93,149.54 143.02,149.54 
					"/>
		<polygon fill="none" stroke="#D8D6D7" stroke-miterlimit="10" points="114.53,200 143.02,150.65 171.51,200 		"/>
		<polygon fill="none" stroke="#D8D6D7" stroke-miterlimit="10" points="170.93,149.54 199.42,100.19 227.91,149.54 200,149.54 		
			"/>
		<polygon fill="none" stroke="#D8D6D7" stroke-miterlimit="10" points="171.51,200 200,150.65 228.49,200 		"/>
	</g>
</g>
<rect fill="none" stroke="#CCC6C8" stroke-miterlimit="10" width="200" height="200"/>
</svg>
