<?xml version="1.0" encoding="utf-8"?>
<!-- Generator: Adobe Illustrator 16.0.0, SVG Export Plug-In . SVG Version: 6.00 Build 0)  -->
<!DOCTYPE svg PUBLIC "-//W3C//DTD SVG 1.1//EN" "http://www.w3.org/Graphics/SVG/1.1/DTD/svg11.dtd">
<svg version="1.1" id="Layer_1" xmlns="http://www.w3.org/2000/svg" xmlns:xlink="http://www.w3.org/1999/xlink" x="0px" y="0px"
	 width="1488px" height="798.5px" viewBox="-181.5 -31 1488 798.5" enable-background="new -181.5 -31 1488 798.5"
	 xml:space="preserve">
<rect x="-13" y="21.5" fill="#FFFFFF" stroke="#000000" stroke-width="3" stroke-miterlimit="10" width="1264.043" height="703"/>
<rect x="13.739" y="39.326" fill="#FFFFFF" stroke="#000000" stroke-width="3" stroke-miterlimit="10" width="267.391" height="668.478"/>
<rect x="953.044" y="38.762" fill="#FFFFFF" stroke="#000000" stroke-width="3" stroke-miterlimit="10" width="267.392" height="668.478"/>
<rect x="321.956" y="38.718" fill="#FFFFFF" stroke="#000000" stroke-width="3" stroke-miterlimit="10" width="267.392" height="668.479"/>
<rect x="636" y="38.761" fill="#FFFFFF" stroke="#000000" stroke-width="3" stroke-miterlimit="10" width="267.392" height="668.479"/>
<rect x="41.87" y="74.37" fill="#FFFFFF" stroke="#000000" stroke-width="3" stroke-miterlimit="10" width="208.696" height="70.652"/>
<rect x="361.609" y="74.37" fill="#FFFFFF" stroke="#000000" stroke-width="3" stroke-miterlimit="10" width="208.695" height="70.652"/>
<rect x="665.348" y="74.37" fill="#FFFFFF" stroke="#000000" stroke-width="3" stroke-miterlimit="10" width="208.696" height="70.652"/>
<text transform="matrix(0.9708 0 0 1 1021.085 347.8965)" font-family="'MyriadPro-Regular'" font-size="25.5002">HERO PHOTO</text>
<text transform="matrix(0.9956 0 0 1 440.2617 118.2266)" font-family="'MyriadPro-Regular'" font-size="26.2498">NAV</text>
<text transform="matrix(0.9956 0 0 1 116.2178 118.2266)" font-family="'MyriadPro-Regular'" font-size="26.2498">NAV</text>
<text transform="matrix(0.9956 0 0 1 742.6973 118.2266)" font-family="'MyriadPro-Regular'" font-size="26.2498">NAV</text>
<rect x="13.739" y="640" opacity="0.7" fill="#FFFFFF" stroke="#000000" stroke-width="3" stroke-miterlimit="10" enable-background="new    " width="1206.697" height="67.24"/>
<text transform="matrix(1.1109 0 0 1 465.957 681.7422)" font-family="'MyriadPro-Regular'" font-size="24.7499">FOOTER</text>
<g>
	<g>
		<path d="M70.058,695.24c-11.088,1.451-19.16-7.14-24.131-15.917c-4.882-8.616-8.425-20.377-5.63-30.191
			c0.593-2.079-2.398-3.306-3.496-1.457c-3.668,6.172-8.305,11.71-11.644,18.085c1.165,0.485,2.331,0.972,3.496,1.457
			c1.249-8.277,8.361-15.271,14.479-20.54c-0.901,0-1.803,0-2.705,0c5.535,5.518,10.688,11.368,15.803,17.265
			c0.621-1.055,1.241-2.106,1.861-3.16c-7.065-1.525-9.372-16.229-18.121-13.935c-3.682,0.967-5.943,4.848-7.726,7.871
			c-2.09,3.546-3.611,7.359-5.424,11.042c-1.075,2.185,2.225,4.103,3.303,1.907c1.424-2.891,2.677-5.854,4.154-8.722
			c1.145-2.223,3.692-8.157,6.671-8.429c3.349-0.303,6.33,5.022,8.046,7.219c2.116,2.706,4.499,5.918,8.08,6.689
			c1.929,0.417,3.111-1.718,1.861-3.16c-5.114-5.896-10.267-11.747-15.803-17.264c-0.771-0.769-1.922-0.674-2.705,0
			c-6.552,5.642-14.125,13.338-15.463,22.208c-0.296,1.963,2.416,3.519,3.496,1.457c3.339-6.373,7.975-11.913,11.644-18.086
			c-1.166-0.485-2.331-0.971-3.496-1.457c-3.113,10.93,0.754,23.447,6.015,33.105c5.385,9.888,15.192,19.394,27.435,17.789
			C72.468,698.706,72.498,694.921,70.058,695.24L70.058,695.24z"/>
	</g>
</g>
<rect x="413.239" y="185.242" fill="#FFFFFF" stroke="#000000" stroke-width="3" stroke-miterlimit="10" width="105.435" height="101.087"/>
<rect x="413.239" y="331.024" fill="#FFFFFF" stroke="#000000" stroke-width="3" stroke-miterlimit="10" width="105.435" height="101.088"/>
<rect x="413.239" y="471.808" fill="#FFFFFF" stroke="#000000" stroke-width="3" stroke-miterlimit="10" width="105.435" height="101.091"/>
<line fill="none" stroke="#000000" stroke-miterlimit="10" x1="-89.5" y1="681.742" x2="-31.75" y2="681.742"/>
<line fill="none" stroke="#000000" stroke-miterlimit="10" x1="-89.5" y1="681.742" x2="-89.5" y2="74.37"/>
<line fill="none" stroke="#000000" stroke-miterlimit="10" x1="-89.5" y1="74.37" x2="-31.75" y2="74.37"/>
<text transform="matrix(1 0 0 1 -131.5 286.3291)" font-family="'MyriadPro-Regular'" font-size="26" glyph-orientation-vertical="0" writing-mode="tb">CONTAINER</text>
</svg>
