<?xml version="1.0" encoding="utf-8"?>
<!-- Generator: Adobe Illustrator 16.0.0, SVG Export Plug-In . SVG Version: 6.00 Build 0)  -->
<!DOCTYPE svg PUBLIC "-//W3C//DTD SVG 1.1//EN" "http://www.w3.org/Graphics/SVG/1.1/DTD/svg11.dtd">
<svg version="1.1" id="Layer_1" xmlns="http://www.w3.org/2000/svg" xmlns:xlink="http://www.w3.org/1999/xlink" x="0px" y="0px"
	 width="198px" height="198px" viewBox="0 0 198 198" enable-background="new 0 0 198 198" xml:space="preserve">
<g id="svg4316" xmlns:dc="http://purl.org/dc/elements/1.1/" xmlns:cc="http://creativecommons.org/ns#" xmlns:rdf="http://www.w3.org/1999/02/22-rdf-syntax-ns#" xmlns:svg="http://www.w3.org/2000/svg" xmlns:sodipodi="http://sodipodi.sourceforge.net/DTD/sodipodi-0.dtd" xmlns:inkscape="http://www.inkscape.org/namespaces/inkscape" inkscape:version="0.91 r13725" sodipodi:docname="icon.svg" display="none">
	
		<sodipodi:namedview  units="px" bordercolor="#666666" pagecolor="#ffffff" showgrid="false" borderopacity="1.0" inkscape:zoom="1.0824912" inkscape:cy="331.14535" inkscape:cx="375" id="base" inkscape:window-y="-8" inkscape:pageopacity="0.0" inkscape:window-maximized="1" inkscape:pageshadow="2" inkscape:snap-grids="false" inkscape:object-paths="true" inkscape:window-height="962" inkscape:window-width="1280" inkscape:window-x="-8" inkscape:current-layer="layer1" inkscape:document-units="px">
		</sodipodi:namedview>
	<g id="layer1" transform="translate(0,-5.9998782)" inkscape:label="Layer 1" inkscape:groupmode="layer" display="inline">
		<g id="g4144" transform="translate(-2.8147384,383.66327)">
			
				<path id="path3336" sodipodi:arg2="1.5542961" sodipodi:arg1="0.5070985" sodipodi:r2="44.12413" sodipodi:r1="88.24826" sodipodi:cy="292.36218" sodipodi:cx="340" sodipodi:sides="3" sodipodi:type="star" inkscape:transform-center-y="-21.809337" inkscape:transform-center-x="-0.21068722" inkscape:rounded="0.15" inkscape:randomized="0" inkscape:flatsided="false" fill="none" stroke="#000000" stroke-width="2" d="
				M178.457-236.85c-5.698,9.946-64.961,0.221-76.424,0.26c-11.464,0.039-70.659,10.168-76.425,0.261
				c-5.767-9.908,32.288-56.367,37.987-66.312c5.697-9.947,26.522-66.277,37.986-66.316c11.463-0.039,32.672,56.146,38.438,66.056
				C145.787-292.999,184.157-246.798,178.457-236.85z"/>
			
				<path id="path4138" sodipodi:arg2="1.5542961" sodipodi:arg1="0.5070985" sodipodi:r2="44.12413" sodipodi:r1="88.24826" sodipodi:cy="292.36218" sodipodi:cx="340" sodipodi:sides="3" sodipodi:type="star" inkscape:transform-center-y="0.21068768" inkscape:transform-center-x="-21.809334" inkscape:rounded="0.15" inkscape:randomized="0" inkscape:flatsided="false" fill="none" stroke="#000000" stroke-width="2" d="
				M60-202.02c-9.947-5.697-0.221-64.961-0.26-76.424c-0.039-11.465-10.168-70.66-0.26-76.427
				c9.908-5.766,56.369,32.289,66.315,37.988c9.947,5.697,66.277,26.523,66.316,37.986c0.033,11.465-56.147,32.672-66.061,38.438
				C116.147-234.693,69.949-196.322,60-202.02L60-202.02z"/>
			
				<path id="path4140" sodipodi:arg2="1.5542961" sodipodi:arg1="0.5070985" sodipodi:r2="44.12413" sodipodi:r1="88.24826" sodipodi:cy="292.36218" sodipodi:cx="340" sodipodi:sides="3" sodipodi:type="star" inkscape:transform-center-y="21.809337" inkscape:transform-center-x="0.21068938" inkscape:rounded="0.15" inkscape:randomized="0" inkscape:flatsided="false" fill="none" stroke="#000000" stroke-width="2" d="
				M25.169-320.477c5.698-9.947,64.961-0.221,76.425-0.26c11.465-0.039,70.659-10.168,76.426-0.261
				c5.766,9.908-32.289,56.367-37.986,66.314c-5.694,9.946-26.521,66.276-37.983,66.315s-32.672-56.146-38.438-66.06
				C57.842-264.333,19.471-310.53,25.169-320.477L25.169-320.477z"/>
			
				<path id="path4142" sodipodi:arg2="1.5542961" sodipodi:arg1="0.5070985" sodipodi:r2="44.12413" sodipodi:r1="88.24826" sodipodi:cy="292.36218" sodipodi:cx="340" sodipodi:sides="3" sodipodi:type="star" inkscape:transform-center-y="-0.21068638" inkscape:transform-center-x="21.809337" inkscape:rounded="0.15" inkscape:randomized="0" inkscape:flatsided="false" fill="none" stroke="#000000" stroke-width="2" d="
				M143.625-355.307c9.949,5.697,0.223,64.961,0.262,76.424c0.039,11.466,10.17,70.66,0.262,76.427
				c-9.908,5.771-56.369-32.289-66.316-37.988c-9.947-5.692-66.277-26.521-66.316-37.981c-0.039-11.465,56.147-32.672,66.057-38.438
				C87.481-322.636,133.68-361.007,143.625-355.307L143.625-355.307z"/>
		</g>
		<path id="path4150" inkscape:connector-curvature="0" fill="#808080" d="M60.616,58.364l-6.886-0.521l0.249-11.051
			c0.258-11.449,0.69-14.035,2.707-16.199c1.849-1.983,5.785-1.149,14.086,2.984c3.881,1.935,7.302,3.814,7.603,4.182
			c0.391,0.476-0.353,2.572-2.602,7.351c-1.73,3.678-3.878,8.32-4.771,10.315c-1.166,2.607-1.887,3.605-2.562,3.545
			C67.924,58.922,64.403,58.649,60.616,58.364L60.616,58.364z"/>
		<path id="path4152" inkscape:connector-curvature="0" fill="#808080" d="M91.271,43.076c-3.728-2.561-7.224-4.934-7.771-5.271
			c-0.938-0.584-0.879-0.834,1.104-4.557c5.542-10.402,11.099-17.065,14.232-17.065c2.115,0,4.975,2.588,8.447,7.643
			c3.092,4.5,7.861,12.682,7.564,12.979C113.95,37.7,99.474,47.445,98.85,47.57C98.409,47.659,94.998,45.637,91.271,43.076z"/>
		<path id="path4154" inkscape:connector-curvature="0" fill="#808080" d="M127.049,55.778c-0.705-1.588-2.885-6.256-4.846-10.373
			l-3.562-7.486l1.229-0.946c2.092-1.621,12.883-6.826,15.547-7.503c6.553-1.659,8.438,2.688,8.443,19.468l0.008,8.371l-2.549,0.315
			c-1.396,0.174-4.896,0.479-7.769,0.678l-5.221,0.363L127.049,55.778L127.049,55.778z"/>
		<path id="path4156" inkscape:connector-curvature="0" fill="#808080" d="M156.18,80.549c-4.871-2.309-9.396-4.371-10.059-4.58
			c-1.128-0.356-1.186-0.596-0.885-3.69c0.178-1.82,0.479-5.359,0.682-7.865l0.357-4.555l7.979-0.15
			c8.992-0.166,16.288,0.799,18.515,2.451c1.854,1.379,2.043,4.201,0.56,8.375c-1.429,4.012-7.002,14.248-7.75,14.227
			C165.277,84.752,161.049,82.858,156.18,80.549L156.18,80.549z"/>
		<path id="path4158" inkscape:connector-curvature="0" fill="#808080" d="M162.079,113.631c-2.797-4.119-5.313-7.812-5.593-8.219
			c-0.368-0.529,0.955-2.912,4.82-8.674c2.932-4.369,5.379-8.031,5.438-8.139c0.166-0.302,6.89,3.506,11.822,6.694
			c6.06,3.914,9.238,7.154,9.238,9.404c0,1.422-0.604,2.322-3.354,4.996s-10.821,8.086-16.221,10.865
			C167.268,121.064,166.676,120.401,162.079,113.631L162.079,113.631z"/>
		<path id="path4160" inkscape:connector-curvature="0" fill="#808080" d="M147.814,149.825c-1.271-0.295-1.504-1.427-2.107-10.39
			l-0.346-5.09l10.486-4.901l10.481-4.902l1.354,2.306c2.479,4.237,6.09,11.769,6.674,13.935c1.324,4.896,0.229,6.644-5.047,8.021
			C166.148,149.621,150.234,150.383,147.814,149.825L147.814,149.825z"/>
		<path id="path4162" inkscape:connector-curvature="0" fill="#808080" d="M135.291,179.928c-3.488-1.033-6.076-2.213-11.557-5.262
			l-4.857-2.701l4.857-10.43l4.854-10.43l5.096,0.338c2.799,0.186,6.387,0.486,7.971,0.666l2.883,0.328l-0.276,10.246
			c-0.274,10.168-0.928,14.223-2.653,16.543C140.656,180.5,138.157,180.778,135.291,179.928L135.291,179.928z"/>
		<path id="path4164" inkscape:connector-curvature="0" fill="#808080" d="M96.877,193.053c-1.82-1.105-5.121-5.033-7.912-9.404
			c-2.906-4.557-5.754-9.887-5.565-10.42c0.099-0.277,3.711-2.926,8.028-5.871l7.851-5.359l8.09,5.434l8.091,5.432l-2.481,4.594
			c-4.47,8.271-9.078,14.346-12.049,15.883C99.034,194.307,98.922,194.299,96.877,193.053L96.877,193.053z"/>
		<path id="path4166" inkscape:connector-curvature="0" fill="#808080" d="M56.722,179.338c-0.49-0.748-1.216-2.734-1.611-4.42
			c-0.879-3.736-1.565-16.668-1.062-20.021l0.367-2.438l5.203-0.354c2.862-0.192,6.324-0.5,7.693-0.678
			c2.281-0.293,2.523-0.214,2.887,0.946c0.219,0.697,2.398,5.437,4.846,10.522l4.449,9.261l-2.021,1.272
			c-2.98,1.883-10.273,5.532-12.904,6.463c-1.261,0.442-3.342,0.812-4.625,0.812c-1.905,0-2.495-0.248-3.223-1.356L56.722,179.338
			L56.722,179.338z"/>
		<path id="path4168" inkscape:connector-curvature="0" fill="#808080" d="M29.666,149.418c-3.646-0.785-5.713-2.059-6.146-3.789
			c-0.512-2.037,1.182-6.998,4.675-13.693c1.769-3.391,3.39-6.346,3.604-6.562c0.216-0.227,4.77,1.646,10.119,4.148
			c5.351,2.512,10.013,4.561,10.36,4.561c0.625,0,0.396,8.043-0.396,13.803l-0.313,2.275l-9.451-0.045
			C36.922,150.084,31.317,149.773,29.666,149.418z"/>
		<path id="path4170" inkscape:connector-curvature="0" fill="#808080" d="M27.043,119.284
			c-11.127-6.133-17.148-11.177-17.148-14.363c0-1.381,4.667-6.065,8.842-8.881c4.115-2.772,12.016-7.219,12.271-6.906
			c0.09,0.109,1.688,2.488,3.551,5.289c1.863,2.8,4.316,6.354,5.451,7.898l2.063,2.807l-5.38,8.046
			c-2.959,4.424-5.558,8.04-5.772,8.036C30.703,121.207,28.959,120.34,27.043,119.284L27.043,119.284z"/>
		<path id="path4172" inkscape:connector-curvature="0" fill="#B3B3B3" d="M29.075,80.889c-4.108-7.196-5.387-10.479-5.454-13.993
			c-0.055-2.767,0.101-3.269,1.278-4.156c2.312-1.742,8.112-2.594,17.745-2.604l8.902-0.01l0.371,5.762
			c0.205,3.168,0.5,6.605,0.657,7.64l0.286,1.879l-10.363,4.961c-5.701,2.729-10.484,4.957-10.632,4.951
			C31.717,85.313,30.463,83.321,29.075,80.889L29.075,80.889z"/>
		<path id="path4174" inkscape:connector-curvature="0" fill="#B3B3B3" d="M39.758,97.532c-5.703-8.23-6.487-9.553-5.969-10.062
			c0.645-0.629,19.016-9.272,19.211-9.038c0.082,0.1,0.371,2.401,0.64,5.114l0.487,4.937L49.2,95.325
			c-2.71,3.762-5.165,6.92-5.458,7.018C43.45,102.438,41.657,100.274,39.758,97.532L39.758,97.532z"/>
		<path id="path4176" inkscape:connector-curvature="0" fill="#B3B3B3" d="M46.33,128.778c-3.683-1.693-8.082-3.791-9.779-4.66
			l-3.086-1.582l4.942-7.356c2.718-4.05,5.083-7.354,5.255-7.354s2.629,3.211,5.461,7.137l5.146,7.142l-0.525,4.779
			c-0.289,2.635-0.57,4.827-0.623,4.885C53.066,131.81,50.01,130.469,46.33,128.778z"/>
		<path id="path4178" inkscape:connector-curvature="0" fill="#B3B3B3" d="M54.647,144.607c0.212-3.108,0.538-6.354,0.726-7.211
			l0.34-1.555l4.371,1.891l4.373,1.892l1.924,4.433c1.06,2.438,1.926,4.539,1.926,4.67c0,0.138-2.713,0.403-6.029,0.604
			c-3.316,0.199-6.477,0.492-7.021,0.647C54.316,150.246,54.283,149.951,54.647,144.607L54.647,144.607z"/>
		<path id="path4180" inkscape:connector-curvature="0" fill="#B3B3B3" d="M80.52,168.241c-0.663-1.254-2.807-5.654-4.762-9.781
			l-3.556-7.502l5.152-0.535l5.151-0.536l7.102,5.06c3.905,2.774,7.1,5.219,7.1,5.424c0,0.377-14.135,10.149-14.682,10.149
			C81.86,170.517,81.183,169.493,80.52,168.241z"/>
		<path id="path4182" inkscape:connector-curvature="0" fill="#B3B3B3" d="M108.875,165.385c-3.744-2.521-6.809-4.807-6.809-5.062
			s3.175-2.771,7.057-5.574c4.908-3.551,7.395-5.032,8.172-4.873c0.613,0.125,2.754,0.382,4.756,0.568
			c3.424,0.315,3.617,0.405,3.276,1.5c-0.903,2.896-8.485,18.043-9.032,18.043C115.959,169.982,112.619,167.914,108.875,165.385
			L108.875,165.385z"/>
		<path id="path4184" inkscape:connector-curvature="0" fill="#B3B3B3" d="M134.596,149.069c-2.299-0.22-4.305-0.521-4.453-0.673
			c-0.146-0.15,0.523-2.146,1.5-4.438l1.773-4.166l4.484-2.078c2.468-1.145,4.594-1.973,4.727-1.84
			c0.273,0.272,1.203,9.371,1.225,12.002c0.02,1.731,0.002,1.74-2.531,1.666C139.92,149.502,136.895,149.289,134.596,149.069
			L134.596,149.069L134.596,149.069z"/>
		<path id="path4186" inkscape:connector-curvature="0" fill="#B3B3B3" d="M144.748,129.409c-0.16-1.117-0.434-3.354-0.605-4.978
			l-0.312-2.946l5.272-7.314l5.273-7.313l4.844,7.052c2.66,3.875,5.021,7.354,5.233,7.729c0.28,0.494-2.073,1.873-8.354,4.894
			C144.596,132.047,145.107,131.918,144.748,129.409L144.748,129.409z"/>
		<path id="path4188" inkscape:connector-curvature="0" fill="#B3B3B3" d="M149.032,95.237l-5.226-7.228l0.366-4.58
			c0.205-2.518,0.578-4.704,0.83-4.86c0.578-0.357,19.226,8.334,19.226,8.961c0,0.408-8.648,13.504-9.604,14.529
			C154.426,102.282,151.907,99.211,149.032,95.237z"/>
		<path id="path4190" inkscape:connector-curvature="0" fill="#B3B3B3" d="M137.545,72.143l-3.91-1.826l-2.033-4.426l-2.035-4.427
			l1.554-0.34c0.853-0.188,4.081-0.512,7.172-0.723l5.624-0.385l-0.27,1.26c-0.146,0.69-0.422,3.852-0.606,7.02
			c-0.229,3.838-0.558,5.746-0.97,5.717C141.732,73.991,139.693,73.149,137.545,72.143L137.545,72.143z"/>
		<path id="path4192" inkscape:connector-curvature="0" fill="#B3B3B3" d="M108.467,55.157c-3.699-2.721-6.834-5.166-6.965-5.438
			c-0.132-0.27,3.135-2.78,7.258-5.582l7.498-5.09l4.666,9.604c2.566,5.278,4.68,9.754,4.694,9.94
			c0.028,0.354-2.405,0.756-7.474,1.234l-2.947,0.277L108.467,55.157z"/>
		<path id="path4194" inkscape:connector-curvature="0" fill="#B3B3B3" d="M75.715,59.641c-1.672-0.181-3.148-0.445-3.283-0.591
			c-0.278-0.303,7.947-18.18,8.72-18.953c0.317-0.317,3.106,1.238,7.494,4.183c3.843,2.578,7.112,4.891,7.265,5.137
			c0.152,0.248-2.891,2.758-6.763,5.58C81.59,60.502,82.099,60.326,75.715,59.641z"/>
		<path id="path4196" inkscape:connector-curvature="0" fill="#666666" d="M54.523,67.469c-0.294-3.893-0.508-7.104-0.477-7.139
			c0.107-0.119,13.989,0.975,14.139,1.113c0.081,0.076-0.748,2.123-1.842,4.551c-2.155,4.785-1.646,4.371-9.618,7.828l-1.667,0.723
			L54.523,67.469L54.523,67.469z"/>
		<path id="path4198" inkscape:connector-curvature="0" fill="#666666" d="M29.403,80.998c-1.151-2.047-2.289-3.723-2.526-3.725
			c-0.24,0-0.297-0.224-0.129-0.492c0.166-0.271-0.049-0.846-0.479-1.277c-0.431-0.43-0.634-0.932-0.452-1.114
			c0.184-0.183,0.102-0.33-0.18-0.33c-0.28,0-0.549-0.521-0.598-1.158c-0.049-0.638-0.281-1.301-0.517-1.476
			c-0.235-0.174-0.511-1.887-0.61-3.807c-0.148-2.877-0.005-3.652,0.819-4.398c1.415-1.278,6.763-2.561,10.696-2.561
			c1.836,0,3.488-0.24,3.67-0.535c0.38-0.615,3.974-0.692,8.773-0.19c3.809,0.397,3.766,0.328,4.088,6.651
			c0.112,2.193,0.278,5.058,0.371,6.361l0.166,2.373l-6.699,3.225c-3.685,1.773-6.779,3.42-6.879,3.66
			c-0.099,0.238-0.399,0.297-0.67,0.131c-0.27-0.166-0.49-0.033-0.49,0.297c0,0.328-0.221,0.461-0.492,0.293
			c-0.271-0.166-0.846,0.05-1.276,0.48c-0.431,0.43-0.933,0.633-1.114,0.451c-0.184-0.185-0.332-0.111-0.334,0.158
			c0,0.271-0.687,0.539-1.523,0.598C31.657,84.709,31.276,84.326,29.403,80.998L29.403,80.998z"/>
		<path id="path4200" inkscape:connector-curvature="0" fill="#666666" d="M29.424,80.623c-3.367-5.615-4.703-8.699-5.129-11.84
			c-0.75-5.527,0.631-6.578,10.451-7.959c6.666-0.938,6.793-0.945,11.426-0.803c2.636,0.082,3.578,0.354,4.556,1.309
			c1.149,1.125,1.233,1.637,1.233,7.543v6.338l-6.967,3.506c-3.832,1.929-7.878,3.959-8.992,4.515
			C32.562,84.946,31.844,84.66,29.424,80.623L29.424,80.623z"/>
		<path id="path4202" inkscape:connector-curvature="0" fill="#666666" d="M29.049,80.086c-3.129-5.209-4.424-8.276-4.858-11.516
			c-0.661-4.916,0.916-6.318,8.296-7.375c2.164-0.312,5.38-0.805,7.148-1.1c4.182-0.693,10.104,0.014,11.386,1.358
			c0.741,0.779,0.901,1.709,0.76,4.385c-0.099,1.867,0.025,3.396,0.274,3.396c0.25,0,0.33,1.354,0.18,3.012l-0.273,3.012
			l-8.843,4.472c-4.862,2.459-9.458,4.479-10.209,4.49C31.769,84.237,31.131,83.553,29.049,80.086L29.049,80.086z"/>
		<path id="path4204" inkscape:connector-curvature="0" fill="#CCCCCC" d="M55.75,81.448c-0.235-2.381-0.386-4.365-0.334-4.41
			c0.226-0.197,7.545-3.416,7.613-3.35c0.207,0.207-3.593,7.442-5.042,9.604c-0.917,1.367-1.698,2.484-1.737,2.484
			C56.209,85.776,55.984,83.828,55.75,81.448z"/>
		<path id="path4206" inkscape:connector-curvature="0" fill="#CCCCCC" d="M49.822,111.868c-2.594-3.545-4.716-6.51-4.716-6.586
			c0-0.211,9.401-13.223,9.491-13.133c0.259,0.26,1.103,9.994,1.119,12.918c0.019,3.383-0.682,12.303-1.016,12.938
			C54.596,118.207,52.885,116.055,49.822,111.868L49.822,111.868z"/>
		<path id="path4208" inkscape:connector-curvature="0" fill="#CCCCCC" d="M59.254,134.748c-1.801-0.82-3.373-1.527-3.492-1.57
			c-0.209-0.072,0.218-6.084,0.547-7.695c0.148-0.729,0.182-0.689,1.936,1.938c2.271,3.402,5.059,8.914,4.475,8.853
			C62.613,136.252,61.055,135.571,59.254,134.748L59.254,134.748z"/>
		<path id="path4210" inkscape:connector-curvature="0" fill="#CCCCCC" d="M70.612,147.685c-0.237-0.547-1.016-2.282-1.728-3.858
			c-0.711-1.574-1.209-2.863-1.104-2.863c0.545,0,8.349,4.173,10.033,5.363l1.958,1.387l-0.788,0.13
			c-1.005,0.166-7.076,0.838-7.565,0.838C71.205,148.68,70.86,148.254,70.612,147.685z"/>
		<path id="path4212" inkscape:connector-curvature="0" fill="#CCCCCC" d="M94.213,155.323c-8.186-5.888-8.026-5.765-7.682-5.947
			c0.699-0.368,8.954-1.039,12.827-1.043c5.151-0.002,13.272,0.744,12.817,1.179c-0.317,0.31-11.614,8.573-12.457,9.118
			C99.281,158.912,98.813,158.631,94.213,155.323z"/>
		<path id="path4214" inkscape:connector-curvature="0" fill="#CCCCCC" d="M122.201,148.028c-2.744-0.281-3.4-0.414-3.156-0.642
			c1.008-0.938,5.145-3.451,7.932-4.824c1.785-0.881,3.291-1.604,3.342-1.604c0.055,0-0.649,1.688-1.563,3.74
			c-1.638,3.687-1.675,3.741-2.375,3.709C125.984,148.394,124.105,148.221,122.201,148.028L122.201,148.028z"/>
		<path id="path4216" inkscape:connector-curvature="0" fill="#CCCCCC" d="M135.7,134.59c1.521-3.334,2.558-5.238,4.198-7.713
			c0.916-1.383,1.729-2.514,1.801-2.516c0.154-0.002,1.025,8.389,0.885,8.529c-0.16,0.154-7.281,3.395-7.477,3.395
			C135.01,136.285,135.275,135.521,135.7,134.59z"/>
		<path id="path4218" inkscape:connector-curvature="0" fill="#CCCCCC" d="M143.227,116.932c-0.578-4.627-0.91-8.896-0.93-11.979
			c-0.023-3.465,0.686-12.795,1-13.146c0.115-0.132,8.623,11.217,9.455,12.61c0.174,0.293-2.636,4.396-8.406,12.281l-0.979,1.342
			L143.227,116.932L143.227,116.932z"/>
		<path id="path4220" inkscape:connector-curvature="0" fill="#CCCCCC" d="M139.825,82.727c-1.421-2.093-5.021-8.845-4.827-9.05
			c0.082-0.086,7.012,2.992,7.248,3.22c0.195,0.19-0.173,5.424-0.531,7.524l-0.148,0.869L139.825,82.727L139.825,82.727z"/>
		<path id="path4222" inkscape:connector-curvature="0" fill="#CCCCCC" d="M126.602,67.33c-2.812-1.367-8.479-4.838-8.26-5.061
			c0.041-0.041,1.654-0.242,3.582-0.445c1.93-0.203,3.834-0.424,4.233-0.49l0.726-0.121l1.672,3.707
			c0.918,2.039,1.67,3.777,1.67,3.863C130.227,69.063,129.91,68.938,126.602,67.33L126.602,67.33z"/>
		<path id="path4224" inkscape:connector-curvature="0" fill="#CCCCCC" d="M97.137,61.766c-2.514-0.146-10.098-0.83-10.834-0.978
			c-0.764-0.152-0.66-0.242,5.563-4.783c3.487-2.545,6.49-4.684,6.674-4.754c0.293-0.113,13.599,9.203,13.401,9.385
			c-0.102,0.093-9.938,1.002-11.998,1.111c-0.899,0.047-2.167,0.057-2.806,0.021V61.766L97.137,61.766z"/>
		<path id="path4226" inkscape:connector-curvature="0" fill="#666666" d="M67.789,68.76c0-0.092,0.704-1.772,1.564-3.737
			l1.564-3.57l0.715,0.113c0.395,0.063,1.927,0.225,3.406,0.358c1.479,0.135,3.047,0.302,3.482,0.373l0.794,0.129l-2.431,1.634
			C73.854,66.098,67.789,69.231,67.789,68.76L67.789,68.76z"/>
		<path id="path4228" inkscape:connector-curvature="0" fill="#666666" d="M96.91,61.737c-0.037-0.039-0.792-0.117-1.675-0.178
			c-1.792-0.119-3.769-0.281-5.698-0.468c-0.707-0.067-1.74-0.161-2.296-0.207c-0.555-0.047-1.062-0.137-1.126-0.198
			c-0.064-0.064,0.381-0.523,0.988-1.019s1.298-1.086,1.535-1.311c0.236-0.225,0.479-0.41,0.541-0.41
			c0.236,0,2.229-1.504,2.229-1.682c0-0.104,0.161-0.189,0.358-0.189c0.196,0,0.419-0.156,0.493-0.35
			c0.074-0.194,0.266-0.353,0.426-0.353c0.161,0,0.576-0.262,0.922-0.584c0.348-0.321,0.727-0.584,0.841-0.584
			c0.116,0,0.294-0.133,0.397-0.293c0.103-0.162,0.467-0.438,0.809-0.612c0.342-0.176,0.973-0.642,1.403-1.033
			c0.43-0.394,0.78-0.689,0.78-0.658c0,0.029,0.189-0.018,0.42-0.105c0.298-0.114,1.183,0.347,3.041,1.584
			c1.44,0.959,2.673,1.742,2.736,1.738c0.063-0.002,0.422,0.277,0.795,0.623c0.373,0.346,0.81,0.627,0.969,0.627
			c0.16,0,0.353,0.158,0.427,0.353c0.073,0.192,0.295,0.352,0.491,0.352c0.197,0,0.358,0.104,0.358,0.232
			c0,0.129,0.158,0.233,0.352,0.233c0.192,0,0.352,0.109,0.352,0.242c0,0.131,0.188,0.311,0.41,0.396
			c0.229,0.086,0.67,0.397,0.99,0.692c0.319,0.297,0.67,0.539,0.776,0.539s0.342,0.131,0.521,0.293
			c0.184,0.16,0.498,0.437,0.705,0.611c0.562,0.473,0.146,0.719-1.427,0.85c-0.767,0.063-1.918,0.166-2.562,0.23
			c-0.646,0.063-1.748,0.164-2.455,0.219c-0.707,0.057-1.918,0.156-2.688,0.223C100.156,61.703,96.996,61.823,96.91,61.737
			L96.91,61.737z"/>
		<path id="path4230" inkscape:connector-curvature="0" fill="#666666" d="M128.18,68.014c-0.805-0.381-1.463-0.641-1.463-0.575
			c0,0.064-0.131,0.004-0.291-0.138c-0.416-0.358-4.609-2.778-5.379-3.104c-0.354-0.15-0.643-0.354-0.643-0.455
			c0-0.1-0.158-0.182-0.354-0.182s-0.352-0.105-0.352-0.234s-0.112-0.234-0.25-0.234c-0.403,0-0.954-0.651-0.688-0.815
			c0.131-0.08,0.734-0.188,1.348-0.238c1.402-0.119,3.854-0.397,5.963-0.678c0.777-0.104,0.894-0.053,1.021,0.457
			c0.08,0.315,0.238,0.573,0.354,0.573c0.117,0,0.188,0.08,0.16,0.177c-0.08,0.293,0.601,1.93,0.797,1.93
			c0.104,0,0.16,0.08,0.127,0.18c-0.059,0.185,0.769,2.181,0.988,2.394c0.066,0.063,0.162,0.272,0.209,0.467
			c0.047,0.195,0.143,0.535,0.203,0.76C130.086,68.85,129.877,68.817,128.18,68.014L128.18,68.014z"/>
		<path id="path4232" inkscape:connector-curvature="0" fill="#666666" d="M140.991,84.391c-0.134-0.248-0.373-0.595-0.534-0.771
			c-0.352-0.381-0.361-0.4-3.141-5.379c-1.2-2.15-2.187-4.012-2.187-4.137s0.212-0.211,0.472-0.191
			c0.258,0.021,0.469,0.105,0.469,0.193c0,0.166,1.158,0.549,1.462,0.481c0.097-0.021,0.177,0.066,0.177,0.195
			s0.077,0.211,0.174,0.186c0.098-0.026,0.506,0.127,0.906,0.343c0.4,0.213,0.797,0.321,0.877,0.241s0.146-0.045,0.146,0.08
			c0,0.195,1.553,0.894,1.871,0.841c0.441-0.076,0.615,2.354,0.35,4.856c-0.146,1.346-0.317,3.033-0.338,3.332
			C141.672,85.006,141.229,84.834,140.991,84.391L140.991,84.391z"/>
		<path id="path4234" inkscape:connector-curvature="0" fill="#666666" d="M143.309,117.67c-0.021-0.396-0.191-2.082-0.334-3.248
			c-0.135-1.131-0.246-2.418-0.467-5.379c-0.322-4.334,0.221-15.651,0.801-16.688c0.135-0.242,0.543,0.145,1.529,1.457
			c0.739,0.981,1.438,1.784,1.551,1.784s0.205,0.162,0.205,0.359c0,0.197,0.158,0.418,0.354,0.492
			c0.192,0.074,0.353,0.24,0.353,0.369c0,0.254,1.406,2.123,1.693,2.248c0.098,0.043,0.176,0.229,0.176,0.418
			c0,0.186,0.158,0.397,0.354,0.473c0.193,0.076,0.354,0.256,0.354,0.402s0.313,0.635,0.698,1.086
			c0.383,0.449,0.803,0.944,0.932,1.1c0.133,0.156,0.236,0.367,0.236,0.471s0.252,0.459,0.562,0.791l0.562,0.604l-1.587,2.377
			c-0.87,1.306-1.549,2.375-1.506,2.375s-0.185,0.276-0.496,0.617c-0.312,0.342-0.571,0.704-0.571,0.807
			c0,0.104-0.265,0.474-0.584,0.818c-0.321,0.348-0.586,0.772-0.586,0.946c0,0.177-0.104,0.313-0.239,0.313
			c-0.134,0-0.312,0.188-0.396,0.408s-0.396,0.672-0.69,0.987c-0.296,0.32-0.538,0.656-0.538,0.748c0,0.095-0.263,0.449-0.585,0.801
			c-0.317,0.347-0.584,0.716-0.584,0.814C144.488,116.7,143.322,117.924,143.309,117.67L143.309,117.67z"/>
		<path id="path4238" inkscape:connector-curvature="0" fill="#666666" d="M124.783,148.305c-0.083-0.084-1.085-0.188-4.117-0.438
			c-1.531-0.127-1.646-0.438-0.465-1.25c0.562-0.393,1.203-0.871,1.43-1.074c0.225-0.199,0.412-0.287,0.416-0.188
			c0.004,0.098,0.137,0.02,0.293-0.178c0.158-0.189,0.422-0.381,0.588-0.412c0.166-0.033,1.219-0.576,2.338-1.209
			s2.482-1.322,3.029-1.541c0.545-0.221,0.994-0.471,0.994-0.557c0-0.088,0.211-0.176,0.467-0.193
			c0.383-0.023,0.428,0.045,0.242,0.393c-0.125,0.229-0.16,0.484-0.078,0.564c0.082,0.082,0.037,0.146-0.102,0.146
			c-0.232,0-0.652,1.08-0.568,1.461c0.021,0.1-0.047,0.176-0.148,0.176c-0.201,0-0.875,1.641-0.797,1.934
			c0.025,0.098-0.035,0.178-0.139,0.178s-0.316,0.354-0.477,0.795c-0.158,0.438-0.416,0.896-0.572,1.021
			C126.82,148.159,124.943,148.465,124.783,148.305L124.783,148.305z"/>
		<path id="path4240" inkscape:connector-curvature="0" fill="#666666" d="M98.076,157.909c-0.74-0.445-1.382-0.812-1.424-0.812
			s-0.359-0.269-0.708-0.584c-0.347-0.321-0.715-0.586-0.817-0.586c-0.104,0-0.472-0.267-0.818-0.584
			c-0.348-0.322-0.715-0.584-0.816-0.584c-0.101,0-0.517-0.31-0.923-0.679c-0.405-0.371-1.011-0.813-1.346-0.989
			c-0.334-0.181-0.921-0.604-1.306-0.953c-0.384-0.353-0.783-0.578-0.891-0.517c-0.105,0.063-0.193,0.031-0.193-0.078
			c0-0.104-0.55-0.604-1.221-1.104l-1.221-0.911l0.695-0.188c0.66-0.18,1.172-0.244,4.437-0.562
			c4.541-0.441,11.792-0.425,16.369,0.043c0.771,0.077,1.719,0.172,2.104,0.207c0.385,0.034,0.983,0.141,1.332,0.229
			c0.543,0.146,0.594,0.229,0.362,0.598c-0.147,0.231-0.326,0.41-0.396,0.388c-0.203-0.065-2.352,1.533-2.352,1.75
			c0,0.106-0.16,0.194-0.357,0.194c-0.195,0-0.418,0.156-0.49,0.351c-0.072,0.19-0.21,0.301-0.305,0.244
			c-0.093-0.06-0.509,0.205-0.925,0.586c-0.416,0.379-0.851,0.688-0.966,0.688c-0.111,0-0.291,0.133-0.396,0.293
			c-0.104,0.162-0.467,0.438-0.812,0.608c-0.342,0.181-0.95,0.623-1.354,0.994c-0.401,0.369-0.84,0.672-0.965,0.672
			s-0.287,0.158-0.356,0.354c-0.074,0.189-0.246,0.354-0.384,0.354c-0.135,0-0.567,0.244-0.969,0.541
			c-0.396,0.299-0.841,0.611-0.979,0.695C99.541,158.653,98.817,158.355,98.076,157.909L98.076,157.909z"/>
		<path id="path4242" inkscape:connector-curvature="0" fill="#666666" d="M70.819,147.907c-0.251-0.41-0.457-0.879-0.457-1.039
			c0-0.162-0.106-0.293-0.235-0.293s-0.207-0.08-0.174-0.181c0.081-0.254-0.814-2.239-1.104-2.446
			c-0.132-0.095-0.167-0.175-0.077-0.177c0.201-0.004-0.49-1.709-0.762-1.881c-0.107-0.065-0.11-0.265-0.006-0.433
			c0.148-0.237,0.444-0.178,1.391,0.306c0.661,0.336,1.203,0.524,1.205,0.431c0.002-0.099,0.081-0.068,0.175,0.067
			c0.229,0.33,5.235,3.043,5.478,2.969c0.104-0.032,0.189,0.048,0.189,0.175c0,0.129,0.158,0.233,0.352,0.233
			c0.192,0,0.351,0.104,0.351,0.229s0.149,0.229,0.331,0.229c0.183,0,0.367,0.082,0.41,0.188c0.041,0.104,0.42,0.424,0.838,0.717
			c0.928,0.652,0.953,0.853,0.117,0.873c-0.354,0.015-1.274,0.101-2.047,0.19C71.088,148.766,71.347,148.771,70.819,147.907
			L70.819,147.907z"/>
		<path id="path4246" inkscape:connector-curvature="0" fill="#666666" d="M53.515,116.687c-0.573-0.633-1.043-1.19-1.044-1.239
			c-0.006-0.229-1.619-2.313-1.793-2.313c-0.106,0-0.193-0.102-0.193-0.227c0-0.32-1.453-2.346-1.682-2.346
			c-0.104,0-0.189-0.152-0.189-0.34c0-0.188-0.184-0.441-0.408-0.566c-0.226-0.127-0.357-0.264-0.295-0.305
			c0.168-0.109-1.441-2.297-1.688-2.297c-0.115,0-0.147-0.104-0.074-0.223c0.074-0.121-0.077-0.361-0.335-0.549
			c-0.258-0.184-0.403-0.396-0.321-0.479s-0.012-0.211-0.21-0.287c-0.299-0.112-0.265-0.235,0.203-0.741
			c0.31-0.334,0.521-0.648,0.468-0.699c-0.052-0.053,0.206-0.422,0.571-0.822c0.365-0.399,0.61-0.812,0.545-0.922
			c-0.065-0.107-0.005-0.192,0.136-0.192s0.319-0.17,0.398-0.377c0.08-0.207,0.393-0.644,0.693-0.97
			c0.303-0.325,0.551-0.678,0.551-0.78c0-0.104,0.263-0.472,0.584-0.818c0.322-0.348,0.585-0.715,0.585-0.816
			c0-0.101,0.303-0.518,0.673-0.922c0.37-0.405,0.816-1.012,0.994-1.346c0.177-0.334,0.605-0.922,0.953-1.305
			c0.348-0.383,0.607-0.758,0.576-0.832c-0.03-0.074,0.276-0.484,0.681-0.91l0.735-0.775l0.174,1.478
			c0.097,0.813,0.215,1.896,0.263,2.412c0.048,0.514,0.144,1.514,0.21,2.221c0.411,4.354,0.415,9.666,0.01,14.266
			c-0.074,0.836-0.181,2.104-0.238,2.82c-0.058,0.717-0.19,1.536-0.297,1.821C54.566,117.812,54.51,117.785,53.515,116.687
			L53.515,116.687z"/>
		<path id="path4250" inkscape:connector-curvature="0" fill="#666666" d="M56.229,85.1c-0.063-0.104-0.177-0.861-0.25-1.687
			c-0.074-0.824-0.19-1.971-0.257-2.549c-0.067-0.58-0.111-1.457-0.098-1.951c0.015-0.494-0.084-1.033-0.222-1.197
			c-0.288-0.346-0.179-0.448,1.454-1.381c0.611-0.35,1.111-0.576,1.111-0.504c0,0.072,0.447-0.104,0.994-0.389
			c0.545-0.287,1.045-0.529,1.11-0.541c0.435-0.078,1.871-0.705,1.871-0.816c0-0.076,0.21-0.151,0.468-0.172
			c0.586-0.045,0.586-0.049-0.105,1.318c-0.316,0.623-0.51,1.197-0.43,1.276c0.08,0.08,0.018,0.146-0.141,0.146
			c-0.159,0-0.227,0.096-0.154,0.213c0.073,0.117,0.045,0.25-0.063,0.293s-0.708,1.025-1.333,2.182
			c-0.625,1.158-1.484,2.652-1.91,3.322c-0.425,0.668-0.771,1.326-0.771,1.461c0,0.136-0.105,0.246-0.234,0.246
			s-0.234,0.146-0.234,0.324C57.032,85.071,56.405,85.383,56.229,85.1L56.229,85.1z"/>
		<path id="path4252" inkscape:connector-curvature="0" fill="#999999" d="M55.056,72.856c-0.253-2.576-0.83-10.552-0.83-11.459
			V60.52h1.151c1.431,0,12.469,0.916,12.598,1.045c0.129,0.129-2.426,6.086-3.135,7.309c-0.771,1.332-2.084,2.183-6.104,3.949
			c-1.869,0.822-3.43,1.494-3.468,1.494S55.135,73.66,55.056,72.856L55.056,72.856z"/>
	</g>
	<g id="layer1_1_" transform="translate(0,-5.9998782)" inkscape:label="Layer 1" inkscape:groupmode="layer" display="inline">
		<g id="g4144_1_" transform="translate(-2.8147384,383.66327)">
			
				<path id="path3336_1_" sodipodi:arg2="1.5542961" sodipodi:arg1="0.5070985" sodipodi:r2="44.12413" sodipodi:r1="88.24826" sodipodi:cy="292.36218" sodipodi:cx="340" sodipodi:sides="3" sodipodi:type="star" inkscape:transform-center-y="-21.809337" inkscape:transform-center-x="-0.21068722" inkscape:rounded="0.15" inkscape:randomized="0" inkscape:flatsided="false" fill="none" stroke="#000000" stroke-width="2" d="
				M178.457-236.85c-5.698,9.946-64.961,0.221-76.424,0.26c-11.464,0.039-70.659,10.168-76.425,0.261
				c-5.767-9.908,32.288-56.367,37.987-66.312c5.697-9.947,26.522-66.277,37.986-66.316c11.463-0.039,32.672,56.146,38.438,66.056
				C145.787-292.999,184.157-246.798,178.457-236.85z"/>
			
				<path id="path4138_1_" sodipodi:arg2="1.5542961" sodipodi:arg1="0.5070985" sodipodi:r2="44.12413" sodipodi:r1="88.24826" sodipodi:cy="292.36218" sodipodi:cx="340" sodipodi:sides="3" sodipodi:type="star" inkscape:transform-center-y="0.21068768" inkscape:transform-center-x="-21.809334" inkscape:rounded="0.15" inkscape:randomized="0" inkscape:flatsided="false" fill="none" stroke="#000000" stroke-width="2" d="
				M60-202.02c-9.947-5.697-0.221-64.961-0.26-76.424c-0.039-11.465-10.168-70.66-0.26-76.427
				c9.908-5.766,56.369,32.289,66.315,37.988c9.947,5.697,66.277,26.523,66.316,37.986c0.033,11.465-56.147,32.672-66.061,38.438
				C116.147-234.693,69.949-196.322,60-202.02L60-202.02z"/>
			
				<path id="path4140_1_" sodipodi:arg2="1.5542961" sodipodi:arg1="0.5070985" sodipodi:r2="44.12413" sodipodi:r1="88.24826" sodipodi:cy="292.36218" sodipodi:cx="340" sodipodi:sides="3" sodipodi:type="star" inkscape:transform-center-y="21.809337" inkscape:transform-center-x="0.21068938" inkscape:rounded="0.15" inkscape:randomized="0" inkscape:flatsided="false" fill="none" stroke="#000000" stroke-width="2" d="
				M25.169-320.477c5.698-9.947,64.961-0.221,76.425-0.26c11.465-0.039,70.659-10.168,76.426-0.261
				c5.766,9.908-32.289,56.367-37.986,66.314c-5.694,9.946-26.521,66.276-37.983,66.315s-32.672-56.146-38.438-66.06
				C57.842-264.333,19.471-310.53,25.169-320.477L25.169-320.477z"/>
			
				<path id="path4142_1_" sodipodi:arg2="1.5542961" sodipodi:arg1="0.5070985" sodipodi:r2="44.12413" sodipodi:r1="88.24826" sodipodi:cy="292.36218" sodipodi:cx="340" sodipodi:sides="3" sodipodi:type="star" inkscape:transform-center-y="-0.21068638" inkscape:transform-center-x="21.809337" inkscape:rounded="0.15" inkscape:randomized="0" inkscape:flatsided="false" fill="none" stroke="#000000" stroke-width="2" d="
				M143.625-355.307c9.949,5.697,0.223,64.961,0.262,76.424c0.039,11.466,10.17,70.66,0.262,76.427
				c-9.908,5.771-56.369-32.289-66.316-37.988c-9.947-5.692-66.277-26.521-66.316-37.981c-0.039-11.465,56.147-32.672,66.057-38.438
				C87.481-322.636,133.68-361.007,143.625-355.307L143.625-355.307z"/>
		</g>
		<path id="path4150_1_" inkscape:connector-curvature="0" fill="#808080" d="M60.616,58.364l-6.886-0.521l0.249-11.051
			c0.258-11.449,0.69-14.035,2.707-16.199c1.849-1.983,5.785-1.149,14.086,2.984c3.881,1.935,7.302,3.814,7.603,4.182
			c0.391,0.476-0.353,2.572-2.602,7.351c-1.73,3.678-3.878,8.32-4.771,10.315c-1.166,2.607-1.887,3.605-2.562,3.545
			C67.924,58.922,64.403,58.649,60.616,58.364L60.616,58.364z"/>
		<path id="path4152_1_" inkscape:connector-curvature="0" fill="#808080" d="M91.271,43.076c-3.728-2.561-7.224-4.934-7.771-5.271
			c-0.938-0.584-0.879-0.834,1.104-4.557c5.542-10.402,11.099-17.065,14.232-17.065c2.115,0,4.975,2.588,8.447,7.643
			c3.092,4.5,7.861,12.682,7.564,12.979C113.95,37.7,99.474,47.445,98.85,47.57C98.409,47.659,94.998,45.637,91.271,43.076z"/>
		<path id="path4154_1_" inkscape:connector-curvature="0" fill="#808080" d="M127.049,55.778
			c-0.705-1.588-2.885-6.256-4.846-10.373l-3.562-7.486l1.229-0.946c2.092-1.621,12.883-6.826,15.547-7.503
			c6.553-1.659,8.438,2.688,8.443,19.468l0.008,8.371l-2.549,0.315c-1.396,0.174-4.896,0.479-7.769,0.678l-5.221,0.363
			L127.049,55.778L127.049,55.778z"/>
		<path id="path4156_1_" inkscape:connector-curvature="0" fill="#808080" d="M156.18,80.549c-4.871-2.309-9.396-4.371-10.059-4.58
			c-1.128-0.356-1.186-0.596-0.885-3.69c0.178-1.82,0.479-5.359,0.682-7.865l0.357-4.555l7.979-0.15
			c8.992-0.166,16.288,0.799,18.515,2.451c1.854,1.379,2.043,4.201,0.56,8.375c-1.429,4.012-7.002,14.248-7.75,14.227
			C165.277,84.752,161.049,82.858,156.18,80.549L156.18,80.549z"/>
		<path id="path4158_1_" inkscape:connector-curvature="0" fill="#808080" d="M162.079,113.631
			c-2.797-4.119-5.313-7.812-5.593-8.219c-0.368-0.529,0.955-2.912,4.82-8.674c2.932-4.369,5.379-8.031,5.438-8.139
			c0.166-0.302,6.89,3.506,11.822,6.694c6.06,3.914,9.238,7.154,9.238,9.404c0,1.422-0.604,2.322-3.354,4.996
			s-10.821,8.086-16.221,10.865C167.268,121.064,166.676,120.401,162.079,113.631L162.079,113.631z"/>
		<path id="path4160_1_" inkscape:connector-curvature="0" fill="#808080" d="M147.814,149.825
			c-1.271-0.295-1.504-1.427-2.107-10.39l-0.346-5.09l10.486-4.901l10.481-4.902l1.354,2.306c2.479,4.237,6.09,11.769,6.674,13.935
			c1.324,4.896,0.229,6.644-5.047,8.021C166.148,149.621,150.234,150.383,147.814,149.825L147.814,149.825z"/>
		<path id="path4162_1_" inkscape:connector-curvature="0" fill="#808080" d="M135.291,179.928
			c-3.488-1.033-6.076-2.213-11.557-5.262l-4.857-2.701l4.857-10.43l4.854-10.43l5.096,0.338c2.799,0.186,6.387,0.486,7.971,0.666
			l2.883,0.328l-0.276,10.246c-0.274,10.168-0.928,14.223-2.653,16.543C140.656,180.5,138.157,180.778,135.291,179.928
			L135.291,179.928z"/>
		<path id="path4164_1_" inkscape:connector-curvature="0" fill="#808080" d="M96.877,193.053c-1.82-1.105-5.121-5.033-7.912-9.404
			c-2.906-4.557-5.754-9.887-5.565-10.42c0.099-0.277,3.711-2.926,8.028-5.871l7.851-5.359l8.09,5.434l8.091,5.432l-2.481,4.594
			c-4.47,8.271-9.078,14.346-12.049,15.883C99.034,194.307,98.922,194.299,96.877,193.053L96.877,193.053z"/>
		<path id="path4166_1_" inkscape:connector-curvature="0" fill="#808080" d="M56.722,179.338c-0.49-0.748-1.216-2.734-1.611-4.42
			c-0.879-3.736-1.565-16.668-1.062-20.021l0.367-2.438l5.203-0.354c2.862-0.192,6.324-0.5,7.693-0.678
			c2.281-0.293,2.523-0.214,2.887,0.946c0.219,0.697,2.398,5.437,4.846,10.522l4.449,9.261l-2.021,1.272
			c-2.98,1.883-10.273,5.532-12.904,6.463c-1.261,0.442-3.342,0.812-4.625,0.812c-1.905,0-2.495-0.248-3.223-1.356L56.722,179.338
			L56.722,179.338z"/>
		<path id="path4168_1_" inkscape:connector-curvature="0" fill="#808080" d="M29.666,149.418c-3.646-0.785-5.713-2.059-6.146-3.789
			c-0.512-2.037,1.182-6.998,4.675-13.693c1.769-3.391,3.39-6.346,3.604-6.562c0.216-0.227,4.77,1.646,10.119,4.148
			c5.351,2.512,10.013,4.561,10.36,4.561c0.625,0,0.396,8.043-0.396,13.803l-0.313,2.275l-9.451-0.045
			C36.922,150.084,31.317,149.773,29.666,149.418z"/>
		<path id="path4170_1_" inkscape:connector-curvature="0" fill="#808080" d="M27.043,119.284
			c-11.127-6.133-17.148-11.177-17.148-14.363c0-1.381,4.667-6.065,8.842-8.881c4.115-2.772,12.016-7.219,12.271-6.906
			c0.09,0.109,1.688,2.488,3.551,5.289c1.863,2.8,4.316,6.354,5.451,7.898l2.063,2.807l-5.38,8.046
			c-2.959,4.424-5.558,8.04-5.772,8.036C30.703,121.207,28.959,120.34,27.043,119.284L27.043,119.284z"/>
		<path id="path4172_1_" inkscape:connector-curvature="0" fill="#B3B3B3" d="M29.075,80.889
			c-4.108-7.196-5.387-10.479-5.454-13.993c-0.055-2.767,0.101-3.269,1.278-4.156c2.312-1.742,8.112-2.594,17.745-2.604l8.902-0.01
			l0.371,5.762c0.205,3.168,0.5,6.605,0.657,7.64l0.286,1.879l-10.363,4.961c-5.701,2.729-10.484,4.957-10.632,4.951
			C31.717,85.313,30.463,83.321,29.075,80.889L29.075,80.889z"/>
		<path id="path4174_1_" inkscape:connector-curvature="0" fill="#B3B3B3" d="M39.758,97.532c-5.703-8.23-6.487-9.553-5.969-10.062
			c0.645-0.629,19.016-9.272,19.211-9.038c0.082,0.1,0.371,2.401,0.64,5.114l0.487,4.937L49.2,95.325
			c-2.71,3.762-5.165,6.92-5.458,7.018C43.45,102.438,41.657,100.274,39.758,97.532L39.758,97.532z"/>
		<path id="path4176_1_" inkscape:connector-curvature="0" fill="#B3B3B3" d="M46.33,128.778c-3.683-1.693-8.082-3.791-9.779-4.66
			l-3.086-1.582l4.942-7.356c2.718-4.05,5.083-7.354,5.255-7.354s2.629,3.211,5.461,7.137l5.146,7.142l-0.525,4.779
			c-0.289,2.635-0.57,4.827-0.623,4.885C53.066,131.81,50.01,130.469,46.33,128.778z"/>
		<path id="path4178_1_" inkscape:connector-curvature="0" fill="#B3B3B3" d="M54.647,144.607c0.212-3.108,0.538-6.354,0.726-7.211
			l0.34-1.555l4.371,1.891l4.373,1.892l1.924,4.433c1.06,2.438,1.926,4.539,1.926,4.67c0,0.138-2.713,0.403-6.029,0.604
			c-3.316,0.199-6.477,0.492-7.021,0.647C54.316,150.246,54.283,149.951,54.647,144.607L54.647,144.607z"/>
		<path id="path4180_1_" inkscape:connector-curvature="0" fill="#B3B3B3" d="M80.52,168.241c-0.663-1.254-2.807-5.654-4.762-9.781
			l-3.556-7.502l5.152-0.535l5.151-0.536l7.102,5.06c3.905,2.774,7.1,5.219,7.1,5.424c0,0.377-14.135,10.149-14.682,10.149
			C81.86,170.517,81.183,169.493,80.52,168.241z"/>
		<path id="path4182_1_" inkscape:connector-curvature="0" fill="#B3B3B3" d="M108.875,165.385
			c-3.744-2.521-6.809-4.807-6.809-5.062s3.175-2.771,7.057-5.574c4.908-3.551,7.395-5.032,8.172-4.873
			c0.613,0.125,2.754,0.382,4.756,0.568c3.424,0.315,3.617,0.405,3.276,1.5c-0.903,2.896-8.485,18.043-9.032,18.043
			C115.959,169.982,112.619,167.914,108.875,165.385L108.875,165.385z"/>
		<path id="path4184_1_" inkscape:connector-curvature="0" fill="#B3B3B3" d="M134.596,149.069c-2.299-0.22-4.305-0.521-4.453-0.673
			c-0.146-0.15,0.523-2.146,1.5-4.438l1.773-4.166l4.484-2.078c2.468-1.145,4.594-1.973,4.727-1.84
			c0.273,0.272,1.203,9.371,1.225,12.002c0.02,1.731,0.002,1.74-2.531,1.666C139.92,149.502,136.895,149.289,134.596,149.069
			L134.596,149.069L134.596,149.069z"/>
		<path id="path4186_1_" inkscape:connector-curvature="0" fill="#B3B3B3" d="M144.748,129.409c-0.16-1.117-0.434-3.354-0.605-4.978
			l-0.312-2.946l5.272-7.314l5.273-7.313l4.844,7.052c2.66,3.875,5.021,7.354,5.233,7.729c0.28,0.494-2.073,1.873-8.354,4.894
			C144.596,132.047,145.107,131.918,144.748,129.409L144.748,129.409z"/>
		<path id="path4188_1_" inkscape:connector-curvature="0" fill="#B3B3B3" d="M149.032,95.237l-5.226-7.228l0.366-4.58
			c0.205-2.518,0.578-4.704,0.83-4.86c0.578-0.357,19.226,8.334,19.226,8.961c0,0.408-8.648,13.504-9.604,14.529
			C154.426,102.282,151.907,99.211,149.032,95.237z"/>
		<path id="path4190_1_" inkscape:connector-curvature="0" fill="#B3B3B3" d="M137.545,72.143l-3.91-1.826l-2.033-4.426
			l-2.035-4.427l1.554-0.34c0.853-0.188,4.081-0.512,7.172-0.723l5.624-0.385l-0.27,1.26c-0.146,0.69-0.422,3.852-0.606,7.02
			c-0.229,3.838-0.558,5.746-0.97,5.717C141.732,73.991,139.693,73.149,137.545,72.143L137.545,72.143z"/>
		<path id="path4192_1_" inkscape:connector-curvature="0" fill="#B3B3B3" d="M108.467,55.157c-3.699-2.721-6.834-5.166-6.965-5.438
			c-0.132-0.27,3.135-2.78,7.258-5.582l7.498-5.09l4.666,9.604c2.566,5.278,4.68,9.754,4.694,9.94
			c0.028,0.354-2.405,0.756-7.474,1.234l-2.947,0.277L108.467,55.157z"/>
		<path id="path4194_1_" inkscape:connector-curvature="0" fill="#B3B3B3" d="M75.715,59.641c-1.672-0.181-3.148-0.445-3.283-0.591
			c-0.278-0.303,7.947-18.18,8.72-18.953c0.317-0.317,3.106,1.238,7.494,4.183c3.843,2.578,7.112,4.891,7.265,5.137
			c0.152,0.248-2.891,2.758-6.763,5.58C81.59,60.502,82.099,60.326,75.715,59.641z"/>
		<path id="path4196_1_" inkscape:connector-curvature="0" fill="#666666" d="M54.523,67.469c-0.294-3.893-0.508-7.104-0.477-7.139
			c0.107-0.119,13.989,0.975,14.139,1.113c0.081,0.076-0.748,2.123-1.842,4.551c-2.155,4.785-1.646,4.371-9.618,7.828l-1.667,0.723
			L54.523,67.469L54.523,67.469z"/>
		<path id="path4198_1_" inkscape:connector-curvature="0" fill="#666666" d="M29.403,80.998c-1.151-2.047-2.289-3.723-2.526-3.725
			c-0.24,0-0.297-0.224-0.129-0.492c0.166-0.271-0.049-0.846-0.479-1.277c-0.431-0.43-0.634-0.932-0.452-1.114
			c0.184-0.183,0.102-0.33-0.18-0.33c-0.28,0-0.549-0.521-0.598-1.158c-0.049-0.638-0.281-1.301-0.517-1.476
			c-0.235-0.174-0.511-1.887-0.61-3.807c-0.148-2.877-0.005-3.652,0.819-4.398c1.415-1.278,6.763-2.561,10.696-2.561
			c1.836,0,3.488-0.24,3.67-0.535c0.38-0.615,3.974-0.692,8.773-0.19c3.809,0.397,3.766,0.328,4.088,6.651
			c0.112,2.193,0.278,5.058,0.371,6.361l0.166,2.373l-6.699,3.225c-3.685,1.773-6.779,3.42-6.879,3.66
			c-0.099,0.238-0.399,0.297-0.67,0.131c-0.27-0.166-0.49-0.033-0.49,0.297c0,0.328-0.221,0.461-0.492,0.293
			c-0.271-0.166-0.846,0.05-1.276,0.48c-0.431,0.43-0.933,0.633-1.114,0.451c-0.184-0.185-0.332-0.111-0.334,0.158
			c0,0.271-0.687,0.539-1.523,0.598C31.657,84.709,31.276,84.326,29.403,80.998L29.403,80.998z"/>
		<path id="path4200_1_" inkscape:connector-curvature="0" fill="#666666" d="M29.424,80.623c-3.367-5.615-4.703-8.699-5.129-11.84
			c-0.75-5.527,0.631-6.578,10.451-7.959c6.666-0.938,6.793-0.945,11.426-0.803c2.636,0.082,3.578,0.354,4.556,1.309
			c1.149,1.125,1.233,1.637,1.233,7.543v6.338l-6.967,3.506c-3.832,1.929-7.878,3.959-8.992,4.515
			C32.562,84.946,31.844,84.66,29.424,80.623L29.424,80.623z"/>
		<path id="path4202_1_" inkscape:connector-curvature="0" fill="#666666" d="M29.049,80.086c-3.129-5.209-4.424-8.276-4.858-11.516
			c-0.661-4.916,0.916-6.318,8.296-7.375c2.164-0.312,5.38-0.805,7.148-1.1c4.182-0.693,10.104,0.014,11.386,1.358
			c0.741,0.779,0.901,1.709,0.76,4.385c-0.099,1.867,0.025,3.396,0.274,3.396c0.25,0,0.33,1.354,0.18,3.012l-0.273,3.012
			l-8.843,4.472c-4.862,2.459-9.458,4.479-10.209,4.49C31.769,84.237,31.131,83.553,29.049,80.086L29.049,80.086z"/>
		<path id="path4204_1_" inkscape:connector-curvature="0" fill="#CCCCCC" d="M55.75,81.448c-0.235-2.381-0.386-4.365-0.334-4.41
			c0.226-0.197,7.545-3.416,7.613-3.35c0.207,0.207-3.593,7.442-5.042,9.604c-0.917,1.367-1.698,2.484-1.737,2.484
			C56.209,85.776,55.984,83.828,55.75,81.448z"/>
		<path id="path4206_1_" inkscape:connector-curvature="0" fill="#CCCCCC" d="M49.822,111.868c-2.594-3.545-4.716-6.51-4.716-6.586
			c0-0.211,9.401-13.223,9.491-13.133c0.259,0.26,1.103,9.994,1.119,12.918c0.019,3.383-0.682,12.303-1.016,12.938
			C54.596,118.207,52.885,116.055,49.822,111.868L49.822,111.868z"/>
		<path id="path4208_1_" inkscape:connector-curvature="0" fill="#CCCCCC" d="M59.254,134.748c-1.801-0.82-3.373-1.527-3.492-1.57
			c-0.209-0.072,0.218-6.084,0.547-7.695c0.148-0.729,0.182-0.689,1.936,1.938c2.271,3.402,5.059,8.914,4.475,8.853
			C62.613,136.252,61.055,135.571,59.254,134.748L59.254,134.748z"/>
		<path id="path4210_1_" inkscape:connector-curvature="0" fill="#CCCCCC" d="M70.612,147.685c-0.237-0.547-1.016-2.282-1.728-3.858
			c-0.711-1.574-1.209-2.863-1.104-2.863c0.545,0,8.349,4.173,10.033,5.363l1.958,1.387l-0.788,0.13
			c-1.005,0.166-7.076,0.838-7.565,0.838C71.205,148.68,70.86,148.254,70.612,147.685z"/>
		<path id="path4212_1_" inkscape:connector-curvature="0" fill="#CCCCCC" d="M94.213,155.323c-8.186-5.888-8.026-5.765-7.682-5.947
			c0.699-0.368,8.954-1.039,12.827-1.043c5.151-0.002,13.272,0.744,12.817,1.179c-0.317,0.31-11.614,8.573-12.457,9.118
			C99.281,158.912,98.813,158.631,94.213,155.323z"/>
		<path id="path4214_1_" inkscape:connector-curvature="0" fill="#CCCCCC" d="M122.201,148.028c-2.744-0.281-3.4-0.414-3.156-0.642
			c1.008-0.938,5.145-3.451,7.932-4.824c1.785-0.881,3.291-1.604,3.342-1.604c0.055,0-0.649,1.688-1.563,3.74
			c-1.638,3.687-1.675,3.741-2.375,3.709C125.984,148.394,124.105,148.221,122.201,148.028L122.201,148.028z"/>
		<path id="path4216_1_" inkscape:connector-curvature="0" fill="#CCCCCC" d="M135.7,134.59c1.521-3.334,2.558-5.238,4.198-7.713
			c0.916-1.383,1.729-2.514,1.801-2.516c0.154-0.002,1.025,8.389,0.885,8.529c-0.16,0.154-7.281,3.395-7.477,3.395
			C135.01,136.285,135.275,135.521,135.7,134.59z"/>
		<path id="path4218_1_" inkscape:connector-curvature="0" fill="#CCCCCC" d="M143.227,116.932c-0.578-4.627-0.91-8.896-0.93-11.979
			c-0.023-3.465,0.686-12.795,1-13.146c0.115-0.132,8.623,11.217,9.455,12.61c0.174,0.293-2.636,4.396-8.406,12.281l-0.979,1.342
			L143.227,116.932L143.227,116.932z"/>
		<path id="path4220_1_" inkscape:connector-curvature="0" fill="#CCCCCC" d="M139.825,82.727c-1.421-2.093-5.021-8.845-4.827-9.05
			c0.082-0.086,7.012,2.992,7.248,3.22c0.195,0.19-0.173,5.424-0.531,7.524l-0.148,0.869L139.825,82.727L139.825,82.727z"/>
		<path id="path4222_1_" inkscape:connector-curvature="0" fill="#CCCCCC" d="M126.602,67.33c-2.812-1.367-8.479-4.838-8.26-5.061
			c0.041-0.041,1.654-0.242,3.582-0.445c1.93-0.203,3.834-0.424,4.233-0.49l0.726-0.121l1.672,3.707
			c0.918,2.039,1.67,3.777,1.67,3.863C130.227,69.063,129.91,68.938,126.602,67.33L126.602,67.33z"/>
		<path id="path4224_1_" inkscape:connector-curvature="0" fill="#CCCCCC" d="M97.137,61.766c-2.514-0.146-10.098-0.83-10.834-0.978
			c-0.764-0.152-0.66-0.242,5.563-4.783c3.487-2.545,6.49-4.684,6.674-4.754c0.293-0.113,13.599,9.203,13.401,9.385
			c-0.102,0.093-9.938,1.002-11.998,1.111c-0.899,0.047-2.167,0.057-2.806,0.021V61.766L97.137,61.766z"/>
		<path id="path4226_1_" inkscape:connector-curvature="0" fill="#666666" d="M67.789,68.76c0-0.092,0.704-1.772,1.564-3.737
			l1.564-3.57l0.715,0.113c0.395,0.063,1.927,0.225,3.406,0.358c1.479,0.135,3.047,0.302,3.482,0.373l0.794,0.129l-2.431,1.634
			C73.854,66.098,67.789,69.231,67.789,68.76L67.789,68.76z"/>
		<path id="path4228_1_" inkscape:connector-curvature="0" fill="#666666" d="M96.91,61.737c-0.037-0.039-0.792-0.117-1.675-0.178
			c-1.792-0.119-3.769-0.281-5.698-0.468c-0.707-0.067-1.74-0.161-2.296-0.207c-0.555-0.047-1.062-0.137-1.126-0.198
			c-0.064-0.064,0.381-0.523,0.988-1.019s1.298-1.086,1.535-1.311c0.236-0.225,0.479-0.41,0.541-0.41
			c0.236,0,2.229-1.504,2.229-1.682c0-0.104,0.161-0.189,0.358-0.189c0.196,0,0.419-0.156,0.493-0.35
			c0.074-0.194,0.266-0.353,0.426-0.353c0.161,0,0.576-0.262,0.922-0.584c0.348-0.321,0.727-0.584,0.841-0.584
			c0.116,0,0.294-0.133,0.397-0.293c0.103-0.162,0.467-0.438,0.809-0.612c0.342-0.176,0.973-0.642,1.403-1.033
			c0.43-0.394,0.78-0.689,0.78-0.658c0,0.029,0.189-0.018,0.42-0.105c0.298-0.114,1.183,0.347,3.041,1.584
			c1.44,0.959,2.673,1.742,2.736,1.738c0.063-0.002,0.422,0.277,0.795,0.623c0.373,0.346,0.81,0.627,0.969,0.627
			c0.16,0,0.353,0.158,0.427,0.353c0.073,0.192,0.295,0.352,0.491,0.352c0.197,0,0.358,0.104,0.358,0.232
			c0,0.129,0.158,0.233,0.352,0.233c0.192,0,0.352,0.109,0.352,0.242c0,0.131,0.188,0.311,0.41,0.396
			c0.229,0.086,0.67,0.397,0.99,0.692c0.319,0.297,0.67,0.539,0.776,0.539s0.342,0.131,0.521,0.293
			c0.184,0.16,0.498,0.437,0.705,0.611c0.562,0.473,0.146,0.719-1.427,0.85c-0.767,0.063-1.918,0.166-2.562,0.23
			c-0.646,0.063-1.748,0.164-2.455,0.219c-0.707,0.057-1.918,0.156-2.688,0.223C100.156,61.703,96.996,61.823,96.91,61.737
			L96.91,61.737z"/>
		<path id="path4230_1_" inkscape:connector-curvature="0" fill="#666666" d="M128.18,68.014c-0.805-0.381-1.463-0.641-1.463-0.575
			c0,0.064-0.131,0.004-0.291-0.138c-0.416-0.358-4.609-2.778-5.379-3.104c-0.354-0.15-0.643-0.354-0.643-0.455
			c0-0.1-0.158-0.182-0.354-0.182s-0.352-0.105-0.352-0.234s-0.112-0.234-0.25-0.234c-0.403,0-0.954-0.651-0.688-0.815
			c0.131-0.08,0.734-0.188,1.348-0.238c1.402-0.119,3.854-0.397,5.963-0.678c0.777-0.104,0.894-0.053,1.021,0.457
			c0.08,0.315,0.238,0.573,0.354,0.573c0.117,0,0.188,0.08,0.16,0.177c-0.08,0.293,0.601,1.93,0.797,1.93
			c0.104,0,0.16,0.08,0.127,0.18c-0.059,0.185,0.769,2.181,0.988,2.394c0.066,0.063,0.162,0.272,0.209,0.467
			c0.047,0.195,0.143,0.535,0.203,0.76C130.086,68.85,129.877,68.817,128.18,68.014L128.18,68.014z"/>
		<path id="path4232_1_" inkscape:connector-curvature="0" fill="#666666" d="M140.991,84.391c-0.134-0.248-0.373-0.595-0.534-0.771
			c-0.352-0.381-0.361-0.4-3.141-5.379c-1.2-2.15-2.187-4.012-2.187-4.137s0.212-0.211,0.472-0.191
			c0.258,0.021,0.469,0.105,0.469,0.193c0,0.166,1.158,0.549,1.462,0.481c0.097-0.021,0.177,0.066,0.177,0.195
			s0.077,0.211,0.174,0.186c0.098-0.026,0.506,0.127,0.906,0.343c0.4,0.213,0.797,0.321,0.877,0.241s0.146-0.045,0.146,0.08
			c0,0.195,1.553,0.894,1.871,0.841c0.441-0.076,0.615,2.354,0.35,4.856c-0.146,1.346-0.317,3.033-0.338,3.332
			C141.672,85.006,141.229,84.834,140.991,84.391L140.991,84.391z"/>
		<path id="path4234_1_" inkscape:connector-curvature="0" fill="#666666" d="M143.309,117.67c-0.021-0.396-0.191-2.082-0.334-3.248
			c-0.135-1.131-0.246-2.418-0.467-5.379c-0.322-4.334,0.221-15.651,0.801-16.688c0.135-0.242,0.543,0.145,1.529,1.457
			c0.739,0.981,1.438,1.784,1.551,1.784s0.205,0.162,0.205,0.359c0,0.197,0.158,0.418,0.354,0.492
			c0.192,0.074,0.353,0.24,0.353,0.369c0,0.254,1.406,2.123,1.693,2.248c0.098,0.043,0.176,0.229,0.176,0.418
			c0,0.186,0.158,0.397,0.354,0.473c0.193,0.076,0.354,0.256,0.354,0.402s0.313,0.635,0.698,1.086
			c0.383,0.449,0.803,0.944,0.932,1.1c0.133,0.156,0.236,0.367,0.236,0.471s0.252,0.459,0.562,0.791l0.562,0.604l-1.587,2.377
			c-0.87,1.306-1.549,2.375-1.506,2.375s-0.185,0.276-0.496,0.617c-0.312,0.342-0.571,0.704-0.571,0.807
			c0,0.104-0.265,0.474-0.584,0.818c-0.321,0.348-0.586,0.772-0.586,0.946c0,0.177-0.104,0.313-0.239,0.313
			c-0.134,0-0.312,0.188-0.396,0.408s-0.396,0.672-0.69,0.987c-0.296,0.32-0.538,0.656-0.538,0.748c0,0.095-0.263,0.449-0.585,0.801
			c-0.317,0.347-0.584,0.716-0.584,0.814C144.488,116.7,143.322,117.924,143.309,117.67L143.309,117.67z"/>
		<path id="path4238_1_" inkscape:connector-curvature="0" fill="#666666" d="M124.783,148.305
			c-0.083-0.084-1.085-0.188-4.117-0.438c-1.531-0.127-1.646-0.438-0.465-1.25c0.562-0.393,1.203-0.871,1.43-1.074
			c0.225-0.199,0.412-0.287,0.416-0.188c0.004,0.098,0.137,0.02,0.293-0.178c0.158-0.189,0.422-0.381,0.588-0.412
			c0.166-0.033,1.219-0.576,2.338-1.209s2.482-1.322,3.029-1.541c0.545-0.221,0.994-0.471,0.994-0.557
			c0-0.088,0.211-0.176,0.467-0.193c0.383-0.023,0.428,0.045,0.242,0.393c-0.125,0.229-0.16,0.484-0.078,0.564
			c0.082,0.082,0.037,0.146-0.102,0.146c-0.232,0-0.652,1.08-0.568,1.461c0.021,0.1-0.047,0.176-0.148,0.176
			c-0.201,0-0.875,1.641-0.797,1.934c0.025,0.098-0.035,0.178-0.139,0.178s-0.316,0.354-0.477,0.795
			c-0.158,0.438-0.416,0.896-0.572,1.021C126.82,148.159,124.943,148.465,124.783,148.305L124.783,148.305z"/>
		<path id="path4240_1_" inkscape:connector-curvature="0" fill="#666666" d="M98.076,157.909c-0.74-0.445-1.382-0.812-1.424-0.812
			s-0.359-0.269-0.708-0.584c-0.347-0.321-0.715-0.586-0.817-0.586c-0.104,0-0.472-0.267-0.818-0.584
			c-0.348-0.322-0.715-0.584-0.816-0.584c-0.101,0-0.517-0.31-0.923-0.679c-0.405-0.371-1.011-0.813-1.346-0.989
			c-0.334-0.181-0.921-0.604-1.306-0.953c-0.384-0.353-0.783-0.578-0.891-0.517c-0.105,0.063-0.193,0.031-0.193-0.078
			c0-0.104-0.55-0.604-1.221-1.104l-1.221-0.911l0.695-0.188c0.66-0.18,1.172-0.244,4.437-0.562
			c4.541-0.441,11.792-0.425,16.369,0.043c0.771,0.077,1.719,0.172,2.104,0.207c0.385,0.034,0.983,0.141,1.332,0.229
			c0.543,0.146,0.594,0.229,0.362,0.598c-0.147,0.231-0.326,0.41-0.396,0.388c-0.203-0.065-2.352,1.533-2.352,1.75
			c0,0.106-0.16,0.194-0.357,0.194c-0.195,0-0.418,0.156-0.49,0.351c-0.072,0.19-0.21,0.301-0.305,0.244
			c-0.093-0.06-0.509,0.205-0.925,0.586c-0.416,0.379-0.851,0.688-0.966,0.688c-0.111,0-0.291,0.133-0.396,0.293
			c-0.104,0.162-0.467,0.438-0.812,0.608c-0.342,0.181-0.95,0.623-1.354,0.994c-0.401,0.369-0.84,0.672-0.965,0.672
			s-0.287,0.158-0.356,0.354c-0.074,0.189-0.246,0.354-0.384,0.354c-0.135,0-0.567,0.244-0.969,0.541
			c-0.396,0.299-0.841,0.611-0.979,0.695C99.541,158.653,98.817,158.355,98.076,157.909L98.076,157.909z"/>
		<path id="path4242_1_" inkscape:connector-curvature="0" fill="#666666" d="M70.819,147.907c-0.251-0.41-0.457-0.879-0.457-1.039
			c0-0.162-0.106-0.293-0.235-0.293s-0.207-0.08-0.174-0.181c0.081-0.254-0.814-2.239-1.104-2.446
			c-0.132-0.095-0.167-0.175-0.077-0.177c0.201-0.004-0.49-1.709-0.762-1.881c-0.107-0.065-0.11-0.265-0.006-0.433
			c0.148-0.237,0.444-0.178,1.391,0.306c0.661,0.336,1.203,0.524,1.205,0.431c0.002-0.099,0.081-0.068,0.175,0.067
			c0.229,0.33,5.235,3.043,5.478,2.969c0.104-0.032,0.189,0.048,0.189,0.175c0,0.129,0.158,0.233,0.352,0.233
			c0.192,0,0.351,0.104,0.351,0.229s0.149,0.229,0.331,0.229c0.183,0,0.367,0.082,0.41,0.188c0.041,0.104,0.42,0.424,0.838,0.717
			c0.928,0.652,0.953,0.853,0.117,0.873c-0.354,0.015-1.274,0.101-2.047,0.19C71.088,148.766,71.347,148.771,70.819,147.907
			L70.819,147.907z"/>
		<path id="path4246_1_" inkscape:connector-curvature="0" fill="#666666" d="M53.515,116.687c-0.573-0.633-1.043-1.19-1.044-1.239
			c-0.006-0.229-1.619-2.313-1.793-2.313c-0.106,0-0.193-0.102-0.193-0.227c0-0.32-1.453-2.346-1.682-2.346
			c-0.104,0-0.189-0.152-0.189-0.34c0-0.188-0.184-0.441-0.408-0.566c-0.226-0.127-0.357-0.264-0.295-0.305
			c0.168-0.109-1.441-2.297-1.688-2.297c-0.115,0-0.147-0.104-0.074-0.223c0.074-0.121-0.077-0.361-0.335-0.549
			c-0.258-0.184-0.403-0.396-0.321-0.479s-0.012-0.211-0.21-0.287c-0.299-0.112-0.265-0.235,0.203-0.741
			c0.31-0.334,0.521-0.648,0.468-0.699c-0.052-0.053,0.206-0.422,0.571-0.822c0.365-0.399,0.61-0.812,0.545-0.922
			c-0.065-0.107-0.005-0.192,0.136-0.192s0.319-0.17,0.398-0.377c0.08-0.207,0.393-0.644,0.693-0.97
			c0.303-0.325,0.551-0.678,0.551-0.78c0-0.104,0.263-0.472,0.584-0.818c0.322-0.348,0.585-0.715,0.585-0.816
			c0-0.101,0.303-0.518,0.673-0.922c0.37-0.405,0.816-1.012,0.994-1.346c0.177-0.334,0.605-0.922,0.953-1.305
			c0.348-0.383,0.607-0.758,0.576-0.832c-0.03-0.074,0.276-0.484,0.681-0.91l0.735-0.775l0.174,1.478
			c0.097,0.813,0.215,1.896,0.263,2.412c0.048,0.514,0.144,1.514,0.21,2.221c0.411,4.354,0.415,9.666,0.01,14.266
			c-0.074,0.836-0.181,2.104-0.238,2.82c-0.058,0.717-0.19,1.536-0.297,1.821C54.566,117.812,54.51,117.785,53.515,116.687
			L53.515,116.687z"/>
		<path id="path4250_1_" inkscape:connector-curvature="0" fill="#666666" d="M56.229,85.1c-0.063-0.104-0.177-0.861-0.25-1.687
			c-0.074-0.824-0.19-1.971-0.257-2.549c-0.067-0.58-0.111-1.457-0.098-1.951c0.015-0.494-0.084-1.033-0.222-1.197
			c-0.288-0.346-0.179-0.448,1.454-1.381c0.611-0.35,1.111-0.576,1.111-0.504c0,0.072,0.447-0.104,0.994-0.389
			c0.545-0.287,1.045-0.529,1.11-0.541c0.435-0.078,1.871-0.705,1.871-0.816c0-0.076,0.21-0.151,0.468-0.172
			c0.586-0.045,0.586-0.049-0.105,1.318c-0.316,0.623-0.51,1.197-0.43,1.276c0.08,0.08,0.018,0.146-0.141,0.146
			c-0.159,0-0.227,0.096-0.154,0.213c0.073,0.117,0.045,0.25-0.063,0.293s-0.708,1.025-1.333,2.182
			c-0.625,1.158-1.484,2.652-1.91,3.322c-0.425,0.668-0.771,1.326-0.771,1.461c0,0.136-0.105,0.246-0.234,0.246
			s-0.234,0.146-0.234,0.324C57.032,85.071,56.405,85.383,56.229,85.1L56.229,85.1z"/>
		<path id="path4252_1_" inkscape:connector-curvature="0" fill="#999999" d="M55.056,72.856c-0.253-2.576-0.83-10.552-0.83-11.459
			V60.52h1.151c1.431,0,12.469,0.916,12.598,1.045c0.129,0.129-2.426,6.086-3.135,7.309c-0.771,1.332-2.084,2.183-6.104,3.949
			c-1.869,0.822-3.43,1.494-3.468,1.494S55.135,73.66,55.056,72.856L55.056,72.856z"/>
	</g>
</g>
<g id="Layer_3">
</g>
<g id="Layer_2">
	<g id="g4144_2_" transform="translate(-2.8147384,383.66327)">
		<g id="XMLID_1_">
			<g>
				<g id="XMLID_2_">
					<g>
						<path fill="none" d="M75.87-310.424c0.185,3.198,0.482,6.536,0.801,9.733c-4.082,1.836-8.629,3.937-12.74,6.07
							c-3.747-5.975-6.289-11.271-5.04-13.457C60.308-310.547,67.61-310.849,75.87-310.424z"/>
						<path fill="none" d="M152.383-284.792c0.012,2.732-5.695,6.457-12.68,10.086c-2.076-3.311-4.521-6.822-6.896-10.125
							c2.317-3.276,4.699-6.749,6.714-10.019C146.58-291.255,152.371-287.542,152.383-284.792z"/>
						<path fill="none" d="M139.703-274.706c3.742,5.975,6.275,11.272,5.026,13.455c-1.413,2.471-8.719,2.773-16.975,2.348
							c-0.187-3.196-0.479-6.535-0.802-9.731C131.047-270.474,135.594-272.573,139.703-274.706z"/>
						<path fill="none" d="M144.492-308.368c1.266,2.179-1.248,7.504-4.971,13.518c-4.104-2.089-8.63-4.138-12.691-5.936
							c0.303-3.22,0.582-6.597,0.744-9.822C135.795-311.079,143.065-310.821,144.492-308.368z"/>
						<path fill="none" d="M132.811-284.831c2.375,3.303,4.816,6.814,6.895,10.125c-4.108,2.133-8.655,4.232-12.743,6.07
							c-0.246-2.464-0.513-4.844-0.755-7.014C128.024-278.185,130.385-281.4,132.811-284.831z"/>
						<path fill="none" d="M139.526-294.85c-2.016,3.27-4.396,6.742-6.715,10.019c-2.458-3.422-4.838-6.614-6.658-9.128
							c0.213-2.111,0.453-4.424,0.678-6.826C130.895-298.988,135.42-296.939,139.526-294.85z"/>
						<path fill="none" d="M132.811-284.831c-2.426,3.434-4.789,6.646-6.604,9.184c-0.459-4.146-0.828-7.51-0.834-9.137
							c-0.006-1.635,0.342-5.001,0.779-9.173C127.973-291.445,130.353-288.253,132.811-284.831z"/>
						<path fill="none" d="M127.76-258.904c0.471,8.22,0.213,15.486-2.24,16.918c-2.179,1.266-7.51-1.248-13.518-4.963
							c2.088-4.104,4.137-8.638,5.935-12.699C121.157-259.346,124.533-259.066,127.76-258.904z"/>
						<path fill="none" d="M125.228-327.582c2.47,1.412,2.772,8.719,2.347,16.974c-3.195,0.185-6.535,0.482-9.73,0.801
							c-1.837-4.082-3.938-8.629-6.07-12.74C117.746-326.294,123.045-328.831,125.228-327.582z"/>
						<path fill="none" d="M126.959-268.636c0.318,3.197,0.615,6.535,0.801,9.732c-3.227-0.162-6.604-0.442-9.823-0.744
							c0.991-2.248,1.909-4.348,2.712-6.161C122.494-266.643,124.653-267.601,126.959-268.636z"/>
						<path fill="none" d="M127.575-310.609c-0.162,3.226-0.438,6.603-0.744,9.823c-2.243-0.991-4.346-1.91-6.157-2.71
							c-0.834-1.848-1.791-4.004-2.828-6.312C121.039-310.127,124.377-310.424,127.575-310.609z"/>
						<path fill="none" d="M126.207-275.65c0.242,2.168,0.504,4.549,0.752,7.014c-2.309,1.036-4.465,1.993-6.312,2.827
							c1.092-2.458,1.977-4.39,2.57-5.425C123.761-272.181,124.825-273.722,126.207-275.65z"/>
						<path fill="none" d="M126.83-300.786c-0.228,2.402-0.465,4.715-0.678,6.826c-1.361-1.865-2.402-3.354-2.939-4.278
							c-0.588-1.014-1.463-2.878-2.543-5.258C122.485-302.695,124.584-301.777,126.83-300.786z"/>
						<path fill="none" d="M120.649-265.809c-0.803,1.812-1.721,3.913-2.712,6.161c-2.401-0.228-4.715-0.465-6.827-0.678
							c1.865-1.361,3.355-2.404,4.279-2.94C116.403-263.855,118.268-264.728,120.649-265.809z"/>
						<path fill="none" d="M117.842-309.808c1.037,2.307,1.994,4.463,2.828,6.312c-2.459-1.092-4.391-1.977-5.426-2.57
							c-0.947-0.543-2.48-1.607-4.414-2.99C112.992-309.299,115.373-309.561,117.842-309.808z"/>
						<path fill="none" d="M117.937-259.648c-1.798,4.062-3.847,8.595-5.935,12.699c-3.277-2.021-6.75-4.4-10.025-6.723
							c3.422-2.458,6.619-4.843,9.133-6.654C113.222-260.112,115.533-259.872,117.937-259.648z"/>
						<path fill="none" d="M111.772-322.548c2.133,4.111,4.232,8.658,6.07,12.74c-2.469,0.247-4.85,0.51-7.012,0.751
							c-2.537-1.815-5.752-4.178-9.178-6.603C104.957-318.034,108.467-320.475,111.772-322.548z"/>
						<path fill="none" d="M111.11-260.325c-2.514,1.813-5.711,4.199-9.133,6.657c-3.433-2.424-6.641-4.787-9.178-6.603
							c4.149-0.457,7.509-0.828,9.139-0.834C103.573-261.111,106.94-260.763,111.11-260.325z"/>
						<path fill="none" d="M101.653-315.659c3.427,2.425,6.641,4.788,9.177,6.603c-4.147,0.459-7.508,0.829-9.138,0.834
							c-1.635,0.006-5-0.342-9.173-0.778C95.034-310.816,98.231-313.201,101.653-315.659z"/>
						<path fill="none" d="M112.002-246.948c-3.596,7.06-7.311,12.842-10.059,12.854c-2.733,0.012-6.462-5.699-10.085-12.685
							c3.304-2.07,6.815-4.515,10.119-6.89C105.252-251.349,108.725-248.969,112.002-246.948z"/>
						<path fill="none" d="M111.772-322.548c-3.305,2.072-6.814,4.514-10.119,6.888c-3.276-2.318-6.754-4.698-10.024-6.72
							c3.595-7.056,7.308-12.841,10.058-12.852C104.419-335.243,108.149-329.53,111.772-322.548z"/>
						<path fill="none" d="M92.799-260.271c2.537,1.812,5.746,4.178,9.178,6.603c-3.304,2.375-6.815,4.816-10.119,6.89
							c-2.134-4.11-4.234-8.655-6.07-12.738C88.252-259.766,90.632-260.029,92.799-260.271z"/>
						<path fill="none" d="M101.653-315.659c-3.422,2.458-6.619,4.844-9.134,6.658c-2.111-0.213-4.424-0.453-6.826-0.678
							c1.797-4.065,3.847-8.596,5.936-12.701C94.899-320.359,98.377-317.979,101.653-315.659z"/>
						<path fill="none" d="M92.519-309.001c-1.865,1.361-3.354,2.402-4.278,2.94c-1.014,0.588-2.878,1.461-5.258,2.542
							c0.801-1.814,1.719-3.915,2.71-6.16C88.095-309.454,90.408-309.214,92.519-309.001z"/>
						<path fill="none" d="M88.387-263.262c0.946,0.544,2.48,1.608,4.413,2.991c-2.167,0.24-4.547,0.504-7.011,0.75
							c-1.036-2.307-1.994-4.463-2.828-6.312C85.418-264.739,87.35-263.855,88.387-263.262z"/>
						<path fill="none" d="M85.788-259.521c1.836,4.084,3.937,8.629,6.07,12.74c-5.975,3.746-11.272,6.28-13.457,5.031
							c-2.47-1.408-2.778-8.719-2.347-16.974C79.253-258.904,82.59-259.2,85.788-259.521z"/>
						<path fill="none" d="M91.629-322.38c-2.089,4.105-4.139,8.635-5.936,12.701c-3.22-0.302-6.597-0.582-9.823-0.745
							c-0.47-8.22-0.213-15.489,2.24-16.917C80.288-328.607,85.614-326.092,91.629-322.38z"/>
						<path fill="none" d="M85.693-309.679c-0.991,2.246-1.91,4.346-2.71,6.16c-1.848,0.834-4.004,1.792-6.312,2.828
							c-0.319-3.198-0.616-6.535-0.801-9.733C79.096-310.261,82.472-309.981,85.693-309.679z"/>
						<path fill="none" d="M82.96-265.831c0.834,1.848,1.792,4.004,2.828,6.312c-3.198,0.318-6.535,0.615-9.733,0.801
							c0.163-3.232,0.437-6.604,0.739-9.822C79.039-267.55,81.145-266.632,82.96-265.831z"/>
						<path fill="none" d="M82.982-303.519c-1.092,2.458-1.977,4.391-2.57,5.427c-0.543,0.946-1.607,2.486-2.99,4.413
							c-0.241-2.167-0.504-4.547-0.751-7.011C78.978-301.727,81.134-302.684,82.982-303.519z"/>
						<path fill="none" d="M80.417-271.089c0.588,1.014,1.461,2.878,2.542,5.258c-1.814-0.801-3.92-1.719-6.166-2.711
							c0.229-2.402,0.465-4.72,0.683-6.832C78.833-273.503,79.88-272.013,80.417-271.089z"/>
						<path fill="none" d="M78.256-284.54c0.006,1.635-0.347,5.001-0.778,9.166c-1.82-2.514-4.2-5.705-6.658-9.127
							c2.43-3.433,4.788-6.642,6.603-9.178C77.881-289.53,78.25-286.17,78.256-284.54z"/>
						<path fill="none" d="M77.477-275.374c-0.218,2.113-0.453,4.43-0.683,6.832c-4.066-1.797-8.59-3.847-12.69-5.935
							c2.017-3.271,4.396-6.75,6.715-10.024C73.277-281.079,75.657-277.888,77.477-275.374z"/>
						<path fill="none" d="M76.671-300.691c0.247,2.464,0.51,4.844,0.751,7.011c-1.815,2.537-4.172,5.746-6.603,9.178
							c-2.369-3.304-4.811-6.815-6.888-10.119C68.042-296.754,72.589-298.854,76.671-300.691z"/>
						<path fill="none" d="M76.794-268.542c-0.302,3.221-0.577,6.592-0.739,9.824c-8.221,0.47-15.49,0.213-16.918-2.241
							c-1.265-2.179,1.25-7.504,4.967-13.518C68.204-272.389,72.728-270.339,76.794-268.542z"/>
						<path fill="none" d="M70.819-284.501c-2.318,3.275-4.698,6.753-6.715,10.023c-7.056-3.596-12.846-7.312-12.857-10.057
							c-0.011-2.733,5.701-6.462,12.684-10.085C66.009-291.317,68.451-287.805,70.819-284.501z"/>
					</g>
					<g>
						<path fill="none" stroke="#FFFFFF" d="M139.703-274.706c3.742,5.975,6.275,11.272,5.026,13.455
							c-1.413,2.471-8.719,2.773-16.975,2.348c-3.228-0.164-6.604-0.44-9.821-0.744c-2.4-0.225-4.716-0.465-6.824-0.678
							c-4.173-0.438-7.537-0.785-9.174-0.779c-1.63,0.009-4.99,0.375-9.139,0.836c-2.167,0.24-4.547,0.505-7.011,0.752
							c-3.198,0.316-6.535,0.613-9.733,0.8c-8.221,0.472-15.49,0.213-16.918-2.239c-1.265-2.179,1.25-7.504,4.967-13.52
							c2.017-3.271,4.396-6.748,6.715-10.023c2.43-3.433,4.788-6.641,6.603-9.178c1.383-1.926,2.447-3.466,2.99-4.413
							c0.593-1.036,1.478-2.968,2.57-5.427c0.801-1.814,1.719-3.914,2.71-6.16c1.797-4.065,3.847-8.596,5.936-12.701
							c3.595-7.056,7.308-12.841,10.058-12.852c2.732-0.011,6.462,5.701,10.085,12.684c2.136,4.11,4.231,8.657,6.07,12.74
							c1.036,2.308,1.993,4.463,2.827,6.312c1.078,2.38,1.953,4.245,2.544,5.258c0.534,0.924,1.575,2.414,2.938,4.278
							c1.819,2.514,4.199,5.707,6.657,9.128C135.186-281.529,137.627-278.017,139.703-274.706z"/>
						<path fill="none" stroke="#FFFFFF" d="M91.858-246.779c-5.975,3.746-11.272,6.279-13.457,5.03
							c-2.47-1.409-2.778-8.719-2.347-16.974c0.163-3.229,0.437-6.604,0.739-9.822c0.229-2.4,0.465-4.721,0.683-6.832
							c0.431-4.165,0.784-7.529,0.778-9.167c-0.005-1.63-0.375-4.99-0.834-9.139c-0.241-2.167-0.504-4.547-0.751-7.011
							c-0.319-3.198-0.616-6.536-0.801-9.733c-0.47-8.221-0.213-15.49,2.24-16.918c2.178-1.266,7.504,1.249,13.519,4.962
							c3.27,2.021,6.748,4.401,10.024,6.72c3.427,2.425,6.64,4.788,9.177,6.603c1.935,1.383,3.468,2.447,4.414,2.991
							c1.035,0.593,2.969,1.479,5.427,2.57c1.813,0.801,3.913,1.719,6.159,2.71c4.062,1.798,8.591,3.847,12.692,5.936
							c7.06,3.596,12.849,7.308,12.858,10.058c0.012,2.732-5.695,6.457-12.682,10.084c-4.107,2.137-8.654,4.234-12.744,6.07
							c-2.309,1.037-4.465,1.995-6.312,2.829c-2.38,1.081-4.243,1.952-5.258,2.542c-0.924,0.537-2.415,1.578-4.278,2.938
							c-2.515,1.814-5.712,4.2-9.134,6.658C98.674-251.293,95.162-248.852,91.858-246.779z"/>
						<path fill="none" stroke="#FFFFFF" d="M63.931-294.62c-3.747-5.975-6.289-11.272-5.04-13.457
							c1.417-2.47,8.719-2.772,16.979-2.347c3.226,0.163,6.603,0.443,9.823,0.745c2.402,0.225,4.715,0.465,6.826,0.678
							c4.172,0.437,7.538,0.784,9.173,0.778c1.63-0.005,4.99-0.375,9.138-0.834c2.162-0.241,4.543-0.504,7.013-0.751
							c3.198-0.319,6.535-0.616,9.733-0.801c8.221-0.47,15.486-0.213,16.916,2.24c1.267,2.179-1.248,7.504-4.967,13.519
							c-2.018,3.27-4.396,6.743-6.716,10.019c-2.425,3.433-4.788,6.646-6.604,9.183c-1.383,1.929-2.445,3.469-2.989,4.412
							c-0.595,1.037-1.479,2.972-2.569,5.43c-0.801,1.812-1.719,3.914-2.711,6.16c-1.797,4.062-3.848,8.596-5.936,12.697
							c-3.598,7.06-7.311,12.842-10.058,12.854c-2.733,0.012-6.462-5.699-10.086-12.685c-2.133-4.108-4.233-8.655-6.07-12.738
							c-1.036-2.311-1.994-4.467-2.828-6.312c-1.081-2.38-1.954-4.242-2.542-5.258c-0.538-0.923-1.585-2.415-2.94-4.281
							c-1.82-2.517-4.2-5.705-6.658-9.131C68.451-287.805,66.009-291.317,63.931-294.62z"/>
						<path fill="none" stroke="#FFFFFF" d="M111.772-322.548c5.975-3.747,11.273-6.283,13.456-5.035
							c2.47,1.412,2.772,8.719,2.347,16.974c-0.162,3.226-0.44,6.603-0.744,9.823c-0.225,2.402-0.465,4.715-0.678,6.826
							c-0.438,4.172-0.785,7.538-0.779,9.173c0.009,1.629,0.375,4.991,0.834,9.139c0.242,2.168,0.507,4.55,0.755,7.014
							c0.315,3.195,0.612,6.535,0.799,9.73c0.476,8.223,0.214,15.489-2.237,16.918c-2.18,1.268-7.511-1.248-13.521-4.961
							c-3.276-2.021-6.748-4.399-10.024-6.722c-3.433-2.425-6.641-4.788-9.178-6.603c-1.932-1.383-3.467-2.446-4.413-2.991
							c-1.036-0.593-2.968-1.478-5.427-2.57c-1.814-0.8-3.919-1.718-6.165-2.709c-4.066-1.798-8.59-3.848-12.689-5.937
							c-7.056-3.596-12.847-7.311-12.858-10.06c-0.011-2.733,5.701-6.462,12.684-10.086c4.11-2.133,8.657-4.233,12.74-6.07
							c2.308-1.036,4.463-1.994,6.312-2.828c2.38-1.081,4.245-1.954,5.258-2.542c0.924-0.538,2.414-1.58,4.278-2.94
							c2.514-1.814,5.712-4.2,9.133-6.658C104.957-318.034,108.467-320.475,111.772-322.548z"/>
					</g>
				</g>
			</g>
		</g>
	</g>
</g>
</svg>
