<?xml version="1.0" encoding="utf-8"?>
<!-- Generator: Adobe Illustrator 16.0.0, SVG Export Plug-In . SVG Version: 6.00 Build 0)  -->
<!DOCTYPE svg PUBLIC "-//W3C//DTD SVG 1.1//EN" "http://www.w3.org/Graphics/SVG/1.1/DTD/svg11.dtd">
<svg version="1.1" id="Layer_1" xmlns="http://www.w3.org/2000/svg" xmlns:xlink="http://www.w3.org/1999/xlink" x="0px" y="0px"
	 width="160.032px" height="157.001px" viewBox="0 0 160.032 157.001" enable-background="new 0 0 160.032 157.001"
	 xml:space="preserve">
<g opacity="0.8">
	<path fill="none" stroke="#D1D3D4" stroke-width="2" stroke-miterlimit="10" d="M28.647,121.905c-6.6,0-9.3-4.677-6-10.393
		l52.919-91.659c3.3-5.716,8.7-5.716,12,0l52.919,91.659c3.3,5.716,0.6,10.393-6,10.393H28.647z"/>
</g>
<g opacity="0.8">
	<path fill="none" stroke="#D1D3D4" stroke-width="2" stroke-miterlimit="10" d="M121.122,134.65c0,6.6-4.677,9.3-10.393,6
		L19.07,87.731c-5.716-3.3-5.716-8.7,0-12l91.659-52.919c5.716-3.3,10.393-0.6,10.393,6V134.65z"/>
</g>
<g opacity="0.8">
	<path fill="none" stroke="#D1D3D4" stroke-width="2" stroke-miterlimit="10" d="M134.485,44.556c6.6,0,9.3,4.677,6,10.393
		l-52.918,91.66c-3.3,5.716-8.7,5.716-12,0l-52.919-91.66c-3.3-5.715-0.6-10.392,6-10.392H134.485z"/>
</g>
<g opacity="0.8">
	<path fill="none" stroke="#D1D3D4" stroke-width="2" stroke-miterlimit="10" d="M47.587,25.098c0-6.6,4.677-9.3,10.393-6
		l91.66,52.918c5.716,3.3,5.716,8.7,0,12l-91.66,52.918c-5.716,3.3-10.393,0.6-10.393-6V25.098z"/>
</g>
</svg>
