<?xml version="1.0" encoding="utf-8"?>
<!-- Generator: Adobe Illustrator 16.0.0, SVG Export Plug-In . SVG Version: 6.00 Build 0)  -->
<!DOCTYPE svg PUBLIC "-//W3C//DTD SVG 1.1//EN" "http://www.w3.org/Graphics/SVG/1.1/DTD/svg11.dtd">
<svg version="1.1" id="Layer_1" xmlns="http://www.w3.org/2000/svg" xmlns:xlink="http://www.w3.org/1999/xlink" x="0px" y="0px"
	 width="1280px" height="720px" viewBox="0 0 1280 720" enable-background="new 0 0 1280 720" xml:space="preserve">
<rect x="7" y="11" fill="#FFFFFF" stroke="#000000" stroke-width="3" stroke-miterlimit="10" width="1264.043" height="703"/>
<rect x="33.739" y="28.826" fill="#FFFFFF" stroke="#000000" stroke-width="3" stroke-miterlimit="10" width="267.391" height="668.478"/>
<rect x="973.044" y="28.262" fill="#FFFFFF" stroke="#000000" stroke-width="3" stroke-miterlimit="10" width="267.392" height="668.478"/>
<rect x="341.956" y="28.218" fill="#FFFFFF" stroke="#000000" stroke-width="3" stroke-miterlimit="10" width="267.392" height="668.479"/>
<rect x="656" y="28.261" fill="#FFFFFF" stroke="#000000" stroke-width="3" stroke-miterlimit="10" width="267.392" height="668.479"/>
<rect x="61.87" y="63.87" fill="#FFFFFF" stroke="#000000" stroke-width="3" stroke-miterlimit="10" width="208.696" height="70.652"/>
<rect x="381.609" y="63.87" fill="#FFFFFF" stroke="#000000" stroke-width="3" stroke-miterlimit="10" width="208.696" height="70.652"/>
<rect x="685.348" y="63.87" fill="#FFFFFF" stroke="#000000" stroke-width="3" stroke-miterlimit="10" width="208.696" height="70.652"/>
<text transform="matrix(0.9708 0 0 1 1041.085 337.3965)" font-family="'MyriadPro-Regular'" font-size="25.5002">HERO PHOTO</text>
<text transform="matrix(0.9956 0 0 1 460.2617 107.7266)" font-family="'MyriadPro-Regular'" font-size="26.2498">NAV</text>
<text transform="matrix(0.9956 0 0 1 136.2178 107.7266)" font-family="'MyriadPro-Regular'" font-size="26.2498">NAV</text>
<text transform="matrix(0.9956 0 0 1 762.6973 107.7266)" font-family="'MyriadPro-Regular'" font-size="26.2498">NAV</text>
<rect x="33.739" y="629.5" opacity="0.7" fill="#FFFFFF" stroke="#000000" stroke-width="3" stroke-miterlimit="10" enable-background="new    " width="1206.696" height="67.24"/>
<text transform="matrix(1.1109 0 0 1 485.957 671.2422)" font-family="'MyriadPro-Regular'" font-size="24.7499">FOOTER</text>
<g>
	<g>
		<path d="M90.058,684.74c-11.088,1.451-19.16-7.139-24.131-15.917c-4.882-8.616-8.425-20.377-5.63-30.191
			c0.593-2.079-2.398-3.306-3.496-1.457c-3.668,6.172-8.305,11.71-11.644,18.085c1.165,0.485,2.331,0.971,3.496,1.457
			c1.249-8.278,8.361-15.272,14.479-20.54c-0.901,0-1.803,0-2.705,0c5.535,5.517,10.688,11.368,15.803,17.264
			c0.621-1.054,1.241-2.106,1.861-3.16c-7.065-1.525-9.372-16.229-18.121-13.934c-3.682,0.966-5.943,4.847-7.726,7.871
			c-2.09,3.546-3.611,7.359-5.424,11.042c-1.075,2.184,2.225,4.102,3.303,1.907c1.424-2.891,2.677-5.854,4.154-8.722
			c1.145-2.222,3.692-8.157,6.671-8.428c3.349-0.303,6.33,5.022,8.046,7.218c2.116,2.706,4.499,5.918,8.08,6.69
			c1.929,0.417,3.111-1.718,1.861-3.16c-5.114-5.896-10.267-11.747-15.803-17.264c-0.771-0.769-1.922-0.674-2.705,0
			c-6.552,5.641-14.125,13.338-15.463,22.208c-0.296,1.963,2.416,3.518,3.496,1.457c3.339-6.373,7.975-11.913,11.644-18.086
			c-1.166-0.485-2.331-0.971-3.496-1.457c-3.113,10.93,0.754,23.447,6.015,33.105c5.385,9.888,15.192,19.394,27.435,17.79
			C92.468,688.206,92.498,684.421,90.058,684.74L90.058,684.74z"/>
	</g>
</g>
<rect x="433.239" y="174.742" fill="#FFFFFF" stroke="#000000" stroke-width="3" stroke-miterlimit="10" width="105.435" height="101.087"/>
<rect x="433.239" y="320.524" fill="#FFFFFF" stroke="#000000" stroke-width="3" stroke-miterlimit="10" width="105.435" height="101.088"/>
<rect x="433.239" y="461.308" fill="#FFFFFF" stroke="#000000" stroke-width="3" stroke-miterlimit="10" width="105.435" height="101.09"/>
</svg>
