<?xml version="1.0" encoding="utf-8"?>
<!-- Generator: Adobe Illustrator 16.0.0, SVG Export Plug-In . SVG Version: 6.00 Build 0)  -->
<!DOCTYPE svg PUBLIC "-//W3C//DTD SVG 1.1//EN" "http://www.w3.org/Graphics/SVG/1.1/DTD/svg11.dtd">
<svg version="1.1" id="Layer_1" xmlns="http://www.w3.org/2000/svg" xmlns:xlink="http://www.w3.org/1999/xlink" x="0px" y="0px"
	 width="1280px" height="720px" viewBox="0 0 1280 720" enable-background="new 0 0 1280 720" xml:space="preserve">
<rect x="7" y="11" fill="#FFFFFF" stroke="#000000" stroke-width="3" stroke-miterlimit="10" width="1264.043" height="703"/>
<rect x="33.739" y="28.826" fill="#FFFFFF" stroke="#000000" stroke-width="3" stroke-miterlimit="10" width="267.391" height="668.478"/>
<rect x="973.044" y="28.262" fill="#FFFFFF" stroke="#000000" stroke-width="3" stroke-miterlimit="10" width="267.392" height="668.478"/>
<rect x="341.956" y="20.218" fill="#FFFFFF" stroke="#000000" stroke-width="3" stroke-miterlimit="10" width="267.392" height="668.479"/>
<rect x="656" y="28.261" fill="#FFFFFF" stroke="#000000" stroke-width="3" stroke-miterlimit="10" width="267.392" height="668.478"/>
<rect x="61.87" y="63.87" fill="#FFFFFF" stroke="#000000" stroke-width="3" stroke-miterlimit="10" width="208.696" height="70.652"/>
<rect x="381.609" y="63.87" fill="#FFFFFF" stroke="#000000" stroke-width="3" stroke-miterlimit="10" width="208.696" height="70.652"/>
<rect x="685.348" y="63.87" fill="#FFFFFF" stroke="#000000" stroke-width="3" stroke-miterlimit="10" width="208.696" height="70.652"/>
<text transform="matrix(0.8937 0 0 1 1052.085 337.3965)" font-family="'MyriadPro-Regular'" font-size="25.5002">HERO PHOTO</text>
<text transform="matrix(0.9956 0 0 1 454.2617 107.7266)" font-family="'MyriadPro-Regular'" font-size="26.2498">NAV</text>
<text transform="matrix(0.9956 0 0 1 144.2178 107.7266)" font-family="'MyriadPro-Regular'" font-size="26.2498">NAV</text>
<text transform="matrix(0.9956 0 0 1 762.6973 107.7266)" font-family="'MyriadPro-Regular'" font-size="26.2498">NAV</text>
<rect x="33.739" y="606.5" opacity="0.7" fill="#FFFFFF" stroke="#000000" stroke-width="3" stroke-miterlimit="10" enable-background="new    " width="1206.696" height="90.24"/>
<text transform="matrix(1.1109 0 0 1 485.9565 658.2422)" font-family="'MyriadPro-Regular'" font-size="24.7499">FOOTER</text>
<g>
	<g>
		<path d="M103.903,683.463c-14.491,1.919-25.04-9.439-31.537-21.045c-6.38-11.394-11.01-26.943-7.357-39.921
			c0.774-2.749-3.134-4.37-4.569-1.927c-4.794,8.161-10.854,15.485-15.217,23.913c1.523,0.642,3.046,1.284,4.569,1.927
			c1.632-10.946,10.927-20.194,18.922-27.158c-1.178,0-2.357,0-3.535,0c7.234,7.294,13.968,15.03,20.652,22.826
			c0.811-1.393,1.622-2.785,2.432-4.179c-9.233-2.016-12.248-21.458-23.682-18.423c-4.811,1.277-7.766,6.408-10.096,10.407
			c-2.731,4.688-4.72,9.731-7.088,14.6c-1.405,2.887,2.907,5.423,4.317,2.522c1.86-3.822,3.498-7.741,5.428-11.532
			c1.496-2.938,4.826-10.785,8.718-11.143c4.377-0.4,8.272,6.641,10.515,9.543c2.765,3.578,5.88,7.825,10.559,8.847
			c2.521,0.551,4.066-2.272,2.432-4.179c-6.683-7.796-13.417-15.532-20.652-22.826c-1.008-1.017-2.512-0.892-3.535,0
			c-8.563,7.458-18.459,17.636-20.208,29.363c-0.387,2.596,3.158,4.652,4.569,1.927c4.364-8.427,10.423-15.752,15.217-23.913
			c-1.523-0.642-3.046-1.284-4.569-1.927c-4.068,14.451,0.986,31.003,7.861,43.774c7.038,13.073,19.854,25.641,35.854,23.521
			C107.052,688.046,107.092,683.041,103.903,683.463L103.903,683.463z"/>
	</g>
</g>
<rect x="433.239" y="174.742" fill="#FFFFFF" stroke="#000000" stroke-width="3" stroke-miterlimit="10" width="105.435" height="101.087"/>
<rect x="433.239" y="320.524" fill="#FFFFFF" stroke="#000000" stroke-width="3" stroke-miterlimit="10" width="105.435" height="101.088"/>
<rect x="433.239" y="461.308" fill="#FFFFFF" stroke="#000000" stroke-width="3" stroke-miterlimit="10" width="105.435" height="101.089"/>
</svg>
