<?xml version="1.0" encoding="utf-8"?>
<!-- Generator: Adobe Illustrator 16.0.0, SVG Export Plug-In . SVG Version: 6.00 Build 0)  -->
<!DOCTYPE svg PUBLIC "-//W3C//DTD SVG 1.1//EN" "http://www.w3.org/Graphics/SVG/1.1/DTD/svg11.dtd">
<svg version="1.1" id="Layer_1" xmlns="http://www.w3.org/2000/svg" xmlns:xlink="http://www.w3.org/1999/xlink" x="0px" y="0px"
	 width="640px" height="1136px" viewBox="0 0 640 1136" enable-background="new 0 0 640 1136" xml:space="preserve">
<path fill="#84CCF1" stroke="#85CBF0" stroke-miterlimit="10" d="M625.501,527.135c0,2.5-1.737,4.526-3.879,4.526H18.378
	c-2.143,0-3.879-2.026-3.879-4.526V304.189c0-2.5,1.737-4.527,3.879-4.527h603.244c2.142,0,3.879,2.027,3.879,4.527V527.135
	L625.501,527.135z"/>
<path fill="#F47D67" stroke="#F37D67" stroke-miterlimit="10" d="M625.501,262.135c0,2.5-1.737,4.526-3.879,4.526H18.378
	c-2.143,0-3.879-2.026-3.879-4.526V39.189c0-2.5,1.737-4.527,3.879-4.527h603.244c2.142,0,3.879,2.027,3.879,4.527V262.135
	L625.501,262.135z"/>
<path fill="#328DC5" stroke="#328DC5" stroke-miterlimit="10" d="M625.501,798.473c0,2.5-1.737,4.526-3.879,4.526H18.378
	c-2.143,0-3.879-2.026-3.879-4.526V575.527c0-2.5,1.737-4.527,3.879-4.527h603.244c2.142,0,3.879,2.027,3.879,4.527V798.473
	L625.501,798.473z"/>
<g id="Layer_2">
</g>
<text transform="matrix(1 0 0 1 216.5 109.5)" fill="#FFFFFF" font-family="'Dosis-Regular'" font-size="48">jackie lee</text>
<g>
	
		<image overflow="visible" enable-background="new    " width="600" height="342" xlink:href="images/broad.png"  transform="matrix(0.9999 0 0 0.7018 21.0298 843.501)">
	</image>
</g>
<text transform="matrix(1 0 0 1 239.5 368.5)" fill="#FFFFFF" font-family="'Dosis-Regular'" font-size="48">portfolio</text>
<text transform="matrix(1 0 0 1 262.5 666.5)" fill="#FFFFFF" font-family="'Dosis-Regular'" font-size="48">about</text>
<g id="XMLID_1_">
	<g>
		<g id="XMLID_2_">
			<g>
				<path fill="none" stroke="#FFFFFF" stroke-miterlimit="10" d="M279.147,161.47c0.186,3.197,0.482,6.535,0.801,9.732
					c-4.082,1.836-8.629,3.938-12.739,6.07c-3.747-5.977-6.289-11.271-5.04-13.457C263.586,161.347,270.888,161.044,279.147,161.47z
					"/>
				<path fill="none" stroke="#FFFFFF" stroke-miterlimit="10" d="M355.661,187.101c0.012,2.732-5.695,6.457-12.68,10.086
					c-2.076-3.311-4.521-6.822-6.896-10.125c2.316-3.275,4.699-6.748,6.714-10.02C349.858,180.638,355.649,184.351,355.661,187.101z
					"/>
				<path fill="none" stroke="#FFFFFF" stroke-miterlimit="10" d="M342.981,197.187c3.742,5.975,6.274,11.271,5.025,13.455
					c-1.412,2.471-8.719,2.773-16.975,2.348c-0.188-3.195-0.479-6.535-0.803-9.729C334.325,201.419,338.872,199.32,342.981,197.187z
					"/>
				<path fill="none" stroke="#FFFFFF" stroke-miterlimit="10" d="M347.771,163.525c1.266,2.18-1.248,7.504-4.972,13.518
					c-4.104-2.088-8.63-4.137-12.69-5.936c0.303-3.219,0.582-6.596,0.744-9.822C339.073,160.814,346.343,161.072,347.771,163.525z"
					/>
				<path fill="none" stroke="#FFFFFF" stroke-miterlimit="10" d="M336.089,187.062c2.375,3.303,4.816,6.814,6.895,10.125
					c-4.105,2.133-8.654,4.232-12.742,6.07c-0.246-2.465-0.514-4.844-0.756-7.014C331.302,193.708,333.663,190.494,336.089,187.062z
					"/>
				<path fill="none" stroke="#FFFFFF" stroke-miterlimit="10" d="M342.804,177.042c-2.016,3.271-4.396,6.742-6.715,10.02
					c-2.458-3.422-4.838-6.613-6.658-9.127c0.213-2.111,0.453-4.424,0.678-6.826C334.173,172.906,338.698,174.955,342.804,177.042z"
					/>
				<path fill="none" stroke="#FFFFFF" stroke-miterlimit="10" d="M336.089,187.062c-2.426,3.434-4.789,6.646-6.604,9.184
					c-0.459-4.145-0.828-7.51-0.834-9.135c-0.008-1.635,0.342-5.002,0.777-9.174C331.251,180.449,333.631,183.64,336.089,187.062z"
					/>
				<path fill="none" stroke="#FFFFFF" stroke-miterlimit="10" d="M331.038,212.99c0.471,8.221,0.213,15.486-2.24,16.918
					c-2.18,1.266-7.51-1.248-13.518-4.963c2.088-4.104,4.137-8.639,5.935-12.699C324.435,212.546,327.812,212.828,331.038,212.99z"
					/>
				<path fill="none" stroke="#FFFFFF" stroke-miterlimit="10" d="M328.506,144.312c2.47,1.412,2.772,8.719,2.347,16.973
					c-3.193,0.186-6.535,0.482-9.729,0.801c-1.838-4.082-3.938-8.629-6.069-12.738C321.024,145.599,326.323,143.062,328.506,144.312
					z"/>
				<path fill="none" stroke="#FFFFFF" stroke-miterlimit="10" d="M330.237,203.257c0.318,3.197,0.615,6.535,0.801,9.73
					c-3.227-0.16-6.604-0.441-9.821-0.742c0.989-2.248,1.909-4.35,2.712-6.162C325.772,205.251,327.931,204.292,330.237,203.257z"/>
				<path fill="none" stroke="#FFFFFF" stroke-miterlimit="10" d="M330.853,161.285c-0.162,3.227-0.438,6.604-0.744,9.822
					c-2.242-0.99-4.346-1.91-6.156-2.709c-0.834-1.85-1.791-4.004-2.826-6.312C324.317,161.767,327.655,161.47,330.853,161.285z"/>
				<path fill="none" stroke="#FFFFFF" stroke-miterlimit="10" d="M329.485,196.244c0.242,2.168,0.504,4.549,0.752,7.014
					c-2.309,1.037-4.465,1.994-6.312,2.828c1.092-2.459,1.978-4.391,2.569-5.426C327.038,199.712,328.103,198.171,329.485,196.244z"
					/>
				<path fill="none" stroke="#FFFFFF" stroke-miterlimit="10" d="M330.108,171.107c-0.229,2.402-0.465,4.715-0.678,6.826
					c-1.361-1.865-2.402-3.354-2.939-4.277c-0.588-1.014-1.463-2.879-2.543-5.258C325.763,169.199,327.862,170.117,330.108,171.107z
					"/>
				<path fill="none" stroke="#FFFFFF" stroke-miterlimit="10" d="M323.927,206.083c-0.803,1.812-1.721,3.914-2.712,6.162
					c-2.401-0.229-4.715-0.465-6.827-0.678c1.865-1.361,3.355-2.404,4.279-2.941C319.681,208.039,321.546,207.166,323.927,206.083z"
					/>
				<path fill="none" stroke="#FFFFFF" stroke-miterlimit="10" d="M321.12,162.085c1.037,2.307,1.994,4.463,2.828,6.312
					c-2.459-1.092-4.393-1.979-5.426-2.57c-0.947-0.543-2.48-1.607-4.414-2.99C316.271,162.595,318.651,162.332,321.12,162.085z"/>
				<path fill="none" stroke="#FFFFFF" stroke-miterlimit="10" d="M321.215,212.246c-1.798,4.062-3.847,8.596-5.935,12.699
					c-3.277-2.021-6.75-4.4-10.025-6.723c3.422-2.459,6.619-4.844,9.133-6.654C316.5,211.781,318.812,212.021,321.215,212.246z"/>
				<path fill="none" stroke="#FFFFFF" stroke-miterlimit="10" d="M315.05,149.345c2.133,4.111,4.232,8.658,6.07,12.74
					c-2.469,0.246-4.852,0.51-7.012,0.75c-2.537-1.814-5.752-4.178-9.18-6.602C308.235,153.859,311.745,151.417,315.05,149.345z"/>
				<path fill="none" stroke="#FFFFFF" stroke-miterlimit="10" d="M314.388,211.568c-2.514,1.812-5.711,4.199-9.133,6.658
					c-3.434-2.426-6.641-4.787-9.178-6.604c4.148-0.457,7.509-0.828,9.139-0.834C306.851,210.783,310.218,211.13,314.388,211.568z"
					/>
				<path fill="none" stroke="#FFFFFF" stroke-miterlimit="10" d="M304.931,156.234c3.428,2.426,6.641,4.789,9.178,6.604
					c-4.146,0.459-7.509,0.828-9.139,0.834c-1.635,0.006-5-0.342-9.173-0.777C298.312,161.078,301.509,158.693,304.931,156.234z"/>
				<path fill="none" stroke="#FFFFFF" stroke-miterlimit="10" d="M315.28,224.945c-3.596,7.061-7.311,12.842-10.059,12.854
					c-2.732,0.014-6.462-5.697-10.085-12.684c3.304-2.07,6.815-4.516,10.119-6.891C308.53,220.544,312.003,222.923,315.28,224.945z"
					/>
				<path fill="none" stroke="#FFFFFF" stroke-miterlimit="10" d="M315.05,149.345c-3.305,2.072-6.814,4.514-10.119,6.889
					c-3.275-2.318-6.754-4.699-10.023-6.721c3.595-7.056,7.308-12.841,10.058-12.852C307.696,136.65,311.427,142.363,315.05,149.345
					z"/>
				<path fill="none" stroke="#FFFFFF" stroke-miterlimit="10" d="M296.077,211.623c2.537,1.812,5.746,4.178,9.178,6.605
					c-3.305,2.375-6.814,4.814-10.119,6.889c-2.134-4.107-4.234-8.652-6.07-12.736C291.53,212.126,293.909,211.865,296.077,211.623z
					"/>
				<path fill="none" stroke="#FFFFFF" stroke-miterlimit="10" d="M304.931,156.234c-3.422,2.459-6.619,4.844-9.134,6.658
					c-2.111-0.213-4.425-0.453-6.826-0.678c1.797-4.064,3.847-8.596,5.937-12.701C298.177,151.535,301.655,153.914,304.931,156.234z
					"/>
				<path fill="none" stroke="#FFFFFF" stroke-miterlimit="10" d="M295.797,162.892c-1.865,1.361-3.354,2.402-4.278,2.939
					c-1.014,0.588-2.878,1.461-5.258,2.543c0.801-1.814,1.719-3.916,2.71-6.16C291.372,162.439,293.686,162.679,295.797,162.892z"/>
				<path fill="none" stroke="#FFFFFF" stroke-miterlimit="10" d="M291.665,208.63c0.945,0.545,2.479,1.607,4.412,2.992
					c-2.166,0.238-4.547,0.504-7.01,0.75c-1.037-2.309-1.994-4.463-2.828-6.312C288.696,207.154,290.628,208.039,291.665,208.63z"/>
				<path fill="none" stroke="#FFFFFF" stroke-miterlimit="10" d="M289.065,212.373c1.836,4.084,3.938,8.629,6.07,12.74
					c-5.975,3.746-11.271,6.279-13.457,5.031c-2.47-1.408-2.777-8.721-2.348-16.975C282.53,212.99,285.868,212.693,289.065,212.373z
					"/>
				<path fill="none" stroke="#FFFFFF" stroke-miterlimit="10" d="M294.907,149.513c-2.09,4.105-4.14,8.635-5.937,12.701
					c-3.22-0.303-6.597-0.582-9.823-0.744c-0.47-8.221-0.213-15.49,2.24-16.918C283.565,143.287,288.892,145.801,294.907,149.513z"
					/>
				<path fill="none" stroke="#FFFFFF" stroke-miterlimit="10" d="M288.971,162.214c-0.991,2.246-1.91,4.346-2.71,6.16
					c-1.848,0.834-4.004,1.791-6.312,2.828c-0.318-3.199-0.615-6.535-0.801-9.732C282.374,161.632,285.75,161.912,288.971,162.214z"
					/>
				<path fill="none" stroke="#FFFFFF" stroke-miterlimit="10" d="M286.237,206.062c0.834,1.848,1.793,4.004,2.828,6.312
					c-3.197,0.316-6.535,0.613-9.732,0.801c0.162-3.232,0.437-6.604,0.738-9.822C282.317,204.343,284.423,205.261,286.237,206.062z"
					/>
				<path fill="none" stroke="#FFFFFF" stroke-miterlimit="10" d="M286.26,168.375c-1.092,2.457-1.978,4.391-2.569,5.426
					c-0.543,0.947-1.607,2.486-2.99,4.414c-0.241-2.168-0.504-4.547-0.752-7.012C282.256,170.167,284.411,169.208,286.26,168.375z"
					/>
				<path fill="none" stroke="#FFFFFF" stroke-miterlimit="10" d="M283.694,200.804c0.588,1.014,1.461,2.879,2.543,5.258
					c-1.814-0.801-3.92-1.719-6.166-2.711c0.229-2.402,0.465-4.721,0.683-6.832C282.11,198.39,283.157,199.88,283.694,200.804z"/>
				<path fill="none" stroke="#FFFFFF" stroke-miterlimit="10" d="M281.534,187.353c0.006,1.635-0.348,5.002-0.778,9.166
					c-1.82-2.514-4.2-5.705-6.658-9.127c2.431-3.434,4.788-6.643,6.603-9.178C281.159,182.363,281.528,185.724,281.534,187.353z"/>
				<path fill="none" stroke="#FFFFFF" stroke-miterlimit="10" d="M280.755,196.519c-0.219,2.113-0.453,4.43-0.684,6.832
					c-4.065-1.797-8.59-3.848-12.689-5.936c2.018-3.271,4.396-6.75,6.715-10.023C276.555,190.814,278.935,194.005,280.755,196.519z"
					/>
				<path fill="none" stroke="#FFFFFF" stroke-miterlimit="10" d="M279.948,171.203c0.248,2.463,0.511,4.844,0.752,7.01
					c-1.815,2.537-4.172,5.746-6.604,9.18c-2.369-3.305-4.811-6.816-6.888-10.119C271.319,175.14,275.866,173.039,279.948,171.203z"
					/>
				<path fill="none" stroke="#FFFFFF" stroke-miterlimit="10" d="M280.071,203.351c-0.302,3.221-0.576,6.592-0.738,9.824
					c-8.221,0.471-15.49,0.213-16.918-2.24c-1.265-2.18,1.25-7.504,4.967-13.52C271.481,199.503,276.006,201.554,280.071,203.351z"
					/>
				<path fill="none" stroke="#FFFFFF" stroke-miterlimit="10" d="M274.097,187.392c-2.318,3.275-4.697,6.754-6.715,10.023
					c-7.056-3.598-12.846-7.312-12.857-10.059c-0.011-2.732,5.701-6.461,12.684-10.084
					C269.286,180.576,271.729,184.087,274.097,187.392z"/>
			</g>
			<g>
				<path fill="none" stroke="#FFFFFF" stroke-width="1.5" d="M342.981,197.187c3.742,5.975,6.274,11.271,5.025,13.455
					c-1.412,2.471-8.719,2.773-16.975,2.348c-3.229-0.164-6.604-0.439-9.821-0.744c-2.399-0.225-4.716-0.465-6.823-0.678
					c-4.174-0.438-7.537-0.785-9.175-0.779c-1.63,0.01-4.99,0.375-9.14,0.838c-2.166,0.238-4.547,0.504-7.01,0.752
					c-3.199,0.314-6.535,0.611-9.734,0.801c-8.221,0.473-15.489,0.213-16.917-2.238c-1.265-2.18,1.25-7.504,4.967-13.521
					c2.017-3.27,4.396-6.748,6.715-10.021c2.431-3.434,4.788-6.643,6.603-9.178c1.383-1.928,2.447-3.467,2.99-4.414
					c0.594-1.035,1.479-2.969,2.57-5.428c0.801-1.812,1.719-3.914,2.71-6.158c1.797-4.066,3.847-8.598,5.937-12.701
					c3.594-7.057,7.308-12.842,10.058-12.853c2.731-0.011,6.462,5.701,10.085,12.685c2.137,4.109,4.23,8.656,6.07,12.738
					c1.035,2.309,1.992,4.465,2.826,6.312c1.076,2.381,1.951,4.246,2.545,5.258c0.531,0.924,1.572,2.414,2.938,4.279
					c1.818,2.514,4.199,5.707,6.656,9.127C338.464,190.365,340.905,193.876,342.981,197.187z"/>
				<path fill="none" stroke="#FFFFFF" stroke-width="1.5" d="M295.136,225.115c-5.975,3.746-11.271,6.279-13.457,5.029
					c-2.47-1.408-2.777-8.719-2.348-16.975c0.164-3.229,0.438-6.604,0.74-9.82c0.229-2.4,0.465-4.723,0.683-6.832
					c0.431-4.166,0.784-7.529,0.778-9.168c-0.006-1.629-0.375-4.99-0.834-9.139c-0.242-2.168-0.504-4.547-0.752-7.012
					c-0.318-3.197-0.615-6.535-0.801-9.732c-0.47-8.221-0.213-15.49,2.24-16.918c2.178-1.266,7.504,1.249,13.52,4.963
					c3.27,2.02,6.748,4.4,10.023,6.719c3.428,2.426,6.641,4.789,9.178,6.604c1.934,1.383,3.467,2.447,4.413,2.99
					c1.035,0.594,2.97,1.48,5.427,2.57c1.813,0.801,3.914,1.719,6.16,2.711c4.062,1.797,8.59,3.846,12.69,5.936
					c7.062,3.596,12.851,7.309,12.858,10.059c0.012,2.73-5.695,6.457-12.685,10.084c-4.104,2.137-8.653,4.232-12.744,6.068
					c-2.309,1.037-4.465,1.996-6.312,2.83c-2.381,1.08-4.243,1.949-5.26,2.541c-0.924,0.537-2.414,1.576-4.276,2.938
					c-2.517,1.814-5.712,4.199-9.134,6.658C301.952,220.601,298.44,223.042,295.136,225.115z"/>
				<path fill="none" stroke="#FFFFFF" stroke-width="1.5" d="M267.209,177.273c-3.747-5.975-6.289-11.271-5.04-13.457
					c1.417-2.469,8.719-2.771,16.979-2.346c3.227,0.162,6.604,0.441,9.823,0.744c2.401,0.225,4.715,0.465,6.826,0.678
					c4.172,0.438,7.538,0.783,9.173,0.777c1.63-0.004,4.99-0.375,9.139-0.834c2.161-0.24,4.543-0.504,7.012-0.75
					c3.199-0.318,6.535-0.615,9.734-0.801c8.221-0.471,15.484-0.213,16.915,2.24c1.267,2.178-1.247,7.504-4.967,13.518
					c-2.019,3.271-4.396,6.744-6.717,10.02c-2.425,3.434-4.788,6.646-6.604,9.184c-1.383,1.928-2.445,3.469-2.988,4.412
					c-0.596,1.037-1.479,2.971-2.568,5.43c-0.803,1.812-1.721,3.914-2.711,6.16c-1.797,4.062-3.85,8.598-5.938,12.697
					c-3.598,7.059-7.312,12.842-10.058,12.854c-2.733,0.012-6.462-5.699-10.086-12.688c-2.133-4.105-4.233-8.652-6.069-12.736
					c-1.037-2.312-1.994-4.469-2.828-6.312c-1.082-2.381-1.955-4.242-2.543-5.258c-0.537-0.926-1.584-2.416-2.939-4.281
					c-1.82-2.52-4.2-5.705-6.658-9.131C271.729,184.087,269.286,180.576,267.209,177.273z"/>
				<path fill="none" stroke="#FFFFFF" stroke-width="1.5" d="M315.05,149.345c5.975-3.746,11.273-6.283,13.456-5.035
					c2.47,1.412,2.772,8.719,2.347,16.975c-0.162,3.227-0.439,6.604-0.744,9.822c-0.225,2.402-0.465,4.715-0.678,6.826
					c-0.438,4.172-0.785,7.539-0.779,9.174c0.01,1.629,0.375,4.99,0.834,9.139c0.242,2.168,0.508,4.549,0.756,7.016
					c0.314,3.193,0.611,6.533,0.801,9.729c0.477,8.223,0.214,15.488-2.236,16.918c-2.181,1.268-7.512-1.248-13.521-4.961
					c-3.275-2.021-6.748-4.4-10.023-6.723c-3.434-2.426-6.641-4.789-9.178-6.605c-1.932-1.383-3.467-2.445-4.413-2.99
					c-1.036-0.594-2.968-1.479-5.427-2.568c-1.814-0.801-3.92-1.719-6.166-2.709c-4.065-1.797-8.59-3.85-12.688-5.938
					c-7.056-3.596-12.847-7.311-12.858-10.061c-0.011-2.732,5.701-6.461,12.684-10.086c4.11-2.133,8.657-4.232,12.739-6.07
					c2.309-1.035,4.464-1.994,6.312-2.828c2.381-1.08,4.245-1.953,5.258-2.541c0.924-0.539,2.414-1.58,4.278-2.939
					c2.515-1.814,5.712-4.201,9.133-6.658C308.235,153.859,311.745,151.417,315.05,149.345z"/>
			</g>
		</g>
	</g>
</g>
</svg>
