<?xml version="1.0" encoding="utf-8"?>
<!-- Generator: Adobe Illustrator 16.0.0, SVG Export Plug-In . SVG Version: 6.00 Build 0)  -->
<!DOCTYPE svg PUBLIC "-//W3C//DTD SVG 1.1//EN" "http://www.w3.org/Graphics/SVG/1.1/DTD/svg11.dtd">
<svg version="1.1" id="Layer_1" xmlns="http://www.w3.org/2000/svg" xmlns:xlink="http://www.w3.org/1999/xlink" x="0px" y="0px"
	 width="640px" height="1136px" viewBox="0 0 640 1136" enable-background="new 0 0 640 1136" xml:space="preserve">
<path fill="#84CCF1" stroke="#000000" stroke-miterlimit="10" d="M625.501,532.135c0,2.5-1.737,4.526-3.879,4.526H18.378
	c-2.143,0-3.879-2.026-3.879-4.526V309.189c0-2.5,1.737-4.527,3.879-4.527h603.244c2.142,0,3.879,2.027,3.879,4.527V532.135z"/>
<path fill="#F47D67" stroke="#000000" stroke-miterlimit="10" d="M625.501,262.135c0,2.5-1.737,4.526-3.879,4.526H18.378
	c-2.143,0-3.879-2.026-3.879-4.526V39.189c0-2.5,1.737-4.527,3.879-4.527h603.244c2.142,0,3.879,2.027,3.879,4.527V262.135z"/>
<path fill="#328DC5" stroke="#000000" stroke-miterlimit="10" d="M625.501,812.473c0,2.5-1.737,4.526-3.879,4.526H18.378
	c-2.143,0-3.879-2.026-3.879-4.526V589.527c0-2.5,1.737-4.527,3.879-4.527h603.244c2.142,0,3.879,2.027,3.879,4.527V812.473z"/>
<path fill="#FFFFFF" stroke="#000000" stroke-miterlimit="10" d="M625.501,1088.469c0,2.5-1.737,4.526-3.879,4.526H18.378
	c-2.143,0-3.879-2.026-3.879-4.526V865.523c0-2.5,1.737-4.527,3.879-4.527h603.244c2.142,0,3.879,2.027,3.879,4.527V1088.469z"/>
</svg>
