<?xml version="1.0" encoding="utf-8"?>
<!-- Generator: Adobe Illustrator 16.0.0, SVG Export Plug-In . SVG Version: 6.00 Build 0)  -->
<!DOCTYPE svg PUBLIC "-//W3C//DTD SVG 1.1//EN" "http://www.w3.org/Graphics/SVG/1.1/DTD/svg11.dtd">
<svg version="1.1" id="Layer_1" xmlns="http://www.w3.org/2000/svg" xmlns:xlink="http://www.w3.org/1999/xlink" x="0px" y="0px"
	 width="200px" height="200px" viewBox="0 0 200 200" enable-background="new 0 0 200 200" xml:space="preserve">
<rect x="-12.5" y="-6.5" fill="#FFFFFF" stroke="#FFFFFF" stroke-miterlimit="10" width="225" height="213"/>
<g enable-background="new    ">
	<path fill="#40464C" d="M50.867,131.141c-1.848-1.805-3.599-3.609-6.128-6.27c-5.642,5.129-11.965,7.314-19.163,7.314
		c-12.743,0-20.136-8.359-20.136-17.955c0-8.74,5.35-14.725,12.84-18.715V95.23c-3.405-4.18-5.448-8.835-5.448-13.395
		c0-7.79,5.739-15.77,16.634-15.77c8.171,0,14.494,5.32,14.494,13.585c0,6.745-3.988,12.065-14.396,17.1v0.285
		c5.545,6.27,11.771,13.301,15.953,17.86c3.016-4.466,5.058-10.64,6.323-18.715h7.782c-1.751,10.07-4.572,18.05-9.436,23.656
		c3.502,3.609,6.907,7.22,10.798,11.305H50.867z M40.556,120.121c-3.891-4.181-11.187-11.971-18.482-20.141
		c-3.502,2.185-8.463,6.27-8.463,13.016c0,7.314,5.545,12.92,13.424,12.92C32.676,125.916,37.443,123.445,40.556,120.121z
		 M20.614,81.075c0,4.56,2.14,8.075,4.961,11.495C32.19,88.865,36.47,85.445,36.47,80.03c0-3.895-2.237-8.265-7.587-8.265
		C23.435,71.765,20.614,76.135,20.614,81.075z"/>
</g>
<g enable-background="new    ">
	<path fill="#2286C4" d="M94.775,131.141c-1.848-1.805-3.599-3.609-6.128-6.27c-5.642,5.129-11.965,7.314-19.163,7.314
		c-12.743,0-20.136-8.359-20.136-17.955c0-8.74,5.35-14.725,12.84-18.715V95.23c-3.405-4.18-5.448-8.835-5.448-13.395
		c0-7.79,5.739-15.77,16.634-15.77c8.171,0,14.494,5.32,14.494,13.585c0,6.745-3.988,12.065-14.396,17.1v0.285
		c5.545,6.27,11.771,13.301,15.953,17.86c3.016-4.466,5.058-10.64,6.323-18.715h7.782c-1.75,10.07-4.572,18.05-9.436,23.656
		c3.502,3.609,6.906,7.22,10.798,11.305H94.775z M84.464,120.121c-3.891-4.181-11.187-11.971-18.482-20.141
		c-3.502,2.185-8.463,6.27-8.463,13.016c0,7.314,5.545,12.92,13.424,12.92C76.584,125.916,81.351,123.445,84.464,120.121z
		 M64.522,81.075c0,4.56,2.14,8.075,4.961,11.495c6.615-3.705,10.895-7.125,10.895-12.541c0-3.895-2.237-8.265-7.587-8.265
		C67.343,71.765,64.522,76.135,64.522,81.075z"/>
</g>
<g enable-background="new    ">
	<path fill="#84CCF1" d="M142.686,131.141c-1.849-1.805-3.6-3.609-6.129-6.27c-5.643,5.129-11.965,7.314-19.163,7.314
		c-12.743,0-20.136-8.359-20.136-17.955c0-8.74,5.35-14.725,12.84-18.715V95.23c-3.404-4.18-5.447-8.835-5.447-13.395
		c0-7.79,5.739-15.77,16.635-15.77c8.17,0,14.493,5.32,14.493,13.585c0,6.745-3.988,12.065-14.396,17.1v0.285
		c5.545,6.27,11.771,13.301,15.953,17.86c3.016-4.466,5.058-10.64,6.323-18.715h7.781c-1.75,10.07-4.572,18.05-9.436,23.656
		c3.502,3.609,6.906,7.22,10.798,11.305H142.686z M132.374,120.121c-3.892-4.181-11.187-11.971-18.482-20.141
		c-3.502,2.185-8.463,6.27-8.463,13.016c0,7.314,5.545,12.92,13.424,12.92C124.494,125.916,129.262,123.445,132.374,120.121z
		 M112.433,81.075c0,4.56,2.14,8.075,4.961,11.495c6.614-3.705,10.896-7.125,10.896-12.541c0-3.895-2.238-8.265-7.588-8.265
		C115.254,71.765,112.433,76.135,112.433,81.075z"/>
</g>
<g enable-background="new    ">
	<path fill="#F47D67" d="M186.289,129.322c-1.849-1.805-3.6-3.609-6.129-6.27c-5.643,5.129-11.965,7.314-19.163,7.314
		c-12.743,0-20.136-8.359-20.136-17.955c0-8.74,5.35-14.725,12.84-18.715v-0.285c-3.404-4.18-5.447-8.835-5.447-13.395
		c0-7.79,5.739-15.77,16.635-15.77c8.17,0,14.493,5.32,14.493,13.585c0,6.745-3.988,12.065-14.396,17.1v0.285
		c5.545,6.27,11.771,13.301,15.953,17.86c3.016-4.466,5.058-10.64,6.323-18.715h7.781c-1.75,10.07-4.572,18.05-9.436,23.656
		c3.502,3.609,6.906,7.22,10.798,11.305H186.289z M175.978,118.303c-3.892-4.181-11.187-11.971-18.482-20.141
		c-3.502,2.185-8.463,6.27-8.463,13.016c0,7.314,5.545,12.92,13.424,12.92C168.098,124.098,172.865,121.627,175.978,118.303z
		 M156.036,79.257c0,4.56,2.14,8.075,4.961,11.495c6.614-3.705,10.896-7.125,10.896-12.541c0-3.895-2.238-8.265-7.588-8.265
		C158.857,69.946,156.036,74.316,156.036,79.257z"/>
</g>
</svg>
