<?xml version="1.0" encoding="utf-8"?>
<!-- Generator: Adobe Illustrator 16.0.0, SVG Export Plug-In . SVG Version: 6.00 Build 0)  -->
<!DOCTYPE svg PUBLIC "-//W3C//DTD SVG 1.1//EN" "http://www.w3.org/Graphics/SVG/1.1/DTD/svg11.dtd">
<svg version="1.1" xmlns="http://www.w3.org/2000/svg" xmlns:xlink="http://www.w3.org/1999/xlink" x="0px" y="0px" width="16px"
	 height="16px" viewBox="0 0 16 16" enable-background="new 0 0 16 16" xml:space="preserve">
<g id="background">
	<rect fill="#FFFFFF" width="16" height="16"/>
</g>
<g id="Layer_1">
	<g id="XMLID_1_">
		<g>
			<g id="XMLID_2_">
				<g>
					<path fill="none" stroke="#40464C" stroke-width="0.3078" stroke-miterlimit="10" d="M3.982,4.035
						C4.01,4.527,4.056,5.041,4.105,5.533c-0.628,0.283-1.328,0.606-1.96,0.934C1.568,5.548,1.177,4.733,1.369,4.396
						C1.586,4.016,2.71,3.97,3.982,4.035z"/>
					<path fill="none" stroke="#40464C" stroke-width="0.3078" stroke-miterlimit="10" d="M15.757,7.98
						c0.003,0.42-0.876,0.993-1.95,1.553c-0.32-0.51-0.697-1.051-1.062-1.56c0.355-0.504,0.723-1.039,1.033-1.542
						C14.865,6.985,15.755,7.556,15.757,7.98z"/>
					<path fill="none" stroke="#40464C" stroke-width="0.3078" stroke-miterlimit="10" d="M13.807,9.533
						c0.575,0.92,0.965,1.734,0.772,2.07c-0.218,0.381-1.341,0.426-2.612,0.36c-0.029-0.491-0.074-1.006-0.123-1.498
						C12.475,10.184,13.174,9.861,13.807,9.533z"/>
					<path fill="none" stroke="#40464C" stroke-width="0.3078" stroke-miterlimit="10" d="M14.543,4.352
						c0.195,0.335-0.193,1.155-0.766,2.081c-0.631-0.321-1.327-0.637-1.953-0.914c0.047-0.496,0.09-1.016,0.115-1.512
						C13.205,3.935,14.324,3.974,14.543,4.352z"/>
					<path fill="none" stroke="#40464C" stroke-width="0.3078" stroke-miterlimit="10" d="M12.745,7.974
						c0.364,0.509,0.739,1.049,1.062,1.56c-0.631,0.327-1.332,0.649-1.961,0.934c-0.039-0.379-0.08-0.745-0.117-1.077
						C12.01,8.998,12.372,8.502,12.745,7.974z"/>
					<path fill="none" stroke="#40464C" stroke-width="0.3078" stroke-miterlimit="10" d="M13.779,6.432
						c-0.312,0.503-0.678,1.037-1.034,1.542c-0.378-0.526-0.744-1.018-1.024-1.404c0.033-0.325,0.07-0.681,0.104-1.05
						C12.45,5.795,13.146,6.111,13.779,6.432z"/>
					<path fill="none" stroke="#40464C" stroke-width="0.3078" stroke-miterlimit="10" d="M12.745,7.974
						c-0.373,0.529-0.737,1.024-1.017,1.415c-0.07-0.639-0.127-1.157-0.129-1.407c0-0.251,0.055-0.77,0.121-1.411
						C12.001,6.956,12.367,7.447,12.745,7.974z"/>
					<path fill="none" stroke="#40464C" stroke-width="0.3078" stroke-miterlimit="10" d="M11.968,11.965
						c0.072,1.266,0.033,2.383-0.345,2.604c-0.334,0.195-1.154-0.192-2.08-0.764c0.32-0.631,0.637-1.33,0.914-1.955
						C10.951,11.896,11.473,11.939,11.968,11.965z"/>
					<path fill="none" stroke="#40464C" stroke-width="0.3078" stroke-miterlimit="10" d="M11.578,1.394
						c0.381,0.217,0.427,1.343,0.361,2.613c-0.491,0.028-1.006,0.074-1.498,0.123c-0.283-0.628-0.605-1.328-0.935-1.96
						C10.428,1.593,11.242,1.202,11.578,1.394z"/>
					<path fill="none" stroke="#40464C" stroke-width="0.3078" stroke-miterlimit="10" d="M11.846,10.467
						c0.049,0.492,0.094,1.006,0.122,1.498c-0.495-0.025-1.017-0.068-1.511-0.115c0.15-0.344,0.293-0.67,0.417-0.947
						C11.158,10.773,11.49,10.625,11.846,10.467z"/>
					<path fill="none" stroke="#40464C" stroke-width="0.3078" stroke-miterlimit="10" d="M11.939,4.007
						c-0.025,0.496-0.066,1.016-0.115,1.512c-0.344-0.153-0.668-0.294-0.947-0.417c-0.127-0.285-0.275-0.616-0.436-0.972
						C10.934,4.081,11.447,4.035,11.939,4.007z"/>
					<path fill="none" stroke="#40464C" stroke-width="0.3078" stroke-miterlimit="10" d="M11.729,9.389
						c0.037,0.332,0.078,0.699,0.117,1.078c-0.354,0.16-0.688,0.307-0.972,0.436c0.167-0.379,0.304-0.676,0.394-0.836
						C11.352,9.92,11.516,9.686,11.729,9.389z"/>
					<path fill="none" stroke="#40464C" stroke-width="0.3078" stroke-miterlimit="10" d="M11.824,5.519
						c-0.035,0.369-0.07,0.726-0.104,1.05c-0.21-0.287-0.371-0.517-0.453-0.658c-0.091-0.157-0.225-0.443-0.392-0.81
						C11.156,5.225,11.48,5.366,11.824,5.519z"/>
					<path fill="none" stroke="#40464C" stroke-width="0.3078" stroke-miterlimit="10" d="M10.874,10.902
						c-0.124,0.277-0.267,0.604-0.417,0.947c-0.371-0.035-0.727-0.07-1.053-0.104c0.289-0.209,0.518-0.371,0.66-0.453
						C10.221,11.203,10.508,11.068,10.874,10.902z"/>
					<path fill="none" stroke="#40464C" stroke-width="0.3078" stroke-miterlimit="10" d="M10.441,4.13
						c0.16,0.355,0.307,0.687,0.436,0.971c-0.379-0.168-0.676-0.304-0.835-0.396C9.895,4.623,9.66,4.459,9.363,4.246
						C9.695,4.208,10.062,4.168,10.441,4.13z"/>
					<path fill="none" stroke="#40464C" stroke-width="0.3078" stroke-miterlimit="10" d="M10.457,11.85
						c-0.277,0.625-0.594,1.324-0.914,1.955C9.038,13.492,8.504,13.127,8,12.77c0.525-0.379,1.02-0.744,1.404-1.022
						C9.73,11.779,10.086,11.816,10.457,11.85z"/>
					<path fill="none" stroke="#40464C" stroke-width="0.3078" stroke-miterlimit="10" d="M9.508,2.169
						c0.328,0.633,0.65,1.333,0.934,1.961c-0.379,0.038-0.746,0.078-1.077,0.115C8.973,3.966,8.477,3.603,7.949,3.229
						C8.458,2.864,8.999,2.488,9.508,2.169z"/>
					<path fill="none" stroke="#40464C" stroke-width="0.3078" stroke-miterlimit="10" d="M9.404,11.746
						C9.02,12.025,8.525,12.393,8,12.77c-0.528-0.373-1.022-0.733-1.412-1.016c0.638-0.07,1.155-0.127,1.406-0.129
						C8.245,11.625,8.764,11.68,9.404,11.746z"/>
					<path fill="none" stroke="#40464C" stroke-width="0.3078" stroke-miterlimit="10" d="M7.95,3.23
						c0.528,0.373,1.022,0.736,1.414,1.016c-0.64,0.07-1.157,0.127-1.408,0.128s-0.77-0.053-1.411-0.12
						C6.931,3.975,7.423,3.608,7.95,3.23z"/>
					<path fill="none" stroke="#40464C" stroke-width="0.3078" stroke-miterlimit="10" d="M9.543,13.805
						c-0.553,1.086-1.125,1.975-1.548,1.978C7.574,15.785,7,14.906,6.443,13.83C6.951,13.512,7.492,13.135,8,12.77
						C8.504,13.127,9.038,13.492,9.543,13.805z"/>
					<path fill="none" stroke="#40464C" stroke-width="0.3078" stroke-miterlimit="10" d="M9.508,2.169
						C8.999,2.488,8.458,2.864,7.95,3.23C7.446,2.873,6.911,2.507,6.407,2.195C6.96,1.109,7.532,0.219,7.956,0.217
						C8.375,0.215,8.949,1.095,9.508,2.169z"/>
					<path fill="none" stroke="#40464C" stroke-width="0.3078" stroke-miterlimit="10" d="M6.588,11.754
						C6.978,12.033,7.472,12.396,8,12.77c-0.509,0.365-1.049,0.74-1.558,1.062c-0.328-0.631-0.651-1.33-0.934-1.959
						C5.888,11.832,6.254,11.791,6.588,11.754z"/>
					<path fill="none" stroke="#40464C" stroke-width="0.3078" stroke-miterlimit="10" d="M7.95,3.23
						C7.423,3.608,6.931,3.975,6.544,4.254C6.22,4.222,5.863,4.185,5.494,4.149C5.77,3.524,6.086,2.827,6.407,2.195
						C6.911,2.506,7.446,2.873,7.95,3.23z"/>
					<path fill="none" stroke="#40464C" stroke-width="0.3078" stroke-miterlimit="10" d="M6.544,4.254
						c-0.287,0.209-0.517,0.37-0.658,0.453c-0.157,0.091-0.443,0.225-0.81,0.391C5.2,4.818,5.341,4.495,5.494,4.149
						C5.863,4.185,6.22,4.222,6.544,4.254z"/>
					<path fill="none" stroke="#40464C" stroke-width="0.3078" stroke-miterlimit="10" d="M5.908,11.293
						c0.146,0.084,0.382,0.248,0.68,0.461c-0.334,0.037-0.701,0.078-1.079,0.115c-0.16-0.355-0.307-0.686-0.436-0.973
						C5.452,11.066,5.749,11.203,5.908,11.293z"/>
					<path fill="none" stroke="#40464C" stroke-width="0.3078" stroke-miterlimit="10" d="M5.508,11.869
						c0.283,0.631,0.606,1.328,0.934,1.961c-0.919,0.576-1.734,0.967-2.071,0.773c-0.38-0.218-0.427-1.343-0.361-2.611
						C4.502,11.965,5.016,11.918,5.508,11.869z"/>
					<path fill="none" stroke="#40464C" stroke-width="0.3078" stroke-miterlimit="10" d="M6.407,2.195
						C6.086,2.827,5.77,3.524,5.494,4.149C4.998,4.103,4.479,4.061,3.982,4.035C3.91,2.77,3.949,1.652,4.327,1.432
						C4.662,1.236,5.481,1.624,6.407,2.195z"/>
					<path fill="none" stroke="#40464C" stroke-width="0.3078" stroke-miterlimit="10" d="M5.494,4.15
						C5.341,4.496,5.2,4.819,5.077,5.098C4.792,5.226,4.46,5.374,4.105,5.533C4.056,5.041,4.011,4.527,3.982,4.035
						C4.479,4.061,4.998,4.104,5.494,4.15z"/>
					<path fill="none" stroke="#40464C" stroke-width="0.3078" stroke-miterlimit="10" d="M5.073,10.898
						c0.128,0.285,0.275,0.617,0.435,0.973c-0.492,0.047-1.006,0.094-1.498,0.121c0.025-0.496,0.067-1.016,0.113-1.51
						C4.47,10.633,4.793,10.775,5.073,10.898z"/>
					<path fill="none" stroke="#40464C" stroke-width="0.3078" stroke-miterlimit="10" d="M5.077,5.098
						C4.908,5.476,4.772,5.773,4.681,5.933c-0.084,0.146-0.248,0.383-0.46,0.68c-0.037-0.334-0.078-0.7-0.115-1.08
						C4.46,5.374,4.792,5.226,5.077,5.098z"/>
					<path fill="none" stroke="#40464C" stroke-width="0.3078" stroke-miterlimit="10" d="M4.682,10.09
						c0.091,0.156,0.225,0.443,0.392,0.809c-0.279-0.123-0.604-0.266-0.949-0.416C4.16,10.111,4.196,9.756,4.229,9.43
						C4.438,9.719,4.599,9.947,4.682,10.09z"/>
					<path fill="none" stroke="#40464C" stroke-width="0.3078" stroke-miterlimit="10" d="M4.349,8.019
						C4.35,8.27,4.296,8.788,4.229,9.43c-0.28-0.387-0.646-0.878-1.024-1.405c0.374-0.528,0.736-1.022,1.016-1.412
						C4.292,7.251,4.348,7.768,4.349,8.019z"/>
					<path fill="none" stroke="#40464C" stroke-width="0.3078" stroke-miterlimit="10" d="M4.229,9.43
						c-0.033,0.326-0.069,0.682-0.105,1.053c-0.625-0.276-1.322-0.594-1.953-0.914c0.311-0.504,0.677-1.039,1.034-1.542
						C3.583,8.551,3.949,9.043,4.229,9.43z"/>
					<path fill="none" stroke="#40464C" stroke-width="0.3078" stroke-miterlimit="10" d="M4.105,5.533
						C4.143,5.912,4.183,6.279,4.22,6.612C3.941,7.003,3.579,7.497,3.205,8.025C2.84,7.517,2.464,6.976,2.145,6.467
						C2.777,6.139,3.477,5.816,4.105,5.533z"/>
					<path fill="none" stroke="#40464C" stroke-width="0.3078" stroke-miterlimit="10" d="M4.124,10.482
						c-0.046,0.494-0.088,1.014-0.113,1.51c-1.265,0.072-2.384,0.033-2.604-0.344c-0.195-0.334,0.192-1.154,0.765-2.08
						C2.802,9.889,3.499,10.205,4.124,10.482z"/>
					<path fill="none" stroke="#40464C" stroke-width="0.3078" stroke-miterlimit="10" d="M3.205,8.025
						c-0.357,0.504-0.723,1.04-1.034,1.543C1.085,9.014,0.194,8.442,0.192,8.019C0.19,7.599,1.07,7.025,2.145,6.467
						C2.464,6.976,2.84,7.517,3.205,8.025z"/>
				</g>
				<g>
					<path fill="none" stroke="#40464C" stroke-width="0.3078" d="M13.807,9.533c0.575,0.92,0.965,1.734,0.772,2.07
						c-0.218,0.381-1.341,0.426-2.612,0.36c-0.496-0.024-1.016-0.065-1.512-0.114c-0.369-0.033-0.725-0.07-1.051-0.104
						c-0.643-0.065-1.159-0.121-1.411-0.121c-0.251,0.002-0.768,0.06-1.406,0.131c-0.333,0.035-0.7,0.076-1.079,0.115
						c-0.492,0.047-1.005,0.094-1.498,0.123c-1.266,0.071-2.384,0.03-2.604-0.345c-0.195-0.336,0.193-1.153,0.765-2.08
						c0.31-0.504,0.676-1.041,1.033-1.543c0.374-0.528,0.737-1.022,1.017-1.413c0.213-0.296,0.376-0.533,0.46-0.679
						c0.091-0.16,0.228-0.457,0.396-0.835C5.199,4.82,5.34,4.497,5.493,4.151C5.77,3.526,6.085,2.829,6.407,2.196
						C6.959,1.11,7.531,0.221,7.955,0.218c0.42-0.001,0.993,0.878,1.551,1.953c0.33,0.632,0.65,1.332,0.936,1.96
						c0.158,0.355,0.308,0.687,0.435,0.971c0.166,0.366,0.301,0.653,0.394,0.809c0.082,0.142,0.241,0.372,0.451,0.659
						C12,6.958,12.365,7.448,12.744,7.975C13.109,8.482,13.484,9.023,13.807,9.533z"/>
					<path fill="none" stroke="#40464C" stroke-width="0.3078" d="M6.442,13.83c-0.919,0.576-1.734,0.967-2.071,0.773
						c-0.38-0.218-0.427-1.34-0.361-2.611c0.025-0.496,0.067-1.016,0.114-1.512c0.035-0.369,0.072-0.728,0.105-1.051
						c0.067-0.643,0.121-1.161,0.12-1.413c0-0.251-0.057-0.768-0.128-1.406C4.183,6.277,4.143,5.91,4.105,5.531
						C4.056,5.041,4.01,4.527,3.981,4.035C3.909,2.77,3.949,1.651,4.326,1.431c0.335-0.195,1.155,0.192,2.081,0.764
						C6.91,2.506,7.445,2.872,7.949,3.229c0.528,0.374,1.021,0.737,1.414,1.017c0.297,0.213,0.531,0.376,0.679,0.46
						c0.159,0.092,0.456,0.228,0.835,0.396c0.277,0.123,0.604,0.264,0.947,0.417c0.624,0.276,1.322,0.592,1.953,0.914
						c1.088,0.553,1.978,1.124,1.979,1.548c0.001,0.42-0.877,0.994-1.951,1.551c-0.634,0.329-1.332,0.649-1.964,0.936
						c-0.354,0.158-0.687,0.308-0.971,0.437c-0.366,0.164-0.652,0.299-0.81,0.391c-0.143,0.082-0.373,0.242-0.658,0.451
						c-0.389,0.279-0.879,0.646-1.406,1.025C7.492,13.135,6.951,13.51,6.442,13.83z"/>
					<path fill="none" stroke="#40464C" stroke-width="0.3078" d="M2.145,6.467C1.568,5.548,1.177,4.733,1.369,4.396
						C1.586,4.016,2.71,3.97,3.982,4.035C4.478,4.06,4.998,4.103,5.494,4.149c0.369,0.035,0.726,0.072,1.05,0.104
						c0.642,0.067,1.16,0.121,1.411,0.12c0.251,0,0.77-0.057,1.408-0.128c0.332-0.038,0.699-0.078,1.078-0.116
						c0.492-0.049,1.006-0.095,1.498-0.123c1.266-0.073,2.383-0.033,2.604,0.344c0.195,0.336-0.193,1.155-0.764,2.081
						c-0.312,0.503-0.678,1.038-1.035,1.542c-0.372,0.529-0.736,1.024-1.016,1.416c-0.213,0.297-0.377,0.532-0.461,0.678
						c-0.091,0.16-0.228,0.457-0.395,0.836c-0.124,0.279-0.268,0.604-0.417,0.949c-0.276,0.623-0.595,1.321-0.914,1.953
						c-0.556,1.086-1.125,1.975-1.548,1.977C7.574,15.785,7,14.904,6.442,13.83c-0.328-0.631-0.651-1.33-0.934-1.959
						c-0.16-0.357-0.307-0.689-0.436-0.973c-0.167-0.367-0.3-0.652-0.391-0.81C4.599,9.947,4.438,9.717,4.229,9.43
						c-0.28-0.387-0.646-0.877-1.024-1.405C2.84,7.517,2.464,6.976,2.145,6.467z"/>
					<path fill="none" stroke="#40464C" stroke-width="0.3078" d="M9.508,2.169c0.92-0.577,1.734-0.967,2.07-0.775
						c0.381,0.217,0.427,1.343,0.361,2.613c-0.025,0.496-0.066,1.016-0.115,1.512c-0.033,0.369-0.07,0.726-0.104,1.05
						C11.654,7.211,11.6,7.729,11.6,7.98c0.002,0.251,0.059,0.769,0.129,1.409c0.037,0.332,0.078,0.698,0.117,1.077
						c0.047,0.492,0.094,1.007,0.121,1.498c0.074,1.267,0.033,2.386-0.343,2.604c-0.336,0.195-1.156-0.193-2.08-0.764
						c-0.505-0.312-1.04-0.677-1.543-1.035c-0.528-0.373-1.022-0.736-1.413-1.017c-0.297-0.213-0.534-0.377-0.679-0.461
						c-0.16-0.09-0.457-0.228-0.835-0.396c-0.279-0.123-0.603-0.266-0.949-0.416C3.5,10.205,2.804,9.889,2.173,9.568
						C1.087,9.014,0.196,8.442,0.194,8.019c-0.002-0.42,0.878-0.994,1.952-1.552c0.633-0.328,1.332-0.651,1.96-0.934
						c0.355-0.159,0.687-0.307,0.971-0.436c0.367-0.166,0.653-0.3,0.809-0.391c0.143-0.083,0.372-0.243,0.659-0.452
						C6.932,3.975,7.424,3.608,7.951,3.23C8.458,2.864,8.999,2.488,9.508,2.169z"/>
				</g>
			</g>
		</g>
	</g>
</g>
</svg>
