<?xml version="1.0" encoding="utf-8"?>
<!-- Generator: Adobe Illustrator 16.0.0, SVG Export Plug-In . SVG Version: 6.00 Build 0)  -->
<!DOCTYPE svg PUBLIC "-//W3C//DTD SVG 1.1//EN" "http://www.w3.org/Graphics/SVG/1.1/DTD/svg11.dtd">
<svg version="1.1" id="Layer_1" xmlns="http://www.w3.org/2000/svg" xmlns:xlink="http://www.w3.org/1999/xlink" x="0px" y="0px"
	 width="103px" height="103px" viewBox="0 0 103 103" enable-background="new 0 0 103 103" xml:space="preserve">
<g id="svg4316" xmlns:dc="http://purl.org/dc/elements/1.1/" xmlns:cc="http://creativecommons.org/ns#" xmlns:rdf="http://www.w3.org/1999/02/22-rdf-syntax-ns#" xmlns:svg="http://www.w3.org/2000/svg" xmlns:sodipodi="http://sodipodi.sourceforge.net/DTD/sodipodi-0.dtd" xmlns:inkscape="http://www.inkscape.org/namespaces/inkscape" sodipodi:docname="icon.svg" inkscape:version="0.91 r13725" display="none">
	
		<sodipodi:namedview  units="px" id="base" inkscape:cx="375" inkscape:cy="331.14535" inkscape:zoom="1.0824912" borderopacity="1.0" showgrid="false" pagecolor="#ffffff" bordercolor="#666666" inkscape:window-x="-8" inkscape:window-height="962" inkscape:current-layer="layer1" inkscape:pageopacity="0.0" inkscape:object-paths="true" inkscape:snap-grids="false" inkscape:pageshadow="2" inkscape:window-width="1280" inkscape:document-units="px" inkscape:window-maximized="1" inkscape:window-y="-8">
		</sodipodi:namedview>
	<g id="layer1" transform="translate(0,-5.9998782)" inkscape:label="Layer 1" inkscape:groupmode="layer" display="inline">
		<g id="g4144" transform="translate(-2.8147384,383.66327)">
			
				<path id="path3336" sodipodi:type="star" sodipodi:sides="3" sodipodi:cx="340" sodipodi:cy="292.36218" sodipodi:r1="88.24826" sodipodi:r2="44.12413" sodipodi:arg1="0.5070985" sodipodi:arg2="1.5542961" inkscape:flatsided="false" inkscape:randomized="0" inkscape:rounded="0.15" inkscape:transform-center-x="-0.21068722" inkscape:transform-center-y="-21.809337" fill="none" stroke="#000000" stroke-width="2" d="
				M178.457-236.85c-5.698,9.946-64.961,0.221-76.424,0.26c-11.465,0.039-70.662,10.168-76.425,0.261
				c-5.767-9.908,32.288-56.367,37.987-66.312c5.696-9.947,26.522-66.277,37.985-66.316c11.464-0.039,32.673,56.146,38.438,66.055
				C145.787-292.999,184.157-246.798,178.457-236.85z"/>
			
				<path id="path4138" sodipodi:type="star" sodipodi:sides="3" sodipodi:cx="340" sodipodi:cy="292.36218" sodipodi:r1="88.24826" sodipodi:r2="44.12413" sodipodi:arg1="0.5070985" sodipodi:arg2="1.5542961" inkscape:flatsided="false" inkscape:randomized="0" inkscape:rounded="0.15" inkscape:transform-center-x="-21.809334" inkscape:transform-center-y="0.21068768" fill="none" stroke="#000000" stroke-width="2" d="
				M60-202.02c-9.947-5.697-0.221-64.961-0.26-76.425c-0.039-11.465-10.168-70.659-0.261-76.426
				c9.908-5.766,56.369,32.29,66.315,37.988c9.947,5.697,66.277,26.522,66.316,37.986c0.028,11.465-56.147,32.672-66.062,38.438
				C116.147-234.693,69.949-196.322,60-202.02L60-202.02z"/>
			
				<path id="path4140" sodipodi:type="star" sodipodi:sides="3" sodipodi:cx="340" sodipodi:cy="292.36218" sodipodi:r1="88.24826" sodipodi:r2="44.12413" sodipodi:arg1="0.5070985" sodipodi:arg2="1.5542961" inkscape:flatsided="false" inkscape:randomized="0" inkscape:rounded="0.15" inkscape:transform-center-x="0.21068938" inkscape:transform-center-y="21.809337" fill="none" stroke="#000000" stroke-width="2" d="
				M25.169-320.477c5.698-9.947,64.961-0.222,76.425-0.261c11.465-0.039,70.659-10.167,76.426-0.26
				c5.766,9.907-32.289,56.366-37.986,66.313c-5.689,9.946-26.521,66.276-37.979,66.315s-32.674-56.146-38.439-66.062
				C57.842-264.333,19.471-310.531,25.169-320.477L25.169-320.477z"/>
			
				<path id="path4142" sodipodi:type="star" sodipodi:sides="3" sodipodi:cx="340" sodipodi:cy="292.36218" sodipodi:r1="88.24826" sodipodi:r2="44.12413" sodipodi:arg1="0.5070985" sodipodi:arg2="1.5542961" inkscape:flatsided="false" inkscape:randomized="0" inkscape:rounded="0.15" inkscape:transform-center-x="21.809337" inkscape:transform-center-y="-0.21068638" fill="none" stroke="#000000" stroke-width="2" d="
				M143.625-355.307c9.949,5.697,0.223,64.961,0.262,76.424c0.039,11.466,10.17,70.66,0.262,76.427
				c-9.908,5.771-56.369-32.289-66.316-37.988c-9.944-5.688-66.274-26.521-66.313-37.979c-0.039-11.465,56.146-32.672,66.06-38.438
				C87.481-322.636,133.68-361.007,143.625-355.307L143.625-355.307z"/>
		</g>
		<path id="path4150" inkscape:connector-curvature="0" fill="#808080" d="M60.616,58.364l-6.886-0.521l0.248-11.051
			c0.258-11.449,0.69-14.035,2.707-16.199c1.85-1.983,5.785-1.149,14.086,2.984c3.881,1.935,7.303,3.814,7.604,4.182
			c0.391,0.476-0.354,2.572-2.602,7.351c-1.73,3.678-3.879,8.32-4.771,10.315c-1.166,2.607-1.887,3.605-2.562,3.545
			C67.924,58.922,64.402,58.648,60.616,58.364L60.616,58.364z"/>
		<path id="path4152" inkscape:connector-curvature="0" fill="#808080" d="M91.271,43.076c-3.729-2.561-7.227-4.934-7.771-5.271
			c-0.938-0.584-0.879-0.834,1.104-4.557c5.543-10.402,11.102-17.065,14.232-17.065c2.115,0,4.975,2.588,8.447,7.643
			c3.092,4.5,7.861,12.682,7.564,12.979C113.95,37.7,99.475,47.445,98.85,47.57C98.409,47.659,94.998,45.637,91.271,43.076z"/>
		<path id="path4154" inkscape:connector-curvature="0" fill="#808080" d="M127.049,55.778c-0.705-1.588-2.885-6.256-4.846-10.373
			l-3.562-7.486l1.229-0.946c2.092-1.621,12.883-6.826,15.547-7.503c6.554-1.659,8.438,2.688,8.442,19.468l0.009,8.371l-2.55,0.315
			c-1.396,0.174-4.896,0.479-7.771,0.679l-5.221,0.362L127.049,55.778L127.049,55.778z"/>
		<path id="path4156" inkscape:connector-curvature="0" fill="#808080" d="M156.18,80.549c-4.871-2.309-9.396-4.371-10.059-4.58
			c-1.128-0.354-1.186-0.596-0.885-3.688c0.178-1.82,0.479-5.359,0.682-7.865l0.357-4.555l7.979-0.15
			c8.992-0.166,16.288,0.799,18.516,2.451c1.854,1.379,2.043,4.201,0.562,8.375c-1.432,4.012-7.002,14.248-7.75,14.229
			C165.277,84.752,161.049,82.858,156.18,80.549L156.18,80.549z"/>
		<path id="path4158" inkscape:connector-curvature="0" fill="#808080" d="M162.079,113.631c-2.797-4.119-5.313-7.812-5.593-8.219
			c-0.368-0.529,0.955-2.912,4.82-8.674c2.932-4.369,5.379-8.031,5.438-8.139c0.166-0.305,6.89,3.506,11.822,6.691
			c6.06,3.914,9.238,7.154,9.238,9.404c0,1.422-0.604,2.32-3.354,4.996c-2.75,2.674-10.821,8.086-16.222,10.863
			C167.268,121.064,166.676,120.401,162.079,113.631L162.079,113.631z"/>
		<path id="path4160" inkscape:connector-curvature="0" fill="#808080" d="M147.814,149.825c-1.271-0.295-1.504-1.427-2.107-10.39
			l-0.346-5.09l10.486-4.901l10.479-4.902l1.354,2.306c2.479,4.237,6.09,11.771,6.674,13.938c1.324,4.896,0.229,6.646-5.047,8.021
			C166.148,149.621,150.234,150.383,147.814,149.825L147.814,149.825z"/>
		<path id="path4162" inkscape:connector-curvature="0" fill="#808080" d="M135.291,179.928c-3.488-1.033-6.076-2.213-11.557-5.262
			l-4.857-2.701l4.857-10.43l4.854-10.43l5.096,0.338c2.799,0.186,6.387,0.486,7.971,0.666l2.888,0.328l-0.272,10.246
			c-0.273,10.168-0.932,14.223-2.652,16.543C140.656,180.5,138.157,180.778,135.291,179.928L135.291,179.928z"/>
		<path id="path4164" inkscape:connector-curvature="0" fill="#808080" d="M96.877,193.053c-1.82-1.104-5.121-5.033-7.912-9.404
			c-2.906-4.557-5.754-9.887-5.564-10.42c0.101-0.272,3.711-2.926,8.027-5.871L99.279,162l8.09,5.436l8.091,5.435l-2.481,4.594
			c-4.47,8.271-9.078,14.349-12.049,15.886C99.034,194.307,98.922,194.299,96.877,193.053L96.877,193.053z"/>
		<path id="path4166" inkscape:connector-curvature="0" fill="#808080" d="M56.723,179.338c-0.49-0.748-1.217-2.734-1.611-4.42
			c-0.879-3.736-1.565-16.668-1.062-20.021l0.367-2.438l5.203-0.354c2.861-0.192,6.324-0.5,7.693-0.678
			c2.278-0.293,2.521-0.219,2.887,0.941c0.219,0.697,2.398,5.438,4.846,10.521l4.449,9.264l-2.021,1.271
			c-2.979,1.883-10.271,5.53-12.904,6.463c-1.26,0.44-3.342,0.812-4.625,0.812c-1.902,0-2.492-0.248-3.221-1.354V179.338
			L56.723,179.338z"/>
		<path id="path4168" inkscape:connector-curvature="0" fill="#808080" d="M29.666,149.418c-3.646-0.785-5.713-2.059-6.146-3.789
			c-0.512-2.037,1.182-6.998,4.675-13.693c1.769-3.391,3.39-6.346,3.604-6.562c0.216-0.228,4.77,1.646,10.119,4.147
			c5.351,2.513,10.013,4.562,10.359,4.562c0.625,0,0.396,8.043-0.396,13.804l-0.313,2.274l-9.451-0.045
			C36.922,150.084,31.317,149.773,29.666,149.418z"/>
		<path id="path4170" inkscape:connector-curvature="0" fill="#808080" d="M27.043,119.284
			c-11.127-6.133-17.148-11.177-17.148-14.363c0-1.381,4.667-6.065,8.842-8.881c4.115-2.772,12.016-7.219,12.271-6.905
			c0.09,0.108,1.688,2.487,3.551,5.288c1.863,2.8,4.316,6.354,5.451,7.898l2.063,2.807l-5.38,8.046
			c-2.959,4.424-5.558,8.04-5.772,8.036C30.703,121.207,28.959,120.34,27.043,119.284L27.043,119.284z"/>
		<path id="path4172" inkscape:connector-curvature="0" fill="#B3B3B3" d="M29.075,80.889c-4.108-7.193-5.387-10.479-5.454-13.992
			c-0.055-2.768,0.101-3.27,1.278-4.154c2.312-1.742,8.112-2.594,17.745-2.604l8.902-0.011l0.371,5.765
			c0.205,3.168,0.5,6.604,0.657,7.64l0.285,1.879L42.497,80.37c-5.701,2.729-10.484,4.957-10.632,4.951
			C31.717,85.312,30.463,83.321,29.075,80.889L29.075,80.889z"/>
		<path id="path4174" inkscape:connector-curvature="0" fill="#B3B3B3" d="M39.758,97.532c-5.703-8.229-6.487-9.554-5.969-10.062
			c0.645-0.629,19.016-9.272,19.211-9.039c0.082,0.101,0.371,2.399,0.641,5.112l0.486,4.938L49.2,95.325
			c-2.71,3.762-5.165,6.92-5.458,7.019C43.45,102.437,41.657,100.273,39.758,97.532L39.758,97.532z"/>
		<path id="path4176" inkscape:connector-curvature="0" fill="#B3B3B3" d="M46.33,128.778c-3.683-1.693-8.082-3.791-9.779-4.66
			l-3.086-1.582l4.942-7.356c2.718-4.05,5.083-7.354,5.255-7.354s2.629,3.211,5.461,7.137l5.146,7.143l-0.525,4.779
			c-0.289,2.635-0.57,4.826-0.623,4.885C53.066,131.81,50.01,130.469,46.33,128.778z"/>
		<path id="path4178" inkscape:connector-curvature="0" fill="#B3B3B3" d="M54.646,144.607c0.213-3.108,0.539-6.354,0.727-7.211
			l0.34-1.555l4.371,1.891l4.373,1.892l1.924,4.433c1.061,2.438,1.926,4.539,1.926,4.67c0,0.143-2.713,0.403-6.029,0.604
			c-3.313,0.199-6.477,0.492-7.021,0.647C54.316,150.246,54.283,149.951,54.646,144.607L54.646,144.607z"/>
		<path id="path4180" inkscape:connector-curvature="0" fill="#B3B3B3" d="M80.52,168.241c-0.662-1.254-2.807-5.654-4.762-9.781
			l-3.556-7.502l5.151-0.535l5.149-0.536l7.104,5.062c3.904,2.771,7.1,5.219,7.1,5.424c0,0.377-14.135,10.146-14.682,10.146
			C81.859,170.517,81.184,169.493,80.52,168.241z"/>
		<path id="path4182" inkscape:connector-curvature="0" fill="#B3B3B3" d="M108.875,165.385c-3.744-2.521-6.809-4.807-6.809-5.062
			s3.175-2.771,7.057-5.574c4.908-3.551,7.395-5.032,8.172-4.873c0.613,0.125,2.754,0.382,4.756,0.568
			c3.424,0.315,3.617,0.405,3.276,1.5c-0.903,2.896-8.485,18.043-9.032,18.043C115.959,169.982,112.619,167.914,108.875,165.385
			L108.875,165.385z"/>
		<path id="path4184" inkscape:connector-curvature="0" fill="#B3B3B3" d="M134.596,149.069c-2.299-0.22-4.305-0.521-4.453-0.673
			c-0.146-0.15,0.523-2.146,1.5-4.438l1.773-4.166l4.484-2.078c2.468-1.145,4.594-1.973,4.727-1.84
			c0.273,0.272,1.203,9.371,1.225,12.002c0.021,1.731,0.002,1.74-2.531,1.666C139.92,149.502,136.895,149.289,134.596,149.069
			L134.596,149.069L134.596,149.069z"/>
		<path id="path4186" inkscape:connector-curvature="0" fill="#B3B3B3" d="M144.748,129.409c-0.16-1.117-0.434-3.354-0.605-4.978
			l-0.312-2.946l5.272-7.314l5.271-7.313l4.847,7.057c2.657,3.875,5.021,7.354,5.23,7.729c0.277,0.494-2.073,1.873-8.354,4.896
			C144.596,132.047,145.107,131.918,144.748,129.409L144.748,129.409z"/>
		<path id="path4188" inkscape:connector-curvature="0" fill="#B3B3B3" d="M149.032,95.237l-5.226-7.228l0.361-4.58
			c0.205-2.521,0.578-4.705,0.83-4.86c0.578-0.357,19.229,8.334,19.229,8.961c0,0.407-8.647,13.504-9.604,14.528
			C154.426,102.282,151.907,99.211,149.032,95.237z"/>
		<path id="path4190" inkscape:connector-curvature="0" fill="#B3B3B3" d="M137.545,72.142l-3.91-1.825l-2.033-4.427l-2.035-4.429
			l1.559-0.34c0.854-0.188,4.081-0.512,7.172-0.724l5.624-0.385l-0.271,1.26c-0.146,0.689-0.422,3.853-0.604,7.021
			c-0.229,3.841-0.562,5.746-0.974,5.72C141.732,73.991,139.693,73.148,137.545,72.142L137.545,72.142z"/>
		<path id="path4192" inkscape:connector-curvature="0" fill="#B3B3B3" d="M108.467,55.157c-3.699-2.721-6.834-5.166-6.965-5.438
			c-0.132-0.27,3.135-2.78,7.258-5.582l7.498-5.09l4.666,9.604c2.566,5.278,4.68,9.754,4.694,9.94
			c0.028,0.354-2.405,0.756-7.474,1.233l-2.947,0.276L108.467,55.157z"/>
		<path id="path4194" inkscape:connector-curvature="0" fill="#B3B3B3" d="M75.715,59.641c-1.672-0.181-3.148-0.444-3.283-0.59
			c-0.277-0.304,7.947-18.181,8.721-18.954c0.316-0.317,3.105,1.238,7.494,4.183c3.842,2.578,7.111,4.891,7.267,5.137
			c0.149,0.248-2.894,2.758-6.765,5.58C81.59,60.502,82.1,60.326,75.715,59.641z"/>
		<path id="path4196" inkscape:connector-curvature="0" fill="#666666" d="M54.523,67.469c-0.295-3.893-0.508-7.104-0.478-7.139
			c0.106-0.119,13.989,0.975,14.14,1.113c0.08,0.076-0.748,2.123-1.843,4.551c-2.155,4.785-1.646,4.371-9.618,7.828l-1.666,0.723
			L54.523,67.469L54.523,67.469z"/>
		<path id="path4198" inkscape:connector-curvature="0" fill="#666666" d="M29.403,80.998c-1.151-2.047-2.289-3.723-2.526-3.725
			c-0.24,0-0.297-0.227-0.129-0.492c0.166-0.271-0.049-0.846-0.479-1.277c-0.431-0.43-0.634-0.932-0.452-1.113
			c0.184-0.184,0.102-0.33-0.18-0.33c-0.28,0-0.549-0.521-0.598-1.156c-0.049-0.641-0.281-1.303-0.517-1.479
			c-0.235-0.174-0.511-1.887-0.61-3.807c-0.148-2.877-0.005-3.652,0.819-4.398c1.415-1.277,6.763-2.561,10.696-2.561
			c1.836,0,3.488-0.24,3.67-0.535c0.38-0.615,3.974-0.691,8.773-0.189c3.809,0.396,3.766,0.328,4.088,6.65
			c0.112,2.193,0.278,5.059,0.371,6.361l0.166,2.373l-6.699,3.225c-3.685,1.773-6.779,3.42-6.879,3.66
			c-0.099,0.238-0.399,0.297-0.67,0.131c-0.27-0.166-0.49-0.033-0.49,0.297c0,0.328-0.221,0.461-0.492,0.293
			c-0.271-0.166-0.846,0.051-1.276,0.48c-0.431,0.43-0.933,0.633-1.114,0.451c-0.184-0.188-0.332-0.111-0.334,0.158
			c0,0.271-0.687,0.539-1.523,0.598C31.657,84.709,31.276,84.326,29.403,80.998L29.403,80.998z"/>
		<path id="path4200" inkscape:connector-curvature="0" fill="#666666" d="M29.424,80.623c-3.367-5.615-4.703-8.699-5.129-11.84
			c-0.75-5.527,0.631-6.578,10.451-7.959c6.666-0.938,6.793-0.945,11.426-0.803c2.636,0.082,3.578,0.354,4.556,1.309
			c1.149,1.125,1.233,1.637,1.233,7.543v6.338l-6.967,3.506c-3.832,1.93-7.878,3.959-8.992,4.516
			C32.562,84.946,31.844,84.66,29.424,80.623L29.424,80.623z"/>
		<path id="path4202" inkscape:connector-curvature="0" fill="#666666" d="M29.049,80.086c-3.129-5.209-4.424-8.275-4.858-11.516
			c-0.661-4.916,0.916-6.318,8.296-7.375c2.164-0.312,5.38-0.805,7.148-1.1c4.182-0.693,10.104,0.014,11.386,1.357
			c0.741,0.779,0.901,1.709,0.76,4.385c-0.099,1.867,0.025,3.396,0.274,3.396c0.25,0,0.33,1.354,0.18,3.012l-0.272,3.012
			l-8.843,4.473c-4.862,2.459-9.458,4.479-10.209,4.49C31.769,84.237,31.131,83.553,29.049,80.086L29.049,80.086z"/>
		<path id="path4204" inkscape:connector-curvature="0" fill="#CCCCCC" d="M55.75,81.448c-0.234-2.381-0.387-4.365-0.334-4.41
			c0.227-0.196,7.545-3.416,7.613-3.351c0.207,0.207-3.594,7.44-5.043,9.604c-0.918,1.367-1.697,2.484-1.736,2.484
			C56.209,85.776,55.984,83.828,55.75,81.448z"/>
		<path id="path4206" inkscape:connector-curvature="0" fill="#CCCCCC" d="M49.822,111.868c-2.594-3.545-4.716-6.511-4.716-6.586
			c0-0.211,9.401-13.224,9.492-13.134c0.258,0.261,1.103,9.994,1.118,12.919c0.019,3.383-0.682,12.303-1.016,12.938
			C54.596,118.207,52.885,116.055,49.822,111.868L49.822,111.868z"/>
		<path id="path4208" inkscape:connector-curvature="0" fill="#CCCCCC" d="M59.254,134.748c-1.801-0.82-3.373-1.527-3.492-1.57
			c-0.209-0.072,0.219-6.084,0.547-7.695c0.148-0.729,0.183-0.688,1.937,1.938c2.271,3.402,5.06,8.914,4.476,8.853
			C62.613,136.252,61.055,135.571,59.254,134.748L59.254,134.748z"/>
		<path id="path4210" inkscape:connector-curvature="0" fill="#CCCCCC" d="M70.611,147.685c-0.236-0.547-1.016-2.282-1.729-3.858
			c-0.711-1.574-1.209-2.863-1.104-2.863c0.547,0,8.351,4.173,10.033,5.363l1.959,1.387l-0.789,0.13
			c-1.004,0.166-7.074,0.838-7.563,0.838C71.205,148.68,70.859,148.254,70.611,147.685z"/>
		<path id="path4212" inkscape:connector-curvature="0" fill="#CCCCCC" d="M94.213,155.323c-8.186-5.888-8.025-5.765-7.682-5.947
			c0.699-0.368,8.953-1.039,12.826-1.043c5.149-0.002,13.271,0.744,12.815,1.179c-0.315,0.312-11.612,8.573-12.457,9.118
			C99.281,158.912,98.812,158.631,94.213,155.323z"/>
		<path id="path4214" inkscape:connector-curvature="0" fill="#CCCCCC" d="M122.201,148.028c-2.744-0.281-3.4-0.414-3.156-0.642
			c1.008-0.938,5.145-3.451,7.932-4.824c1.785-0.881,3.291-1.604,3.342-1.604c0.06,0-0.646,1.688-1.562,3.74
			c-1.638,3.687-1.675,3.741-2.375,3.709C125.984,148.394,124.105,148.221,122.201,148.028L122.201,148.028z"/>
		<path id="path4216" inkscape:connector-curvature="0" fill="#CCCCCC" d="M135.7,134.59c1.521-3.334,2.558-5.238,4.198-7.713
			c0.916-1.383,1.729-2.514,1.801-2.516c0.154-0.002,1.025,8.389,0.885,8.529c-0.16,0.149-7.281,3.395-7.477,3.395
			C135.01,136.285,135.275,135.521,135.7,134.59z"/>
		<path id="path4218" inkscape:connector-curvature="0" fill="#CCCCCC" d="M143.227,116.932c-0.578-4.627-0.91-8.896-0.93-11.979
			c-0.023-3.465,0.686-12.795,1-13.146c0.115-0.131,8.623,11.217,9.455,12.61c0.174,0.293-2.636,4.396-8.406,12.281l-0.979,1.342
			L143.227,116.932L143.227,116.932z"/>
		<path id="path4220" inkscape:connector-curvature="0" fill="#CCCCCC" d="M139.825,82.726c-1.421-2.092-5.021-8.844-4.827-9.049
			c0.082-0.086,7.012,2.989,7.248,3.219c0.195,0.188-0.173,5.425-0.531,7.522l-0.148,0.869L139.825,82.726L139.825,82.726z"/>
		<path id="path4222" inkscape:connector-curvature="0" fill="#CCCCCC" d="M126.602,67.33c-2.812-1.367-8.479-4.838-8.26-5.061
			c0.041-0.041,1.654-0.242,3.582-0.445c1.93-0.203,3.834-0.424,4.233-0.49l0.726-0.121l1.672,3.707
			c0.918,2.039,1.67,3.777,1.67,3.863C130.227,69.062,129.91,68.937,126.602,67.33L126.602,67.33z"/>
		<path id="path4224" inkscape:connector-curvature="0" fill="#CCCCCC" d="M97.137,61.766c-2.514-0.146-10.098-0.83-10.834-0.978
			c-0.764-0.151-0.66-0.242,5.563-4.783c3.487-2.545,6.489-4.684,6.674-4.754c0.293-0.113,13.599,9.203,13.401,9.386
			c-0.104,0.092-9.938,1.002-11.998,1.11c-0.899,0.047-2.168,0.058-2.807,0.021V61.766L97.137,61.766z"/>
		<path id="path4226" inkscape:connector-curvature="0" fill="#666666" d="M67.789,68.76c0-0.092,0.704-1.771,1.564-3.736
			l1.562-3.568l0.715,0.113c0.396,0.062,1.929,0.225,3.406,0.357c1.479,0.135,3.047,0.303,3.479,0.373l0.795,0.129l-2.432,1.635
			C73.854,66.098,67.789,69.23,67.789,68.76L67.789,68.76z"/>
		<path id="path4228" inkscape:connector-curvature="0" fill="#666666" d="M96.91,61.737c-0.037-0.039-0.792-0.117-1.676-0.179
			c-1.791-0.119-3.771-0.28-5.697-0.467c-0.707-0.068-1.74-0.162-2.296-0.207c-0.556-0.048-1.062-0.138-1.126-0.199
			c-0.064-0.063,0.381-0.522,0.988-1.019c0.604-0.496,1.297-1.086,1.535-1.312c0.233-0.225,0.479-0.409,0.541-0.409
			c0.233,0,2.229-1.504,2.229-1.682c0-0.104,0.16-0.189,0.357-0.189c0.194,0,0.42-0.156,0.491-0.35
			c0.074-0.194,0.269-0.353,0.429-0.353s0.576-0.262,0.922-0.584c0.348-0.321,0.727-0.584,0.841-0.584
			c0.116,0,0.294-0.133,0.397-0.293c0.103-0.162,0.467-0.438,0.809-0.612c0.342-0.176,0.973-0.642,1.402-1.033
			c0.43-0.394,0.778-0.689,0.778-0.658c0,0.029,0.188-0.018,0.42-0.105c0.3-0.114,1.185,0.347,3.041,1.584
			c1.438,0.959,2.675,1.742,2.736,1.738c0.062-0.002,0.422,0.277,0.795,0.623c0.373,0.346,0.812,0.627,0.969,0.627
			c0.16,0,0.354,0.158,0.429,0.353c0.071,0.192,0.295,0.352,0.489,0.352c0.197,0,0.358,0.104,0.358,0.232
			c0,0.129,0.156,0.233,0.352,0.233c0.192,0,0.354,0.109,0.354,0.242c0,0.131,0.188,0.311,0.41,0.396
			c0.229,0.086,0.67,0.397,0.988,0.692c0.319,0.297,0.672,0.539,0.776,0.539s0.342,0.131,0.521,0.293
			c0.188,0.16,0.498,0.437,0.705,0.61c0.562,0.474,0.146,0.72-1.428,0.851c-0.768,0.063-1.918,0.166-2.562,0.229
			c-0.646,0.063-1.748,0.164-2.455,0.22c-0.707,0.057-1.918,0.155-2.688,0.223C100.156,61.703,96.996,61.823,96.91,61.737
			L96.91,61.737z"/>
		<path id="path4230" inkscape:connector-curvature="0" fill="#666666" d="M128.18,68.014c-0.805-0.381-1.463-0.641-1.463-0.574
			c0,0.063-0.131,0.006-0.291-0.139c-0.416-0.355-4.609-2.777-5.379-3.104c-0.354-0.15-0.643-0.354-0.643-0.455
			c0-0.1-0.158-0.182-0.354-0.182s-0.352-0.105-0.352-0.234s-0.112-0.234-0.25-0.234c-0.403,0-0.954-0.65-0.688-0.814
			c0.131-0.08,0.734-0.188,1.348-0.238c1.402-0.119,3.854-0.396,5.963-0.678c0.777-0.104,0.896-0.053,1.021,0.457
			c0.08,0.314,0.238,0.572,0.354,0.572c0.117,0,0.188,0.08,0.16,0.178c-0.08,0.293,0.604,1.93,0.797,1.93
			c0.104,0,0.16,0.08,0.127,0.18c-0.059,0.188,0.771,2.184,0.988,2.396c0.066,0.062,0.162,0.271,0.209,0.467
			c0.047,0.196,0.146,0.535,0.203,0.762C130.086,68.849,129.877,68.817,128.18,68.014L128.18,68.014z"/>
		<path id="path4232" inkscape:connector-curvature="0" fill="#666666" d="M140.991,84.391c-0.134-0.248-0.373-0.595-0.534-0.771
			c-0.352-0.381-0.361-0.399-3.141-5.379c-1.2-2.149-2.188-4.013-2.188-4.138s0.212-0.211,0.474-0.19
			c0.258,0.021,0.469,0.104,0.469,0.192c0,0.166,1.158,0.55,1.465,0.479c0.097-0.021,0.177,0.066,0.177,0.195
			s0.077,0.211,0.174,0.188c0.101-0.026,0.509,0.127,0.906,0.342c0.397,0.213,0.797,0.322,0.877,0.242s0.146-0.045,0.146,0.08
			c0,0.192,1.555,0.894,1.871,0.84c0.438-0.076,0.612,2.354,0.352,4.854c-0.146,1.349-0.316,3.033-0.34,3.332
			C141.672,85.006,141.229,84.834,140.991,84.391L140.991,84.391z"/>
		<path id="path4234" inkscape:connector-curvature="0" fill="#666666" d="M143.309,117.67c-0.021-0.396-0.188-2.082-0.334-3.248
			c-0.135-1.131-0.246-2.418-0.467-5.379c-0.322-4.334,0.221-15.65,0.801-16.688c0.135-0.242,0.543,0.145,1.529,1.457
			c0.739,0.979,1.438,1.783,1.551,1.783s0.205,0.162,0.205,0.357c0,0.197,0.158,0.418,0.354,0.492
			c0.192,0.072,0.353,0.238,0.353,0.367c0,0.256,1.406,2.123,1.693,2.248c0.098,0.043,0.176,0.229,0.176,0.418
			c0,0.188,0.158,0.396,0.354,0.475c0.193,0.076,0.354,0.256,0.354,0.4c0,0.146,0.313,0.637,0.698,1.088
			c0.383,0.447,0.803,0.941,0.932,1.1c0.133,0.156,0.236,0.367,0.236,0.473c0,0.104,0.252,0.459,0.562,0.791l0.562,0.604
			l-1.587,2.377c-0.87,1.307-1.549,2.375-1.506,2.375s-0.188,0.275-0.496,0.617c-0.312,0.342-0.571,0.703-0.571,0.807
			s-0.265,0.475-0.584,0.818c-0.321,0.348-0.586,0.771-0.586,0.945c0,0.178-0.104,0.312-0.239,0.312
			c-0.134,0-0.312,0.188-0.396,0.407c-0.084,0.221-0.396,0.673-0.688,0.984c-0.296,0.319-0.538,0.655-0.538,0.748
			c0,0.096-0.263,0.448-0.585,0.801c-0.314,0.351-0.584,0.72-0.584,0.813C144.488,116.7,143.322,117.924,143.309,117.67
			L143.309,117.67z"/>
		<path id="path4238" inkscape:connector-curvature="0" fill="#666666" d="M124.783,148.305c-0.083-0.084-1.085-0.188-4.117-0.438
			c-1.531-0.127-1.646-0.438-0.465-1.25c0.562-0.393,1.203-0.871,1.43-1.074c0.225-0.199,0.412-0.287,0.416-0.188
			c0.004,0.098,0.137,0.02,0.293-0.178c0.158-0.189,0.422-0.386,0.588-0.412c0.166-0.033,1.219-0.576,2.338-1.209
			c1.119-0.638,2.482-1.322,3.029-1.541c0.545-0.226,0.994-0.476,0.994-0.562c0-0.088,0.211-0.176,0.467-0.188
			c0.383-0.023,0.428,0.045,0.242,0.393c-0.125,0.229-0.16,0.484-0.078,0.564c0.082,0.082,0.037,0.146-0.102,0.146
			c-0.232,0-0.652,1.08-0.568,1.461c0.021,0.101-0.047,0.176-0.148,0.176c-0.201,0-0.875,1.642-0.797,1.935
			c0.025,0.102-0.035,0.182-0.139,0.182s-0.316,0.354-0.477,0.795c-0.158,0.438-0.416,0.896-0.572,1.021
			C126.82,148.159,124.943,148.465,124.783,148.305L124.783,148.305z"/>
		<path id="path4240" inkscape:connector-curvature="0" fill="#666666" d="M98.076,157.909c-0.74-0.445-1.383-0.812-1.424-0.812
			c-0.043,0-0.359-0.271-0.709-0.584c-0.346-0.321-0.715-0.586-0.816-0.586c-0.104,0-0.473-0.271-0.818-0.584
			c-0.348-0.322-0.715-0.584-0.813-0.584s-0.519-0.312-0.925-0.684c-0.403-0.371-1.012-0.812-1.346-0.984
			c-0.334-0.186-0.922-0.604-1.307-0.953c-0.384-0.354-0.783-0.578-0.891-0.521c-0.105,0.062-0.193,0.029-0.193-0.078
			c0-0.104-0.55-0.604-1.221-1.104l-1.221-0.909l0.692-0.188c0.66-0.18,1.172-0.242,4.438-0.562
			c4.541-0.441,11.793-0.427,16.369,0.043c0.771,0.075,1.719,0.172,2.104,0.207c0.385,0.032,0.982,0.141,1.332,0.229
			c0.543,0.146,0.594,0.229,0.361,0.599c-0.146,0.229-0.326,0.41-0.396,0.391c-0.203-0.062-2.354,1.533-2.354,1.75
			c0,0.104-0.158,0.191-0.355,0.191c-0.193,0-0.418,0.156-0.488,0.354c-0.072,0.188-0.211,0.301-0.307,0.244
			c-0.096-0.062-0.51,0.205-0.926,0.586c-0.416,0.379-0.852,0.688-0.967,0.688c-0.109,0-0.291,0.133-0.396,0.293
			c-0.104,0.162-0.467,0.438-0.812,0.605c-0.342,0.184-0.947,0.623-1.354,0.994c-0.399,0.369-0.84,0.672-0.965,0.672
			s-0.287,0.158-0.354,0.354c-0.074,0.188-0.246,0.354-0.386,0.354c-0.135,0-0.565,0.244-0.969,0.541
			c-0.396,0.299-0.843,0.608-0.979,0.692C99.541,158.653,98.816,158.355,98.076,157.909L98.076,157.909z"/>
		<path id="path4242" inkscape:connector-curvature="0" fill="#666666" d="M70.818,147.907c-0.25-0.41-0.457-0.879-0.457-1.039
			c0-0.162-0.105-0.293-0.234-0.293s-0.207-0.08-0.174-0.181c0.081-0.254-0.814-2.239-1.104-2.446
			c-0.135-0.095-0.168-0.175-0.078-0.177c0.201-0.004-0.489-1.709-0.764-1.881c-0.105-0.065-0.107-0.27-0.006-0.438
			c0.146-0.232,0.443-0.178,1.393,0.311c0.662,0.336,1.203,0.521,1.205,0.431c0.002-0.099,0.082-0.068,0.176,0.067
			c0.229,0.33,5.232,3.043,5.478,2.969c0.104-0.032,0.188,0.048,0.188,0.175c0,0.129,0.158,0.233,0.353,0.233
			c0.192,0,0.351,0.104,0.351,0.229s0.149,0.229,0.332,0.229c0.185,0,0.366,0.082,0.41,0.188c0.04,0.104,0.42,0.424,0.838,0.717
			c0.928,0.652,0.952,0.853,0.116,0.873c-0.354,0.015-1.274,0.101-2.047,0.19C71.088,148.766,71.348,148.771,70.818,147.907
			L70.818,147.907z"/>
		<path id="path4246" inkscape:connector-curvature="0" fill="#666666" d="M53.516,116.687c-0.574-0.633-1.043-1.19-1.045-1.239
			c-0.006-0.229-1.619-2.313-1.792-2.313c-0.106,0-0.193-0.102-0.193-0.227c0-0.32-1.453-2.346-1.682-2.346
			c-0.104,0-0.189-0.152-0.189-0.34c0-0.188-0.184-0.441-0.408-0.566c-0.226-0.127-0.357-0.264-0.295-0.305
			c0.168-0.109-1.441-2.297-1.688-2.297c-0.115,0-0.147-0.104-0.074-0.228c0.074-0.121-0.077-0.356-0.335-0.549
			c-0.258-0.188-0.403-0.396-0.321-0.479c0.082-0.082-0.012-0.212-0.21-0.287c-0.299-0.109-0.265-0.232,0.203-0.742
			c0.31-0.334,0.521-0.646,0.468-0.697c-0.052-0.055,0.206-0.422,0.571-0.822c0.365-0.398,0.61-0.812,0.545-0.922
			c-0.065-0.105-0.005-0.191,0.136-0.191s0.319-0.17,0.398-0.377c0.08-0.207,0.393-0.645,0.693-0.971
			c0.303-0.325,0.551-0.678,0.551-0.779c0-0.104,0.263-0.473,0.584-0.816c0.322-0.35,0.585-0.717,0.585-0.816
			c0-0.099,0.303-0.518,0.673-0.922s0.816-1.012,0.994-1.346c0.177-0.336,0.605-0.924,0.953-1.307
			c0.348-0.384,0.607-0.759,0.576-0.832c-0.029-0.074,0.275-0.482,0.682-0.91l0.734-0.773l0.174,1.479
			c0.098,0.812,0.215,1.896,0.264,2.412c0.047,0.515,0.144,1.515,0.209,2.221c0.412,4.354,0.416,9.669,0.011,14.268
			c-0.074,0.836-0.181,2.104-0.238,2.82s-0.19,1.533-0.297,1.818C54.566,117.812,54.51,117.785,53.516,116.687L53.516,116.687z"/>
		<path id="path4250" inkscape:connector-curvature="0" fill="#666666" d="M56.229,85.099c-0.062-0.104-0.177-0.86-0.25-1.688
			c-0.074-0.824-0.189-1.972-0.256-2.549c-0.068-0.58-0.111-1.457-0.099-1.951c0.015-0.494-0.084-1.033-0.222-1.194
			c-0.289-0.349-0.18-0.449,1.453-1.384c0.611-0.351,1.111-0.573,1.111-0.504c0,0.072,0.447-0.104,0.994-0.39
			c0.545-0.286,1.045-0.528,1.109-0.541c0.436-0.077,1.871-0.704,1.871-0.815c0-0.073,0.211-0.149,0.469-0.172
			c0.586-0.045,0.586-0.049-0.105,1.315c-0.316,0.623-0.51,1.197-0.43,1.277c0.08,0.079,0.018,0.146-0.141,0.146
			c-0.159,0-0.229,0.096-0.154,0.213c0.072,0.117,0.045,0.25-0.062,0.293c-0.106,0.043-0.709,1.023-1.334,2.184
			c-0.625,1.156-1.481,2.65-1.91,3.32c-0.424,0.668-0.771,1.326-0.771,1.461c0,0.137-0.104,0.246-0.233,0.246
			s-0.234,0.146-0.234,0.324C57.032,85.071,56.404,85.383,56.229,85.099L56.229,85.099z"/>
		<path id="path4252" inkscape:connector-curvature="0" fill="#999999" d="M55.057,72.855c-0.254-2.575-0.83-10.551-0.83-11.459
			v-0.877h1.15c1.432,0,12.469,0.916,12.598,1.045c0.129,0.13-2.426,6.087-3.135,7.31c-0.771,1.332-2.084,2.183-6.104,3.949
			c-1.869,0.821-3.43,1.494-3.469,1.494C55.23,74.317,55.135,73.66,55.057,72.855L55.057,72.855z"/>
	</g>
	<g id="layer1_1_" transform="translate(0,-5.9998782)" inkscape:label="Layer 1" inkscape:groupmode="layer" display="inline">
		<g id="g4144_1_" transform="translate(-2.8147384,383.66327)">
			
				<path id="path3336_1_" sodipodi:type="star" sodipodi:sides="3" sodipodi:cx="340" sodipodi:cy="292.36218" sodipodi:r1="88.24826" sodipodi:r2="44.12413" sodipodi:arg1="0.5070985" sodipodi:arg2="1.5542961" inkscape:flatsided="false" inkscape:randomized="0" inkscape:rounded="0.15" inkscape:transform-center-x="-0.21068722" inkscape:transform-center-y="-21.809337" fill="none" stroke="#000000" stroke-width="2" d="
				M178.457-236.85c-5.698,9.946-64.961,0.221-76.424,0.26c-11.465,0.039-70.662,10.168-76.425,0.261
				c-5.767-9.908,32.288-56.367,37.987-66.312c5.696-9.947,26.522-66.277,37.985-66.316c11.464-0.039,32.673,56.146,38.438,66.055
				C145.787-292.999,184.157-246.798,178.457-236.85z"/>
			
				<path id="path4138_1_" sodipodi:type="star" sodipodi:sides="3" sodipodi:cx="340" sodipodi:cy="292.36218" sodipodi:r1="88.24826" sodipodi:r2="44.12413" sodipodi:arg1="0.5070985" sodipodi:arg2="1.5542961" inkscape:flatsided="false" inkscape:randomized="0" inkscape:rounded="0.15" inkscape:transform-center-x="-21.809334" inkscape:transform-center-y="0.21068768" fill="none" stroke="#000000" stroke-width="2" d="
				M60-202.02c-9.947-5.697-0.221-64.961-0.26-76.425c-0.039-11.465-10.168-70.659-0.261-76.426
				c9.908-5.766,56.369,32.29,66.315,37.988c9.947,5.697,66.277,26.522,66.316,37.986c0.028,11.465-56.147,32.672-66.062,38.438
				C116.147-234.693,69.949-196.322,60-202.02L60-202.02z"/>
			
				<path id="path4140_1_" sodipodi:type="star" sodipodi:sides="3" sodipodi:cx="340" sodipodi:cy="292.36218" sodipodi:r1="88.24826" sodipodi:r2="44.12413" sodipodi:arg1="0.5070985" sodipodi:arg2="1.5542961" inkscape:flatsided="false" inkscape:randomized="0" inkscape:rounded="0.15" inkscape:transform-center-x="0.21068938" inkscape:transform-center-y="21.809337" fill="none" stroke="#000000" stroke-width="2" d="
				M25.169-320.477c5.698-9.947,64.961-0.222,76.425-0.261c11.465-0.039,70.659-10.167,76.426-0.26
				c5.766,9.907-32.289,56.366-37.986,66.313c-5.689,9.946-26.521,66.276-37.979,66.315s-32.674-56.146-38.439-66.062
				C57.842-264.333,19.471-310.531,25.169-320.477L25.169-320.477z"/>
			
				<path id="path4142_1_" sodipodi:type="star" sodipodi:sides="3" sodipodi:cx="340" sodipodi:cy="292.36218" sodipodi:r1="88.24826" sodipodi:r2="44.12413" sodipodi:arg1="0.5070985" sodipodi:arg2="1.5542961" inkscape:flatsided="false" inkscape:randomized="0" inkscape:rounded="0.15" inkscape:transform-center-x="21.809337" inkscape:transform-center-y="-0.21068638" fill="none" stroke="#000000" stroke-width="2" d="
				M143.625-355.307c9.949,5.697,0.223,64.961,0.262,76.424c0.039,11.466,10.17,70.66,0.262,76.427
				c-9.908,5.771-56.369-32.289-66.316-37.988c-9.944-5.688-66.274-26.521-66.313-37.979c-0.039-11.465,56.146-32.672,66.06-38.438
				C87.481-322.636,133.68-361.007,143.625-355.307L143.625-355.307z"/>
		</g>
		<path id="path4150_1_" inkscape:connector-curvature="0" fill="#808080" d="M60.616,58.364l-6.886-0.521l0.248-11.051
			c0.258-11.449,0.69-14.035,2.707-16.199c1.85-1.983,5.785-1.149,14.086,2.984c3.881,1.935,7.303,3.814,7.604,4.182
			c0.391,0.476-0.354,2.572-2.602,7.351c-1.73,3.678-3.879,8.32-4.771,10.315c-1.166,2.607-1.887,3.605-2.562,3.545
			C67.924,58.922,64.402,58.648,60.616,58.364L60.616,58.364z"/>
		<path id="path4152_1_" inkscape:connector-curvature="0" fill="#808080" d="M91.271,43.076c-3.729-2.561-7.227-4.934-7.771-5.271
			c-0.938-0.584-0.879-0.834,1.104-4.557c5.543-10.402,11.102-17.065,14.232-17.065c2.115,0,4.975,2.588,8.447,7.643
			c3.092,4.5,7.861,12.682,7.564,12.979C113.95,37.7,99.475,47.445,98.85,47.57C98.409,47.659,94.998,45.637,91.271,43.076z"/>
		<path id="path4154_1_" inkscape:connector-curvature="0" fill="#808080" d="M127.049,55.778
			c-0.705-1.588-2.885-6.256-4.846-10.373l-3.562-7.486l1.229-0.946c2.092-1.621,12.883-6.826,15.547-7.503
			c6.554-1.659,8.438,2.688,8.442,19.468l0.009,8.371l-2.55,0.315c-1.396,0.174-4.896,0.479-7.771,0.679l-5.221,0.362
			L127.049,55.778L127.049,55.778z"/>
		<path id="path4156_1_" inkscape:connector-curvature="0" fill="#808080" d="M156.18,80.549c-4.871-2.309-9.396-4.371-10.059-4.58
			c-1.128-0.354-1.186-0.596-0.885-3.688c0.178-1.82,0.479-5.359,0.682-7.865l0.357-4.555l7.979-0.15
			c8.992-0.166,16.288,0.799,18.516,2.451c1.854,1.379,2.043,4.201,0.562,8.375c-1.432,4.012-7.002,14.248-7.75,14.229
			C165.277,84.752,161.049,82.858,156.18,80.549L156.18,80.549z"/>
		<path id="path4158_1_" inkscape:connector-curvature="0" fill="#808080" d="M162.079,113.631
			c-2.797-4.119-5.313-7.812-5.593-8.219c-0.368-0.529,0.955-2.912,4.82-8.674c2.932-4.369,5.379-8.031,5.438-8.139
			c0.166-0.305,6.89,3.506,11.822,6.691c6.06,3.914,9.238,7.154,9.238,9.404c0,1.422-0.604,2.32-3.354,4.996
			c-2.75,2.674-10.821,8.086-16.222,10.863C167.268,121.064,166.676,120.401,162.079,113.631L162.079,113.631z"/>
		<path id="path4160_1_" inkscape:connector-curvature="0" fill="#808080" d="M147.814,149.825
			c-1.271-0.295-1.504-1.427-2.107-10.39l-0.346-5.09l10.486-4.901l10.479-4.902l1.354,2.306c2.479,4.237,6.09,11.771,6.674,13.938
			c1.324,4.896,0.229,6.646-5.047,8.021C166.148,149.621,150.234,150.383,147.814,149.825L147.814,149.825z"/>
		<path id="path4162_1_" inkscape:connector-curvature="0" fill="#808080" d="M135.291,179.928
			c-3.488-1.033-6.076-2.213-11.557-5.262l-4.857-2.701l4.857-10.43l4.854-10.43l5.096,0.338c2.799,0.186,6.387,0.486,7.971,0.666
			l2.888,0.328l-0.272,10.246c-0.273,10.168-0.932,14.223-2.652,16.543C140.656,180.5,138.157,180.778,135.291,179.928
			L135.291,179.928z"/>
		<path id="path4164_1_" inkscape:connector-curvature="0" fill="#808080" d="M96.877,193.053c-1.82-1.104-5.121-5.033-7.912-9.404
			c-2.906-4.557-5.754-9.887-5.564-10.42c0.101-0.272,3.711-2.926,8.027-5.871L99.279,162l8.09,5.436l8.091,5.435l-2.481,4.594
			c-4.47,8.271-9.078,14.349-12.049,15.886C99.034,194.307,98.922,194.299,96.877,193.053L96.877,193.053z"/>
		<path id="path4166_1_" inkscape:connector-curvature="0" fill="#808080" d="M56.723,179.338c-0.49-0.748-1.217-2.734-1.611-4.42
			c-0.879-3.736-1.565-16.668-1.062-20.021l0.367-2.438l5.203-0.354c2.861-0.192,6.324-0.5,7.693-0.678
			c2.278-0.293,2.521-0.219,2.887,0.941c0.219,0.697,2.398,5.438,4.846,10.521l4.449,9.264l-2.021,1.271
			c-2.979,1.883-10.271,5.53-12.904,6.463c-1.26,0.44-3.342,0.812-4.625,0.812c-1.902,0-2.492-0.248-3.221-1.354V179.338
			L56.723,179.338z"/>
		<path id="path4168_1_" inkscape:connector-curvature="0" fill="#808080" d="M29.666,149.418c-3.646-0.785-5.713-2.059-6.146-3.789
			c-0.512-2.037,1.182-6.998,4.675-13.693c1.769-3.391,3.39-6.346,3.604-6.562c0.216-0.228,4.77,1.646,10.119,4.147
			c5.351,2.513,10.013,4.562,10.359,4.562c0.625,0,0.396,8.043-0.396,13.804l-0.313,2.274l-9.451-0.045
			C36.922,150.084,31.317,149.773,29.666,149.418z"/>
		<path id="path4170_1_" inkscape:connector-curvature="0" fill="#808080" d="M27.043,119.284
			c-11.127-6.133-17.148-11.177-17.148-14.363c0-1.381,4.667-6.065,8.842-8.881c4.115-2.772,12.016-7.219,12.271-6.905
			c0.09,0.108,1.688,2.487,3.551,5.288c1.863,2.8,4.316,6.354,5.451,7.898l2.063,2.807l-5.38,8.046
			c-2.959,4.424-5.558,8.04-5.772,8.036C30.703,121.207,28.959,120.34,27.043,119.284L27.043,119.284z"/>
		<path id="path4172_1_" inkscape:connector-curvature="0" fill="#B3B3B3" d="M29.075,80.889
			c-4.108-7.193-5.387-10.479-5.454-13.992c-0.055-2.768,0.101-3.27,1.278-4.154c2.312-1.742,8.112-2.594,17.745-2.604l8.902-0.011
			l0.371,5.765c0.205,3.168,0.5,6.604,0.657,7.64l0.285,1.879L42.497,80.37c-5.701,2.729-10.484,4.957-10.632,4.951
			C31.717,85.312,30.463,83.321,29.075,80.889L29.075,80.889z"/>
		<path id="path4174_1_" inkscape:connector-curvature="0" fill="#B3B3B3" d="M39.758,97.532c-5.703-8.229-6.487-9.554-5.969-10.062
			c0.645-0.629,19.016-9.272,19.211-9.039c0.082,0.101,0.371,2.399,0.641,5.112l0.486,4.938L49.2,95.325
			c-2.71,3.762-5.165,6.92-5.458,7.019C43.45,102.437,41.657,100.273,39.758,97.532L39.758,97.532z"/>
		<path id="path4176_1_" inkscape:connector-curvature="0" fill="#B3B3B3" d="M46.33,128.778c-3.683-1.693-8.082-3.791-9.779-4.66
			l-3.086-1.582l4.942-7.356c2.718-4.05,5.083-7.354,5.255-7.354s2.629,3.211,5.461,7.137l5.146,7.143l-0.525,4.779
			c-0.289,2.635-0.57,4.826-0.623,4.885C53.066,131.81,50.01,130.469,46.33,128.778z"/>
		<path id="path4178_1_" inkscape:connector-curvature="0" fill="#B3B3B3" d="M54.646,144.607c0.213-3.108,0.539-6.354,0.727-7.211
			l0.34-1.555l4.371,1.891l4.373,1.892l1.924,4.433c1.061,2.438,1.926,4.539,1.926,4.67c0,0.143-2.713,0.403-6.029,0.604
			c-3.313,0.199-6.477,0.492-7.021,0.647C54.316,150.246,54.283,149.951,54.646,144.607L54.646,144.607z"/>
		<path id="path4180_1_" inkscape:connector-curvature="0" fill="#B3B3B3" d="M80.52,168.241c-0.662-1.254-2.807-5.654-4.762-9.781
			l-3.556-7.502l5.151-0.535l5.149-0.536l7.104,5.062c3.904,2.771,7.1,5.219,7.1,5.424c0,0.377-14.135,10.146-14.682,10.146
			C81.859,170.517,81.184,169.493,80.52,168.241z"/>
		<path id="path4182_1_" inkscape:connector-curvature="0" fill="#B3B3B3" d="M108.875,165.385
			c-3.744-2.521-6.809-4.807-6.809-5.062s3.175-2.771,7.057-5.574c4.908-3.551,7.395-5.032,8.172-4.873
			c0.613,0.125,2.754,0.382,4.756,0.568c3.424,0.315,3.617,0.405,3.276,1.5c-0.903,2.896-8.485,18.043-9.032,18.043
			C115.959,169.982,112.619,167.914,108.875,165.385L108.875,165.385z"/>
		<path id="path4184_1_" inkscape:connector-curvature="0" fill="#B3B3B3" d="M134.596,149.069c-2.299-0.22-4.305-0.521-4.453-0.673
			c-0.146-0.15,0.523-2.146,1.5-4.438l1.773-4.166l4.484-2.078c2.468-1.145,4.594-1.973,4.727-1.84
			c0.273,0.272,1.203,9.371,1.225,12.002c0.021,1.731,0.002,1.74-2.531,1.666C139.92,149.502,136.895,149.289,134.596,149.069
			L134.596,149.069L134.596,149.069z"/>
		<path id="path4186_1_" inkscape:connector-curvature="0" fill="#B3B3B3" d="M144.748,129.409c-0.16-1.117-0.434-3.354-0.605-4.978
			l-0.312-2.946l5.272-7.314l5.271-7.313l4.847,7.057c2.657,3.875,5.021,7.354,5.23,7.729c0.277,0.494-2.073,1.873-8.354,4.896
			C144.596,132.047,145.107,131.918,144.748,129.409L144.748,129.409z"/>
		<path id="path4188_1_" inkscape:connector-curvature="0" fill="#B3B3B3" d="M149.032,95.237l-5.226-7.228l0.361-4.58
			c0.205-2.521,0.578-4.705,0.83-4.86c0.578-0.357,19.229,8.334,19.229,8.961c0,0.407-8.647,13.504-9.604,14.528
			C154.426,102.282,151.907,99.211,149.032,95.237z"/>
		<path id="path4190_1_" inkscape:connector-curvature="0" fill="#B3B3B3" d="M137.545,72.142l-3.91-1.825l-2.033-4.427
			l-2.035-4.429l1.559-0.34c0.854-0.188,4.081-0.512,7.172-0.724l5.624-0.385l-0.271,1.26c-0.146,0.689-0.422,3.853-0.604,7.021
			c-0.229,3.841-0.562,5.746-0.974,5.72C141.732,73.991,139.693,73.148,137.545,72.142L137.545,72.142z"/>
		<path id="path4192_1_" inkscape:connector-curvature="0" fill="#B3B3B3" d="M108.467,55.157c-3.699-2.721-6.834-5.166-6.965-5.438
			c-0.132-0.27,3.135-2.78,7.258-5.582l7.498-5.09l4.666,9.604c2.566,5.278,4.68,9.754,4.694,9.94
			c0.028,0.354-2.405,0.756-7.474,1.233l-2.947,0.276L108.467,55.157z"/>
		<path id="path4194_1_" inkscape:connector-curvature="0" fill="#B3B3B3" d="M75.715,59.641c-1.672-0.181-3.148-0.444-3.283-0.59
			c-0.277-0.304,7.947-18.181,8.721-18.954c0.316-0.317,3.105,1.238,7.494,4.183c3.842,2.578,7.111,4.891,7.267,5.137
			c0.149,0.248-2.894,2.758-6.765,5.58C81.59,60.502,82.1,60.326,75.715,59.641z"/>
		<path id="path4196_1_" inkscape:connector-curvature="0" fill="#666666" d="M54.523,67.469c-0.295-3.893-0.508-7.104-0.478-7.139
			c0.106-0.119,13.989,0.975,14.14,1.113c0.08,0.076-0.748,2.123-1.843,4.551c-2.155,4.785-1.646,4.371-9.618,7.828l-1.666,0.723
			L54.523,67.469L54.523,67.469z"/>
		<path id="path4198_1_" inkscape:connector-curvature="0" fill="#666666" d="M29.403,80.998c-1.151-2.047-2.289-3.723-2.526-3.725
			c-0.24,0-0.297-0.227-0.129-0.492c0.166-0.271-0.049-0.846-0.479-1.277c-0.431-0.43-0.634-0.932-0.452-1.113
			c0.184-0.184,0.102-0.33-0.18-0.33c-0.28,0-0.549-0.521-0.598-1.156c-0.049-0.641-0.281-1.303-0.517-1.479
			c-0.235-0.174-0.511-1.887-0.61-3.807c-0.148-2.877-0.005-3.652,0.819-4.398c1.415-1.277,6.763-2.561,10.696-2.561
			c1.836,0,3.488-0.24,3.67-0.535c0.38-0.615,3.974-0.691,8.773-0.189c3.809,0.396,3.766,0.328,4.088,6.65
			c0.112,2.193,0.278,5.059,0.371,6.361l0.166,2.373l-6.699,3.225c-3.685,1.773-6.779,3.42-6.879,3.66
			c-0.099,0.238-0.399,0.297-0.67,0.131c-0.27-0.166-0.49-0.033-0.49,0.297c0,0.328-0.221,0.461-0.492,0.293
			c-0.271-0.166-0.846,0.051-1.276,0.48c-0.431,0.43-0.933,0.633-1.114,0.451c-0.184-0.188-0.332-0.111-0.334,0.158
			c0,0.271-0.687,0.539-1.523,0.598C31.657,84.709,31.276,84.326,29.403,80.998L29.403,80.998z"/>
		<path id="path4200_1_" inkscape:connector-curvature="0" fill="#666666" d="M29.424,80.623c-3.367-5.615-4.703-8.699-5.129-11.84
			c-0.75-5.527,0.631-6.578,10.451-7.959c6.666-0.938,6.793-0.945,11.426-0.803c2.636,0.082,3.578,0.354,4.556,1.309
			c1.149,1.125,1.233,1.637,1.233,7.543v6.338l-6.967,3.506c-3.832,1.93-7.878,3.959-8.992,4.516
			C32.562,84.946,31.844,84.66,29.424,80.623L29.424,80.623z"/>
		<path id="path4202_1_" inkscape:connector-curvature="0" fill="#666666" d="M29.049,80.086c-3.129-5.209-4.424-8.275-4.858-11.516
			c-0.661-4.916,0.916-6.318,8.296-7.375c2.164-0.312,5.38-0.805,7.148-1.1c4.182-0.693,10.104,0.014,11.386,1.357
			c0.741,0.779,0.901,1.709,0.76,4.385c-0.099,1.867,0.025,3.396,0.274,3.396c0.25,0,0.33,1.354,0.18,3.012l-0.272,3.012
			l-8.843,4.473c-4.862,2.459-9.458,4.479-10.209,4.49C31.769,84.237,31.131,83.553,29.049,80.086L29.049,80.086z"/>
		<path id="path4204_1_" inkscape:connector-curvature="0" fill="#CCCCCC" d="M55.75,81.448c-0.234-2.381-0.387-4.365-0.334-4.41
			c0.227-0.196,7.545-3.416,7.613-3.351c0.207,0.207-3.594,7.44-5.043,9.604c-0.918,1.367-1.697,2.484-1.736,2.484
			C56.209,85.776,55.984,83.828,55.75,81.448z"/>
		<path id="path4206_1_" inkscape:connector-curvature="0" fill="#CCCCCC" d="M49.822,111.868c-2.594-3.545-4.716-6.511-4.716-6.586
			c0-0.211,9.401-13.224,9.492-13.134c0.258,0.261,1.103,9.994,1.118,12.919c0.019,3.383-0.682,12.303-1.016,12.938
			C54.596,118.207,52.885,116.055,49.822,111.868L49.822,111.868z"/>
		<path id="path4208_1_" inkscape:connector-curvature="0" fill="#CCCCCC" d="M59.254,134.748c-1.801-0.82-3.373-1.527-3.492-1.57
			c-0.209-0.072,0.219-6.084,0.547-7.695c0.148-0.729,0.183-0.688,1.937,1.938c2.271,3.402,5.06,8.914,4.476,8.853
			C62.613,136.252,61.055,135.571,59.254,134.748L59.254,134.748z"/>
		<path id="path4210_1_" inkscape:connector-curvature="0" fill="#CCCCCC" d="M70.611,147.685c-0.236-0.547-1.016-2.282-1.729-3.858
			c-0.711-1.574-1.209-2.863-1.104-2.863c0.547,0,8.351,4.173,10.033,5.363l1.959,1.387l-0.789,0.13
			c-1.004,0.166-7.074,0.838-7.563,0.838C71.205,148.68,70.859,148.254,70.611,147.685z"/>
		<path id="path4212_1_" inkscape:connector-curvature="0" fill="#CCCCCC" d="M94.213,155.323c-8.186-5.888-8.025-5.765-7.682-5.947
			c0.699-0.368,8.953-1.039,12.826-1.043c5.149-0.002,13.271,0.744,12.815,1.179c-0.315,0.312-11.612,8.573-12.457,9.118
			C99.281,158.912,98.812,158.631,94.213,155.323z"/>
		<path id="path4214_1_" inkscape:connector-curvature="0" fill="#CCCCCC" d="M122.201,148.028c-2.744-0.281-3.4-0.414-3.156-0.642
			c1.008-0.938,5.145-3.451,7.932-4.824c1.785-0.881,3.291-1.604,3.342-1.604c0.06,0-0.646,1.688-1.562,3.74
			c-1.638,3.687-1.675,3.741-2.375,3.709C125.984,148.394,124.105,148.221,122.201,148.028L122.201,148.028z"/>
		<path id="path4216_1_" inkscape:connector-curvature="0" fill="#CCCCCC" d="M135.7,134.59c1.521-3.334,2.558-5.238,4.198-7.713
			c0.916-1.383,1.729-2.514,1.801-2.516c0.154-0.002,1.025,8.389,0.885,8.529c-0.16,0.149-7.281,3.395-7.477,3.395
			C135.01,136.285,135.275,135.521,135.7,134.59z"/>
		<path id="path4218_1_" inkscape:connector-curvature="0" fill="#CCCCCC" d="M143.227,116.932c-0.578-4.627-0.91-8.896-0.93-11.979
			c-0.023-3.465,0.686-12.795,1-13.146c0.115-0.131,8.623,11.217,9.455,12.61c0.174,0.293-2.636,4.396-8.406,12.281l-0.979,1.342
			L143.227,116.932L143.227,116.932z"/>
		<path id="path4220_1_" inkscape:connector-curvature="0" fill="#CCCCCC" d="M139.825,82.726c-1.421-2.092-5.021-8.844-4.827-9.049
			c0.082-0.086,7.012,2.989,7.248,3.219c0.195,0.188-0.173,5.425-0.531,7.522l-0.148,0.869L139.825,82.726L139.825,82.726z"/>
		<path id="path4222_1_" inkscape:connector-curvature="0" fill="#CCCCCC" d="M126.602,67.33c-2.812-1.367-8.479-4.838-8.26-5.061
			c0.041-0.041,1.654-0.242,3.582-0.445c1.93-0.203,3.834-0.424,4.233-0.49l0.726-0.121l1.672,3.707
			c0.918,2.039,1.67,3.777,1.67,3.863C130.227,69.062,129.91,68.937,126.602,67.33L126.602,67.33z"/>
		<path id="path4224_1_" inkscape:connector-curvature="0" fill="#CCCCCC" d="M97.137,61.766c-2.514-0.146-10.098-0.83-10.834-0.978
			c-0.764-0.151-0.66-0.242,5.563-4.783c3.487-2.545,6.489-4.684,6.674-4.754c0.293-0.113,13.599,9.203,13.401,9.386
			c-0.104,0.092-9.938,1.002-11.998,1.11c-0.899,0.047-2.168,0.058-2.807,0.021V61.766L97.137,61.766z"/>
		<path id="path4226_1_" inkscape:connector-curvature="0" fill="#666666" d="M67.789,68.76c0-0.092,0.704-1.771,1.564-3.736
			l1.562-3.568l0.715,0.113c0.396,0.062,1.929,0.225,3.406,0.357c1.479,0.135,3.047,0.303,3.479,0.373l0.795,0.129l-2.432,1.635
			C73.854,66.098,67.789,69.23,67.789,68.76L67.789,68.76z"/>
		<path id="path4228_1_" inkscape:connector-curvature="0" fill="#666666" d="M96.91,61.737c-0.037-0.039-0.792-0.117-1.676-0.179
			c-1.791-0.119-3.771-0.28-5.697-0.467c-0.707-0.068-1.74-0.162-2.296-0.207c-0.556-0.048-1.062-0.138-1.126-0.199
			c-0.064-0.063,0.381-0.522,0.988-1.019c0.604-0.496,1.297-1.086,1.535-1.312c0.233-0.225,0.479-0.409,0.541-0.409
			c0.233,0,2.229-1.504,2.229-1.682c0-0.104,0.16-0.189,0.357-0.189c0.194,0,0.42-0.156,0.491-0.35
			c0.074-0.194,0.269-0.353,0.429-0.353s0.576-0.262,0.922-0.584c0.348-0.321,0.727-0.584,0.841-0.584
			c0.116,0,0.294-0.133,0.397-0.293c0.103-0.162,0.467-0.438,0.809-0.612c0.342-0.176,0.973-0.642,1.402-1.033
			c0.43-0.394,0.778-0.689,0.778-0.658c0,0.029,0.188-0.018,0.42-0.105c0.3-0.114,1.185,0.347,3.041,1.584
			c1.438,0.959,2.675,1.742,2.736,1.738c0.062-0.002,0.422,0.277,0.795,0.623c0.373,0.346,0.812,0.627,0.969,0.627
			c0.16,0,0.354,0.158,0.429,0.353c0.071,0.192,0.295,0.352,0.489,0.352c0.197,0,0.358,0.104,0.358,0.232
			c0,0.129,0.156,0.233,0.352,0.233c0.192,0,0.354,0.109,0.354,0.242c0,0.131,0.188,0.311,0.41,0.396
			c0.229,0.086,0.67,0.397,0.988,0.692c0.319,0.297,0.672,0.539,0.776,0.539s0.342,0.131,0.521,0.293
			c0.188,0.16,0.498,0.437,0.705,0.61c0.562,0.474,0.146,0.72-1.428,0.851c-0.768,0.063-1.918,0.166-2.562,0.229
			c-0.646,0.063-1.748,0.164-2.455,0.22c-0.707,0.057-1.918,0.155-2.688,0.223C100.156,61.703,96.996,61.823,96.91,61.737
			L96.91,61.737z"/>
		<path id="path4230_1_" inkscape:connector-curvature="0" fill="#666666" d="M128.18,68.014c-0.805-0.381-1.463-0.641-1.463-0.574
			c0,0.063-0.131,0.006-0.291-0.139c-0.416-0.355-4.609-2.777-5.379-3.104c-0.354-0.15-0.643-0.354-0.643-0.455
			c0-0.1-0.158-0.182-0.354-0.182s-0.352-0.105-0.352-0.234s-0.112-0.234-0.25-0.234c-0.403,0-0.954-0.65-0.688-0.814
			c0.131-0.08,0.734-0.188,1.348-0.238c1.402-0.119,3.854-0.396,5.963-0.678c0.777-0.104,0.896-0.053,1.021,0.457
			c0.08,0.314,0.238,0.572,0.354,0.572c0.117,0,0.188,0.08,0.16,0.178c-0.08,0.293,0.604,1.93,0.797,1.93
			c0.104,0,0.16,0.08,0.127,0.18c-0.059,0.188,0.771,2.184,0.988,2.396c0.066,0.062,0.162,0.271,0.209,0.467
			c0.047,0.196,0.146,0.535,0.203,0.762C130.086,68.849,129.877,68.817,128.18,68.014L128.18,68.014z"/>
		<path id="path4232_1_" inkscape:connector-curvature="0" fill="#666666" d="M140.991,84.391c-0.134-0.248-0.373-0.595-0.534-0.771
			c-0.352-0.381-0.361-0.399-3.141-5.379c-1.2-2.149-2.188-4.013-2.188-4.138s0.212-0.211,0.474-0.19
			c0.258,0.021,0.469,0.104,0.469,0.192c0,0.166,1.158,0.55,1.465,0.479c0.097-0.021,0.177,0.066,0.177,0.195
			s0.077,0.211,0.174,0.188c0.101-0.026,0.509,0.127,0.906,0.342c0.397,0.213,0.797,0.322,0.877,0.242s0.146-0.045,0.146,0.08
			c0,0.192,1.555,0.894,1.871,0.84c0.438-0.076,0.612,2.354,0.352,4.854c-0.146,1.349-0.316,3.033-0.34,3.332
			C141.672,85.006,141.229,84.834,140.991,84.391L140.991,84.391z"/>
		<path id="path4234_1_" inkscape:connector-curvature="0" fill="#666666" d="M143.309,117.67c-0.021-0.396-0.188-2.082-0.334-3.248
			c-0.135-1.131-0.246-2.418-0.467-5.379c-0.322-4.334,0.221-15.65,0.801-16.688c0.135-0.242,0.543,0.145,1.529,1.457
			c0.739,0.979,1.438,1.783,1.551,1.783s0.205,0.162,0.205,0.357c0,0.197,0.158,0.418,0.354,0.492
			c0.192,0.072,0.353,0.238,0.353,0.367c0,0.256,1.406,2.123,1.693,2.248c0.098,0.043,0.176,0.229,0.176,0.418
			c0,0.188,0.158,0.396,0.354,0.475c0.193,0.076,0.354,0.256,0.354,0.4c0,0.146,0.313,0.637,0.698,1.088
			c0.383,0.447,0.803,0.941,0.932,1.1c0.133,0.156,0.236,0.367,0.236,0.473c0,0.104,0.252,0.459,0.562,0.791l0.562,0.604
			l-1.587,2.377c-0.87,1.307-1.549,2.375-1.506,2.375s-0.188,0.275-0.496,0.617c-0.312,0.342-0.571,0.703-0.571,0.807
			s-0.265,0.475-0.584,0.818c-0.321,0.348-0.586,0.771-0.586,0.945c0,0.178-0.104,0.312-0.239,0.312
			c-0.134,0-0.312,0.188-0.396,0.407c-0.084,0.221-0.396,0.673-0.688,0.984c-0.296,0.319-0.538,0.655-0.538,0.748
			c0,0.096-0.263,0.448-0.585,0.801c-0.314,0.351-0.584,0.72-0.584,0.813C144.488,116.7,143.322,117.924,143.309,117.67
			L143.309,117.67z"/>
		<path id="path4238_1_" inkscape:connector-curvature="0" fill="#666666" d="M124.783,148.305
			c-0.083-0.084-1.085-0.188-4.117-0.438c-1.531-0.127-1.646-0.438-0.465-1.25c0.562-0.393,1.203-0.871,1.43-1.074
			c0.225-0.199,0.412-0.287,0.416-0.188c0.004,0.098,0.137,0.02,0.293-0.178c0.158-0.189,0.422-0.386,0.588-0.412
			c0.166-0.033,1.219-0.576,2.338-1.209c1.119-0.638,2.482-1.322,3.029-1.541c0.545-0.226,0.994-0.476,0.994-0.562
			c0-0.088,0.211-0.176,0.467-0.188c0.383-0.023,0.428,0.045,0.242,0.393c-0.125,0.229-0.16,0.484-0.078,0.564
			c0.082,0.082,0.037,0.146-0.102,0.146c-0.232,0-0.652,1.08-0.568,1.461c0.021,0.101-0.047,0.176-0.148,0.176
			c-0.201,0-0.875,1.642-0.797,1.935c0.025,0.102-0.035,0.182-0.139,0.182s-0.316,0.354-0.477,0.795
			c-0.158,0.438-0.416,0.896-0.572,1.021C126.82,148.159,124.943,148.465,124.783,148.305L124.783,148.305z"/>
		<path id="path4240_1_" inkscape:connector-curvature="0" fill="#666666" d="M98.076,157.909c-0.74-0.445-1.383-0.812-1.424-0.812
			c-0.043,0-0.359-0.271-0.709-0.584c-0.346-0.321-0.715-0.586-0.816-0.586c-0.104,0-0.473-0.271-0.818-0.584
			c-0.348-0.322-0.715-0.584-0.813-0.584s-0.519-0.312-0.925-0.684c-0.403-0.371-1.012-0.812-1.346-0.984
			c-0.334-0.186-0.922-0.604-1.307-0.953c-0.384-0.354-0.783-0.578-0.891-0.521c-0.105,0.062-0.193,0.029-0.193-0.078
			c0-0.104-0.55-0.604-1.221-1.104l-1.221-0.909l0.692-0.188c0.66-0.18,1.172-0.242,4.438-0.562
			c4.541-0.441,11.793-0.427,16.369,0.043c0.771,0.075,1.719,0.172,2.104,0.207c0.385,0.032,0.982,0.141,1.332,0.229
			c0.543,0.146,0.594,0.229,0.361,0.599c-0.146,0.229-0.326,0.41-0.396,0.391c-0.203-0.062-2.354,1.533-2.354,1.75
			c0,0.104-0.158,0.191-0.355,0.191c-0.193,0-0.418,0.156-0.488,0.354c-0.072,0.188-0.211,0.301-0.307,0.244
			c-0.096-0.062-0.51,0.205-0.926,0.586c-0.416,0.379-0.852,0.688-0.967,0.688c-0.109,0-0.291,0.133-0.396,0.293
			c-0.104,0.162-0.467,0.438-0.812,0.605c-0.342,0.184-0.947,0.623-1.354,0.994c-0.399,0.369-0.84,0.672-0.965,0.672
			s-0.287,0.158-0.354,0.354c-0.074,0.188-0.246,0.354-0.386,0.354c-0.135,0-0.565,0.244-0.969,0.541
			c-0.396,0.299-0.843,0.608-0.979,0.692C99.541,158.653,98.816,158.355,98.076,157.909L98.076,157.909z"/>
		<path id="path4242_1_" inkscape:connector-curvature="0" fill="#666666" d="M70.818,147.907c-0.25-0.41-0.457-0.879-0.457-1.039
			c0-0.162-0.105-0.293-0.234-0.293s-0.207-0.08-0.174-0.181c0.081-0.254-0.814-2.239-1.104-2.446
			c-0.135-0.095-0.168-0.175-0.078-0.177c0.201-0.004-0.489-1.709-0.764-1.881c-0.105-0.065-0.107-0.27-0.006-0.438
			c0.146-0.232,0.443-0.178,1.393,0.311c0.662,0.336,1.203,0.521,1.205,0.431c0.002-0.099,0.082-0.068,0.176,0.067
			c0.229,0.33,5.232,3.043,5.478,2.969c0.104-0.032,0.188,0.048,0.188,0.175c0,0.129,0.158,0.233,0.353,0.233
			c0.192,0,0.351,0.104,0.351,0.229s0.149,0.229,0.332,0.229c0.185,0,0.366,0.082,0.41,0.188c0.04,0.104,0.42,0.424,0.838,0.717
			c0.928,0.652,0.952,0.853,0.116,0.873c-0.354,0.015-1.274,0.101-2.047,0.19C71.088,148.766,71.348,148.771,70.818,147.907
			L70.818,147.907z"/>
		<path id="path4246_1_" inkscape:connector-curvature="0" fill="#666666" d="M53.516,116.687c-0.574-0.633-1.043-1.19-1.045-1.239
			c-0.006-0.229-1.619-2.313-1.792-2.313c-0.106,0-0.193-0.102-0.193-0.227c0-0.32-1.453-2.346-1.682-2.346
			c-0.104,0-0.189-0.152-0.189-0.34c0-0.188-0.184-0.441-0.408-0.566c-0.226-0.127-0.357-0.264-0.295-0.305
			c0.168-0.109-1.441-2.297-1.688-2.297c-0.115,0-0.147-0.104-0.074-0.228c0.074-0.121-0.077-0.356-0.335-0.549
			c-0.258-0.188-0.403-0.396-0.321-0.479c0.082-0.082-0.012-0.212-0.21-0.287c-0.299-0.109-0.265-0.232,0.203-0.742
			c0.31-0.334,0.521-0.646,0.468-0.697c-0.052-0.055,0.206-0.422,0.571-0.822c0.365-0.398,0.61-0.812,0.545-0.922
			c-0.065-0.105-0.005-0.191,0.136-0.191s0.319-0.17,0.398-0.377c0.08-0.207,0.393-0.645,0.693-0.971
			c0.303-0.325,0.551-0.678,0.551-0.779c0-0.104,0.263-0.473,0.584-0.816c0.322-0.35,0.585-0.717,0.585-0.816
			c0-0.099,0.303-0.518,0.673-0.922s0.816-1.012,0.994-1.346c0.177-0.336,0.605-0.924,0.953-1.307
			c0.348-0.384,0.607-0.759,0.576-0.832c-0.029-0.074,0.275-0.482,0.682-0.91l0.734-0.773l0.174,1.479
			c0.098,0.812,0.215,1.896,0.264,2.412c0.047,0.515,0.144,1.515,0.209,2.221c0.412,4.354,0.416,9.669,0.011,14.268
			c-0.074,0.836-0.181,2.104-0.238,2.82s-0.19,1.533-0.297,1.818C54.566,117.812,54.51,117.785,53.516,116.687L53.516,116.687z"/>
		<path id="path4250_1_" inkscape:connector-curvature="0" fill="#666666" d="M56.229,85.099c-0.062-0.104-0.177-0.86-0.25-1.688
			c-0.074-0.824-0.189-1.972-0.256-2.549c-0.068-0.58-0.111-1.457-0.099-1.951c0.015-0.494-0.084-1.033-0.222-1.194
			c-0.289-0.349-0.18-0.449,1.453-1.384c0.611-0.351,1.111-0.573,1.111-0.504c0,0.072,0.447-0.104,0.994-0.39
			c0.545-0.286,1.045-0.528,1.109-0.541c0.436-0.077,1.871-0.704,1.871-0.815c0-0.073,0.211-0.149,0.469-0.172
			c0.586-0.045,0.586-0.049-0.105,1.315c-0.316,0.623-0.51,1.197-0.43,1.277c0.08,0.079,0.018,0.146-0.141,0.146
			c-0.159,0-0.229,0.096-0.154,0.213c0.072,0.117,0.045,0.25-0.062,0.293c-0.106,0.043-0.709,1.023-1.334,2.184
			c-0.625,1.156-1.481,2.65-1.91,3.32c-0.424,0.668-0.771,1.326-0.771,1.461c0,0.137-0.104,0.246-0.233,0.246
			s-0.234,0.146-0.234,0.324C57.032,85.071,56.404,85.383,56.229,85.099L56.229,85.099z"/>
		<path id="path4252_1_" inkscape:connector-curvature="0" fill="#999999" d="M55.057,72.855c-0.254-2.575-0.83-10.551-0.83-11.459
			v-0.877h1.15c1.432,0,12.469,0.916,12.598,1.045c0.129,0.13-2.426,6.087-3.135,7.31c-0.771,1.332-2.084,2.183-6.104,3.949
			c-1.869,0.821-3.43,1.494-3.469,1.494C55.23,74.317,55.135,73.66,55.057,72.855L55.057,72.855z"/>
	</g>
</g>
<g id="Layer_3">
</g>
<g id="XMLID_1_">
	<g>
		<g id="XMLID_2_">
			<g>
				<path fill="none" stroke="#FFFFFF" stroke-width="2" stroke-miterlimit="10" d="M24.623,24.808
					c0.186,3.198,0.482,6.536,0.801,9.733c-4.082,1.836-8.629,3.937-12.739,6.069c-3.747-5.976-6.289-11.271-5.04-13.457
					C9.061,24.684,16.363,24.383,24.623,24.808z"/>
				<path fill="none" stroke="#FFFFFF" stroke-width="2" stroke-miterlimit="10" d="M101.137,50.439
					c0.012,2.733-5.695,6.458-12.682,10.084c-2.074-3.311-4.521-6.82-6.896-10.125c2.316-3.274,4.699-6.749,6.715-10.02
					C95.334,43.976,101.125,47.689,101.137,50.439z"/>
				<path fill="none" stroke="#FFFFFF" stroke-width="2" stroke-miterlimit="10" d="M88.457,60.525
					c3.742,5.975,6.273,11.271,5.025,13.455c-1.412,2.471-8.719,2.773-16.975,2.348c-0.189-3.193-0.48-6.535-0.805-9.729
					C79.801,64.758,84.348,62.658,88.457,60.525z"/>
				<path fill="none" stroke="#FFFFFF" stroke-width="2" stroke-miterlimit="10" d="M93.246,26.863
					c1.266,2.18-1.248,7.504-4.973,13.518c-4.104-2.088-8.629-4.138-12.689-5.938c0.303-3.22,0.582-6.597,0.744-9.822
					C84.549,24.152,91.818,24.41,93.246,26.863z"/>
				<path fill="none" stroke="#FFFFFF" stroke-width="2" stroke-miterlimit="10" d="M81.564,50.4
					c2.375,3.303,4.816,6.815,6.895,10.125c-4.104,2.133-8.654,4.232-12.742,6.07c-0.246-2.465-0.514-4.844-0.756-7.014
					C76.777,57.047,79.139,53.832,81.564,50.4z"/>
				<path fill="none" stroke="#FFFFFF" stroke-width="2" stroke-miterlimit="10" d="M88.279,40.381
					c-2.016,3.271-4.396,6.741-6.715,10.02c-2.459-3.422-4.838-6.614-6.658-9.128c0.213-2.111,0.453-4.424,0.678-6.826
					C79.648,36.243,84.174,38.293,88.279,40.381z"/>
				<path fill="none" stroke="#FFFFFF" stroke-width="2" stroke-miterlimit="10" d="M81.564,50.4
					c-2.426,3.434-4.789,6.647-6.604,9.184c-0.459-4.146-0.828-7.51-0.834-9.135c-0.01-1.635,0.342-5,0.775-9.173
					C76.727,43.786,79.105,46.978,81.564,50.4z"/>
				<path fill="none" stroke="#FFFFFF" stroke-width="2" stroke-miterlimit="10" d="M76.514,76.328
					c0.471,8.223,0.213,15.486-2.24,16.918c-2.18,1.268-7.51-1.248-13.518-4.963c2.088-4.104,4.137-8.639,5.934-12.699
					C69.91,75.885,73.287,76.166,76.514,76.328z"/>
				<path fill="none" stroke="#FFFFFF" stroke-width="2" stroke-miterlimit="10" d="M73.98,7.649
					c2.471,1.412,2.773,8.719,2.348,16.974c-3.193,0.186-6.535,0.482-9.729,0.801c-1.838-4.082-3.939-8.629-6.07-12.739
					C66.5,8.937,71.799,6.4,73.98,7.649z"/>
				<path fill="none" stroke="#FFFFFF" stroke-width="2" stroke-miterlimit="10" d="M75.713,66.596
					c0.318,3.197,0.615,6.535,0.801,9.73c-3.227-0.16-6.604-0.441-9.82-0.742c0.988-2.248,1.91-4.352,2.713-6.162
					C71.248,68.59,73.406,67.631,75.713,66.596z"/>
				<path fill="none" stroke="#FFFFFF" stroke-width="2" stroke-miterlimit="10" d="M76.328,24.623
					c-0.162,3.226-0.438,6.603-0.744,9.822c-2.242-0.991-4.346-1.91-6.156-2.71c-0.834-1.849-1.791-4.004-2.824-6.312
					C69.793,25.104,73.131,24.808,76.328,24.623z"/>
				<path fill="none" stroke="#FFFFFF" stroke-width="2" stroke-miterlimit="10" d="M74.961,59.582
					c0.242,2.168,0.504,4.549,0.752,7.014c-2.309,1.037-4.465,1.994-6.312,2.828c1.092-2.459,1.979-4.391,2.57-5.426
					C72.514,63.051,73.578,61.51,74.961,59.582z"/>
				<path fill="none" stroke="#FFFFFF" stroke-width="2" stroke-miterlimit="10" d="M75.584,34.445
					c-0.229,2.402-0.465,4.715-0.678,6.826c-1.361-1.865-2.402-3.354-2.939-4.278c-0.588-1.014-1.463-2.878-2.543-5.258
					C71.238,32.536,73.338,33.454,75.584,34.445z"/>
				<path fill="none" stroke="#FFFFFF" stroke-width="2" stroke-miterlimit="10" d="M69.402,69.422
					c-0.803,1.811-1.721,3.914-2.713,6.162c-2.4-0.23-4.715-0.465-6.826-0.678c1.865-1.361,3.355-2.404,4.279-2.941
					C65.156,71.377,67.021,70.504,69.402,69.422z"/>
				<path fill="none" stroke="#FFFFFF" stroke-width="2" stroke-miterlimit="10" d="M66.596,25.424
					c1.037,2.307,1.994,4.463,2.828,6.312c-2.459-1.092-4.395-1.978-5.428-2.569c-0.945-0.543-2.479-1.607-4.412-2.99
					C61.746,25.933,64.127,25.67,66.596,25.424z"/>
				<path fill="none" stroke="#FFFFFF" stroke-width="2" stroke-miterlimit="10" d="M66.689,75.584
					c-1.797,4.061-3.846,8.596-5.934,12.699c-3.277-2.021-6.75-4.4-10.026-6.725c3.422-2.459,6.62-4.844,9.133-6.652
					C61.975,75.119,64.287,75.359,66.689,75.584z"/>
				<path fill="none" stroke="#FFFFFF" stroke-width="2" stroke-miterlimit="10" d="M60.525,12.684
					c2.133,4.111,4.232,8.658,6.07,12.74c-2.469,0.246-4.854,0.51-7.012,0.75c-2.537-1.814-5.754-4.178-9.182-6.604
					C53.711,17.197,57.221,14.756,60.525,12.684z"/>
				<path fill="none" stroke="#FFFFFF" stroke-width="2" stroke-miterlimit="10" d="M59.863,74.906
					c-2.514,1.812-5.711,4.199-9.133,6.658c-3.434-2.426-6.641-4.787-9.178-6.604c4.147-0.457,7.509-0.828,9.139-0.834
					C52.326,74.121,55.693,74.469,59.863,74.906z"/>
				<path fill="none" stroke="#FFFFFF" stroke-width="2" stroke-miterlimit="10" d="M50.406,19.572
					c3.428,2.426,6.641,4.788,9.178,6.604c-4.146,0.459-7.51,0.828-9.139,0.834c-1.635,0.006-5-0.342-9.173-0.778
					C43.787,24.416,46.984,22.03,50.406,19.572z"/>
				<path fill="none" stroke="#FFFFFF" stroke-width="2" stroke-miterlimit="10" d="M60.756,88.283
					c-3.596,7.062-7.311,12.842-10.059,12.854c-2.732,0.014-6.462-5.697-10.085-12.684c3.304-2.07,6.815-4.518,10.119-6.893
					C54.006,83.883,57.479,86.262,60.756,88.283z"/>
				<path fill="none" stroke="#FFFFFF" stroke-width="2" stroke-miterlimit="10" d="M60.525,12.684
					c-3.305,2.072-6.814,4.514-10.12,6.888c-3.275-2.317-6.754-4.698-10.023-6.72C43.978,5.796,47.691,0.011,50.441,0
					C53.172-0.012,56.902,5.701,60.525,12.684z"/>
				<path fill="none" stroke="#FFFFFF" stroke-width="2" stroke-miterlimit="10" d="M41.552,74.961
					c2.537,1.811,5.746,4.178,9.178,6.604c-3.305,2.375-6.814,4.812-10.119,6.891c-2.134-4.107-4.234-8.652-6.07-12.736
					C37.006,75.465,39.384,75.203,41.552,74.961z"/>
				<path fill="none" stroke="#FFFFFF" stroke-width="2" stroke-miterlimit="10" d="M50.406,19.572
					c-3.422,2.458-6.619,4.844-9.134,6.658c-2.111-0.213-4.425-0.453-6.826-0.678c1.797-4.065,3.847-8.596,5.937-12.701
					C43.652,14.873,47.13,17.252,50.406,19.572z"/>
				<path fill="none" stroke="#FFFFFF" stroke-width="2" stroke-miterlimit="10" d="M41.272,26.23
					c-1.865,1.361-3.354,2.402-4.278,2.939c-1.014,0.588-2.878,1.461-5.258,2.543c0.801-1.814,1.719-3.916,2.71-6.16
					C36.847,25.777,39.161,26.018,41.272,26.23z"/>
				<path fill="none" stroke="#FFFFFF" stroke-width="2" stroke-miterlimit="10" d="M37.14,71.969
					c0.945,0.545,2.479,1.607,4.413,2.992c-2.167,0.238-4.547,0.504-7.01,0.75c-1.037-2.311-1.994-4.463-2.828-6.312
					C34.172,70.492,36.103,71.377,37.14,71.969z"/>
				<path fill="none" stroke="#FFFFFF" stroke-width="2" stroke-miterlimit="10" d="M34.541,75.711
					c1.836,4.084,3.938,8.629,6.07,12.74c-5.975,3.744-11.271,6.277-13.457,5.029c-2.47-1.406-2.777-8.721-2.348-16.975
					C28.006,76.328,31.343,76.031,34.541,75.711z"/>
				<path fill="none" stroke="#FFFFFF" stroke-width="2" stroke-miterlimit="10" d="M40.383,12.851
					c-2.09,4.105-4.14,8.635-5.937,12.701c-3.22-0.303-6.597-0.582-9.823-0.745c-0.47-8.22-0.213-15.489,2.24-16.917
					C29.041,6.624,34.367,9.139,40.383,12.851z"/>
				<path fill="none" stroke="#FFFFFF" stroke-width="2" stroke-miterlimit="10" d="M34.446,25.553
					c-0.991,2.246-1.91,4.346-2.71,6.16c-1.848,0.834-4.004,1.791-6.312,2.828c-0.318-3.199-0.615-6.535-0.801-9.733
					C27.849,24.971,31.225,25.25,34.446,25.553z"/>
				<path fill="none" stroke="#FFFFFF" stroke-width="2" stroke-miterlimit="10" d="M31.713,69.4
					c0.834,1.848,1.793,4.004,2.828,6.312c-3.197,0.314-6.535,0.613-9.732,0.801c0.162-3.232,0.437-6.604,0.738-9.822
					C27.793,67.682,29.898,68.6,31.713,69.4z"/>
				<path fill="none" stroke="#FFFFFF" stroke-width="2" stroke-miterlimit="10" d="M31.735,31.713
					c-1.092,2.457-1.978,4.391-2.569,5.426c-0.543,0.947-1.607,2.486-2.99,4.414c-0.241-2.168-0.504-4.547-0.752-7.012
					C27.731,33.506,29.886,32.547,31.735,31.713z"/>
				<path fill="none" stroke="#FFFFFF" stroke-width="2" stroke-miterlimit="10" d="M29.17,64.143
					c0.588,1.014,1.461,2.879,2.543,5.258c-1.814-0.801-3.92-1.719-6.166-2.711c0.229-2.402,0.465-4.721,0.683-6.832
					C27.586,61.729,28.633,63.219,29.17,64.143z"/>
				<path fill="none" stroke="#FFFFFF" stroke-width="2" stroke-miterlimit="10" d="M27.009,50.691c0.006,1.635-0.348,5-0.778,9.167
					c-1.82-2.514-4.2-5.705-6.658-9.126c2.431-3.435,4.788-6.643,6.603-9.178C26.634,45.701,27.004,49.061,27.009,50.691z"/>
				<path fill="none" stroke="#FFFFFF" stroke-width="2" stroke-miterlimit="10" d="M26.23,59.857
					c-0.219,2.113-0.453,4.43-0.684,6.832c-4.065-1.797-8.59-3.848-12.689-5.936c2.018-3.271,4.396-6.75,6.715-10.024
					C22.03,54.152,24.41,57.344,26.23,59.857z"/>
				<path fill="none" stroke="#FFFFFF" stroke-width="2" stroke-miterlimit="10" d="M25.424,34.541
					c0.248,2.463,0.511,4.844,0.752,7.01c-1.815,2.537-4.172,5.745-6.604,9.179c-2.369-3.304-4.811-6.815-6.888-10.119
					C16.795,38.477,21.341,36.377,25.424,34.541z"/>
				<path fill="none" stroke="#FFFFFF" stroke-width="2" stroke-miterlimit="10" d="M25.547,66.689
					c-0.302,3.221-0.576,6.592-0.738,9.824c-8.221,0.471-15.49,0.213-16.918-2.24c-1.265-2.18,1.25-7.504,4.967-13.52
					C16.957,62.842,21.481,64.893,25.547,66.689z"/>
				<path fill="none" stroke="#FFFFFF" stroke-width="2" stroke-miterlimit="10" d="M19.572,50.73
					c-2.318,3.276-4.697,6.752-6.715,10.024C5.801,57.156,0.011,53.441,0,50.694c-0.011-2.731,5.701-6.462,12.684-10.085
					C14.761,43.914,17.205,47.426,19.572,50.73z"/>
			</g>
			<g>
				<path fill="none" stroke="#FFFFFF" stroke-width="2" d="M88.457,60.525c3.742,5.975,6.273,11.271,5.025,13.455
					c-1.412,2.471-8.719,2.773-16.975,2.348c-3.23-0.164-6.605-0.438-9.822-0.744c-2.398-0.225-4.715-0.465-6.822-0.678
					c-4.174-0.438-7.537-0.785-9.175-0.779c-1.63,0.012-4.99,0.375-9.14,0.84c-2.167,0.236-4.547,0.504-7.011,0.752
					c-3.199,0.312-6.535,0.609-9.734,0.801c-8.221,0.475-15.489,0.213-16.917-2.236c-1.265-2.182,1.25-7.506,4.967-13.521
					c2.017-3.27,4.396-6.748,6.715-10.022c2.431-3.434,4.788-6.643,6.603-9.179c1.383-1.927,2.447-3.466,2.99-4.413
					c0.594-1.036,1.479-2.969,2.57-5.428c0.801-1.813,1.719-3.914,2.71-6.159c1.797-4.065,3.847-8.597,5.937-12.701
					c3.593-7.056,7.308-12.841,10.058-12.852c2.731-0.011,6.461,5.701,10.084,12.684c2.137,4.11,4.23,8.657,6.07,12.739
					c1.035,2.309,1.992,4.464,2.826,6.312c1.074,2.38,1.949,4.245,2.545,5.258c0.529,0.924,1.57,2.414,2.938,4.278
					c1.816,2.515,4.197,5.707,6.654,9.129C83.939,53.703,86.381,57.215,88.457,60.525z"/>
				<path fill="none" stroke="#FFFFFF" stroke-width="2" d="M40.611,88.453c-5.975,3.746-11.271,6.279-13.457,5.029
					c-2.47-1.408-2.777-8.719-2.348-16.975c0.164-3.23,0.438-6.605,0.74-9.82c0.229-2.4,0.465-4.723,0.683-6.832
					c0.431-4.166,0.784-7.529,0.778-9.167c-0.006-1.63-0.375-4.989-0.834-9.139c-0.242-2.168-0.504-4.547-0.752-7.012
					c-0.318-3.197-0.615-6.535-0.801-9.732c-0.47-8.221-0.213-15.49,2.24-16.918c2.178-1.266,7.504,1.249,13.52,4.962
					c3.27,2.021,6.749,4.401,10.023,6.72c3.427,2.425,6.642,4.788,9.177,6.604c1.936,1.383,3.469,2.446,4.414,2.99
					c1.035,0.594,2.971,1.479,5.428,2.57c1.812,0.801,3.914,1.719,6.158,2.71c4.062,1.798,8.592,3.847,12.691,5.937
					c7.062,3.596,12.85,7.308,12.857,10.058c0.012,2.732-5.695,6.458-12.686,10.083c-4.104,2.139-8.652,4.232-12.744,6.068
					c-2.311,1.037-4.465,1.996-6.312,2.83c-2.381,1.08-4.242,1.949-5.26,2.541c-0.926,0.537-2.414,1.576-4.275,2.938
					c-2.518,1.812-5.713,4.199-9.135,6.658C47.427,83.939,43.916,86.381,40.611,88.453z"/>
				<path fill="none" stroke="#FFFFFF" stroke-width="2" d="M12.684,40.611c-3.747-5.975-6.289-11.271-5.04-13.457
					c1.417-2.47,8.719-2.771,16.979-2.347c3.227,0.163,6.604,0.442,9.823,0.745c2.401,0.225,4.715,0.465,6.826,0.678
					c4.172,0.438,7.538,0.783,9.173,0.777c1.629-0.004,4.991-0.375,9.139-0.834c2.16-0.24,4.543-0.504,7.012-0.75
					c3.199-0.319,6.535-0.616,9.734-0.801c8.221-0.471,15.484-0.214,16.914,2.239c1.268,2.179-1.246,7.504-4.967,13.519
					c-2.018,3.271-4.395,6.745-6.717,10.02c-2.424,3.434-4.787,6.647-6.604,9.184c-1.383,1.928-2.445,3.469-2.988,4.412
					c-0.596,1.037-1.479,2.971-2.566,5.43c-0.805,1.812-1.723,3.914-2.711,6.16c-1.799,4.062-3.852,8.598-5.938,12.697
					c-3.6,7.059-7.312,12.842-10.059,12.854c-2.732,0.012-6.462-5.699-10.086-12.688c-2.133-4.105-4.233-8.652-6.069-12.736
					c-1.037-2.312-1.994-4.469-2.828-6.312c-1.082-2.381-1.955-4.24-2.543-5.258c-0.537-0.926-1.584-2.416-2.939-4.281
					c-1.82-2.52-4.2-5.703-6.658-9.13C17.205,47.426,14.761,43.914,12.684,40.611z"/>
				<path fill="none" stroke="#FFFFFF" stroke-width="2" d="M60.525,12.684C66.5,8.937,71.799,6.401,73.98,7.649
					c2.471,1.412,2.773,8.719,2.348,16.975c-0.162,3.226-0.439,6.603-0.744,9.822c-0.225,2.402-0.465,4.715-0.678,6.826
					c-0.438,4.172-0.785,7.538-0.779,9.173c0.01,1.629,0.375,4.991,0.834,9.139c0.242,2.168,0.508,4.551,0.756,7.018
					c0.314,3.191,0.611,6.533,0.801,9.729c0.479,8.223,0.215,15.486-2.234,16.918c-2.182,1.268-7.512-1.248-13.521-4.961
					c-3.275-2.021-6.748-4.4-10.023-6.725c-3.435-2.426-6.642-4.789-9.178-6.604c-1.932-1.383-3.467-2.445-4.413-2.99
					c-1.036-0.594-2.968-1.479-5.427-2.568c-1.814-0.801-3.92-1.719-6.166-2.709c-4.065-1.797-8.59-3.85-12.688-5.938
					C5.811,57.158,0.02,53.441,0.009,50.693c-0.011-2.732,5.701-6.462,12.684-10.086c4.11-2.133,8.657-4.232,12.739-6.07
					c2.309-1.035,4.464-1.994,6.312-2.828c2.381-1.08,4.245-1.953,5.258-2.541c0.924-0.539,2.414-1.58,4.278-2.94
					c2.515-1.814,5.712-4.2,9.133-6.658C53.711,17.197,57.221,14.756,60.525,12.684z"/>
			</g>
		</g>
	</g>
</g>
</svg>
