<?xml version="1.0" encoding="utf-8"?>
<!-- Generator: Adobe Illustrator 16.0.0, SVG Export Plug-In . SVG Version: 6.00 Build 0)  -->
<!DOCTYPE svg PUBLIC "-//W3C//DTD SVG 1.1//EN" "http://www.w3.org/Graphics/SVG/1.1/DTD/svg11.dtd">
<svg version="1.1" id="Layer_1" xmlns="http://www.w3.org/2000/svg" xmlns:xlink="http://www.w3.org/1999/xlink" x="0px" y="0px"
	 width="54.398px" height="54.2px" viewBox="0 0 54.398 54.2" enable-background="new 0 0 54.398 54.2" xml:space="preserve">
<g id="Layer_2">
</g>
<g id="Layer_1_1_">
</g>
<g id="Layer_3">
	<g enable-background="new    ">
		<path fill="none" stroke="#3F464C" stroke-width="0.95" stroke-miterlimit="10" d="M21.574,16.754
			c0.031,0.938-0.656,1.688-1.75,1.688c-0.969,0-1.656-0.75-1.656-1.688c0-0.969,0.72-1.719,1.72-1.719
			C20.918,15.036,21.574,15.786,21.574,16.754z M18.511,36.129V21.004h2.75v15.125H18.511z"/>
		<path fill="none" stroke="#3F464C" stroke-width="0.95" stroke-miterlimit="10" d="M25.823,25.098
			c0-1.562-0.031-2.844-0.125-4.094h2.437l0.156,2.5h0.062c0.75-1.438,2.5-2.844,5-2.844c2.094,0,5.344,1.25,5.344,6.438v9.031
			h-2.75V27.41c0-2.438-0.906-4.469-3.5-4.469c-1.812,0-3.219,1.281-3.688,2.812c-0.125,0.344-0.188,0.812-0.188,1.281v9.093h-2.75
			V25.098H25.823z"/>
	</g>
	<circle fill="none" stroke="#3F464C" stroke-width="2" stroke-miterlimit="10" cx="27.443" cy="25.861" r="20.562"/>
</g>
</svg>
