<?xml version="1.0" encoding="UTF-8" standalone="no"?>
<!-- Created with Inkscape (http://www.inkscape.org/) -->

<svg
   xmlns:dc="http://purl.org/dc/elements/1.1/"
   xmlns:cc="http://creativecommons.org/ns#"
   xmlns:rdf="http://www.w3.org/1999/02/22-rdf-syntax-ns#"
   xmlns:svg="http://www.w3.org/2000/svg"
   xmlns="http://www.w3.org/2000/svg"
   xmlns:sodipodi="http://sodipodi.sourceforge.net/DTD/sodipodi-0.dtd"
   xmlns:inkscape="http://www.inkscape.org/namespaces/inkscape"
   width="1280"
   height="720"
   viewBox="0 0 1280 719.99999"
   id="svg4249"
   version="1.1"
   inkscape:version="0.91 r13725"
   sodipodi:docname="Unit_2_Wireframe_2.svg">
  <defs
     id="defs4251" />
  <sodipodi:namedview
     id="base"
     pagecolor="#ffffff"
     bordercolor="#666666"
     borderopacity="1.0"
     inkscape:pageopacity="0.0"
     inkscape:pageshadow="2"
     inkscape:zoom="0.92172518"
     inkscape:cx="424.52839"
     inkscape:cy="487.12472"
     inkscape:document-units="px"
     inkscape:current-layer="layer1"
     showgrid="false"
     units="px"
     inkscape:showpageshadow="false"
     inkscape:window-width="1440"
     inkscape:window-height="838"
     inkscape:window-x="-8"
     inkscape:window-y="-8"
     inkscape:window-maximized="1" />
  <metadata
     id="metadata4254">
    <rdf:RDF>
      <cc:Work
         rdf:about="">
        <dc:format>image/svg+xml</dc:format>
        <dc:type
           rdf:resource="http://purl.org/dc/dcmitype/StillImage" />
        <dc:title></dc:title>
      </cc:Work>
    </rdf:RDF>
  </metadata>
  <g
     inkscape:label="Layer 1"
     inkscape:groupmode="layer"
     id="layer1"
     transform="translate(0,-332.3623)">
    <rect
       style="opacity:0.98999999;fill:#130819;fill-opacity:0.1952663;stroke:#000000;stroke-width:1.94869232;stroke-miterlimit:4;stroke-dasharray:none;stroke-opacity:1"
       id="rect4815"
       width="243.05132"
       height="718.05127"
       x="-0.23189338"
       y="333.33667" />
    <rect
       y="334.69583"
       x="342.35306"
       height="718.05127"
       width="243.05132"
       id="rect4849"
       style="opacity:0.98999999;fill:#1767b1;fill-opacity:0.15976329;stroke:#000000;stroke-width:1.94869232;stroke-miterlimit:4;stroke-dasharray:none;stroke-opacity:1" />
    <rect
       style="opacity:0.98999999;fill:#2de1b1;fill-opacity:0.2189349;stroke:#000000;stroke-width:1.94869232;stroke-miterlimit:4;stroke-dasharray:none;stroke-opacity:1"
       id="rect4851"
       width="243.05132"
       height="718.05127"
       x="692.60303"
       y="334.44583" />
    <rect
       y="333.33667"
       x="1035.853"
       height="718.05127"
       width="243.05132"
       id="rect4853"
       style="opacity:0.98999999;fill:none;fill-opacity:0.15384616;stroke:#000000;stroke-width:1.94869232;stroke-miterlimit:4;stroke-dasharray:none;stroke-opacity:1" />
    <text
       xml:space="preserve"
       style="font-style:normal;font-weight:normal;font-size:40px;line-height:125%;font-family:sans-serif;letter-spacing:0px;word-spacing:0px;fill:#000000;fill-opacity:1;stroke:none;stroke-width:1px;stroke-linecap:butt;stroke-linejoin:miter;stroke-opacity:1"
       x="1073.8462"
       y="675.43921"
       id="text4858"
       sodipodi:linespacing="125%"><tspan
         sodipodi:role="line"
         id="tspan4860"
         x="1073.8462"
         y="675.43921">PICTURE</tspan></text>
    <text
       xml:space="preserve"
       style="font-style:normal;font-weight:normal;font-size:40px;line-height:125%;font-family:sans-serif;letter-spacing:0px;word-spacing:0px;fill:#000000;fill-opacity:1;stroke:none;stroke-width:1px;stroke-linecap:butt;stroke-linejoin:miter;stroke-opacity:1"
       x="26.656174"
       y="1010.5567"
       id="text4943"
       sodipodi:linespacing="125%"><tspan
         sodipodi:role="line"
         id="tspan4945"
         x="26.656174"
         y="1010.5567">jackie lee</tspan></text>
    <text
       xml:space="preserve"
       style="font-style:normal;font-weight:normal;font-size:40px;line-height:125%;font-family:sans-serif;letter-spacing:0px;word-spacing:0px;fill:#000000;fill-opacity:1;stroke:none;stroke-width:1px;stroke-linecap:butt;stroke-linejoin:miter;stroke-opacity:1"
       x="384.15384"
       y="1006.67"
       id="text4947"
       sodipodi:linespacing="125%"><tspan
         sodipodi:role="line"
         id="tspan4949"
         x="384.15384"
         y="1006.67">portfolio</tspan></text>
    <text
       xml:space="preserve"
       style="font-style:normal;font-weight:normal;font-size:40px;line-height:125%;font-family:sans-serif;letter-spacing:0px;word-spacing:0px;fill:#000000;fill-opacity:1;stroke:none;stroke-width:1px;stroke-linecap:butt;stroke-linejoin:miter;stroke-opacity:1"
       x="757.22638"
       y="1008.7437"
       id="text4951"
       sodipodi:linespacing="125%"><tspan
         sodipodi:role="line"
         id="tspan4953"
         x="757.22638"
         y="1008.7437">about</tspan></text>
    <rect
       style="opacity:0.98999999;fill:none;fill-opacity:0.15384617;stroke:#000000;stroke-width:2.35431457;stroke-miterlimit:4;stroke-dasharray:none;stroke-opacity:1"
       id="rect4973"
       width="147.64568"
       height="147.64569"
       x="390.70337"
       y="378.03104" />
    <rect
       y="572.03101"
       x="390.70337"
       height="147.64569"
       width="147.64568"
       id="rect4975"
       style="opacity:0.98999999;fill:none;fill-opacity:0.15384617;stroke:#000000;stroke-width:2.35431457;stroke-miterlimit:4;stroke-dasharray:none;stroke-opacity:1" />
    <rect
       style="opacity:0.98999999;fill:none;fill-opacity:0.15384617;stroke:#000000;stroke-width:2.35431457;stroke-miterlimit:4;stroke-dasharray:none;stroke-opacity:1"
       id="rect4977"
       width="147.64568"
       height="147.64569"
       x="390.70337"
       y="766.03101" />
    <path
       sodipodi:type="star"
       style="opacity:0.98999999;fill:none;fill-opacity:0.2189349;stroke:#000000;stroke-width:2.14400005;stroke-miterlimit:4;stroke-dasharray:none;stroke-opacity:1"
       id="path4211"
       sodipodi:sides="3"
       sodipodi:cx="119.28634"
       sodipodi:cy="452.15833"
       sodipodi:r1="49.94157"
       sodipodi:r2="24.970785"
       sodipodi:arg1="0.51554901"
       sodipodi:arg2="1.5627466"
       inkscape:flatsided="false"
       inkscape:rounded="0.13"
       inkscape:randomized="0"
       d="m 162.73661,476.78015 c -2.772,4.89177 -37.62686,0.30289 -43.24927,0.34815 -5.6224,0.0453 -40.398863,5.19467 -43.249262,0.34816 -2.850398,-4.84652 18.551118,-32.73727 21.323124,-37.62905 2.772008,-4.89177 15.700718,-37.58378 21.323128,-37.62904 5.6224,-0.0453 19.07574,32.43438 21.92614,37.28089 2.8504,4.84652 24.69815,32.38911 21.92614,37.28089 z"
       inkscape:transform-center-x="-0.20100632"
       inkscape:transform-center-y="-12.310912" />
    <path
       inkscape:transform-center-y="0.20102863"
       inkscape:transform-center-x="-12.310914"
       d="m -831.34862,484.61187 c -2.772,4.89178 -37.62686,0.3029 -43.24926,0.34816 -5.62241,0.0453 -40.39887,5.19467 -43.24927,0.34815 -2.8504,-4.84651 18.55112,-32.73727 21.32312,-37.62904 2.77201,-4.89178 15.70072,-37.58378 21.32313,-37.62904 5.6224,-0.0453 19.07574,32.43437 21.92614,37.28089 2.8504,4.84651 24.69815,32.38911 21.92614,37.28088 z"
       inkscape:randomized="0"
       inkscape:rounded="0.13"
       inkscape:flatsided="false"
       sodipodi:arg2="1.5627466"
       sodipodi:arg1="0.51554901"
       sodipodi:r2="24.970785"
       sodipodi:r1="49.94157"
       sodipodi:cy="459.99005"
       sodipodi:cx="-874.79889"
       sodipodi:sides="3"
       id="path4213"
       style="opacity:0.98999999;fill:none;fill-opacity:0.2189349;stroke:#000000;stroke-width:2.14400005;stroke-miterlimit:4;stroke-dasharray:none;stroke-opacity:1"
       sodipodi:type="star"
       transform="matrix(0,1,-1,0,580.30565,1328.0046)" />
    <path
       transform="scale(-1,-1)"
       sodipodi:type="star"
       style="opacity:0.98999999;fill:none;fill-opacity:0.2189349;stroke:#000000;stroke-width:2.14400005;stroke-miterlimit:4;stroke-dasharray:none;stroke-opacity:1"
       id="path4215"
       sodipodi:sides="3"
       sodipodi:cx="-119.26809"
       sodipodi:cy="-454.23499"
       sodipodi:r1="49.94157"
       sodipodi:r2="24.970785"
       sodipodi:arg1="0.51554901"
       sodipodi:arg2="1.5627466"
       inkscape:flatsided="false"
       inkscape:rounded="0.13"
       inkscape:randomized="0"
       d="m -75.817815,-429.61316 c -2.772007,4.89177 -37.626865,0.30289 -43.249265,0.34815 -5.62241,0.0453 -40.39887,5.19467 -43.24927,0.34815 -2.8504,-4.84651 18.55112,-32.73726 21.32312,-37.62904 2.77201,-4.89177 15.70072,-37.58378 21.32313,-37.62904 5.6224,-0.0453 19.07574,32.43437 21.926141,37.28089 2.850399,4.84652 24.69815,32.38911 21.926144,37.28089 z"
       inkscape:transform-center-x="0.20104446"
       inkscape:transform-center-y="12.310909" />
    <path
       inkscape:transform-center-y="-0.20102215"
       inkscape:transform-center-x="12.310907"
       d="m 918.26741,-437.44489 c -2.772,4.89178 -37.62686,0.30289 -43.24927,0.34815 -5.6224,0.0453 -40.39886,5.19467 -43.24926,0.34816 -2.8504,-4.84652 18.55112,-32.73727 21.32312,-37.62904 2.77201,-4.89178 15.70072,-37.58378 21.32313,-37.62904 5.6224,-0.0453 19.07574,32.43437 21.92614,37.28088 2.8504,4.84652 24.69815,32.38912 21.92614,37.28089 z"
       inkscape:randomized="0"
       inkscape:rounded="0.13"
       inkscape:flatsided="false"
       sodipodi:arg2="1.5627466"
       sodipodi:arg1="0.51554901"
       sodipodi:r2="24.970785"
       sodipodi:r1="49.94157"
       sodipodi:cy="-462.06671"
       sodipodi:cx="874.81714"
       sodipodi:sides="3"
       id="path4217"
       style="opacity:0.98999999;fill:none;fill-opacity:0.2189349;stroke:#000000;stroke-width:2.14400005;stroke-miterlimit:4;stroke-dasharray:none;stroke-opacity:1"
       sodipodi:type="star"
       transform="matrix(0,-1,1,0,580.30565,1328.0046)" />
    <path
       style="opacity:0.98999999;fill:#666666;fill-opacity:0.2189349;stroke:#000000;stroke-width:2.04124784;stroke-miterlimit:4;stroke-dasharray:none;stroke-opacity:1"
       d="m 114.48525,417.37207 -3.46887,-2.38447 2.2766,-4.07329 c 1.25213,-2.24031 3.06037,-4.78259 4.01831,-5.64951 1.63062,-1.4757 1.86381,-1.43969 3.65646,0.56453 1.05312,1.17741 2.84076,3.69055 3.97253,5.58476 l 2.05778,3.44402 -3.7875,2.50644 c -2.08312,1.37855 -4.11801,2.4807 -4.52197,2.44922 -0.40396,-0.0315 -2.29546,-1.13024 -4.20334,-2.4417 z"
       id="path4219"
       inkscape:connector-curvature="0" />
    <path
       style="opacity:0.98999999;fill:#666666;fill-opacity:0.2189349;stroke:#000000;stroke-width:2.04124784;stroke-miterlimit:4;stroke-dasharray:none;stroke-opacity:1"
       d="m 117.08601,499.77142 c -1.39331,-1.65586 -3.16624,-4.23464 -3.93984,-5.73062 -1.38561,-2.67947 -1.34923,-2.75791 2.44347,-5.26779 4.07169,-2.69452 4.91677,-2.59637 9.96424,1.15736 1.87219,1.39232 1.86946,1.43719 -0.34193,5.6057 -1.22608,2.31118 -2.986,4.88701 -3.91094,5.72407 -1.55963,1.41144 -1.8656,1.30337 -4.215,-1.48872 z"
       id="path4221"
       inkscape:connector-curvature="0" />
    <path
       style="opacity:0.98999999;fill:#666666;fill-opacity:0.2189349;stroke:#000000;stroke-width:2.04124784;stroke-miterlimit:4;stroke-dasharray:none;stroke-opacity:1"
       d="m 154.96774,456.99542 -2.54173,-3.84081 1.80555,-3.41731 c 0.99305,-1.87953 2.33581,-3.62829 2.9839,-3.88615 1.28735,-0.51221 8.75666,3.54555 10.58775,5.75189 0.92661,1.11649 0.57721,1.85019 -1.85617,3.89774 -1.6487,1.38729 -4.22162,3.1553 -5.71761,3.9289 -2.67908,1.38541 -2.75817,1.34882 -5.26169,-2.43426 z"
       id="path4225"
       inkscape:connector-curvature="0" />
    <path
       style="opacity:0.98999999;fill:#999999;fill-opacity:0.2189349;stroke:#000000;stroke-width:2.04124784;stroke-miterlimit:4;stroke-dasharray:none;stroke-opacity:1"
       d="m 75.926675,458.42514 c -2.6931,-1.7488 -5.15774,-3.60226 -5.47698,-4.1188 -0.64204,-1.03884 3.89654,-5.18268 8.00116,-7.30526 2.57425,-1.33119 2.69604,-1.27195 5.21726,2.53789 2.74998,4.15549 2.63457,5.10039 -1.22167,10.0024 l -1.62322,2.06342 -4.89655,-3.17965 z"
       id="path4227"
       inkscape:connector-curvature="0" />
    <path
       style="opacity:0.98999999;fill:#999999;fill-opacity:0.2189349;stroke:#000000;stroke-width:2.04124784;stroke-miterlimit:4;stroke-dasharray:none;stroke-opacity:1"
       d="m 95.263025,425.90081 c -0.93005,-0.93005 -0.74697,-11.99505 0.22383,-13.52767 0.67942,-1.07263 1.798,-0.86593 6.186555,1.14321 l 5.35715,2.45259 -2.59115,5.28329 c -2.31971,4.7298 -2.90287,5.2833 -5.566425,5.2833 -1.63639,0 -3.26087,-0.28563 -3.60996,-0.63472 z"
       id="path4229"
       inkscape:connector-curvature="0" />
    <path
       style="opacity:0.98999999;fill:#999999;fill-opacity:0.2189349;stroke:#000000;stroke-width:2.04124784;stroke-miterlimit:4;stroke-dasharray:none;stroke-opacity:1"
       d="m 136.30712,492.65512 c -4.91557,-2.55914 -4.93803,-2.74892 -1.18421,-10.008 1.31966,-2.55194 1.92833,-2.86865 5.0195,-2.61174 3.4357,0.28554 3.5248,0.39175 3.82107,4.55526 0.39416,5.53922 -0.56241,10.50597 -2.01262,10.44992 -0.63082,-0.0244 -3.1705,-1.09783 -5.64374,-2.38544 z"
       id="path4231"
       inkscape:connector-curvature="0" />
    <path
       style="opacity:0.98999999;fill:#999999;fill-opacity:0.2189349;stroke:#000000;stroke-width:2.04124784;stroke-miterlimit:4;stroke-dasharray:none;stroke-opacity:1"
       d="m 151.03872,438.4355 c -4.83508,-2.19724 -4.9984,-2.39766 -4.9984,-6.13364 l 0,-3.86218 6.42651,0.0146 c 9.1177,0.0207 9.57784,0.51007 6.59847,7.01788 -1.34574,2.93948 -2.57762,5.31983 -2.7375,5.28967 -0.15988,-0.0302 -2.53996,-1.077 -5.28908,-2.3263 z"
       id="path4233"
       inkscape:connector-curvature="0" />
    <path
       style="opacity:0.98999999;fill:#999999;fill-opacity:0.2189349;stroke:#000000;stroke-width:2.04124784;stroke-miterlimit:4;stroke-dasharray:none;stroke-opacity:1"
       d="m 78.460425,477.02636 c -1.20676,-0.76305 -1.03844,-1.65112 1.16416,-6.14212 l 2.57488,-5.25009 4.83812,2.24153 c 6.15081,2.84971 6.03148,2.69844 5.28168,6.69521 l -0.63347,3.37666 -5.90732,-0.0146 c -3.24903,-0.008 -6.54215,-0.41599 -7.31805,-0.90661 z"
       id="path4235"
       inkscape:connector-curvature="0" />
    <path
       style="opacity:0.98999999;fill:#999999;fill-opacity:0.2189349;stroke:#000000;stroke-width:2.04124784;stroke-miterlimit:4;stroke-dasharray:none;stroke-opacity:1"
       d="m 79.369085,436.67945 c -3.05319,-5.75532 -2.31057,-6.89769 4.90954,-7.55239 3.30146,-0.29936 6.33808,-0.33699 6.74805,-0.0836 0.40998,0.25338 0.74541,2.06376 0.74541,4.02308 0,3.28213 -0.33907,3.72712 -4.30981,5.65626 -2.37039,1.15162 -4.66724,2.09386 -5.10411,2.09386 -0.43686,0 -1.78195,-1.86173 -2.98908,-4.13719 z"
       id="path4237"
       inkscape:connector-curvature="0" />
    <path
       style="opacity:0.98999999;fill:#999999;fill-opacity:0.2189349;stroke:#000000;stroke-width:2.04124784;stroke-miterlimit:4;stroke-dasharray:none;stroke-opacity:1"
       d="m 96.080405,494.17163 c -0.31043,-0.50229 -0.8261,-3.71554 -1.14594,-7.14056 -0.57893,-6.19971 -0.5707,-6.2273 1.85848,-6.2273 1.342,0 3.0922,-0.25027 3.889335,-0.55616 1.0331,-0.39644 2.14919,0.82492 3.88616,4.25268 1.34025,2.64487 2.43683,5.16616 2.43683,5.60286 0,0.81687 -7.933925,4.98174 -9.490025,4.98174 -0.47873,0 -1.12441,-0.41097 -1.43484,-0.91326 z"
       id="path4239"
       inkscape:connector-curvature="0" />
    <path
       style="opacity:0.98999999;fill:#999999;fill-opacity:0.2189349;stroke:#000000;stroke-width:2.04124784;stroke-miterlimit:4;stroke-dasharray:none;stroke-opacity:1"
       d="m 133.85093,421.54861 c -1.15045,-2.77566 -2.09173,-5.28377 -2.09173,-5.57356 0,-1.08444 8.70342,-4.82473 10.0365,-4.31318 1.03433,0.39691 1.3884,2.23998 1.3884,7.22718 0,6.4456 -0.0856,6.6944 -2.30232,6.6944 -1.26628,0 -2.8956,0.22766 -3.62072,0.50592 -0.89511,0.34349 -1.98998,-1.11438 -3.41013,-4.54076 z"
       id="path4241"
       inkscape:connector-curvature="0" />
    <path
       style="opacity:0.98999999;fill:#333333;fill-opacity:0.2189349;stroke:#000000;stroke-width:2.04124784;stroke-miterlimit:4;stroke-dasharray:none;stroke-opacity:1"
       d="m 147.58077,477.14318 c -0.20044,-0.34306 -0.65825,-1.99414 -1.01734,-3.66906 -0.62434,-2.91205 -0.44315,-3.15161 4.14072,-5.47443 2.63649,-1.33601 5.16307,-2.42911 5.6146,-2.42911 1.36461,0 5.39301,9.47092 4.41229,10.37345 -1.09342,1.00623 -12.64738,2.05982 -13.15027,1.19915 z"
       id="path4245"
       inkscape:connector-curvature="0" />
    <path
       style="opacity:0.98999999;fill:#333333;fill-opacity:0.2189349;stroke:#000000;stroke-width:2.04124784;stroke-miterlimit:4;stroke-dasharray:none;stroke-opacity:1"
       d="m 118.9062,503.877 c 0.56663,-0.4163 -0.37215,-2.04853 -2.31886,-4.03174 -1.79901,-1.83274 -2.70193,-2.57215 -2.00649,-1.64312 0.69543,0.92903 1.02009,1.93348 0.72145,2.23212 -0.29864,0.29864 -1.70264,-1.31835 -3.12,-3.59329 -1.41736,-2.27495 -2.67275,-4.25395 -2.78977,-4.39779 -0.11702,-0.14383 -2.91013,1.01414 -6.20693,2.57328 -8.715545,4.1218 -10.461445,2.44501 -10.461445,-10.04736 l 0,-5.1174 -6.72711,0 c -11.00423,0 -12.38802,-1.87277 -7.91139,-10.70697 2.80158,-5.52866 3.16852,-4.71582 -4.31746,-9.56406 -1.83637,-1.18931 -3.39037,-3.07047 -3.57738,-4.33051 -0.32692,-2.20278 -0.29048,-2.19632 3.24674,0.5763 6.77608,5.31135 7.44032,5.41428 9.8438,1.52537 2.12322,-3.43544 2.1242,-3.45688 0.31192,-6.83048 -0.99989,-1.86132 -1.69209,-3.94947 -1.53822,-4.64032 0.15386,-0.69085 -0.40696,-1.25609 -1.24628,-1.25609 -0.83932,0 -1.29196,-0.37876 -1.00585,-0.84168 0.2861,-0.46293 -0.81648,-3.43343 -2.45019,-6.60112 -1.6337,-3.1677 -2.72306,-6.40395 -2.42078,-7.19167 0.71964,-1.87534 6.53361,-3.44298 12.79381,-3.44963 l 4.99839,-0.005 0,-6.72712 c 0,-10.96904 1.88187,-12.3834 10.599145,-7.96603 2.65286,1.34431 5.0533,2.21427 5.33432,1.93325 0.28102,-0.28102 1.87714,-2.5591 3.54693,-5.0624 1.66979,-2.5033 3.53944,-4.44435 4.15476,-4.31344 0.61533,0.13091 1.01167,-0.29752 0.88076,-0.95207 -0.13091,-0.65455 0.61885,-1.19009 1.66613,-1.19009 1.04728,0 1.92362,0.64265 1.94742,1.42811 0.0238,0.78546 0.57401,1.31612 1.22267,1.17923 0.64867,-0.13688 2.51408,1.89818 4.14535,4.52236 1.63128,2.62417 3.17268,4.77123 3.42533,4.77123 0.25265,0 1.88714,-0.88242 3.6322,-1.96092 4.04539,-2.50019 8.37268,-3.74644 9.84627,-2.8357 1.49047,0.92116 2.86342,6.92685 2.89217,12.65123 l 0.0227,4.52236 6.72712,0 c 7.3281,0 10.41536,1.06969 10.40093,3.60377 -0.005,0.89795 -1.0762,3.92445 -2.38019,6.72556 -1.30398,2.80112 -2.37088,5.37245 -2.37088,5.71409 0,0.34163 1.89057,1.62409 4.20127,2.84992 5.29613,2.80959 8.59318,6.25562 7.8466,8.20117 -0.3135,0.81696 -1.11746,1.3743 -1.78657,1.23853 -0.66913,-0.13576 -1.1046,0.30335 -0.96771,0.97582 0.13688,0.67247 -1.89818,2.55735 -4.52236,4.18863 -2.62418,1.63128 -4.77123,3.13038 -4.77123,3.33134 0,0.20095 1.07108,2.47905 2.38019,5.06244 3.48084,6.86911 3.21475,9.19947 -1.1901,10.42276 -1.96365,0.54534 -5.81955,0.99391 -8.56867,0.99683 l -4.9984,0.005 0,6.72711 c 0,10.92701 -1.89245,12.37804 -10.47282,8.03004 -2.58339,-1.3091 -5.0604,-2.38018 -5.50446,-2.38018 -0.44406,0 -1.47721,1.40463 -2.29589,3.12141 -2.14001,4.48766 -6.38923,9.25796 -8.23153,9.24098 -0.90468,-0.009 -1.17404,-0.31393 -0.62942,-0.71406 z m 5.30599,-7.97643 c 2.41464,-4.73308 2.36617,-4.98992 -1.31576,-6.97277 -2.96613,-1.59736 -3.33085,-1.60322 -6.23747,-0.10015 -1.69793,0.87804 -3.35423,2.29246 -3.68068,3.14317 -0.51866,1.35161 -0.69162,1.31531 -1.37104,-0.2878 -0.74855,-1.7662 -0.76846,-1.76361 -0.53454,0.0696 0.13364,1.04728 0.74163,1.90415 1.35109,1.90415 0.60947,0 2.44985,1.85221 4.08975,4.11603 3.39983,4.69334 4.48361,4.42978 7.69865,-1.87224 z m -23.33374,-1.66799 c -0.68471,-1.10788 2.16046,-2.19885 3.59453,-1.37832 0.6073,0.34747 0.78657,0.28117 0.39838,-0.14733 -0.38818,-0.42851 -0.25969,-1.31663 0.28555,-1.97361 0.90613,-1.09181 0.35333,-2.97275 -2.7473,-9.34802 -0.22645,-0.46562 0.13848,-0.50653 0.81095,-0.0909 0.75804,0.46849 0.98797,0.37588 0.60506,-0.24368 -0.42672,-0.69046 -1.79643,-0.70013 -4.431435,-0.0313 -3.68144,0.93445 -3.81336,1.10446 -3.80081,4.89855 0.0191,5.75842 0.87811,8.05797 3.1783,8.50773 1.12481,0.21993 2.177515,0.45822 2.339325,0.52953 0.16181,0.0713 0.0572,-0.25388 -0.23255,-0.72265 z m 42.32578,-7.24908 c 0.32115,-4.30805 0.6952,-5.81619 1.06043,-4.27558 0.55152,2.32636 0.56721,2.31868 0.69393,-0.33988 0.10087,-2.11621 -0.20467,-2.59177 -1.37632,-2.14217 -0.82829,0.31785 -2.77719,0.5779 -4.33089,0.5779 -2.39986,0 -3.09464,0.60247 -4.61763,4.00418 -2.03285,4.54053 -1.90582,4.96864 2.22773,7.50789 4.85185,2.98051 5.7813,2.19913 6.34275,-5.33234 z m -15.55502,4.11458 c -0.30393,-0.7595 -0.52953,-0.5339 -0.57522,0.57521 -0.0413,1.00364 0.18369,1.56596 0.50005,1.2496 0.31637,-0.31637 0.35019,-1.13753 0.0752,-1.82481 z m -19.89393,-1.8558 c -0.23769,-0.71305 -0.66926,-0.28148 -1.00592,1.00592 -0.41413,1.58363 -0.29022,1.95535 0.41628,1.24884 0.55326,-0.55325 0.81859,-1.56789 0.58964,-2.25476 z m 24.72918,1.07284 c -0.66877,-1.07086 -1.35233,-1.44164 -1.55222,-0.84196 -0.19646,0.58937 0.23056,1.4439 0.94894,1.89896 1.87488,1.18766 1.93706,1.07871 0.60328,-1.057 z m -17.8578,-3.43905 c 2.07475,-1.373 3.53979,-2.87252 3.25566,-3.33226 -0.28414,-0.45974 0.25843,-0.83802 1.20571,-0.84062 0.94727,-0.003 3.00762,-1.05828 4.57854,-2.34595 l 2.85622,-2.34121 -7.01911,-0.0342 c -6.13343,-0.0299 -6.86956,0.14596 -5.83389,1.39387 0.74739,0.90055 0.81121,1.42811 0.17276,1.42811 -0.55685,0 -1.27724,-0.42843 -1.60087,-0.95207 -0.32363,-0.52364 -2.27221,-0.95208 -4.33018,-0.95208 l -3.74176,0 2.56817,5.23641 c 1.4125,2.88003 2.91654,5.23641 3.34233,5.23641 0.42578,0 2.47167,-1.12336 4.54642,-2.49637 z m 17.3999,-2.74004 2.56818,-5.23641 -3.55994,0.0256 c -2.48164,0.0178 -4.54338,0.84119 -6.80676,2.71822 l -3.24683,2.6926 3.70586,2.5182 c 2.03822,1.385 3.94558,2.51819 4.23859,2.51819 0.293,0 1.68841,-2.35638 3.1009,-5.23641 z m -10.99803,1.80498 c -0.31637,-0.31637 -1.13753,-0.35019 -1.82481,-0.0752 -0.7595,0.30393 -0.5339,0.52953 0.57521,0.57521 1.00365,0.0413 1.56597,-0.18368 1.2496,-0.50005 z m -38.082975,-7.6166 c -0.31636,-0.31637 -1.13753,-0.35019 -1.82481,-0.0752 -0.7595,0.30393 -0.5339,0.52953 0.57521,0.57522 1.00365,0.0413 1.56597,-0.18369 1.2496,-0.50005 z m 18.950355,-0.74118 c 0.0699,-0.0615 -0.22934,-1.05326 -0.66493,-2.20404 -0.43559,-1.15077 -2.099395,-2.7684 -3.697335,-3.59472 l -2.90534,-1.50242 0,4.35193 0,4.35193 3.57028,-0.64549 c 1.963655,-0.35501 3.627455,-0.69575 3.697325,-0.75719 z m -10.123825,-4.05142 c 0,-1.96638 0.38702,-3.07404 0.95207,-2.72482 0.52364,0.32363 0.95207,0.18053 0.95207,-0.31799 0,-0.49852 -0.6649,-1.16155 -1.47756,-1.47339 -0.84727,-0.32513 -1.22943,-0.16552 -0.89588,0.37417 0.86355,1.39726 -0.12567,1.16206 -4.50135,-1.07025 -3.7785,-1.92765 -3.99503,-1.9399 -5.19849,-0.29407 -0.69066,0.94455 -1.25576,2.08919 -1.25576,2.54365 0,0.45446 -0.49463,0.5206 -1.09918,0.14696 -0.66474,-0.41083 -0.84137,-0.2622 -0.44691,0.37607 0.35875,0.58047 0.35554,2.23767 -0.007,3.68268 -0.59406,2.36693 -0.73183,2.44203 -1.39032,0.75784 -0.536,-1.37091 -0.74876,-1.46745 -0.79783,-0.362 -0.10048,2.26346 0.14773,2.32558 7.94214,1.98761 l 7.22414,-0.31323 0,-3.31323 z m 14.413655,2.47991 c -2.07539,-1.72897 -3.94084,-2.42685 -3.94084,-1.4743 0,1.96291 1.5674,3.40495 3.67215,3.37845 l 2.51633,-0.0317 -2.24764,-1.87248 z m 29.40086,0.48471 c 0.66237,-0.79812 0.96574,-1.6897 0.67415,-1.98129 -0.8495,-0.8495 -4.61222,1.53102 -3.99599,2.5281 0.80515,1.30276 1.94216,1.1156 3.32184,-0.54681 z m 8.83099,-2.11916 c -0.30301,-1.96365 -0.71152,-3.75581 -0.90779,-3.98256 -0.68903,-0.79603 -5.37419,3.35015 -6.14732,5.44013 -0.73273,1.98076 -0.51963,2.11271 3.41225,2.11271 l 4.1938,0 -0.55094,-3.57028 z m 16.30203,2.99238 c 0.82829,-0.31785 1.47586,-1.49604 1.43906,-2.61821 -0.0641,-1.95553 -0.0975,-1.9621 -0.80225,-0.15826 -0.40444,1.03513 -1.76673,2.17061 -3.02733,2.52331 -1.36125,0.38085 -1.64702,0.67979 -0.70372,0.73616 0.87354,0.0522 2.26595,-0.16516 3.09424,-0.483 z m -27.77704,-3.18652 c 3.3119,-1.89151 5.52004,-4.08641 7.37034,-7.32616 2.38472,-4.17549 2.63933,-5.50526 2.61674,-13.66681 -0.0224,-8.08061 -0.30306,-9.53236 -2.64177,-13.66336 -1.84548,-3.25979 -4.01694,-5.42179 -7.36737,-7.3353 -4.31732,-2.46573 -5.58616,-2.7132 -13.91118,-2.7132 -8.57518,0 -9.46195,0.18736 -13.87698,2.9319 -7.202865,4.47754 -9.551985,9.69343 -9.551985,21.20886 0,8.37422 0.20488,9.35222 2.82437,13.48273 1.734795,2.73548 4.581285,5.47748 7.378585,7.10771 4.09982,2.38935 5.44597,2.65515 13.49244,2.66419 8.08075,0.009 9.39187,-0.24904 13.66681,-2.69056 z m 27.22995,1.37447 c 0.6243,-0.6243 -1.83763,-6.96603 -3.11624,-8.02718 -0.88888,-0.73771 -2.02748,-0.75827 -3.83949,-0.0694 -1.41674,0.53865 -3.03456,0.69588 -3.59517,0.3494 -0.60522,-0.37404 -0.74163,-0.1807 -0.3358,0.47595 0.38258,0.61902 0.0282,1.35737 -0.80497,1.67708 -1.56022,0.59871 -1.91628,2.90513 -0.86957,5.63281 0.52838,1.37692 1.46741,1.51679 6.42072,0.95639 3.191,-0.36102 5.95424,-0.80882 6.14052,-0.9951 z m -12.61774,-6.88577 c -0.66026,-0.66026 -2.46654,0.68125 -2.46654,1.83189 0,0.63131 0.54628,0.55909 1.45113,-0.19186 0.79811,-0.66238 1.25505,-1.40039 1.01541,-1.64003 z m -49.118185,1.12049 c 0,-1.23939 -2.04138,-4.22174 -2.88972,-4.22174 -1.35342,0 -1.11878,3.56883 0.27151,4.12983 1.69234,0.68287 2.61821,0.71538 2.61821,0.0919 z m 45.699565,-2.77094 c 0,-2.42027 -1.60456,-2.38959 -2.717,0.052 -1.47905,3.24615 -1.39423,3.48673 0.81285,2.30554 1.04728,-0.56049 1.90415,-1.62136 1.90415,-2.3575 z m -52.786605,-8.20522 c -1.3534,-2.04512 -2.65342,-3.7184 -2.88893,-3.7184 -0.61997,0 -5.25722,6.96086 -5.25722,7.89149 0,0.43172 2.24927,1.78135 4.99839,2.99918 l 4.99839,2.21423 0.30504,-2.83405 c 0.19878,-1.84679 -0.55216,-4.12937 -2.15567,-6.55245 z m 59.451135,6.75442 c 4.17857,-2.13175 5.14633,-2.3468 4.28434,-0.95207 -0.32363,0.52364 0.0579,0.95207 0.84786,0.95207 1.19648,0 1.11774,-0.59608 -0.47159,-3.57028 -1.04933,-1.96365 -2.66194,-4.56839 -3.58357,-5.78829 l -1.67569,-2.21802 -2.5569,3.86373 c -2.53215,3.82633 -3.47562,9.61701 -1.5669,9.61701 0.54451,0 2.66961,-0.85687 4.72245,-1.90415 z M 94.628305,453.56779 c 0,-5.20027 -0.24748,-6.19538 -1.42811,-5.74233 -1.58579,0.60852 -1.97624,-0.84523 -0.47604,-1.77241 1.22594,-0.75767 1.24871,-7.14056 0.0255,-7.14056 -1.83651,0 -9.54621,4.21116 -9.54621,5.21429 0,0.5646 0.66747,1.9795 1.48326,3.14421 0.8158,1.16472 1.17804,2.61154 0.80497,3.21517 -0.40447,0.65445 -0.26112,0.83968 0.3551,0.45884 0.56836,-0.35127 1.30681,-0.19626 1.641,0.34446 0.33419,0.54073 1.07925,0.69165 1.65569,0.33539 0.65119,-0.40246 0.84078,-0.10754 0.50066,0.7788 -0.46497,1.21171 3.36819,7.45448 4.57718,7.45448 0.22386,0 0.40703,-2.83065 0.40703,-6.29034 z m 52.286455,3.08372 c 2.48733,-4.0246 2.47554,-4.27211 -0.36888,-7.74223 l -2.34123,-2.85623 -0.0342,6.90254 c -0.0188,3.7964 0.14504,6.90254 0.36415,6.90254 0.21911,0 1.2902,-1.44298 2.3802,-3.20662 z m 16.58494,-0.21946 c 4.31586,-3.16578 4.50923,-3.48622 3.06602,-5.08093 -0.84718,-0.93614 -3.29046,-2.49126 -5.42951,-3.45584 -3.81117,-1.7186 -3.91645,-1.71647 -5.24954,0.10615 -2.42789,3.31946 -2.53001,5.90466 -0.35397,8.96062 1.1342,1.59285 2.35434,2.88546 2.71141,2.87248 0.35707,-0.013 2.72209,-1.5441 5.25559,-3.40248 z M 86.710005,453.0151 c -0.30392,-0.7595 -0.52952,-0.5339 -0.57521,0.57521 -0.0413,1.00364 0.18368,1.56596 0.50005,1.2496 0.31637,-0.31637 0.35019,-1.13753 0.0752,-1.82481 z m 66.539945,-5.64334 c 1.36023,-2.15474 2.11536,-4.24669 1.67808,-4.64879 -0.43729,-0.40209 -2.78778,-1.59534 -5.22333,-2.65166 l -4.42827,-1.92058 -0.41558,2.83157 c -0.3006,2.04812 0.33357,3.86574 2.29207,6.56936 1.48921,2.05579 2.91381,3.7378 3.16577,3.7378 0.25197,0 1.57104,-1.76296 2.93126,-3.9177 z m 5.64339,-2.74682 c -0.32363,-0.52364 -0.99157,-0.95207 -1.4843,-0.95207 -0.49274,0 -0.89589,0.42843 -0.89589,0.95207 0,0.52364 0.66794,0.95208 1.4843,0.95208 0.81637,0 1.21951,-0.42844 0.89589,-0.95208 z M 82.692465,440.8044 c -1.51513,-0.53148 -1.35352,-0.74125 1.02169,-1.3261 5.17145,-1.27339 7.10585,-3.15432 7.10585,-6.90944 l 0,-3.44351 -5.37203,0.55445 c -6.7725,0.69898 -7.66773,1.54264 -5.95229,5.60945 1.27862,3.03124 1.45338,3.67214 1.69375,6.21157 0.0646,0.68229 0.76748,0.90785 1.70635,0.54757 1.43382,-0.55021 1.4131,-0.67698 -0.20332,-1.24399 z m 15.74414,-4.00339 c 0,-0.52165 -0.67769,-0.68841 -1.50598,-0.37056 -0.82829,0.31784 -1.68516,0.5779 -1.90415,0.5779 -0.21899,0 -0.38392,1.17819 -0.3665,2.6182 l 0.0317,2.61821 1.87247,-2.24765 c 1.02986,-1.2362 1.87248,-2.67445 1.87248,-3.1961 z m 58.740955,3.68716 c -0.27027,-0.7043 0.32502,-3.10406 1.32286,-5.33281 0.99784,-2.22874 1.57627,-4.43731 1.28541,-4.90794 -0.29086,-0.47062 -3.28837,-0.85567 -6.66113,-0.85567 l -6.13229,0 0,3.38845 c 0,2.01652 -0.38548,3.15021 -0.95209,2.80003 -0.52364,-0.32362 -0.95207,-0.16132 -0.95207,0.36068 0,0.522 0.80726,0.88829 1.79393,0.81396 2.43913,-0.18373 9.70318,3.17469 9.0728,4.19467 -0.27846,0.45055 -0.007,0.81918 0.60384,0.81918 0.61057,0 0.889,-0.57625 0.61874,-1.28055 z m -14.84038,-3.7555 c -1.64737,-1.64737 -2.27373,-0.0873 -0.938,2.3363 1.09986,1.9956 1.26343,2.04243 1.59454,0.45645 0.20292,-0.97199 -0.0925,-2.22873 -0.65654,-2.79275 z m -49.796895,-1.17763 c -0.29313,-0.29313 -0.8255,0.23527 -1.18303,1.17423 -0.51668,1.35689 -0.40732,1.46625 0.53297,0.53296 0.65066,-0.64582 0.94319,-1.41406 0.65006,-1.70719 z m 4.99698,-0.47907 c 1.00744,-0.53916 2.489785,-2.2529 3.294115,-3.80829 l 1.46241,-2.828 -4.308775,0 c -4.57468,0 -5.00541,0.63579 -3.70871,5.47442 0.65644,2.4495 0.77565,2.49197 3.26096,1.16187 z m 46.598905,-3.34718 0,-4.32747 -3.57028,0.64548 c -4.45233,0.80495 -4.41975,0.77235 -3.14744,3.14969 0.81687,1.52633 4.90687,4.56977 6.4797,4.82166 0.13091,0.021 0.23802,-1.90924 0.23802,-4.28936 z m -64.137025,-2.33704 c 0.88961,0 1.36414,-0.25334 1.05451,-0.56297 -1.26238,-1.26238 -4.51282,0.7584 -4.45442,2.7693 l 0.0604,2.078 0.86105,-2.14216 c 0.47357,-1.1782 1.5889,-2.14217 2.47851,-2.14217 z m 25.634065,1.49611 c 1.78161,-1.31119 1.7847,-1.38468 0.0859,-2.04288 -1.10319,-0.42743 -2.07689,-0.18583 -2.60363,0.64605 -1.84592,2.91523 -0.53424,3.64294 2.51774,1.39683 z m 29.93429,-0.54404 c -0.56049,-1.04728 -1.96797,-1.88989 -3.12774,-1.87247 l -2.10867,0.0317 2.24764,1.87247 c 2.89964,2.41564 4.29065,2.4009 2.98877,-0.0317 z m -43.145045,-1.13058 c -0.30393,-0.75951 -0.52953,-0.5339 -0.57521,0.57521 -0.0413,1.00364 0.18368,1.56596 0.50005,1.2496 0.31636,-0.31637 0.35019,-1.13754 0.0752,-1.82481 z m 68.969205,-0.0754 c -0.94028,-0.93329 -1.04964,-0.82393 -0.53296,0.53297 0.35753,0.93895 0.88989,1.46735 1.18302,1.17422 0.29314,-0.29313 6.1e-4,-1.06137 -0.65006,-1.70719 z m -35.3449,-1.09657 c 0,-0.21911 -1.49303,-1.32113 -3.31784,-2.44892 -3.6322,-2.24483 -5.93201,-1.98626 -8.60509,0.96746 -1.67884,1.8551 -1.61157,1.87985 5.11085,1.87985 3.74664,0 6.81208,-0.17928 6.81208,-0.39839 z m -22.47252,-2.06772 c 0.31955,-0.83271 0.34788,-1.89122 0.063,-2.35222 -0.28492,-0.46101 0.15963,-2.14867 0.98788,-3.75035 0.82826,-1.60167 1.2759,-3.28436 0.99472,-3.73929 -0.28116,-0.45494 -2.65217,-1.59704 -5.26892,-2.53801 -3.269695,-1.17576 -4.387505,-1.97319 -3.574015,-2.54963 0.91784,-0.65039 0.90037,-0.76369 -0.0778,-0.50447 -0.69382,0.18386 -1.22937,0.64491 -1.19009,1.02455 0.0393,0.37964 0.0714,3.68929 0.0714,7.35478 0,6.66452 0,6.66452 2.66581,6.66452 1.4662,0 3.179935,-0.51412 3.808305,-1.14249 0.83377,-0.83377 1.14249,-0.84655 1.14249,-0.0473 0,0.60235 -0.74976,1.53188 -1.66613,2.06562 -1.47796,0.86083 -1.48946,0.9737 -0.10186,0.99938 0.86035,0.0159 1.82571,-0.65236 2.14525,-1.48508 z m 10.35058,-0.90048 c 1.95429,-1.32798 3.55327,-2.59783 3.55327,-2.8219 0,-0.57429 -6.95627,-5.23641 -7.81316,-5.23641 -0.74283,0 -3.02556,4.04673 -4.56136,8.08617 -0.85294,2.2434 -0.72207,2.38665 2.18029,2.38665 1.73645,0 4.64267,-1.05664 6.64096,-2.41451 z m 19.73853,1.87695 c 0,-1.4977 -4.15966,-9.93526 -4.89802,-9.93526 -1.28179,0 -8.53972,4.96904 -8.0188,5.48995 2.45341,2.45341 7.31874,4.8984 9.82258,4.93618 1.70183,0.0257 3.09424,-0.19521 3.09424,-0.49087 z m -39.336745,-2.49718 c -0.30393,-0.7595 -0.52953,-0.5339 -0.57521,0.57522 -0.0413,1.00364 0.18368,1.56596 0.50005,1.24959 0.31636,-0.31636 0.35019,-1.13753 0.0752,-1.82481 z m 49.809565,0.17852 c 0,-1.04729 -0.16425,-1.90415 -0.36499,-1.90415 -0.20075,0 -0.58908,0.85686 -0.86295,1.90415 -0.27387,1.04728 -0.10962,1.90415 0.365,1.90415 0.47462,0 0.86294,-0.85687 0.86294,-1.90415 z m -4.04631,0.35199 c 1.93782,-0.51932 2.14216,-1.1538 2.14216,-6.65152 0,-3.34259 -0.41976,-6.07744 -0.93281,-6.07744 -2.10244,0 -8.58644,3.14071 -8.56702,4.14969 0.0342,1.77882 3.63144,9.18043 4.45489,9.16635 0.41834,-0.007 1.72458,-0.27133 2.90278,-0.58708 z m -20.0134,-4.7355 c -0.31637,-0.31637 -1.13753,-0.35019 -1.82481,-0.0752 -0.7595,0.30392 -0.5339,0.52952 0.57521,0.57521 1.00364,0.0413 1.56596,-0.18368 1.2496,-0.50005 z m 2.76368,-3.31074 c 3.72647,-2.30309 3.76801,-2.48279 1.30247,-5.6348 -2.12703,-2.71924 -2.46314,-4.24235 -0.71406,-3.2358 0.69144,0.3979 0.85766,0.32171 0.3967,-0.18183 -0.43637,-0.47669 -0.92693,-0.65248 -1.09014,-0.39066 -0.16321,0.26182 -1.15572,-0.30134 -2.20559,-1.25145 -1.86178,-1.68489 -1.96695,-1.64968 -4.26483,1.42811 -4.70698,6.30455 -4.81897,7.04787 -1.39246,9.24237 3.82794,2.45158 4.03906,2.45222 7.96791,0.0241 z m 8.5422,-1.56865 c -0.9678,-0.96779 -1.76633,0.48927 -0.97227,1.77408 0.59984,0.97056 0.82409,0.97132 1.14658,0.004 0.2205,-0.66148 0.14206,-1.46155 -0.17431,-1.77791 l 0,3e-5 z m -37.075565,-1.44794 c -0.26412,-0.65455 -0.48022,-0.11901 -0.48022,1.19009 0,1.3091 0.2161,1.84465 0.48022,1.19009 0.26411,-0.65455 0.26411,-1.72563 0,-2.38018 z m 49.527695,-0.89257 c -0.30392,-0.7595 -0.52952,-0.5339 -0.57521,0.57521 -0.0413,1.00365 0.18368,1.56596 0.50005,1.2496 0.31637,-0.31637 0.35019,-1.13753 0.0752,-1.82481 z m -1.36443,-2.35618 c -0.65455,-0.26411 -1.72563,-0.26411 -2.38018,0 -0.65456,0.26412 -0.11901,0.48022 1.19009,0.48022 1.3091,0 1.84464,-0.2161 1.19009,-0.48022 z"
       id="path4247"
       inkscape:connector-curvature="0" />
    <rect
       style="opacity:0.98999999;fill:none;fill-opacity:0.15384617;stroke:#000000;stroke-width:2.14400005;stroke-miterlimit:4;stroke-dasharray:none;stroke-opacity:1"
       id="rect5114"
       width="147.54941"
       height="52.07626"
       x="741.00177"
       y="969.9082" />
    <rect
       style="opacity:0.98999999;fill:none;fill-opacity:0.15384617;stroke:#000000;stroke-width:2.14400005;stroke-miterlimit:4;stroke-dasharray:none;stroke-opacity:1"
       id="rect5116"
       width="181.18199"
       height="60.755638"
       x="375.55289"
       y="964.31378" />
    <rect
       style="opacity:0.98999999;fill:none;fill-opacity:0.15384617;stroke:#000000;stroke-width:2.62386942;stroke-miterlimit:4;stroke-dasharray:none;stroke-opacity:1"
       id="rect5118"
       width="208.9101"
       height="54.851158"
       x="16.17408"
       y="968.14819" />
    <rect
       style="opacity:0.98999999;fill:none;fill-opacity:0.15384617;stroke:#000000;stroke-width:2.15819192;stroke-miterlimit:4;stroke-dasharray:none;stroke-opacity:1"
       id="rect5120"
       width="244.09328"
       height="83.524811"
       x="1036.2775"
       y="967.74548" />
    <text
       xml:space="preserve"
       style="font-style:normal;font-weight:normal;font-size:40px;line-height:125%;font-family:sans-serif;letter-spacing:0px;word-spacing:0px;fill:#000000;fill-opacity:1;stroke:none;stroke-width:1px;stroke-linecap:butt;stroke-linejoin:miter;stroke-opacity:1"
       x="1075.0919"
       y="1019.7106"
       id="text5122"
       sodipodi:linespacing="125%"><tspan
         sodipodi:role="line"
         id="tspan5124"
         x="1075.0919"
         y="1019.7106">FOOTER</tspan></text>
  </g>
</svg>
