<?xml version="1.0" encoding="utf-8"?>
<!-- Generator: Adobe Illustrator 16.0.0, SVG Export Plug-In . SVG Version: 6.00 Build 0)  -->
<!DOCTYPE svg PUBLIC "-//W3C//DTD SVG 1.1//EN" "http://www.w3.org/Graphics/SVG/1.1/DTD/svg11.dtd">
<svg version="1.1" id="Layer_1" xmlns="http://www.w3.org/2000/svg" xmlns:xlink="http://www.w3.org/1999/xlink" x="0px" y="0px"
	 width="198px" height="198px" viewBox="0 0 198 198" enable-background="new 0 0 198 198" xml:space="preserve">
<g id="svg4316" xmlns:dc="http://purl.org/dc/elements/1.1/" xmlns:cc="http://creativecommons.org/ns#" xmlns:rdf="http://www.w3.org/1999/02/22-rdf-syntax-ns#" xmlns:svg="http://www.w3.org/2000/svg" xmlns:sodipodi="http://sodipodi.sourceforge.net/DTD/sodipodi-0.dtd" xmlns:inkscape="http://www.inkscape.org/namespaces/inkscape" sodipodi:docname="icon.svg" inkscape:version="0.91 r13725" display="none">
	
		<sodipodi:namedview  units="px" showgrid="false" inkscape:cy="331.14535" inkscape:cx="375" inkscape:zoom="1.0824912" borderopacity="1.0" bordercolor="#666666" pagecolor="#ffffff" id="base" inkscape:current-layer="layer1" inkscape:document-units="px" inkscape:window-x="-8" inkscape:window-width="1280" inkscape:window-height="962" inkscape:window-maximized="1" inkscape:object-paths="true" inkscape:snap-grids="false" inkscape:pageshadow="2" inkscape:window-y="-8" inkscape:pageopacity="0.0">
		</sodipodi:namedview>
	<g id="layer1" transform="translate(0,-5.9998782)" inkscape:label="Layer 1" inkscape:groupmode="layer" display="inline">
		<g id="g4144" transform="translate(-2.8147384,383.66327)">
			
				<path id="path3336" sodipodi:type="star" sodipodi:sides="3" sodipodi:cx="340" sodipodi:cy="292.36218" sodipodi:r1="88.24826" sodipodi:r2="44.12413" sodipodi:arg1="0.5070985" sodipodi:arg2="1.5542961" inkscape:flatsided="false" inkscape:rounded="0.15" inkscape:randomized="0" inkscape:transform-center-x="-0.21068722" inkscape:transform-center-y="-21.809337" fill="none" stroke="#000000" stroke-width="2" d="
				M178.457-236.85c-5.698,9.946-64.961,0.221-76.424,0.26c-11.464,0.039-70.659,10.168-76.425,0.261
				c-5.767-9.908,32.288-56.367,37.987-66.313c5.697-9.947,26.522-66.277,37.986-66.316c11.463-0.039,32.672,56.146,38.438,66.056
				C145.787-292.999,184.157-246.798,178.457-236.85z"/>
			
				<path id="path4138" sodipodi:type="star" sodipodi:sides="3" sodipodi:cx="340" sodipodi:cy="292.36218" sodipodi:r1="88.24826" sodipodi:r2="44.12413" sodipodi:arg1="0.5070985" sodipodi:arg2="1.5542961" inkscape:flatsided="false" inkscape:rounded="0.15" inkscape:randomized="0" inkscape:transform-center-x="-21.809334" inkscape:transform-center-y="0.21068768" fill="none" stroke="#000000" stroke-width="2" d="
				M60-202.02c-9.947-5.697-0.221-64.961-0.26-76.424c-0.039-11.465-10.168-70.66-0.26-76.427
				c9.908-5.766,56.369,32.289,66.315,37.988c9.947,5.697,66.277,26.523,66.316,37.986c0.037,11.465-56.147,32.672-66.057,38.438
				C116.147-234.693,69.949-196.322,60-202.02L60-202.02z"/>
			
				<path id="path4140" sodipodi:type="star" sodipodi:sides="3" sodipodi:cx="340" sodipodi:cy="292.36218" sodipodi:r1="88.24826" sodipodi:r2="44.12413" sodipodi:arg1="0.5070985" sodipodi:arg2="1.5542961" inkscape:flatsided="false" inkscape:rounded="0.15" inkscape:randomized="0" inkscape:transform-center-x="0.21068938" inkscape:transform-center-y="21.809337" fill="none" stroke="#000000" stroke-width="2" d="
				M25.169-320.477c5.698-9.947,64.961-0.221,76.425-0.26c11.465-0.039,70.659-10.168,76.426-0.261
				c5.766,9.908-32.289,56.367-37.986,66.314c-5.698,9.946-26.522,66.276-37.987,66.315c-11.464,0.039-32.672-56.146-38.438-66.056
				C57.842-264.333,19.471-310.53,25.169-320.477L25.169-320.477z"/>
			
				<path id="path4142" sodipodi:type="star" sodipodi:sides="3" sodipodi:cx="340" sodipodi:cy="292.36218" sodipodi:r1="88.24826" sodipodi:r2="44.12413" sodipodi:arg1="0.5070985" sodipodi:arg2="1.5542961" inkscape:flatsided="false" inkscape:rounded="0.15" inkscape:randomized="0" inkscape:transform-center-x="21.809337" inkscape:transform-center-y="-0.21068638" fill="none" stroke="#000000" stroke-width="2" d="
				M143.625-355.307c9.949,5.697,0.223,64.961,0.262,76.424c0.039,11.465,10.17,70.66,0.262,76.427s-56.369-32.289-66.316-37.988
				c-9.947-5.696-66.277-26.522-66.316-37.985c-0.039-11.465,56.147-32.672,66.057-38.438
				C87.481-322.636,133.68-361.007,143.625-355.307L143.625-355.307z"/>
		</g>
		<path id="path4150" inkscape:connector-curvature="0" fill="#808080" d="M60.616,58.364l-6.886-0.521l0.249-11.051
			c0.258-11.449,0.69-14.035,2.707-16.199c1.849-1.983,5.785-1.149,14.086,2.984c3.881,1.935,7.302,3.814,7.603,4.182
			c0.391,0.476-0.353,2.572-2.602,7.351c-1.73,3.678-3.878,8.32-4.771,10.315c-1.166,2.607-1.887,3.605-2.562,3.545
			C67.924,58.922,64.403,58.649,60.616,58.364L60.616,58.364z"/>
		<path id="path4152" inkscape:connector-curvature="0" fill="#808080" d="M91.271,43.076c-3.728-2.561-7.224-4.934-7.771-5.271
			c-0.938-0.584-0.879-0.834,1.104-4.557c5.542-10.402,11.099-17.065,14.232-17.065c2.115,0,4.975,2.588,8.447,7.643
			c3.092,4.5,7.861,12.682,7.564,12.979C113.95,37.7,99.474,47.445,98.85,47.57C98.409,47.659,94.998,45.637,91.271,43.076z"/>
		<path id="path4154" inkscape:connector-curvature="0" fill="#808080" d="M127.049,55.778c-0.705-1.588-2.885-6.256-4.846-10.373
			l-3.562-7.486l1.225-0.946c2.092-1.621,12.883-6.826,15.547-7.503c6.553-1.659,8.439,2.688,8.447,19.468l0.004,8.371l-2.545,0.315
			c-1.4,0.174-4.896,0.479-7.769,0.678l-5.221,0.363L127.049,55.778L127.049,55.778z"/>
		<path id="path4156" inkscape:connector-curvature="0" fill="#808080" d="M156.18,80.549c-4.871-2.309-9.396-4.371-10.059-4.58
			c-1.128-0.356-1.186-0.596-0.885-3.69c0.178-1.82,0.481-5.359,0.682-7.865l0.357-4.555l7.983-0.15
			c8.992-0.166,16.288,0.799,18.511,2.451c1.854,1.379,2.043,4.201,0.56,8.375c-1.429,4.012-7.002,14.248-7.75,14.227
			C165.277,84.752,161.049,82.858,156.18,80.549L156.18,80.549z"/>
		<path id="path4158" inkscape:connector-curvature="0" fill="#808080" d="M162.079,113.631c-2.797-4.119-5.313-7.814-5.593-8.219
			c-0.368-0.529,0.955-2.912,4.82-8.674c2.932-4.369,5.379-8.031,5.438-8.139c0.166-0.302,6.89,3.506,11.823,6.694
			c6.059,3.914,9.238,7.154,9.238,9.404c0,1.422-0.604,2.322-3.351,4.996s-10.821,8.086-16.217,10.865
			C167.268,121.064,166.676,120.401,162.079,113.631L162.079,113.631z"/>
		<path id="path4160" inkscape:connector-curvature="0" fill="#808080" d="M147.814,149.825c-1.271-0.295-1.504-1.427-2.107-10.39
			l-0.346-5.09l10.486-4.901l10.485-4.902l1.353,2.306c2.481,4.237,6.09,11.765,6.674,13.931c1.324,4.897,0.229,6.643-5.047,8.02
			C166.148,149.621,150.234,150.383,147.814,149.825L147.814,149.825z"/>
		<path id="path4162" inkscape:connector-curvature="0" fill="#808080" d="M135.291,179.928c-3.488-1.033-6.076-2.213-11.557-5.262
			l-4.857-2.701l4.857-10.43l4.856-10.43l5.093,0.338c2.799,0.186,6.387,0.486,7.971,0.666l2.882,0.328l-0.276,10.246
			c-0.275,10.168-0.928,14.223-2.654,16.543C140.656,180.5,138.157,180.778,135.291,179.928L135.291,179.928z"/>
		<path id="path4164" inkscape:connector-curvature="0" fill="#808080" d="M96.877,193.053c-1.82-1.109-5.121-5.033-7.912-9.404
			c-2.906-4.557-5.754-9.887-5.565-10.42c0.099-0.281,3.711-2.926,8.028-5.871l7.851-5.363l8.09,5.43l8.091,5.432l-2.481,4.594
			c-4.47,8.271-9.078,14.346-12.049,15.883C99.034,194.307,98.922,194.299,96.877,193.053L96.877,193.053z"/>
		<path id="path4166" inkscape:connector-curvature="0" fill="#808080" d="M56.722,179.338c-0.49-0.748-1.216-2.734-1.611-4.42
			c-0.879-3.736-1.565-16.668-1.062-20.021l0.367-2.442l5.203-0.354c2.862-0.194,6.324-0.5,7.693-0.677
			c2.281-0.293,2.523-0.213,2.887,0.947c0.219,0.697,2.398,5.435,4.846,10.524l4.449,9.259l-2.021,1.274
			c-2.98,1.883-10.273,5.534-12.904,6.463c-1.261,0.444-3.342,0.81-4.625,0.81c-1.905,0-2.495-0.248-3.223-1.358L56.722,179.338
			L56.722,179.338z"/>
		<path id="path4168" inkscape:connector-curvature="0" fill="#808080" d="M29.666,149.418c-3.646-0.785-5.713-2.059-6.146-3.789
			c-0.512-2.037,1.182-6.998,4.675-13.693c1.769-3.391,3.39-6.346,3.604-6.566c0.216-0.223,4.77,1.646,10.119,4.152
			c5.351,2.508,10.013,4.557,10.36,4.557c0.625,0,0.396,8.043-0.396,13.801l-0.313,2.277l-9.451-0.045
			C36.922,150.084,31.317,149.773,29.666,149.418z"/>
		<path id="path4170" inkscape:connector-curvature="0" fill="#808080" d="M27.043,119.284
			c-11.127-6.133-17.148-11.177-17.148-14.363c0-1.381,4.667-6.065,8.842-8.881c4.115-2.772,12.016-7.219,12.271-6.906
			c0.09,0.109,1.688,2.488,3.551,5.289c1.863,2.8,4.316,6.354,5.451,7.898l2.063,2.807l-5.38,8.045
			c-2.959,4.425-5.558,8.041-5.772,8.037C30.703,121.207,28.959,120.34,27.043,119.284L27.043,119.284z"/>
		<path id="path4172" inkscape:connector-curvature="0" fill="#B3B3B3" d="M29.075,80.889c-4.108-7.196-5.387-10.479-5.454-13.993
			c-0.055-2.767,0.101-3.269,1.278-4.156c2.312-1.742,8.112-2.594,17.745-2.604l8.902-0.01l0.371,5.762
			c0.205,3.168,0.5,6.605,0.657,7.64l0.286,1.879l-10.363,4.961c-5.701,2.729-10.484,4.957-10.632,4.951
			C31.717,85.313,30.463,83.321,29.075,80.889L29.075,80.889z"/>
		<path id="path4174" inkscape:connector-curvature="0" fill="#B3B3B3" d="M39.758,97.532c-5.703-8.23-6.487-9.553-5.969-10.062
			c0.645-0.629,19.016-9.272,19.211-9.038c0.082,0.1,0.371,2.401,0.64,5.114l0.487,4.937L49.2,95.325
			c-2.71,3.762-5.165,6.92-5.458,7.018C43.45,102.438,41.657,100.274,39.758,97.532L39.758,97.532z"/>
		<path id="path4176" inkscape:connector-curvature="0" fill="#B3B3B3" d="M46.33,128.778c-3.683-1.693-8.082-3.791-9.779-4.66
			l-3.086-1.582l4.942-7.356c2.718-4.05,5.083-7.358,5.255-7.358s2.629,3.211,5.461,7.137l5.146,7.138l-0.525,4.782
			c-0.289,2.632-0.57,4.828-0.623,4.882C53.066,131.81,50.01,130.469,46.33,128.778z"/>
		<path id="path4178" inkscape:connector-curvature="0" fill="#B3B3B3" d="M54.647,144.608c0.212-3.109,0.538-6.354,0.726-7.212
			l0.34-1.555l4.371,1.892l4.373,1.891l1.924,4.433c1.06,2.438,1.926,4.539,1.926,4.67c0,0.134-2.713,0.403-6.029,0.604
			c-3.316,0.199-6.477,0.492-7.021,0.647C54.316,150.246,54.283,149.951,54.647,144.608L54.647,144.608z"/>
		<path id="path4180" inkscape:connector-curvature="0" fill="#B3B3B3" d="M80.52,168.241c-0.663-1.254-2.807-5.654-4.762-9.781
			l-3.556-7.502l5.152-0.535l5.151-0.536l7.102,5.056c3.905,2.778,7.1,5.219,7.1,5.424c0,0.377-14.135,10.153-14.682,10.153
			C81.86,170.517,81.183,169.493,80.52,168.241z"/>
		<path id="path4182" inkscape:connector-curvature="0" fill="#B3B3B3" d="M108.875,165.385c-3.744-2.525-6.809-4.807-6.809-5.064
			s3.175-2.77,7.057-5.574c4.908-3.551,7.395-5.033,8.172-4.873c0.613,0.125,2.754,0.381,4.756,0.568
			c3.424,0.318,3.617,0.408,3.276,1.5c-0.903,2.896-8.485,18.043-9.032,18.043C115.959,169.983,112.619,167.914,108.875,165.385
			L108.875,165.385z"/>
		<path id="path4184" inkscape:connector-curvature="0" fill="#B3B3B3" d="M134.596,149.069c-2.299-0.22-4.305-0.521-4.453-0.673
			c-0.15-0.15,0.523-2.146,1.5-4.438l1.773-4.166l4.484-2.078c2.468-1.145,4.594-1.973,4.727-1.84
			c0.273,0.273,1.203,9.371,1.225,12.002c0.016,1.732,0.002,1.74-2.531,1.666C139.92,149.502,136.895,149.289,134.596,149.069
			L134.596,149.069L134.596,149.069z"/>
		<path id="path4186" inkscape:connector-curvature="0" fill="#B3B3B3" d="M144.748,129.409c-0.16-1.117-0.434-3.354-0.605-4.978
			l-0.313-2.946l5.274-7.314l5.275-7.313l4.842,7.048c2.662,3.875,5.021,7.354,5.235,7.733c0.282,0.494-2.073,1.873-8.354,4.89
			C144.596,132.047,145.107,131.918,144.748,129.409L144.748,129.409z"/>
		<path id="path4188" inkscape:connector-curvature="0" fill="#B3B3B3" d="M149.032,95.237l-5.226-7.228l0.37-4.58
			c0.205-2.518,0.578-4.704,0.83-4.86c0.578-0.357,19.222,8.334,19.222,8.961c0,0.408-8.648,13.504-9.601,14.529
			C154.426,102.282,151.907,99.211,149.032,95.237z"/>
		<path id="path4190" inkscape:connector-curvature="0" fill="#B3B3B3" d="M137.545,72.143l-3.91-1.826l-2.033-4.426l-2.035-4.427
			l1.55-0.34c0.852-0.188,4.081-0.512,7.172-0.723l5.624-0.385l-0.266,1.26c-0.146,0.69-0.422,3.852-0.61,7.02
			c-0.229,3.838-0.554,5.746-0.966,5.717C141.732,73.991,139.693,73.149,137.545,72.143L137.545,72.143z"/>
		<path id="path4192" inkscape:connector-curvature="0" fill="#B3B3B3" d="M108.467,55.157c-3.699-2.721-6.834-5.166-6.965-5.438
			c-0.132-0.27,3.135-2.78,7.258-5.582l7.498-5.09l4.666,9.604c2.566,5.278,4.68,9.754,4.694,9.94
			c0.028,0.354-2.405,0.756-7.474,1.234l-2.947,0.277L108.467,55.157z"/>
		<path id="path4194" inkscape:connector-curvature="0" fill="#B3B3B3" d="M75.715,59.641c-1.672-0.181-3.148-0.445-3.283-0.591
			c-0.278-0.303,7.947-18.18,8.72-18.953c0.317-0.317,3.106,1.238,7.494,4.183c3.843,2.578,7.112,4.891,7.265,5.137
			c0.152,0.248-2.891,2.758-6.763,5.58C81.59,60.502,82.099,60.326,75.715,59.641z"/>
		<path id="path4196" inkscape:connector-curvature="0" fill="#666666" d="M54.523,67.469c-0.294-3.893-0.508-7.104-0.477-7.139
			c0.107-0.119,13.989,0.975,14.139,1.113c0.081,0.076-0.748,2.123-1.842,4.551c-2.155,4.785-1.646,4.371-9.618,7.828l-1.667,0.723
			L54.523,67.469L54.523,67.469z"/>
		<path id="path4198" inkscape:connector-curvature="0" fill="#666666" d="M29.403,80.998c-1.151-2.047-2.289-3.723-2.526-3.725
			c-0.24,0-0.297-0.224-0.129-0.492c0.166-0.271-0.049-0.846-0.479-1.277c-0.431-0.43-0.634-0.932-0.452-1.114
			c0.184-0.183,0.102-0.33-0.18-0.33c-0.28,0-0.549-0.521-0.598-1.158c-0.049-0.638-0.281-1.301-0.517-1.476
			c-0.235-0.174-0.511-1.887-0.61-3.807c-0.148-2.877-0.005-3.652,0.819-4.398c1.415-1.278,6.763-2.561,10.696-2.561
			c1.836,0,3.488-0.24,3.67-0.535c0.38-0.615,3.974-0.692,8.773-0.19c3.809,0.397,3.766,0.328,4.088,6.651
			c0.112,2.193,0.278,5.058,0.371,6.361l0.166,2.373l-6.699,3.225c-3.685,1.773-6.779,3.42-6.879,3.66
			c-0.099,0.238-0.399,0.297-0.67,0.131c-0.27-0.166-0.49-0.033-0.49,0.297c0,0.328-0.221,0.461-0.492,0.293
			c-0.271-0.166-0.846,0.05-1.276,0.48c-0.431,0.43-0.933,0.633-1.114,0.451c-0.184-0.185-0.332-0.111-0.334,0.158
			c0,0.271-0.687,0.539-1.523,0.598C31.657,84.709,31.276,84.326,29.403,80.998L29.403,80.998z"/>
		<path id="path4200" inkscape:connector-curvature="0" fill="#666666" d="M29.424,80.623c-3.367-5.615-4.703-8.699-5.129-11.84
			c-0.75-5.527,0.631-6.578,10.451-7.959c6.666-0.938,6.793-0.945,11.426-0.803c2.636,0.082,3.578,0.354,4.556,1.309
			c1.149,1.125,1.233,1.637,1.233,7.543v6.338l-6.967,3.506c-3.832,1.929-7.878,3.959-8.992,4.515
			C32.562,84.946,31.844,84.66,29.424,80.623L29.424,80.623z"/>
		<path id="path4202" inkscape:connector-curvature="0" fill="#666666" d="M29.049,80.086c-3.129-5.209-4.424-8.276-4.858-11.516
			c-0.661-4.916,0.916-6.318,8.296-7.375c2.164-0.312,5.38-0.805,7.148-1.1c4.182-0.693,10.104,0.014,11.386,1.358
			c0.741,0.779,0.901,1.709,0.76,4.385c-0.099,1.867,0.025,3.396,0.274,3.396c0.25,0,0.33,1.354,0.18,3.012l-0.273,3.012
			l-8.843,4.472c-4.862,2.459-9.458,4.479-10.209,4.49C31.769,84.237,31.131,83.553,29.049,80.086L29.049,80.086z"/>
		<path id="path4204" inkscape:connector-curvature="0" fill="#CCCCCC" d="M55.75,81.448c-0.235-2.381-0.386-4.365-0.334-4.41
			c0.226-0.197,7.545-3.416,7.613-3.35c0.207,0.207-3.593,7.442-5.042,9.604c-0.917,1.367-1.698,2.484-1.737,2.484
			C56.209,85.776,55.984,83.828,55.75,81.448z"/>
		<path id="path4206" inkscape:connector-curvature="0" fill="#CCCCCC" d="M49.822,111.868c-2.594-3.545-4.716-6.51-4.716-6.586
			c0-0.211,9.401-13.223,9.491-13.133c0.259,0.26,1.103,9.994,1.119,12.918c0.019,3.383-0.682,12.303-1.016,12.938
			C54.596,118.207,52.885,116.055,49.822,111.868L49.822,111.868z"/>
		<path id="path4208" inkscape:connector-curvature="0" fill="#CCCCCC" d="M59.254,134.748c-1.801-0.82-3.373-1.527-3.492-1.57
			c-0.209-0.072,0.218-6.084,0.547-7.695c0.148-0.729,0.182-0.693,1.936,1.936c2.271,3.402,5.059,8.914,4.475,8.85
			C62.613,136.252,61.055,135.571,59.254,134.748L59.254,134.748z"/>
		<path id="path4210" inkscape:connector-curvature="0" fill="#CCCCCC" d="M70.612,147.685c-0.237-0.547-1.016-2.282-1.728-3.858
			c-0.711-1.574-1.209-2.863-1.104-2.863c0.545,0,8.349,4.173,10.033,5.363l1.958,1.387l-0.788,0.13
			c-1.005,0.166-7.076,0.838-7.565,0.838C71.205,148.68,70.86,148.254,70.612,147.685z"/>
		<path id="path4212" inkscape:connector-curvature="0" fill="#CCCCCC" d="M94.213,155.323c-8.186-5.888-8.026-5.765-7.682-5.947
			c0.699-0.369,8.954-1.039,12.827-1.043c5.151-0.002,13.272,0.744,12.817,1.179c-0.317,0.306-11.614,8.573-12.457,9.118
			C99.281,158.912,98.813,158.631,94.213,155.323z"/>
		<path id="path4214" inkscape:connector-curvature="0" fill="#CCCCCC" d="M122.201,148.028c-2.744-0.281-3.4-0.414-3.156-0.642
			c1.008-0.937,5.145-3.451,7.932-4.824c1.785-0.881,3.291-1.601,3.342-1.601s-0.653,1.685-1.567,3.74
			c-1.638,3.683-1.675,3.742-2.375,3.709C125.984,148.394,124.105,148.221,122.201,148.028L122.201,148.028z"/>
		<path id="path4216" inkscape:connector-curvature="0" fill="#CCCCCC" d="M135.7,134.59c1.521-3.334,2.558-5.238,4.198-7.713
			c0.916-1.383,1.729-2.514,1.801-2.516c0.154-0.002,1.025,8.389,0.885,8.529c-0.16,0.158-7.281,3.395-7.477,3.395
			C135.01,136.285,135.275,135.521,135.7,134.59z"/>
		<path id="path4218" inkscape:connector-curvature="0" fill="#CCCCCC" d="M143.227,116.932c-0.578-4.627-0.91-8.896-0.93-11.979
			c-0.023-3.465,0.686-12.795,1-13.146c0.115-0.132,8.623,11.217,9.455,12.61c0.174,0.293-2.636,4.396-8.406,12.281l-0.982,1.342
			L143.227,116.932L143.227,116.932z"/>
		<path id="path4220" inkscape:connector-curvature="0" fill="#CCCCCC" d="M139.825,82.727c-1.421-2.093-5.021-8.845-4.827-9.05
			c0.082-0.086,7.012,2.992,7.248,3.22c0.195,0.19-0.173,5.424-0.531,7.524l-0.148,0.869L139.825,82.727L139.825,82.727z"/>
		<path id="path4222" inkscape:connector-curvature="0" fill="#CCCCCC" d="M126.602,67.33c-2.815-1.367-8.479-4.838-8.26-5.061
			c0.041-0.041,1.654-0.242,3.582-0.445c1.93-0.203,3.834-0.424,4.233-0.49l0.726-0.121l1.672,3.707
			c0.918,2.039,1.67,3.777,1.67,3.863C130.227,69.063,129.91,68.938,126.602,67.33L126.602,67.33z"/>
		<path id="path4224" inkscape:connector-curvature="0" fill="#CCCCCC" d="M97.137,61.766c-2.514-0.146-10.098-0.83-10.834-0.978
			c-0.764-0.152-0.66-0.242,5.563-4.783c3.487-2.545,6.49-4.684,6.674-4.754c0.293-0.113,13.599,9.203,13.401,9.385
			c-0.098,0.093-9.938,1.002-11.998,1.111c-0.899,0.047-2.164,0.057-2.806,0.021V61.766z"/>
		<path id="path4226" inkscape:connector-curvature="0" fill="#666666" d="M67.789,68.76c0-0.092,0.704-1.772,1.564-3.737
			l1.564-3.57l0.715,0.113c0.395,0.063,1.927,0.225,3.406,0.358c1.479,0.135,3.047,0.302,3.482,0.373l0.794,0.129l-2.431,1.634
			C73.854,66.098,67.789,69.231,67.789,68.76L67.789,68.76z"/>
		<path id="path4228" inkscape:connector-curvature="0" fill="#666666" d="M96.91,61.737c-0.037-0.039-0.792-0.117-1.675-0.178
			c-1.792-0.119-3.769-0.281-5.698-0.468c-0.707-0.067-1.74-0.161-2.296-0.207c-0.555-0.047-1.062-0.137-1.126-0.198
			c-0.064-0.064,0.381-0.523,0.988-1.019s1.298-1.086,1.535-1.311c0.236-0.225,0.479-0.41,0.541-0.41
			c0.236,0,2.229-1.504,2.229-1.682c0-0.104,0.161-0.189,0.358-0.189c0.196,0,0.419-0.156,0.493-0.35
			c0.074-0.194,0.266-0.353,0.426-0.353c0.161,0,0.576-0.262,0.922-0.584c0.348-0.321,0.727-0.584,0.841-0.584
			c0.116,0,0.294-0.133,0.397-0.293c0.103-0.162,0.467-0.438,0.809-0.612c0.342-0.176,0.973-0.642,1.403-1.033
			c0.43-0.394,0.78-0.689,0.78-0.658c0,0.029,0.189-0.018,0.42-0.105c0.298-0.114,1.183,0.347,3.041,1.584
			c1.44,0.959,2.673,1.742,2.736,1.738c0.063-0.002,0.422,0.277,0.795,0.623c0.373,0.346,0.81,0.627,0.969,0.627
			c0.16,0,0.353,0.158,0.427,0.353c0.073,0.192,0.295,0.352,0.491,0.352c0.197,0,0.358,0.104,0.358,0.232
			c0,0.129,0.158,0.233,0.352,0.233c0.192,0,0.352,0.109,0.352,0.242c0,0.131,0.184,0.311,0.41,0.396
			c0.225,0.086,0.67,0.397,0.99,0.692c0.319,0.297,0.67,0.539,0.776,0.539s0.342,0.131,0.521,0.293
			c0.18,0.16,0.498,0.437,0.705,0.611c0.559,0.473,0.145,0.719-1.427,0.85c-0.767,0.063-1.918,0.166-2.562,0.23
			c-0.643,0.063-1.748,0.164-2.455,0.219c-0.707,0.057-1.918,0.156-2.688,0.223C100.156,61.703,96.996,61.823,96.91,61.737
			L96.91,61.737z"/>
		<path id="path4230" inkscape:connector-curvature="0" fill="#666666" d="M128.18,68.014c-0.805-0.381-1.463-0.641-1.463-0.575
			c0,0.064-0.131,0.004-0.291-0.138c-0.416-0.358-4.609-2.778-5.379-3.104c-0.354-0.15-0.643-0.354-0.643-0.455
			c0-0.1-0.158-0.182-0.352-0.182s-0.352-0.105-0.352-0.234s-0.112-0.234-0.25-0.234c-0.403,0-0.954-0.651-0.688-0.815
			c0.129-0.08,0.734-0.188,1.346-0.238c1.404-0.119,3.854-0.397,5.963-0.678c0.777-0.104,0.892-0.053,1.019,0.457
			c0.08,0.315,0.238,0.573,0.354,0.573c0.115,0,0.188,0.08,0.16,0.177c-0.08,0.293,0.598,1.93,0.797,1.93
			c0.104,0,0.16,0.08,0.127,0.18c-0.059,0.185,0.766,2.181,0.988,2.394c0.067,0.063,0.162,0.272,0.209,0.467
			c0.047,0.195,0.14,0.535,0.203,0.76C130.086,68.85,129.877,68.817,128.18,68.014L128.18,68.014z"/>
		<path id="path4232" inkscape:connector-curvature="0" fill="#666666" d="M140.991,84.391c-0.134-0.248-0.373-0.595-0.534-0.771
			c-0.352-0.381-0.361-0.4-3.141-5.379c-1.2-2.15-2.183-4.012-2.183-4.137s0.212-0.211,0.468-0.191
			c0.258,0.021,0.469,0.105,0.469,0.193c0,0.166,1.158,0.549,1.462,0.481c0.097-0.021,0.177,0.066,0.177,0.195
			s0.077,0.211,0.174,0.186c0.098-0.026,0.506,0.127,0.906,0.343c0.4,0.213,0.797,0.321,0.877,0.241s0.146-0.045,0.146,0.08
			c0,0.195,1.553,0.894,1.871,0.841c0.445-0.076,0.619,2.354,0.35,4.856c-0.146,1.346-0.317,3.033-0.338,3.332
			C141.672,85.006,141.229,84.834,140.991,84.391L140.991,84.391z"/>
		<path id="path4234" inkscape:connector-curvature="0" fill="#666666" d="M143.309,117.67c-0.021-0.396-0.195-2.082-0.334-3.248
			c-0.135-1.131-0.246-2.418-0.467-5.379c-0.322-4.334,0.221-15.651,0.801-16.688c0.135-0.242,0.543,0.145,1.529,1.457
			c0.739,0.981,1.438,1.784,1.551,1.784s0.205,0.162,0.205,0.359c0,0.197,0.158,0.418,0.352,0.492
			c0.195,0.074,0.353,0.24,0.353,0.369c0,0.254,1.406,2.123,1.693,2.248c0.098,0.043,0.176,0.229,0.176,0.418
			c0,0.186,0.158,0.397,0.353,0.473c0.195,0.076,0.354,0.256,0.354,0.402s0.315,0.635,0.698,1.086
			c0.383,0.449,0.803,0.944,0.932,1.1c0.131,0.156,0.236,0.367,0.236,0.471s0.252,0.459,0.561,0.791l0.562,0.604l-1.586,2.377
			c-0.871,1.306-1.549,2.375-1.506,2.375s-0.182,0.276-0.496,0.617c-0.313,0.342-0.572,0.704-0.572,0.807
			c0,0.104-0.264,0.474-0.584,0.818c-0.321,0.348-0.586,0.772-0.586,0.946c0,0.177-0.105,0.317-0.239,0.317
			s-0.313,0.185-0.397,0.408c-0.084,0.223-0.397,0.672-0.693,0.991c-0.296,0.32-0.538,0.656-0.538,0.748
			c0,0.091-0.263,0.449-0.585,0.798c-0.32,0.346-0.584,0.715-0.584,0.817C144.488,116.7,143.322,117.924,143.309,117.67
			L143.309,117.67z"/>
		<path id="path4238" inkscape:connector-curvature="0" fill="#666666" d="M124.783,148.305c-0.083-0.084-1.085-0.189-4.117-0.441
			c-1.531-0.127-1.646-0.436-0.465-1.25c0.562-0.389,1.203-0.871,1.43-1.074c0.225-0.201,0.412-0.287,0.416-0.188
			c0.004,0.096,0.137,0.018,0.293-0.178c0.158-0.191,0.422-0.379,0.588-0.412s1.219-0.576,2.338-1.209
			c1.119-0.631,2.482-1.322,3.029-1.541c0.545-0.219,0.994-0.469,0.994-0.555c0-0.088,0.211-0.176,0.467-0.195
			c0.383-0.025,0.428,0.045,0.242,0.391c-0.125,0.23-0.16,0.486-0.078,0.566c0.082,0.082,0.037,0.148-0.102,0.148
			c-0.232,0-0.652,1.08-0.568,1.461c0.021,0.098-0.047,0.176-0.148,0.176c-0.201,0-0.875,1.639-0.797,1.932
			c0.025,0.096-0.035,0.176-0.139,0.176s-0.316,0.355-0.477,0.795c-0.158,0.438-0.416,0.896-0.572,1.021
			C126.82,148.159,124.943,148.465,124.783,148.305L124.783,148.305z"/>
		<path id="path4240" inkscape:connector-curvature="0" fill="#666666" d="M98.076,157.909c-0.74-0.445-1.382-0.812-1.424-0.812
			s-0.359-0.265-0.708-0.584c-0.347-0.321-0.715-0.586-0.817-0.586c-0.104,0-0.472-0.263-0.818-0.584
			c-0.348-0.322-0.715-0.584-0.816-0.584c-0.101,0-0.517-0.306-0.923-0.675c-0.405-0.371-1.011-0.817-1.346-0.993
			c-0.334-0.177-0.921-0.604-1.306-0.953c-0.384-0.349-0.783-0.578-0.891-0.513c-0.105,0.066-0.193,0.031-0.193-0.078
			c0-0.108-0.55-0.605-1.221-1.108l-1.221-0.911l0.695-0.188c0.66-0.18,1.172-0.244,4.437-0.562
			c4.541-0.441,11.792-0.424,16.369,0.043c0.771,0.078,1.719,0.172,2.104,0.207c0.385,0.035,0.983,0.141,1.332,0.23
			c0.543,0.145,0.594,0.229,0.362,0.598c-0.147,0.234-0.326,0.41-0.396,0.387c-0.203-0.066-2.351,1.533-2.351,1.75
			c0,0.107-0.161,0.195-0.358,0.195c-0.196,0-0.418,0.156-0.491,0.35c-0.072,0.191-0.209,0.301-0.304,0.244
			c-0.093-0.059-0.509,0.205-0.925,0.586c-0.416,0.379-0.85,0.689-0.965,0.689c-0.112,0-0.291,0.133-0.395,0.293
			c-0.104,0.162-0.467,0.438-0.81,0.611c-0.343,0.178-0.954,0.623-1.358,0.994c-0.404,0.369-0.84,0.672-0.965,0.672
			s-0.287,0.158-0.359,0.354c-0.074,0.191-0.246,0.352-0.381,0.352s-0.57,0.244-0.969,0.541c-0.398,0.299-0.84,0.611-0.982,0.695
			C99.541,158.653,98.817,158.355,98.076,157.909L98.076,157.909z"/>
		<path id="path4242" inkscape:connector-curvature="0" fill="#666666" d="M70.819,147.907c-0.251-0.41-0.457-0.879-0.457-1.039
			c0-0.162-0.106-0.293-0.235-0.293s-0.207-0.08-0.174-0.181c0.081-0.254-0.814-2.239-1.104-2.446
			c-0.132-0.095-0.167-0.175-0.077-0.177c0.201-0.004-0.49-1.709-0.762-1.881c-0.107-0.065-0.11-0.261-0.006-0.429
			c0.148-0.241,0.444-0.178,1.391,0.302c0.661,0.336,1.203,0.528,1.205,0.431c0.002-0.099,0.081-0.068,0.175,0.067
			c0.229,0.33,5.235,3.043,5.478,2.969c0.104-0.032,0.189,0.048,0.189,0.175c0,0.129,0.158,0.233,0.352,0.233
			c0.192,0,0.351,0.104,0.351,0.233s0.149,0.233,0.331,0.233c0.183,0,0.367,0.082,0.41,0.185c0.041,0.103,0.42,0.424,0.838,0.717
			c0.928,0.652,0.953,0.849,0.117,0.873c-0.354,0.011-1.274,0.097-2.047,0.191C71.088,148.766,71.347,148.771,70.819,147.907
			L70.819,147.907z"/>
		<path id="path4246" inkscape:connector-curvature="0" fill="#666666" d="M53.515,116.687c-0.573-0.633-1.043-1.19-1.044-1.239
			c-0.006-0.229-1.619-2.313-1.793-2.313c-0.106,0-0.193-0.102-0.193-0.227c0-0.32-1.453-2.346-1.682-2.346
			c-0.104,0-0.189-0.152-0.189-0.34s-0.184-0.441-0.408-0.566c-0.226-0.127-0.357-0.264-0.295-0.305
			c0.168-0.109-1.441-2.297-1.688-2.297c-0.115,0-0.147-0.1-0.074-0.219c0.074-0.121-0.077-0.365-0.335-0.549
			c-0.258-0.18-0.403-0.395-0.321-0.477s-0.012-0.211-0.21-0.287c-0.299-0.115-0.265-0.238,0.203-0.744
			c0.31-0.334,0.521-0.648,0.468-0.699c-0.052-0.053,0.206-0.422,0.571-0.822c0.365-0.399,0.61-0.813,0.545-0.922
			c-0.065-0.107-0.005-0.192,0.136-0.192s0.319-0.17,0.398-0.377c0.08-0.207,0.393-0.644,0.693-0.97
			c0.303-0.325,0.551-0.678,0.551-0.78c0-0.104,0.263-0.472,0.584-0.818c0.322-0.348,0.585-0.715,0.585-0.816
			s0.303-0.518,0.673-0.922c0.37-0.405,0.816-1.012,0.994-1.346c0.177-0.334,0.605-0.922,0.953-1.305
			c0.348-0.383,0.607-0.758,0.576-0.832c-0.03-0.074,0.276-0.484,0.681-0.91l0.735-0.775l0.174,1.478
			c0.097,0.813,0.215,1.896,0.263,2.412c0.048,0.514,0.144,1.514,0.21,2.221c0.411,4.354,0.415,9.666,0.01,14.266
			c-0.074,0.836-0.181,2.105-0.238,2.82c-0.058,0.717-0.19,1.537-0.297,1.824C54.566,117.812,54.51,117.785,53.515,116.687
			L53.515,116.687z"/>
		<path id="path4250" inkscape:connector-curvature="0" fill="#666666" d="M56.229,85.1c-0.063-0.104-0.177-0.861-0.25-1.687
			c-0.074-0.824-0.19-1.971-0.257-2.549c-0.067-0.58-0.111-1.457-0.098-1.951c0.015-0.494-0.084-1.033-0.222-1.197
			c-0.288-0.346-0.179-0.448,1.454-1.381c0.611-0.35,1.111-0.576,1.111-0.504c0,0.072,0.447-0.104,0.994-0.389
			c0.545-0.287,1.045-0.529,1.11-0.541c0.435-0.078,1.871-0.705,1.871-0.816c0-0.076,0.21-0.151,0.468-0.172
			c0.586-0.045,0.586-0.049-0.105,1.318c-0.316,0.623-0.51,1.197-0.43,1.276c0.08,0.08,0.018,0.146-0.141,0.146
			c-0.159,0-0.227,0.096-0.154,0.213c0.073,0.117,0.045,0.25-0.063,0.293s-0.708,1.025-1.333,2.182
			c-0.625,1.158-1.484,2.652-1.91,3.322c-0.425,0.668-0.771,1.326-0.771,1.461c0,0.136-0.105,0.246-0.234,0.246
			s-0.234,0.146-0.234,0.324C57.032,85.071,56.405,85.383,56.229,85.1L56.229,85.1z"/>
		<path id="path4252" inkscape:connector-curvature="0" fill="#999999" d="M55.056,72.856c-0.253-2.576-0.83-10.552-0.83-11.459
			V60.52h1.151c1.431,0,12.469,0.916,12.598,1.045c0.129,0.129-2.426,6.086-3.135,7.309c-0.771,1.332-2.084,2.183-6.104,3.949
			c-1.869,0.822-3.43,1.494-3.468,1.494S55.135,73.66,55.056,72.856L55.056,72.856z"/>
	</g>
	<g id="layer1_1_" transform="translate(0,-5.9998782)" inkscape:label="Layer 1" inkscape:groupmode="layer" display="inline">
		<g id="g4144_1_" transform="translate(-2.8147384,383.66327)">
			
				<path id="path3336_1_" sodipodi:type="star" sodipodi:sides="3" sodipodi:cx="340" sodipodi:cy="292.36218" sodipodi:r1="88.24826" sodipodi:r2="44.12413" sodipodi:arg1="0.5070985" sodipodi:arg2="1.5542961" inkscape:flatsided="false" inkscape:rounded="0.15" inkscape:randomized="0" inkscape:transform-center-x="-0.21068722" inkscape:transform-center-y="-21.809337" fill="none" stroke="#000000" stroke-width="2" d="
				M178.457-236.85c-5.698,9.946-64.961,0.221-76.424,0.26c-11.464,0.039-70.659,10.168-76.425,0.261
				c-5.767-9.908,32.288-56.367,37.987-66.313c5.697-9.947,26.522-66.277,37.986-66.316c11.463-0.039,32.672,56.146,38.438,66.056
				C145.787-292.999,184.157-246.798,178.457-236.85z"/>
			
				<path id="path4138_1_" sodipodi:type="star" sodipodi:sides="3" sodipodi:cx="340" sodipodi:cy="292.36218" sodipodi:r1="88.24826" sodipodi:r2="44.12413" sodipodi:arg1="0.5070985" sodipodi:arg2="1.5542961" inkscape:flatsided="false" inkscape:rounded="0.15" inkscape:randomized="0" inkscape:transform-center-x="-21.809334" inkscape:transform-center-y="0.21068768" fill="none" stroke="#000000" stroke-width="2" d="
				M60-202.02c-9.947-5.697-0.221-64.961-0.26-76.424c-0.039-11.465-10.168-70.66-0.26-76.427
				c9.908-5.766,56.369,32.289,66.315,37.988c9.947,5.697,66.277,26.523,66.316,37.986c0.037,11.465-56.147,32.672-66.057,38.438
				C116.147-234.693,69.949-196.322,60-202.02L60-202.02z"/>
			
				<path id="path4140_1_" sodipodi:type="star" sodipodi:sides="3" sodipodi:cx="340" sodipodi:cy="292.36218" sodipodi:r1="88.24826" sodipodi:r2="44.12413" sodipodi:arg1="0.5070985" sodipodi:arg2="1.5542961" inkscape:flatsided="false" inkscape:rounded="0.15" inkscape:randomized="0" inkscape:transform-center-x="0.21068938" inkscape:transform-center-y="21.809337" fill="none" stroke="#000000" stroke-width="2" d="
				M25.169-320.477c5.698-9.947,64.961-0.221,76.425-0.26c11.465-0.039,70.659-10.168,76.426-0.261
				c5.766,9.908-32.289,56.367-37.986,66.314c-5.698,9.946-26.522,66.276-37.987,66.315c-11.464,0.039-32.672-56.146-38.438-66.056
				C57.842-264.333,19.471-310.53,25.169-320.477L25.169-320.477z"/>
			
				<path id="path4142_1_" sodipodi:type="star" sodipodi:sides="3" sodipodi:cx="340" sodipodi:cy="292.36218" sodipodi:r1="88.24826" sodipodi:r2="44.12413" sodipodi:arg1="0.5070985" sodipodi:arg2="1.5542961" inkscape:flatsided="false" inkscape:rounded="0.15" inkscape:randomized="0" inkscape:transform-center-x="21.809337" inkscape:transform-center-y="-0.21068638" fill="none" stroke="#000000" stroke-width="2" d="
				M143.625-355.307c9.949,5.697,0.223,64.961,0.262,76.424c0.039,11.465,10.17,70.66,0.262,76.427s-56.369-32.289-66.316-37.988
				c-9.947-5.696-66.277-26.522-66.316-37.985c-0.039-11.465,56.147-32.672,66.057-38.438
				C87.481-322.636,133.68-361.007,143.625-355.307L143.625-355.307z"/>
		</g>
		<path id="path4150_1_" inkscape:connector-curvature="0" fill="#808080" d="M60.616,58.364l-6.886-0.521l0.249-11.051
			c0.258-11.449,0.69-14.035,2.707-16.199c1.849-1.983,5.785-1.149,14.086,2.984c3.881,1.935,7.302,3.814,7.603,4.182
			c0.391,0.476-0.353,2.572-2.602,7.351c-1.73,3.678-3.878,8.32-4.771,10.315c-1.166,2.607-1.887,3.605-2.562,3.545
			C67.924,58.922,64.403,58.649,60.616,58.364L60.616,58.364z"/>
		<path id="path4152_1_" inkscape:connector-curvature="0" fill="#808080" d="M91.271,43.076c-3.728-2.561-7.224-4.934-7.771-5.271
			c-0.938-0.584-0.879-0.834,1.104-4.557c5.542-10.402,11.099-17.065,14.232-17.065c2.115,0,4.975,2.588,8.447,7.643
			c3.092,4.5,7.861,12.682,7.564,12.979C113.95,37.7,99.474,47.445,98.85,47.57C98.409,47.659,94.998,45.637,91.271,43.076z"/>
		<path id="path4154_1_" inkscape:connector-curvature="0" fill="#808080" d="M127.049,55.778
			c-0.705-1.588-2.885-6.256-4.846-10.373l-3.562-7.486l1.225-0.946c2.092-1.621,12.883-6.826,15.547-7.503
			c6.553-1.659,8.439,2.688,8.447,19.468l0.004,8.371l-2.545,0.315c-1.4,0.174-4.896,0.479-7.769,0.678l-5.221,0.363L127.049,55.778
			L127.049,55.778z"/>
		<path id="path4156_1_" inkscape:connector-curvature="0" fill="#808080" d="M156.18,80.549c-4.871-2.309-9.396-4.371-10.059-4.58
			c-1.128-0.356-1.186-0.596-0.885-3.69c0.178-1.82,0.481-5.359,0.682-7.865l0.357-4.555l7.983-0.15
			c8.992-0.166,16.288,0.799,18.511,2.451c1.854,1.379,2.043,4.201,0.56,8.375c-1.429,4.012-7.002,14.248-7.75,14.227
			C165.277,84.752,161.049,82.858,156.18,80.549L156.18,80.549z"/>
		<path id="path4158_1_" inkscape:connector-curvature="0" fill="#808080" d="M162.079,113.631
			c-2.797-4.119-5.313-7.814-5.593-8.219c-0.368-0.529,0.955-2.912,4.82-8.674c2.932-4.369,5.379-8.031,5.438-8.139
			c0.166-0.302,6.89,3.506,11.823,6.694c6.059,3.914,9.238,7.154,9.238,9.404c0,1.422-0.604,2.322-3.351,4.996
			s-10.821,8.086-16.217,10.865C167.268,121.064,166.676,120.401,162.079,113.631L162.079,113.631z"/>
		<path id="path4160_1_" inkscape:connector-curvature="0" fill="#808080" d="M147.814,149.825
			c-1.271-0.295-1.504-1.427-2.107-10.39l-0.346-5.09l10.486-4.901l10.485-4.902l1.353,2.306c2.481,4.237,6.09,11.765,6.674,13.931
			c1.324,4.897,0.229,6.643-5.047,8.02C166.148,149.621,150.234,150.383,147.814,149.825L147.814,149.825z"/>
		<path id="path4162_1_" inkscape:connector-curvature="0" fill="#808080" d="M135.291,179.928
			c-3.488-1.033-6.076-2.213-11.557-5.262l-4.857-2.701l4.857-10.43l4.856-10.43l5.093,0.338c2.799,0.186,6.387,0.486,7.971,0.666
			l2.882,0.328l-0.276,10.246c-0.275,10.168-0.928,14.223-2.654,16.543C140.656,180.5,138.157,180.778,135.291,179.928
			L135.291,179.928z"/>
		<path id="path4164_1_" inkscape:connector-curvature="0" fill="#808080" d="M96.877,193.053c-1.82-1.109-5.121-5.033-7.912-9.404
			c-2.906-4.557-5.754-9.887-5.565-10.42c0.099-0.281,3.711-2.926,8.028-5.871l7.851-5.363l8.09,5.43l8.091,5.432l-2.481,4.594
			c-4.47,8.271-9.078,14.346-12.049,15.883C99.034,194.307,98.922,194.299,96.877,193.053L96.877,193.053z"/>
		<path id="path4166_1_" inkscape:connector-curvature="0" fill="#808080" d="M56.722,179.338c-0.49-0.748-1.216-2.734-1.611-4.42
			c-0.879-3.736-1.565-16.668-1.062-20.021l0.367-2.442l5.203-0.354c2.862-0.194,6.324-0.5,7.693-0.677
			c2.281-0.293,2.523-0.213,2.887,0.947c0.219,0.697,2.398,5.435,4.846,10.524l4.449,9.259l-2.021,1.274
			c-2.98,1.883-10.273,5.534-12.904,6.463c-1.261,0.444-3.342,0.81-4.625,0.81c-1.905,0-2.495-0.248-3.223-1.358L56.722,179.338
			L56.722,179.338z"/>
		<path id="path4168_1_" inkscape:connector-curvature="0" fill="#808080" d="M29.666,149.418c-3.646-0.785-5.713-2.059-6.146-3.789
			c-0.512-2.037,1.182-6.998,4.675-13.693c1.769-3.391,3.39-6.346,3.604-6.566c0.216-0.223,4.77,1.646,10.119,4.152
			c5.351,2.508,10.013,4.557,10.36,4.557c0.625,0,0.396,8.043-0.396,13.801l-0.313,2.277l-9.451-0.045
			C36.922,150.084,31.317,149.773,29.666,149.418z"/>
		<path id="path4170_1_" inkscape:connector-curvature="0" fill="#808080" d="M27.043,119.284
			c-11.127-6.133-17.148-11.177-17.148-14.363c0-1.381,4.667-6.065,8.842-8.881c4.115-2.772,12.016-7.219,12.271-6.906
			c0.09,0.109,1.688,2.488,3.551,5.289c1.863,2.8,4.316,6.354,5.451,7.898l2.063,2.807l-5.38,8.045
			c-2.959,4.425-5.558,8.041-5.772,8.037C30.703,121.207,28.959,120.34,27.043,119.284L27.043,119.284z"/>
		<path id="path4172_1_" inkscape:connector-curvature="0" fill="#B3B3B3" d="M29.075,80.889
			c-4.108-7.196-5.387-10.479-5.454-13.993c-0.055-2.767,0.101-3.269,1.278-4.156c2.312-1.742,8.112-2.594,17.745-2.604l8.902-0.01
			l0.371,5.762c0.205,3.168,0.5,6.605,0.657,7.64l0.286,1.879l-10.363,4.961c-5.701,2.729-10.484,4.957-10.632,4.951
			C31.717,85.313,30.463,83.321,29.075,80.889L29.075,80.889z"/>
		<path id="path4174_1_" inkscape:connector-curvature="0" fill="#B3B3B3" d="M39.758,97.532c-5.703-8.23-6.487-9.553-5.969-10.062
			c0.645-0.629,19.016-9.272,19.211-9.038c0.082,0.1,0.371,2.401,0.64,5.114l0.487,4.937L49.2,95.325
			c-2.71,3.762-5.165,6.92-5.458,7.018C43.45,102.438,41.657,100.274,39.758,97.532L39.758,97.532z"/>
		<path id="path4176_1_" inkscape:connector-curvature="0" fill="#B3B3B3" d="M46.33,128.778c-3.683-1.693-8.082-3.791-9.779-4.66
			l-3.086-1.582l4.942-7.356c2.718-4.05,5.083-7.358,5.255-7.358s2.629,3.211,5.461,7.137l5.146,7.138l-0.525,4.782
			c-0.289,2.632-0.57,4.828-0.623,4.882C53.066,131.81,50.01,130.469,46.33,128.778z"/>
		<path id="path4178_1_" inkscape:connector-curvature="0" fill="#B3B3B3" d="M54.647,144.608c0.212-3.109,0.538-6.354,0.726-7.212
			l0.34-1.555l4.371,1.892l4.373,1.891l1.924,4.433c1.06,2.438,1.926,4.539,1.926,4.67c0,0.134-2.713,0.403-6.029,0.604
			c-3.316,0.199-6.477,0.492-7.021,0.647C54.316,150.246,54.283,149.951,54.647,144.608L54.647,144.608z"/>
		<path id="path4180_1_" inkscape:connector-curvature="0" fill="#B3B3B3" d="M80.52,168.241c-0.663-1.254-2.807-5.654-4.762-9.781
			l-3.556-7.502l5.152-0.535l5.151-0.536l7.102,5.056c3.905,2.778,7.1,5.219,7.1,5.424c0,0.377-14.135,10.153-14.682,10.153
			C81.86,170.517,81.183,169.493,80.52,168.241z"/>
		<path id="path4182_1_" inkscape:connector-curvature="0" fill="#B3B3B3" d="M108.875,165.385
			c-3.744-2.525-6.809-4.807-6.809-5.064s3.175-2.77,7.057-5.574c4.908-3.551,7.395-5.033,8.172-4.873
			c0.613,0.125,2.754,0.381,4.756,0.568c3.424,0.318,3.617,0.408,3.276,1.5c-0.903,2.896-8.485,18.043-9.032,18.043
			C115.959,169.983,112.619,167.914,108.875,165.385L108.875,165.385z"/>
		<path id="path4184_1_" inkscape:connector-curvature="0" fill="#B3B3B3" d="M134.596,149.069c-2.299-0.22-4.305-0.521-4.453-0.673
			c-0.15-0.15,0.523-2.146,1.5-4.438l1.773-4.166l4.484-2.078c2.468-1.145,4.594-1.973,4.727-1.84
			c0.273,0.273,1.203,9.371,1.225,12.002c0.016,1.732,0.002,1.74-2.531,1.666C139.92,149.502,136.895,149.289,134.596,149.069
			L134.596,149.069L134.596,149.069z"/>
		<path id="path4186_1_" inkscape:connector-curvature="0" fill="#B3B3B3" d="M144.748,129.409c-0.16-1.117-0.434-3.354-0.605-4.978
			l-0.313-2.946l5.274-7.314l5.275-7.313l4.842,7.048c2.662,3.875,5.021,7.354,5.235,7.733c0.282,0.494-2.073,1.873-8.354,4.89
			C144.596,132.047,145.107,131.918,144.748,129.409L144.748,129.409z"/>
		<path id="path4188_1_" inkscape:connector-curvature="0" fill="#B3B3B3" d="M149.032,95.237l-5.226-7.228l0.37-4.58
			c0.205-2.518,0.578-4.704,0.83-4.86c0.578-0.357,19.222,8.334,19.222,8.961c0,0.408-8.648,13.504-9.601,14.529
			C154.426,102.282,151.907,99.211,149.032,95.237z"/>
		<path id="path4190_1_" inkscape:connector-curvature="0" fill="#B3B3B3" d="M137.545,72.143l-3.91-1.826l-2.033-4.426
			l-2.035-4.427l1.55-0.34c0.852-0.188,4.081-0.512,7.172-0.723l5.624-0.385l-0.266,1.26c-0.146,0.69-0.422,3.852-0.61,7.02
			c-0.229,3.838-0.554,5.746-0.966,5.717C141.732,73.991,139.693,73.149,137.545,72.143L137.545,72.143z"/>
		<path id="path4192_1_" inkscape:connector-curvature="0" fill="#B3B3B3" d="M108.467,55.157c-3.699-2.721-6.834-5.166-6.965-5.438
			c-0.132-0.27,3.135-2.78,7.258-5.582l7.498-5.09l4.666,9.604c2.566,5.278,4.68,9.754,4.694,9.94
			c0.028,0.354-2.405,0.756-7.474,1.234l-2.947,0.277L108.467,55.157z"/>
		<path id="path4194_1_" inkscape:connector-curvature="0" fill="#B3B3B3" d="M75.715,59.641c-1.672-0.181-3.148-0.445-3.283-0.591
			c-0.278-0.303,7.947-18.18,8.72-18.953c0.317-0.317,3.106,1.238,7.494,4.183c3.843,2.578,7.112,4.891,7.265,5.137
			c0.152,0.248-2.891,2.758-6.763,5.58C81.59,60.502,82.099,60.326,75.715,59.641z"/>
		<path id="path4196_1_" inkscape:connector-curvature="0" fill="#666666" d="M54.523,67.469c-0.294-3.893-0.508-7.104-0.477-7.139
			c0.107-0.119,13.989,0.975,14.139,1.113c0.081,0.076-0.748,2.123-1.842,4.551c-2.155,4.785-1.646,4.371-9.618,7.828l-1.667,0.723
			L54.523,67.469L54.523,67.469z"/>
		<path id="path4198_1_" inkscape:connector-curvature="0" fill="#666666" d="M29.403,80.998c-1.151-2.047-2.289-3.723-2.526-3.725
			c-0.24,0-0.297-0.224-0.129-0.492c0.166-0.271-0.049-0.846-0.479-1.277c-0.431-0.43-0.634-0.932-0.452-1.114
			c0.184-0.183,0.102-0.33-0.18-0.33c-0.28,0-0.549-0.521-0.598-1.158c-0.049-0.638-0.281-1.301-0.517-1.476
			c-0.235-0.174-0.511-1.887-0.61-3.807c-0.148-2.877-0.005-3.652,0.819-4.398c1.415-1.278,6.763-2.561,10.696-2.561
			c1.836,0,3.488-0.24,3.67-0.535c0.38-0.615,3.974-0.692,8.773-0.19c3.809,0.397,3.766,0.328,4.088,6.651
			c0.112,2.193,0.278,5.058,0.371,6.361l0.166,2.373l-6.699,3.225c-3.685,1.773-6.779,3.42-6.879,3.66
			c-0.099,0.238-0.399,0.297-0.67,0.131c-0.27-0.166-0.49-0.033-0.49,0.297c0,0.328-0.221,0.461-0.492,0.293
			c-0.271-0.166-0.846,0.05-1.276,0.48c-0.431,0.43-0.933,0.633-1.114,0.451c-0.184-0.185-0.332-0.111-0.334,0.158
			c0,0.271-0.687,0.539-1.523,0.598C31.657,84.709,31.276,84.326,29.403,80.998L29.403,80.998z"/>
		<path id="path4200_1_" inkscape:connector-curvature="0" fill="#666666" d="M29.424,80.623c-3.367-5.615-4.703-8.699-5.129-11.84
			c-0.75-5.527,0.631-6.578,10.451-7.959c6.666-0.938,6.793-0.945,11.426-0.803c2.636,0.082,3.578,0.354,4.556,1.309
			c1.149,1.125,1.233,1.637,1.233,7.543v6.338l-6.967,3.506c-3.832,1.929-7.878,3.959-8.992,4.515
			C32.562,84.946,31.844,84.66,29.424,80.623L29.424,80.623z"/>
		<path id="path4202_1_" inkscape:connector-curvature="0" fill="#666666" d="M29.049,80.086c-3.129-5.209-4.424-8.276-4.858-11.516
			c-0.661-4.916,0.916-6.318,8.296-7.375c2.164-0.312,5.38-0.805,7.148-1.1c4.182-0.693,10.104,0.014,11.386,1.358
			c0.741,0.779,0.901,1.709,0.76,4.385c-0.099,1.867,0.025,3.396,0.274,3.396c0.25,0,0.33,1.354,0.18,3.012l-0.273,3.012
			l-8.843,4.472c-4.862,2.459-9.458,4.479-10.209,4.49C31.769,84.237,31.131,83.553,29.049,80.086L29.049,80.086z"/>
		<path id="path4204_1_" inkscape:connector-curvature="0" fill="#CCCCCC" d="M55.75,81.448c-0.235-2.381-0.386-4.365-0.334-4.41
			c0.226-0.197,7.545-3.416,7.613-3.35c0.207,0.207-3.593,7.442-5.042,9.604c-0.917,1.367-1.698,2.484-1.737,2.484
			C56.209,85.776,55.984,83.828,55.75,81.448z"/>
		<path id="path4206_1_" inkscape:connector-curvature="0" fill="#CCCCCC" d="M49.822,111.868c-2.594-3.545-4.716-6.51-4.716-6.586
			c0-0.211,9.401-13.223,9.491-13.133c0.259,0.26,1.103,9.994,1.119,12.918c0.019,3.383-0.682,12.303-1.016,12.938
			C54.596,118.207,52.885,116.055,49.822,111.868L49.822,111.868z"/>
		<path id="path4208_1_" inkscape:connector-curvature="0" fill="#CCCCCC" d="M59.254,134.748c-1.801-0.82-3.373-1.527-3.492-1.57
			c-0.209-0.072,0.218-6.084,0.547-7.695c0.148-0.729,0.182-0.693,1.936,1.936c2.271,3.402,5.059,8.914,4.475,8.85
			C62.613,136.252,61.055,135.571,59.254,134.748L59.254,134.748z"/>
		<path id="path4210_1_" inkscape:connector-curvature="0" fill="#CCCCCC" d="M70.612,147.685c-0.237-0.547-1.016-2.282-1.728-3.858
			c-0.711-1.574-1.209-2.863-1.104-2.863c0.545,0,8.349,4.173,10.033,5.363l1.958,1.387l-0.788,0.13
			c-1.005,0.166-7.076,0.838-7.565,0.838C71.205,148.68,70.86,148.254,70.612,147.685z"/>
		<path id="path4212_1_" inkscape:connector-curvature="0" fill="#CCCCCC" d="M94.213,155.323c-8.186-5.888-8.026-5.765-7.682-5.947
			c0.699-0.369,8.954-1.039,12.827-1.043c5.151-0.002,13.272,0.744,12.817,1.179c-0.317,0.306-11.614,8.573-12.457,9.118
			C99.281,158.912,98.813,158.631,94.213,155.323z"/>
		<path id="path4214_1_" inkscape:connector-curvature="0" fill="#CCCCCC" d="M122.201,148.028c-2.744-0.281-3.4-0.414-3.156-0.642
			c1.008-0.937,5.145-3.451,7.932-4.824c1.785-0.881,3.291-1.601,3.342-1.601s-0.653,1.685-1.567,3.74
			c-1.638,3.683-1.675,3.742-2.375,3.709C125.984,148.394,124.105,148.221,122.201,148.028L122.201,148.028z"/>
		<path id="path4216_1_" inkscape:connector-curvature="0" fill="#CCCCCC" d="M135.7,134.59c1.521-3.334,2.558-5.238,4.198-7.713
			c0.916-1.383,1.729-2.514,1.801-2.516c0.154-0.002,1.025,8.389,0.885,8.529c-0.16,0.158-7.281,3.395-7.477,3.395
			C135.01,136.285,135.275,135.521,135.7,134.59z"/>
		<path id="path4218_1_" inkscape:connector-curvature="0" fill="#CCCCCC" d="M143.227,116.932c-0.578-4.627-0.91-8.896-0.93-11.979
			c-0.023-3.465,0.686-12.795,1-13.146c0.115-0.132,8.623,11.217,9.455,12.61c0.174,0.293-2.636,4.396-8.406,12.281l-0.982,1.342
			L143.227,116.932L143.227,116.932z"/>
		<path id="path4220_1_" inkscape:connector-curvature="0" fill="#CCCCCC" d="M139.825,82.727c-1.421-2.093-5.021-8.845-4.827-9.05
			c0.082-0.086,7.012,2.992,7.248,3.22c0.195,0.19-0.173,5.424-0.531,7.524l-0.148,0.869L139.825,82.727L139.825,82.727z"/>
		<path id="path4222_1_" inkscape:connector-curvature="0" fill="#CCCCCC" d="M126.602,67.33c-2.815-1.367-8.479-4.838-8.26-5.061
			c0.041-0.041,1.654-0.242,3.582-0.445c1.93-0.203,3.834-0.424,4.233-0.49l0.726-0.121l1.672,3.707
			c0.918,2.039,1.67,3.777,1.67,3.863C130.227,69.063,129.91,68.938,126.602,67.33L126.602,67.33z"/>
		<path id="path4224_1_" inkscape:connector-curvature="0" fill="#CCCCCC" d="M97.137,61.766c-2.514-0.146-10.098-0.83-10.834-0.978
			c-0.764-0.152-0.66-0.242,5.563-4.783c3.487-2.545,6.49-4.684,6.674-4.754c0.293-0.113,13.599,9.203,13.401,9.385
			c-0.098,0.093-9.938,1.002-11.998,1.111c-0.899,0.047-2.164,0.057-2.806,0.021V61.766z"/>
		<path id="path4226_1_" inkscape:connector-curvature="0" fill="#666666" d="M67.789,68.76c0-0.092,0.704-1.772,1.564-3.737
			l1.564-3.57l0.715,0.113c0.395,0.063,1.927,0.225,3.406,0.358c1.479,0.135,3.047,0.302,3.482,0.373l0.794,0.129l-2.431,1.634
			C73.854,66.098,67.789,69.231,67.789,68.76L67.789,68.76z"/>
		<path id="path4228_1_" inkscape:connector-curvature="0" fill="#666666" d="M96.91,61.737c-0.037-0.039-0.792-0.117-1.675-0.178
			c-1.792-0.119-3.769-0.281-5.698-0.468c-0.707-0.067-1.74-0.161-2.296-0.207c-0.555-0.047-1.062-0.137-1.126-0.198
			c-0.064-0.064,0.381-0.523,0.988-1.019s1.298-1.086,1.535-1.311c0.236-0.225,0.479-0.41,0.541-0.41
			c0.236,0,2.229-1.504,2.229-1.682c0-0.104,0.161-0.189,0.358-0.189c0.196,0,0.419-0.156,0.493-0.35
			c0.074-0.194,0.266-0.353,0.426-0.353c0.161,0,0.576-0.262,0.922-0.584c0.348-0.321,0.727-0.584,0.841-0.584
			c0.116,0,0.294-0.133,0.397-0.293c0.103-0.162,0.467-0.438,0.809-0.612c0.342-0.176,0.973-0.642,1.403-1.033
			c0.43-0.394,0.78-0.689,0.78-0.658c0,0.029,0.189-0.018,0.42-0.105c0.298-0.114,1.183,0.347,3.041,1.584
			c1.44,0.959,2.673,1.742,2.736,1.738c0.063-0.002,0.422,0.277,0.795,0.623c0.373,0.346,0.81,0.627,0.969,0.627
			c0.16,0,0.353,0.158,0.427,0.353c0.073,0.192,0.295,0.352,0.491,0.352c0.197,0,0.358,0.104,0.358,0.232
			c0,0.129,0.158,0.233,0.352,0.233c0.192,0,0.352,0.109,0.352,0.242c0,0.131,0.184,0.311,0.41,0.396
			c0.225,0.086,0.67,0.397,0.99,0.692c0.319,0.297,0.67,0.539,0.776,0.539s0.342,0.131,0.521,0.293
			c0.18,0.16,0.498,0.437,0.705,0.611c0.559,0.473,0.145,0.719-1.427,0.85c-0.767,0.063-1.918,0.166-2.562,0.23
			c-0.643,0.063-1.748,0.164-2.455,0.219c-0.707,0.057-1.918,0.156-2.688,0.223C100.156,61.703,96.996,61.823,96.91,61.737
			L96.91,61.737z"/>
		<path id="path4230_1_" inkscape:connector-curvature="0" fill="#666666" d="M128.18,68.014c-0.805-0.381-1.463-0.641-1.463-0.575
			c0,0.064-0.131,0.004-0.291-0.138c-0.416-0.358-4.609-2.778-5.379-3.104c-0.354-0.15-0.643-0.354-0.643-0.455
			c0-0.1-0.158-0.182-0.352-0.182s-0.352-0.105-0.352-0.234s-0.112-0.234-0.25-0.234c-0.403,0-0.954-0.651-0.688-0.815
			c0.129-0.08,0.734-0.188,1.346-0.238c1.404-0.119,3.854-0.397,5.963-0.678c0.777-0.104,0.892-0.053,1.019,0.457
			c0.08,0.315,0.238,0.573,0.354,0.573c0.115,0,0.188,0.08,0.16,0.177c-0.08,0.293,0.598,1.93,0.797,1.93
			c0.104,0,0.16,0.08,0.127,0.18c-0.059,0.185,0.766,2.181,0.988,2.394c0.067,0.063,0.162,0.272,0.209,0.467
			c0.047,0.195,0.14,0.535,0.203,0.76C130.086,68.85,129.877,68.817,128.18,68.014L128.18,68.014z"/>
		<path id="path4232_1_" inkscape:connector-curvature="0" fill="#666666" d="M140.991,84.391c-0.134-0.248-0.373-0.595-0.534-0.771
			c-0.352-0.381-0.361-0.4-3.141-5.379c-1.2-2.15-2.183-4.012-2.183-4.137s0.212-0.211,0.468-0.191
			c0.258,0.021,0.469,0.105,0.469,0.193c0,0.166,1.158,0.549,1.462,0.481c0.097-0.021,0.177,0.066,0.177,0.195
			s0.077,0.211,0.174,0.186c0.098-0.026,0.506,0.127,0.906,0.343c0.4,0.213,0.797,0.321,0.877,0.241s0.146-0.045,0.146,0.08
			c0,0.195,1.553,0.894,1.871,0.841c0.445-0.076,0.619,2.354,0.35,4.856c-0.146,1.346-0.317,3.033-0.338,3.332
			C141.672,85.006,141.229,84.834,140.991,84.391L140.991,84.391z"/>
		<path id="path4234_1_" inkscape:connector-curvature="0" fill="#666666" d="M143.309,117.67c-0.021-0.396-0.195-2.082-0.334-3.248
			c-0.135-1.131-0.246-2.418-0.467-5.379c-0.322-4.334,0.221-15.651,0.801-16.688c0.135-0.242,0.543,0.145,1.529,1.457
			c0.739,0.981,1.438,1.784,1.551,1.784s0.205,0.162,0.205,0.359c0,0.197,0.158,0.418,0.352,0.492
			c0.195,0.074,0.353,0.24,0.353,0.369c0,0.254,1.406,2.123,1.693,2.248c0.098,0.043,0.176,0.229,0.176,0.418
			c0,0.186,0.158,0.397,0.353,0.473c0.195,0.076,0.354,0.256,0.354,0.402s0.315,0.635,0.698,1.086
			c0.383,0.449,0.803,0.944,0.932,1.1c0.131,0.156,0.236,0.367,0.236,0.471s0.252,0.459,0.561,0.791l0.562,0.604l-1.586,2.377
			c-0.871,1.306-1.549,2.375-1.506,2.375s-0.182,0.276-0.496,0.617c-0.313,0.342-0.572,0.704-0.572,0.807
			c0,0.104-0.264,0.474-0.584,0.818c-0.321,0.348-0.586,0.772-0.586,0.946c0,0.177-0.105,0.317-0.239,0.317
			s-0.313,0.185-0.397,0.408c-0.084,0.223-0.397,0.672-0.693,0.991c-0.296,0.32-0.538,0.656-0.538,0.748
			c0,0.091-0.263,0.449-0.585,0.798c-0.32,0.346-0.584,0.715-0.584,0.817C144.488,116.7,143.322,117.924,143.309,117.67
			L143.309,117.67z"/>
		<path id="path4238_1_" inkscape:connector-curvature="0" fill="#666666" d="M124.783,148.305
			c-0.083-0.084-1.085-0.189-4.117-0.441c-1.531-0.127-1.646-0.436-0.465-1.25c0.562-0.389,1.203-0.871,1.43-1.074
			c0.225-0.201,0.412-0.287,0.416-0.188c0.004,0.096,0.137,0.018,0.293-0.178c0.158-0.191,0.422-0.379,0.588-0.412
			s1.219-0.576,2.338-1.209c1.119-0.631,2.482-1.322,3.029-1.541c0.545-0.219,0.994-0.469,0.994-0.555
			c0-0.088,0.211-0.176,0.467-0.195c0.383-0.025,0.428,0.045,0.242,0.391c-0.125,0.23-0.16,0.486-0.078,0.566
			c0.082,0.082,0.037,0.148-0.102,0.148c-0.232,0-0.652,1.08-0.568,1.461c0.021,0.098-0.047,0.176-0.148,0.176
			c-0.201,0-0.875,1.639-0.797,1.932c0.025,0.096-0.035,0.176-0.139,0.176s-0.316,0.355-0.477,0.795
			c-0.158,0.438-0.416,0.896-0.572,1.021C126.82,148.159,124.943,148.465,124.783,148.305L124.783,148.305z"/>
		<path id="path4240_1_" inkscape:connector-curvature="0" fill="#666666" d="M98.076,157.909c-0.74-0.445-1.382-0.812-1.424-0.812
			s-0.359-0.265-0.708-0.584c-0.347-0.321-0.715-0.586-0.817-0.586c-0.104,0-0.472-0.263-0.818-0.584
			c-0.348-0.322-0.715-0.584-0.816-0.584c-0.101,0-0.517-0.306-0.923-0.675c-0.405-0.371-1.011-0.817-1.346-0.993
			c-0.334-0.177-0.921-0.604-1.306-0.953c-0.384-0.349-0.783-0.578-0.891-0.513c-0.105,0.066-0.193,0.031-0.193-0.078
			c0-0.108-0.55-0.605-1.221-1.108l-1.221-0.911l0.695-0.188c0.66-0.18,1.172-0.244,4.437-0.562
			c4.541-0.441,11.792-0.424,16.369,0.043c0.771,0.078,1.719,0.172,2.104,0.207c0.385,0.035,0.983,0.141,1.332,0.23
			c0.543,0.145,0.594,0.229,0.362,0.598c-0.147,0.234-0.326,0.41-0.396,0.387c-0.203-0.066-2.351,1.533-2.351,1.75
			c0,0.107-0.161,0.195-0.358,0.195c-0.196,0-0.418,0.156-0.491,0.35c-0.072,0.191-0.209,0.301-0.304,0.244
			c-0.093-0.059-0.509,0.205-0.925,0.586c-0.416,0.379-0.85,0.689-0.965,0.689c-0.112,0-0.291,0.133-0.395,0.293
			c-0.104,0.162-0.467,0.438-0.81,0.611c-0.343,0.178-0.954,0.623-1.358,0.994c-0.404,0.369-0.84,0.672-0.965,0.672
			s-0.287,0.158-0.359,0.354c-0.074,0.191-0.246,0.352-0.381,0.352s-0.57,0.244-0.969,0.541c-0.398,0.299-0.84,0.611-0.982,0.695
			C99.541,158.653,98.817,158.355,98.076,157.909L98.076,157.909z"/>
		<path id="path4242_1_" inkscape:connector-curvature="0" fill="#666666" d="M70.819,147.907c-0.251-0.41-0.457-0.879-0.457-1.039
			c0-0.162-0.106-0.293-0.235-0.293s-0.207-0.08-0.174-0.181c0.081-0.254-0.814-2.239-1.104-2.446
			c-0.132-0.095-0.167-0.175-0.077-0.177c0.201-0.004-0.49-1.709-0.762-1.881c-0.107-0.065-0.11-0.261-0.006-0.429
			c0.148-0.241,0.444-0.178,1.391,0.302c0.661,0.336,1.203,0.528,1.205,0.431c0.002-0.099,0.081-0.068,0.175,0.067
			c0.229,0.33,5.235,3.043,5.478,2.969c0.104-0.032,0.189,0.048,0.189,0.175c0,0.129,0.158,0.233,0.352,0.233
			c0.192,0,0.351,0.104,0.351,0.233s0.149,0.233,0.331,0.233c0.183,0,0.367,0.082,0.41,0.185c0.041,0.103,0.42,0.424,0.838,0.717
			c0.928,0.652,0.953,0.849,0.117,0.873c-0.354,0.011-1.274,0.097-2.047,0.191C71.088,148.766,71.347,148.771,70.819,147.907
			L70.819,147.907z"/>
		<path id="path4246_1_" inkscape:connector-curvature="0" fill="#666666" d="M53.515,116.687c-0.573-0.633-1.043-1.19-1.044-1.239
			c-0.006-0.229-1.619-2.313-1.793-2.313c-0.106,0-0.193-0.102-0.193-0.227c0-0.32-1.453-2.346-1.682-2.346
			c-0.104,0-0.189-0.152-0.189-0.34s-0.184-0.441-0.408-0.566c-0.226-0.127-0.357-0.264-0.295-0.305
			c0.168-0.109-1.441-2.297-1.688-2.297c-0.115,0-0.147-0.1-0.074-0.219c0.074-0.121-0.077-0.365-0.335-0.549
			c-0.258-0.18-0.403-0.395-0.321-0.477s-0.012-0.211-0.21-0.287c-0.299-0.115-0.265-0.238,0.203-0.744
			c0.31-0.334,0.521-0.648,0.468-0.699c-0.052-0.053,0.206-0.422,0.571-0.822c0.365-0.399,0.61-0.813,0.545-0.922
			c-0.065-0.107-0.005-0.192,0.136-0.192s0.319-0.17,0.398-0.377c0.08-0.207,0.393-0.644,0.693-0.97
			c0.303-0.325,0.551-0.678,0.551-0.78c0-0.104,0.263-0.472,0.584-0.818c0.322-0.348,0.585-0.715,0.585-0.816
			s0.303-0.518,0.673-0.922c0.37-0.405,0.816-1.012,0.994-1.346c0.177-0.334,0.605-0.922,0.953-1.305
			c0.348-0.383,0.607-0.758,0.576-0.832c-0.03-0.074,0.276-0.484,0.681-0.91l0.735-0.775l0.174,1.478
			c0.097,0.813,0.215,1.896,0.263,2.412c0.048,0.514,0.144,1.514,0.21,2.221c0.411,4.354,0.415,9.666,0.01,14.266
			c-0.074,0.836-0.181,2.105-0.238,2.82c-0.058,0.717-0.19,1.537-0.297,1.824C54.566,117.812,54.51,117.785,53.515,116.687
			L53.515,116.687z"/>
		<path id="path4250_1_" inkscape:connector-curvature="0" fill="#666666" d="M56.229,85.1c-0.063-0.104-0.177-0.861-0.25-1.687
			c-0.074-0.824-0.19-1.971-0.257-2.549c-0.067-0.58-0.111-1.457-0.098-1.951c0.015-0.494-0.084-1.033-0.222-1.197
			c-0.288-0.346-0.179-0.448,1.454-1.381c0.611-0.35,1.111-0.576,1.111-0.504c0,0.072,0.447-0.104,0.994-0.389
			c0.545-0.287,1.045-0.529,1.11-0.541c0.435-0.078,1.871-0.705,1.871-0.816c0-0.076,0.21-0.151,0.468-0.172
			c0.586-0.045,0.586-0.049-0.105,1.318c-0.316,0.623-0.51,1.197-0.43,1.276c0.08,0.08,0.018,0.146-0.141,0.146
			c-0.159,0-0.227,0.096-0.154,0.213c0.073,0.117,0.045,0.25-0.063,0.293s-0.708,1.025-1.333,2.182
			c-0.625,1.158-1.484,2.652-1.91,3.322c-0.425,0.668-0.771,1.326-0.771,1.461c0,0.136-0.105,0.246-0.234,0.246
			s-0.234,0.146-0.234,0.324C57.032,85.071,56.405,85.383,56.229,85.1L56.229,85.1z"/>
		<path id="path4252_1_" inkscape:connector-curvature="0" fill="#999999" d="M55.056,72.856c-0.253-2.576-0.83-10.552-0.83-11.459
			V60.52h1.151c1.431,0,12.469,0.916,12.598,1.045c0.129,0.129-2.426,6.086-3.135,7.309c-0.771,1.332-2.084,2.183-6.104,3.949
			c-1.869,0.822-3.43,1.494-3.468,1.494S55.135,73.66,55.056,72.856L55.056,72.856z"/>
	</g>
</g>
<g id="Layer_3">
</g>
<g id="Layer_2">
	<g id="g4144_2_" transform="translate(-2.8147384,383.66327)">
		<g id="XMLID_1_">
			<g>
				<g id="XMLID_2_">
					<g>
						<path fill="#3C3C3D" d="M55.485-330.663c0.33,5.71,0.86,11.67,1.43,17.38c-7.29,3.28-15.41,7.03-22.75,10.84
							c-6.69-10.67-11.23-20.13-9-24.03C27.695-330.883,40.735-331.423,55.485-330.663z"/>
						<path fill="#313133" d="M192.115-284.893c0.021,4.88-10.17,11.53-22.64,18.01c-3.71-5.91-8.07-12.181-12.311-18.08
							c4.141-5.85,8.391-12.05,11.99-17.89C181.755-296.433,192.095-289.803,192.115-284.893z"/>
						<path fill="#313133" d="M169.475-266.883c6.68,10.67,11.21,20.13,8.979,24.029c-2.529,4.41-15.569,4.95-30.31,4.19
							c-0.33-5.71-0.86-11.67-1.43-17.38C154.015-259.323,162.135-263.073,169.475-266.883z"/>
						<path fill="#3C3C3D" d="M178.025-326.993c2.26,3.89-2.229,13.4-8.87,24.14c-7.33-3.73-15.41-7.39-22.67-10.6
							c0.54-5.75,1.04-11.78,1.33-17.54C162.494-331.833,175.475-331.373,178.025-326.993z"/>
						<path fill="#3C3C3D" d="M157.164-284.963c4.24,5.899,8.601,12.17,12.311,18.08c-7.34,3.81-15.46,7.56-22.76,10.84
							c-0.44-4.4-0.91-8.65-1.341-12.521C148.615-273.093,152.834-278.833,157.164-284.963z"/>
						<path fill="#3C3C3D" d="M169.155-302.853c-3.6,5.84-7.85,12.04-11.99,17.89c-4.39-6.11-8.64-11.81-11.89-16.3
							c0.38-3.77,0.81-7.9,1.21-12.19C153.744-310.243,161.825-306.583,169.155-302.853z"/>
						<path fill="#3C3C3D" d="M157.164-284.963c-4.33,6.13-8.55,11.87-11.79,16.399c-0.819-7.409-1.479-13.409-1.489-16.32
							c-0.011-2.92,0.609-8.93,1.39-16.38C148.525-296.773,152.775-291.073,157.164-284.963z"/>
						<path fill="#313133" d="M148.145-238.663c0.84,14.68,0.38,27.66-4,30.21c-3.89,2.26-13.41-2.229-24.14-8.86
							c3.729-7.33,7.39-15.42,10.6-22.68C136.355-239.453,142.385-238.953,148.145-238.663z"/>
						<path fill="#3C3C3D" d="M143.624-361.303c4.41,2.52,4.95,15.57,4.19,30.31c-5.71,0.33-11.67,0.86-17.38,1.43
							c-3.28-7.29-7.03-15.41-10.84-22.75C130.265-359.003,139.725-363.533,143.624-361.303z"/>
						<path fill="#3C3C3D" d="M146.715-256.043c0.569,5.71,1.1,11.67,1.43,17.38c-5.76-0.29-11.79-0.79-17.54-1.33
							c1.77-4.01,3.41-7.76,4.84-11C138.744-252.484,142.595-254.194,146.715-256.043z"/>
						<path fill="#3C3C3D" d="M147.815-330.993c-0.29,5.76-0.79,11.79-1.33,17.54c-4.01-1.77-7.76-3.41-11-4.84
							c-1.49-3.3-3.2-7.15-5.05-11.27C136.145-330.133,142.105-330.663,147.815-330.993z"/>
						<path fill="#3C3C3D" d="M145.374-268.564c0.431,3.87,0.9,8.12,1.341,12.521c-4.12,1.85-7.971,3.56-11.271,5.05
							c1.95-4.39,3.53-7.84,4.59-9.689C141.005-262.373,142.905-265.123,145.374-268.564z"/>
						<path fill="#3C3C3D" d="M146.485-313.453c-0.4,4.29-0.83,8.42-1.21,12.19c-2.43-3.33-4.29-5.99-5.25-7.64
							c-1.05-1.81-2.61-5.14-4.54-9.39C138.725-316.863,142.475-315.223,146.485-313.453z"/>
						<path fill="#3C3C3D" d="M135.445-250.993c-1.43,3.24-3.07,6.99-4.84,11c-4.29-0.4-8.42-0.83-12.19-1.21
							c3.33-2.43,5.99-4.29,7.641-5.25C127.865-247.503,131.195-249.064,135.445-250.993z"/>
						<path fill="#3C3C3D" d="M130.435-329.563c1.85,4.12,3.56,7.97,5.05,11.27c-4.39-1.95-7.84-3.53-9.689-4.59
							c-1.69-0.97-4.431-2.87-7.881-5.34C121.775-328.654,126.025-329.123,130.435-329.563z"/>
						<path fill="#3C3C3D" d="M130.605-239.993c-3.21,7.26-6.87,15.35-10.6,22.68c-5.851-3.609-12.051-7.859-17.9-12
							c6.11-4.39,11.82-8.649,16.31-11.89C122.185-240.823,126.315-240.394,130.605-239.993z"/>
						<path fill="#3C3C3D" d="M119.595-352.313c3.81,7.34,7.56,15.46,10.84,22.75c-4.41,0.44-8.66,0.91-12.521,1.34
							c-4.529-3.24-10.27-7.46-16.39-11.79C107.425-344.253,113.695-348.613,119.595-352.313z"/>
						<path fill="#3C3C3D" d="M118.414-241.203c-4.489,3.24-10.199,7.5-16.31,11.89c-6.13-4.33-11.86-8.55-16.39-11.79
							c7.41-0.819,13.41-1.479,16.32-1.489C104.954-242.604,110.965-241.984,118.414-241.203z"/>
						<path fill="#3C3C3D" d="M101.525-340.013c6.12,4.33,11.86,8.55,16.39,11.79c-7.409,0.82-13.409,1.48-16.32,1.49
							c-2.92,0.01-8.93-0.61-16.38-1.39C89.705-331.363,95.415-335.623,101.525-340.013z"/>
						<path fill="#313133" d="M120.005-217.314c-6.421,12.601-13.051,22.931-17.96,22.95c-4.88,0.021-11.54-10.18-18.01-22.649
							c5.9-3.7,12.17-8.061,18.07-12.301C107.954-225.173,114.155-220.923,120.005-217.314z"/>
						<path fill="#3C3C3D" d="M119.595-352.313c-5.9,3.7-12.17,8.06-18.07,12.3c-5.85-4.14-12.06-8.39-17.9-12
							c6.42-12.6,13.05-22.93,17.96-22.95C106.465-374.983,113.124-364.783,119.595-352.313z"/>
						<path fill="#3C3C3D" d="M85.715-241.104c4.53,3.24,10.26,7.46,16.39,11.79c-5.9,4.24-12.17,8.601-18.07,12.301
							c-3.81-7.341-7.56-15.46-10.84-22.75C77.595-240.203,81.845-240.673,85.715-241.104z"/>
						<path fill="#3C3C3D" d="M101.525-340.013c-6.11,4.39-11.82,8.65-16.31,11.89c-3.77-0.38-7.9-0.81-12.19-1.21
							c3.21-7.26,6.87-15.35,10.6-22.68C89.465-348.404,95.675-344.154,101.525-340.013z"/>
						<path fill="#3C3C3D" d="M85.215-328.123c-3.33,2.43-5.99,4.29-7.64,5.25c-1.81,1.05-5.14,2.61-9.39,4.54
							c1.43-3.24,3.07-6.99,4.84-11C77.315-328.933,81.445-328.503,85.215-328.123z"/>
						<path fill="#3C3C3D" d="M77.835-246.444c1.69,0.971,4.43,2.87,7.88,5.34c-3.87,0.431-8.12,0.9-12.52,1.341
							c-1.85-4.12-3.56-7.971-5.05-11.271C72.535-249.083,75.985-247.503,77.835-246.444z"/>
						<path fill="#313133" d="M73.195-239.763c3.28,7.29,7.03,15.409,10.84,22.75c-10.67,6.689-20.13,11.22-24.03,8.989
							c-4.41-2.52-4.96-15.569-4.19-30.31C61.525-238.663,67.485-239.194,73.195-239.763z"/>
						<path fill="#3C3C3D" d="M83.625-352.013c-3.73,7.33-7.39,15.42-10.6,22.68c-5.75-0.54-11.78-1.04-17.54-1.33
							c-0.84-14.68-0.38-27.66,4-30.21C63.375-363.133,72.885-358.643,83.625-352.013z"/>
						<path fill="#3C3C3D" d="M73.025-329.333c-1.77,4.01-3.41,7.76-4.84,11c-3.3,1.49-7.15,3.2-11.27,5.05
							c-0.57-5.71-1.1-11.67-1.43-17.38C61.245-330.373,67.275-329.873,73.025-329.333z"/>
						<path fill="#3C3C3D" d="M68.145-251.033c1.49,3.3,3.2,7.15,5.05,11.271c-5.71,0.569-11.67,1.1-17.38,1.43
							c0.29-5.771,0.78-11.79,1.32-17.54C61.145-254.104,64.905-252.463,68.145-251.033z"/>
						<path fill="#3C3C3D" d="M68.185-318.333c-1.95,4.39-3.53,7.84-4.59,9.69c-0.97,1.69-2.87,4.44-5.34,7.88
							c-0.43-3.87-0.9-8.12-1.34-12.52C61.035-315.133,64.885-316.843,68.185-318.333z"/>
						<path fill="#3C3C3D" d="M63.605-260.423c1.05,1.81,2.61,5.14,4.54,9.39c-3.24-1.43-7-3.07-11.01-4.84
							c0.41-4.29,0.83-8.43,1.22-12.2C60.775-264.734,62.645-262.073,63.605-260.423z"/>
						<path fill="#3C3C3D" d="M59.745-284.443c0.01,2.919-0.62,8.93-1.39,16.37c-3.25-4.49-7.5-10.189-11.89-16.3
							c4.34-6.13,8.55-11.86,11.79-16.39C59.075-293.353,59.735-287.353,59.745-284.443z"/>
						<path fill="#3C3C3D" d="M58.355-268.073c-0.39,3.771-0.81,7.91-1.22,12.2c-7.26-3.21-15.34-6.87-22.66-10.6
							c3.6-5.841,7.85-12.051,11.99-17.9C50.855-278.263,55.105-272.564,58.355-268.073z"/>
						<path fill="#3C3C3D" d="M56.915-313.283c0.44,4.4,0.91,8.65,1.34,12.52c-3.24,4.53-7.45,10.26-11.79,16.39
							c-4.23-5.9-8.59-12.17-12.3-18.07C41.505-306.253,49.625-310.003,56.915-313.283z"/>
						<path fill="#313133" d="M57.135-255.873c-0.54,5.75-1.03,11.77-1.32,17.54c-14.68,0.84-27.66,0.38-30.21-4
							c-2.26-3.89,2.23-13.4,8.87-24.14C41.795-262.743,49.875-259.083,57.135-255.873z"/>
						<path fill="#3C3C3D" d="M46.465-284.373c-4.14,5.85-8.39,12.06-11.99,17.9c-12.6-6.421-22.94-13.051-22.96-17.96
							c-0.02-4.88,10.18-11.54,22.65-18.01C37.875-296.543,42.235-290.273,46.465-284.373z"/>
					</g>
					<g>
						<path fill="none" stroke="#FFFFFF" stroke-width="2" d="M169.475-266.883c6.68,10.67,11.21,20.13,8.979,24.029
							c-2.529,4.41-15.569,4.95-30.31,4.19c-5.76-0.29-11.79-0.79-17.54-1.33c-4.29-0.4-8.42-0.83-12.19-1.21
							c-7.449-0.78-13.46-1.4-16.379-1.39c-2.91,0.01-8.91,0.67-16.32,1.489c-3.87,0.431-8.12,0.9-12.52,1.341
							c-5.71,0.569-11.67,1.1-17.38,1.43c-14.68,0.84-27.66,0.38-30.21-4c-2.26-3.89,2.23-13.4,8.87-24.14
							c3.6-5.841,7.85-12.051,11.99-17.9c4.34-6.13,8.55-11.86,11.79-16.39c2.47-3.44,4.37-6.19,5.34-7.88
							c1.06-1.85,2.64-5.3,4.59-9.69c1.43-3.24,3.07-6.99,4.84-11c3.21-7.26,6.87-15.35,10.6-22.68
							c6.42-12.6,13.05-22.93,17.96-22.95c4.88-0.02,11.54,10.18,18.01,22.65c3.81,7.34,7.56,15.46,10.84,22.75
							c1.85,4.12,3.56,7.97,5.05,11.27c1.93,4.25,3.49,7.58,4.54,9.39c0.96,1.65,2.82,4.31,5.25,7.64
							c3.25,4.49,7.5,10.19,11.89,16.3C161.405-279.064,165.765-272.793,169.475-266.883z"/>
						<path fill="none" stroke="#FFFFFF" stroke-width="2" d="M84.035-217.013c-10.67,6.689-20.13,11.22-24.03,8.989
							c-4.41-2.52-4.96-15.569-4.19-30.31c0.29-5.771,0.78-11.79,1.32-17.54c0.41-4.29,0.83-8.43,1.22-12.2
							c0.77-7.439,1.4-13.45,1.39-16.37c-0.01-2.91-0.67-8.91-1.49-16.32c-0.43-3.87-0.9-8.12-1.34-12.52
							c-0.57-5.71-1.1-11.67-1.43-17.38c-0.84-14.68-0.38-27.66,4-30.21c3.89-2.26,13.4,2.23,24.14,8.86
							c5.84,3.61,12.05,7.86,17.9,12c6.12,4.33,11.86,8.55,16.39,11.79c3.45,2.47,6.19,4.37,7.881,5.34
							c1.85,1.06,5.3,2.64,9.689,4.59c3.24,1.43,6.99,3.07,11,4.84c7.26,3.21,15.34,6.87,22.67,10.6
							c12.601,6.42,22.94,13.05,22.96,17.96c0.021,4.88-10.17,11.53-22.64,18.01c-7.34,3.81-15.46,7.56-22.76,10.84
							c-4.12,1.85-7.971,3.56-11.271,5.05c-4.25,1.93-7.58,3.49-9.39,4.54c-1.65,0.96-4.311,2.82-7.641,5.25
							c-4.489,3.24-10.199,7.5-16.31,11.89C96.205-225.073,89.935-220.713,84.035-217.013z"/>
						<path fill="none" stroke="#FFFFFF" stroke-width="2" d="M34.165-302.443c-6.69-10.67-11.23-20.13-9-24.03
							c2.53-4.41,15.57-4.95,30.32-4.19c5.76,0.29,11.79,0.79,17.54,1.33c4.29,0.4,8.42,0.83,12.19,1.21
							c7.45,0.78,13.46,1.4,16.38,1.39c2.911-0.01,8.911-0.67,16.32-1.49c3.86-0.43,8.11-0.9,12.521-1.34
							c5.71-0.57,11.67-1.1,17.38-1.43c14.68-0.84,27.66-0.38,30.21,4c2.26,3.89-2.229,13.4-8.87,24.14
							c-3.6,5.84-7.85,12.04-11.99,17.89c-4.33,6.13-8.55,11.87-11.79,16.399c-2.47,3.44-4.369,6.19-5.34,7.881
							c-1.06,1.85-2.64,5.3-4.59,9.689c-1.43,3.24-3.07,6.99-4.84,11c-3.21,7.26-6.87,15.35-10.6,22.68
							c-6.421,12.601-13.051,22.931-17.96,22.95c-4.88,0.021-11.54-10.18-18.01-22.649c-3.81-7.341-7.56-15.46-10.84-22.75
							c-1.85-4.12-3.56-7.971-5.05-11.271c-1.93-4.25-3.49-7.58-4.54-9.39c-0.96-1.65-2.83-4.311-5.25-7.65
							c-3.25-4.49-7.5-10.189-11.89-16.3C42.235-290.273,37.875-296.543,34.165-302.443z"/>
						<path fill="none" stroke="#FFFFFF" stroke-width="2" d="M119.595-352.313c10.67-6.69,20.13-11.22,24.029-8.99
							c4.41,2.52,4.95,15.57,4.19,30.31c-0.29,5.76-0.79,11.79-1.33,17.54c-0.4,4.29-0.83,8.42-1.21,12.19
							c-0.78,7.45-1.4,13.46-1.39,16.38c0.01,2.911,0.67,8.911,1.489,16.32c0.431,3.87,0.9,8.12,1.341,12.521
							c0.569,5.71,1.1,11.67,1.43,17.38c0.84,14.68,0.38,27.66-4,30.21c-3.89,2.26-13.41-2.229-24.14-8.86
							c-5.851-3.609-12.051-7.859-17.9-12c-6.13-4.33-11.86-8.55-16.39-11.79c-3.45-2.47-6.19-4.369-7.88-5.34
							c-1.85-1.06-5.3-2.64-9.69-4.59c-3.24-1.43-7-3.07-11.01-4.84c-7.26-3.21-15.34-6.87-22.66-10.6
							c-12.6-6.421-22.94-13.051-22.96-17.96c-0.02-4.88,10.18-11.54,22.65-18.01c7.34-3.81,15.46-7.56,22.75-10.84
							c4.12-1.85,7.97-3.56,11.27-5.05c4.25-1.93,7.58-3.49,9.39-4.54c1.65-0.96,4.31-2.82,7.64-5.25
							c4.49-3.24,10.2-7.5,16.31-11.89C107.425-344.253,113.695-348.613,119.595-352.313z"/>
					</g>
				</g>
			</g>
		</g>
	</g>
</g>
</svg>
