<?xml version="1.0" encoding="utf-8"?>
<!-- Generator: Adobe Illustrator 16.0.3, SVG Export Plug-In . SVG Version: 6.00 Build 0)  -->
<!DOCTYPE svg PUBLIC "-//W3C//DTD SVG 1.1//EN" "http://www.w3.org/Graphics/SVG/1.1/DTD/svg11.dtd">
<svg version="1.1"
	 id="svg4316" xmlns:dc="http://purl.org/dc/elements/1.1/" xmlns:cc="http://creativecommons.org/ns#" xmlns:rdf="http://www.w3.org/1999/02/22-rdf-syntax-ns#" xmlns:svg="http://www.w3.org/2000/svg" xmlns:sodipodi="http://sodipodi.sourceforge.net/DTD/sodipodi-0.dtd" xmlns:inkscape="http://www.inkscape.org/namespaces/inkscape" sodipodi:docname="icon.svg" inkscape:version="0.91 r13725"
	 xmlns="http://www.w3.org/2000/svg" xmlns:xlink="http://www.w3.org/1999/xlink" x="0px" y="0px" width="198px" height="198px"
	 viewBox="238.267 573.001 198 198" enable-background="new 238.267 573.001 198 198" xml:space="preserve">
<sodipodi:namedview  units="px" showgrid="false" inkscape:cy="331.14535" inkscape:cx="375" inkscape:zoom="1.0824912" borderopacity="1.0" bordercolor="#666666" pagecolor="#ffffff" id="base" inkscape:window-maximized="1" inkscape:window-y="-8" inkscape:window-x="-8" inkscape:window-height="962" inkscape:current-layer="layer1" inkscape:document-units="px" inkscape:pageopacity="0.0" inkscape:window-width="1280" inkscape:object-paths="true" inkscape:snap-grids="false" inkscape:pageshadow="2">
	</sodipodi:namedview>
<g id="layer1" transform="translate(0,-5.9998782)" inkscape:label="Layer 1" inkscape:groupmode="layer">
	<g id="g4144" transform="translate(-2.8147384,383.66327)">
		
			<path id="path3336" sodipodi:type="star" sodipodi:sides="3" sodipodi:cx="340" sodipodi:cy="292.36218" sodipodi:r1="88.24826" sodipodi:r2="44.12413" sodipodi:arg1="0.5070985" sodipodi:arg2="1.5542961" inkscape:flatsided="false" inkscape:rounded="0.15" inkscape:randomized="0" inkscape:transform-center-x="-0.21068722" inkscape:transform-center-y="-21.809337" fill="none" stroke="#000000" stroke-width="2" d="
			M416.726,336.152c-5.699,9.947-64.961,0.221-76.425,0.26s-70.659,10.168-76.425,0.26s32.289-56.367,37.987-66.314
			c5.698-9.947,26.523-66.277,37.987-66.316c11.463-0.039,32.672,56.146,38.438,66.055
			C384.055,280.003,422.424,326.204,416.726,336.152z"/>
		
			<path id="path4138" sodipodi:type="star" sodipodi:sides="3" sodipodi:cx="340" sodipodi:cy="292.36218" sodipodi:r1="88.24826" sodipodi:r2="44.12413" sodipodi:arg1="0.5070985" sodipodi:arg2="1.5542961" inkscape:flatsided="false" inkscape:rounded="0.15" inkscape:randomized="0" inkscape:transform-center-x="-21.809334" inkscape:transform-center-y="0.21068768" fill="none" stroke="#000000" stroke-width="2" d="
			M298.268,370.982c-9.948-5.697-0.221-64.961-0.26-76.424c-0.039-11.465-10.168-70.66-0.26-76.426
			c9.909-5.766,56.369,32.289,66.316,37.988c9.947,5.697,66.278,26.523,66.317,37.986c0.037,11.465-56.148,32.672-66.057,38.438
			C354.415,338.31,308.216,376.681,298.268,370.982L298.268,370.982z"/>
		
			<path id="path4140" sodipodi:type="star" sodipodi:sides="3" sodipodi:cx="340" sodipodi:cy="292.36218" sodipodi:r1="88.24826" sodipodi:r2="44.12413" sodipodi:arg1="0.5070985" sodipodi:arg2="1.5542961" inkscape:flatsided="false" inkscape:rounded="0.15" inkscape:randomized="0" inkscape:transform-center-x="0.21068938" inkscape:transform-center-y="21.809337" fill="none" stroke="#000000" stroke-width="2" d="
			M263.437,252.525c5.698-9.947,64.961-0.221,76.425-0.26c11.464-0.039,70.659-10.168,76.425-0.26s-32.289,56.367-37.987,66.314
			c-5.698,9.947-26.523,66.277-37.987,66.316s-32.672-56.146-38.438-66.055C296.109,308.671,257.739,262.472,263.437,252.525
			L263.437,252.525z"/>
		
			<path id="path4142" sodipodi:type="star" sodipodi:sides="3" sodipodi:cx="340" sodipodi:cy="292.36218" sodipodi:r1="88.24826" sodipodi:r2="44.12413" sodipodi:arg1="0.5070985" sodipodi:arg2="1.5542961" inkscape:flatsided="false" inkscape:rounded="0.15" inkscape:randomized="0" inkscape:transform-center-x="21.809337" inkscape:transform-center-y="-0.21068638" fill="none" stroke="#000000" stroke-width="2" d="
			M381.894,217.695c9.948,5.697,0.222,64.961,0.261,76.424c0.039,11.465,10.169,70.66,0.261,76.426
			c-9.909,5.766-56.369-32.289-66.316-37.988c-9.947-5.697-66.277-26.523-66.316-37.986c-0.039-11.465,56.147-32.672,66.056-38.438
			C325.748,250.366,371.948,211.995,381.894,217.695L381.894,217.695z"/>
	</g>
	<path id="path4150" inkscape:connector-curvature="0" fill="#808080" d="M298.884,631.366l-6.886-0.521l0.249-11.051
		c0.258-11.449,0.69-14.035,2.707-16.199c1.849-1.984,5.785-1.15,14.086,2.984c3.881,1.934,7.302,3.814,7.603,4.182
		c0.39,0.475-0.353,2.572-2.602,7.35c-1.731,3.678-3.878,8.32-4.771,10.316c-1.166,2.607-1.887,3.605-2.562,3.545
		C306.192,631.924,302.671,631.651,298.884,631.366L298.884,631.366z"/>
	<path id="path4152" inkscape:connector-curvature="0" fill="#808080" d="M329.538,616.078c-3.727-2.561-7.224-4.934-7.771-5.271
		c-0.938-0.584-0.878-0.834,1.104-4.557c5.542-10.402,11.099-17.066,14.233-17.066c2.115,0,4.974,2.588,8.447,7.643
		c3.092,4.5,7.861,12.682,7.565,12.979c-0.898,0.896-15.375,10.641-15.999,10.766C336.677,620.661,333.266,618.639,329.538,616.078z
		"/>
	<path id="path4154" inkscape:connector-curvature="0" fill="#808080" d="M365.316,628.78c-0.705-1.588-2.885-6.256-4.845-10.373
		l-3.563-7.486l1.225-0.947c2.091-1.621,12.882-6.826,15.547-7.502c6.553-1.66,8.439,2.688,8.448,19.467l0.004,8.371l-2.546,0.316
		c-1.4,0.174-4.895,0.479-7.767,0.678l-5.222,0.363L365.316,628.78L365.316,628.78z"/>
	<path id="path4156" inkscape:connector-curvature="0" fill="#808080" d="M394.447,653.551c-4.871-2.309-9.396-4.371-10.059-4.58
		c-1.127-0.357-1.184-0.596-0.884-3.691c0.177-1.82,0.483-5.359,0.681-7.865l0.359-4.555l7.984-0.15
		c8.992-0.166,16.287,0.799,18.51,2.451c1.854,1.379,2.043,4.201,0.559,8.375c-1.428,4.012-7.002,14.248-7.75,14.227
		C403.546,657.754,399.316,655.86,394.447,653.551L394.447,653.551z"/>
	<path id="path4158" inkscape:connector-curvature="0" fill="#808080" d="M400.347,686.633c-2.797-4.119-5.313-7.816-5.593-8.219
		c-0.368-0.529,0.956-2.912,4.821-8.674c2.932-4.369,5.379-8.031,5.438-8.139c0.166-0.301,6.889,3.506,11.824,6.695
		c6.057,3.914,9.238,7.154,9.238,9.404c0,1.422-0.604,2.322-3.35,4.996s-10.822,8.086-16.217,10.865
		C405.535,694.067,404.943,693.403,400.347,686.633L400.347,686.633z"/>
	<path id="path4160" inkscape:connector-curvature="0" fill="#808080" d="M386.083,722.827c-1.273-0.295-1.504-1.426-2.109-10.389
		l-0.344-5.09l10.486-4.902l10.486-4.902l1.352,2.305c2.482,4.238,6.09,11.764,6.674,13.93c1.324,4.898,0.227,6.643-5.047,8.02
		C404.417,722.623,388.502,723.385,386.083,722.827L386.083,722.827z"/>
	<path id="path4162" inkscape:connector-curvature="0" fill="#808080" d="M373.559,752.93c-3.489-1.035-6.077-2.213-11.556-5.262
		l-4.858-2.701l4.858-10.43l4.857-10.43l5.091,0.338c2.8,0.186,6.388,0.486,7.972,0.666l2.881,0.328l-0.277,10.246
		c-0.275,10.168-0.927,14.223-2.654,16.543C378.924,753.502,376.425,753.78,373.559,752.93L373.559,752.93z"/>
	<path id="path4164" inkscape:connector-curvature="0" fill="#808080" d="M335.145,766.055c-1.821-1.111-5.122-5.035-7.912-9.406
		c-2.907-4.555-5.755-9.885-5.566-10.42c0.099-0.281,3.711-2.924,8.029-5.871l7.85-5.363l8.09,5.43l8.09,5.43l-2.482,4.594
		c-4.469,8.271-9.077,14.346-12.049,15.883C337.302,767.309,337.189,767.301,335.145,766.055L335.145,766.055z"/>
	<path id="path4166" inkscape:connector-curvature="0" fill="#808080" d="M294.989,752.34c-0.49-0.748-1.215-2.736-1.611-4.42
		c-0.879-3.738-1.565-16.668-1.062-20.021l0.367-2.443l5.204-0.355c2.862-0.195,6.324-0.5,7.693-0.676
		c2.281-0.293,2.523-0.213,2.887,0.947c0.218,0.697,2.398,5.434,4.846,10.525l4.449,9.258l-2.021,1.275
		c-2.98,1.883-10.273,5.535-12.904,6.463c-1.261,0.445-3.342,0.809-4.625,0.809c-1.905,0-2.495-0.248-3.223-1.359V752.34z"/>
	<path id="path4168" inkscape:connector-curvature="0" fill="#808080" d="M267.933,722.42c-3.646-0.785-5.712-2.059-6.146-3.789
		c-0.511-2.037,1.182-6.998,4.675-13.695c1.768-3.389,3.39-6.344,3.605-6.566s4.769,1.646,10.119,4.152
		c5.35,2.508,10.012,4.557,10.36,4.557c0.625,0,0.395,8.043-0.395,13.801l-0.313,2.277l-9.451-0.045
		C275.19,723.086,269.585,722.776,267.933,722.42z"/>
	<path id="path4170" inkscape:connector-curvature="0" fill="#808080" d="M265.31,692.286
		c-11.126-6.133-17.148-11.176-17.148-14.363c0-1.381,4.667-6.066,8.842-8.881c4.115-2.773,12.015-7.219,12.272-6.906
		c0.089,0.109,1.687,2.488,3.55,5.289c1.863,2.799,4.316,6.354,5.451,7.898l2.063,2.807l-5.38,8.045
		c-2.959,4.424-5.557,8.041-5.773,8.037C268.97,694.209,267.226,693.342,265.31,692.286L265.31,692.286z"/>
	<path id="path4172" inkscape:connector-curvature="0" fill="#B3B3B3" d="M267.343,653.891c-4.108-7.197-5.387-10.479-5.455-13.994
		c-0.054-2.766,0.101-3.268,1.279-4.156c2.312-1.742,8.113-2.594,17.745-2.604l8.903-0.01l0.371,5.762
		c0.204,3.168,0.5,6.605,0.657,7.639l0.286,1.879l-10.364,4.961c-5.7,2.729-10.484,4.957-10.631,4.951
		C269.985,658.315,268.73,656.323,267.343,653.891L267.343,653.891z"/>
	<path id="path4174" inkscape:connector-curvature="0" fill="#B3B3B3" d="M278.025,670.534c-5.703-8.23-6.487-9.553-5.968-10.061
		c0.644-0.629,19.015-9.273,19.21-9.039c0.083,0.1,0.371,2.402,0.64,5.115l0.488,4.936l-4.927,6.842
		c-2.71,3.762-5.166,6.92-5.458,7.018C281.718,675.44,279.925,673.276,278.025,670.534L278.025,670.534z"/>
	<path id="path4176" inkscape:connector-curvature="0" fill="#B3B3B3" d="M284.597,701.78c-3.682-1.693-8.082-3.791-9.779-4.66
		l-3.085-1.582l4.942-7.357c2.718-4.049,5.083-7.359,5.255-7.359s2.629,3.211,5.46,7.137l5.147,7.137l-0.525,4.783
		c-0.289,2.631-0.57,4.828-0.624,4.881C291.334,704.813,288.278,703.471,284.597,701.78z"/>
	<path id="path4178" inkscape:connector-curvature="0" fill="#B3B3B3" d="M292.915,717.61c0.212-3.109,0.538-6.354,0.725-7.211
		l0.34-1.555l4.372,1.891l4.372,1.891l1.925,4.432c1.059,2.438,1.925,4.539,1.925,4.67c0,0.133-2.713,0.404-6.029,0.605
		c-3.316,0.199-6.476,0.492-7.021,0.648C292.584,723.248,292.551,722.953,292.915,717.61L292.915,717.61z"/>
	<path id="path4180" inkscape:connector-curvature="0" fill="#B3B3B3" d="M318.787,741.243c-0.663-1.254-2.806-5.654-4.761-9.781
		l-3.556-7.502l5.152-0.535l5.152-0.537l7.101,5.055c3.905,2.779,7.1,5.219,7.1,5.424c0,0.377-14.135,10.154-14.682,10.154
		C320.128,743.52,319.45,742.495,318.787,741.243z"/>
	<path id="path4182" inkscape:connector-curvature="0" fill="#B3B3B3" d="M347.142,738.387c-3.744-2.527-6.808-4.807-6.808-5.066
		c0-0.258,3.175-2.768,7.056-5.574c4.909-3.551,7.395-5.033,8.172-4.873c0.614,0.125,2.755,0.381,4.756,0.568
		c3.423,0.32,3.618,0.408,3.277,1.5c-0.903,2.898-8.485,18.043-9.032,18.043C354.226,742.985,350.887,740.916,347.142,738.387
		L347.142,738.387z"/>
	<path id="path4184" inkscape:connector-curvature="0" fill="#B3B3B3" d="M372.863,722.071c-2.299-0.219-4.304-0.521-4.454-0.672
		s0.525-2.146,1.5-4.438l1.774-4.166l4.486-2.078c2.467-1.145,4.593-1.973,4.725-1.84c0.275,0.273,1.203,9.371,1.225,12.002
		c0.015,1.732,0.002,1.74-2.531,1.666c-1.4-0.041-4.426-0.254-6.725-0.473V722.071z"/>
	<path id="path4186" inkscape:connector-curvature="0" fill="#B3B3B3" d="M383.015,702.411c-0.16-1.117-0.433-3.355-0.605-4.977
		l-0.314-2.947l5.275-7.314l5.275-7.314l4.842,7.047c2.662,3.875,5.02,7.355,5.236,7.734c0.283,0.494-2.074,1.873-8.355,4.889
		C382.863,705.049,383.375,704.92,383.015,702.411L383.015,702.411z"/>
	<path id="path4188" inkscape:connector-curvature="0" fill="#B3B3B3" d="M387.3,668.239l-5.225-7.227l0.371-4.58
		c0.205-2.518,0.578-4.705,0.83-4.861c0.578-0.357,19.221,8.334,19.221,8.961c0,0.408-8.65,13.504-9.6,14.529
		C392.694,675.284,390.175,672.213,387.3,668.239z"/>
	<path id="path4190" inkscape:connector-curvature="0" fill="#B3B3B3" d="M375.812,645.145l-3.909-1.826l-2.035-4.426l-2.035-4.426
		l1.55-0.34c0.852-0.188,4.081-0.512,7.172-0.723l5.624-0.385l-0.266,1.26c-0.146,0.691-0.421,3.852-0.61,7.02
		c-0.23,3.838-0.553,5.746-0.965,5.717C380,646.993,377.962,646.151,375.812,645.145L375.812,645.145z"/>
	<path id="path4192" inkscape:connector-curvature="0" fill="#B3B3B3" d="M346.735,628.159c-3.701-2.721-6.835-5.166-6.966-5.438
		c-0.131-0.27,3.136-2.781,7.259-5.582l7.498-5.09l4.666,9.602c2.566,5.279,4.678,9.754,4.694,9.941
		c0.029,0.354-2.405,0.756-7.474,1.234l-2.947,0.277L346.735,628.159z"/>
	<path id="path4194" inkscape:connector-curvature="0" fill="#B3B3B3" d="M313.983,632.643c-1.672-0.18-3.149-0.445-3.284-0.59
		c-0.278-0.303,7.947-18.18,8.72-18.953c0.318-0.318,3.106,1.238,7.494,4.182c3.843,2.578,7.112,4.891,7.265,5.137
		c0.152,0.248-2.891,2.758-6.763,5.58C319.858,633.504,320.366,633.328,313.983,632.643z"/>
	<path id="path4196" inkscape:connector-curvature="0" fill="#666666" d="M292.791,640.471c-0.294-3.893-0.508-7.105-0.477-7.139
		c0.108-0.119,13.99,0.975,14.139,1.113c0.081,0.076-0.748,2.123-1.841,4.551c-2.156,4.785-1.646,4.371-9.619,7.828l-1.667,0.723
		L292.791,640.471L292.791,640.471z"/>
	<path id="path4198" inkscape:connector-curvature="0" fill="#666666" d="M267.671,654c-1.151-2.047-2.289-3.723-2.527-3.725
		c-0.239,0-0.297-0.223-0.129-0.492c0.167-0.271-0.048-0.846-0.479-1.277c-0.431-0.43-0.634-0.932-0.452-1.115
		c0.183-0.182,0.102-0.33-0.179-0.33s-0.55-0.521-0.599-1.158c-0.048-0.637-0.28-1.301-0.516-1.475s-0.51-1.887-0.61-3.807
		c-0.149-2.877-0.005-3.652,0.819-4.398c1.415-1.279,6.763-2.561,10.696-2.561c1.836,0,3.488-0.24,3.67-0.535
		c0.38-0.615,3.974-0.693,8.773-0.191c3.809,0.398,3.766,0.328,4.089,6.652c0.112,2.193,0.278,5.057,0.37,6.361l0.166,2.373
		l-6.699,3.225c-3.684,1.773-6.779,3.42-6.878,3.66c-0.099,0.238-0.4,0.297-0.67,0.131s-0.49-0.033-0.49,0.297
		c0,0.328-0.222,0.461-0.493,0.293c-0.271-0.166-0.845,0.049-1.276,0.48c-0.431,0.43-0.933,0.633-1.115,0.451
		c-0.183-0.184-0.332-0.111-0.333,0.158c-0.001,0.271-0.687,0.539-1.524,0.598C269.925,657.711,269.544,657.328,267.671,654
		L267.671,654z"/>
	<path id="path4200" inkscape:connector-curvature="0" fill="#666666" d="M267.691,653.625c-3.367-5.615-4.703-8.699-5.129-11.84
		c-0.75-5.527,0.631-6.578,10.451-7.959c6.667-0.938,6.794-0.945,11.427-0.803c2.635,0.082,3.577,0.354,4.555,1.309
		c1.15,1.125,1.233,1.637,1.233,7.543v6.338l-6.966,3.506c-3.832,1.928-7.878,3.959-8.993,4.514
		C270.829,657.948,270.111,657.662,267.691,653.625L267.691,653.625z"/>
	<path id="path4202" inkscape:connector-curvature="0" fill="#666666" d="M267.316,653.088c-3.128-5.209-4.423-8.277-4.858-11.516
		c-0.661-4.916,0.916-6.318,8.296-7.375c2.164-0.311,5.38-0.805,7.149-1.1c4.181-0.693,10.103,0.014,11.385,1.359
		c0.741,0.779,0.902,1.709,0.76,4.385c-0.099,1.867,0.025,3.395,0.274,3.395c0.25,0,0.331,1.355,0.18,3.012l-0.274,3.012
		l-8.842,4.471c-4.863,2.459-9.458,4.48-10.209,4.49C270.036,657.239,269.398,656.555,267.316,653.088L267.316,653.088z"/>
	<path id="path4204" inkscape:connector-curvature="0" fill="#CCCCCC" d="M294.017,654.45c-0.235-2.381-0.385-4.365-0.333-4.41
		c0.225-0.197,7.545-3.416,7.613-3.35c0.207,0.207-3.593,7.443-5.042,9.604c-0.917,1.367-1.699,2.484-1.738,2.484
		C294.477,658.778,294.252,656.83,294.017,654.45z"/>
	<path id="path4206" inkscape:connector-curvature="0" fill="#CCCCCC" d="M288.09,684.87c-2.594-3.545-4.716-6.51-4.716-6.586
		c0-0.211,9.402-13.223,9.491-13.133c0.259,0.26,1.103,9.994,1.119,12.918c0.019,3.383-0.681,12.303-1.015,12.938
		C292.863,691.209,291.153,689.057,288.09,684.87L288.09,684.87z"/>
	<path id="path4208" inkscape:connector-curvature="0" fill="#CCCCCC" d="M297.521,707.75c-1.801-0.82-3.372-1.527-3.491-1.57
		c-0.21-0.074,0.217-6.084,0.546-7.697c0.148-0.727,0.182-0.693,1.936,1.936c2.271,3.402,5.058,8.914,4.474,8.848
		C300.881,709.254,299.322,708.573,297.521,707.75L297.521,707.75z"/>
	<path id="path4210" inkscape:connector-curvature="0" fill="#CCCCCC" d="M308.88,720.688c-0.238-0.547-1.016-2.283-1.728-3.859
		c-0.711-1.574-1.208-2.863-1.104-2.863c0.545,0,8.349,4.172,10.033,5.363l1.958,1.387l-0.788,0.129
		c-1.005,0.166-7.076,0.838-7.566,0.838C309.473,721.682,309.128,721.256,308.88,720.688z"/>
	<path id="path4212" inkscape:connector-curvature="0" fill="#CCCCCC" d="M332.481,728.325c-8.186-5.887-8.027-5.764-7.682-5.947
		c0.699-0.369,8.954-1.039,12.827-1.043c5.152-0.002,13.273,0.744,12.817,1.178c-0.318,0.305-11.615,8.574-12.457,9.119
		C337.549,731.914,337.08,731.633,332.481,728.325z"/>
	<path id="path4214" inkscape:connector-curvature="0" fill="#CCCCCC" d="M360.469,721.03c-2.745-0.281-3.4-0.414-3.157-0.641
		c1.008-0.936,5.144-3.451,7.931-4.824c1.787-0.881,3.291-1.6,3.342-1.6s-0.654,1.684-1.568,3.74
		c-1.636,3.682-1.674,3.742-2.374,3.709C364.253,721.397,362.374,721.223,360.469,721.03L360.469,721.03z"/>
	<path id="path4216" inkscape:connector-curvature="0" fill="#CCCCCC" d="M373.968,707.592c1.52-3.334,2.558-5.24,4.199-7.713
		c0.916-1.383,1.727-2.514,1.8-2.516c0.155-0.002,1.025,8.389,0.884,8.529c-0.16,0.16-7.281,3.395-7.475,3.395
		C373.277,709.287,373.544,708.524,373.968,707.592z"/>
	<path id="path4218" inkscape:connector-curvature="0" fill="#CCCCCC" d="M381.493,689.934c-0.577-4.627-0.909-8.896-0.929-11.98
		c-0.023-3.465,0.686-12.795,1-13.146c0.116-0.131,8.623,11.217,9.455,12.611c0.174,0.293-2.635,4.396-8.406,12.281l-0.982,1.342
		L381.493,689.934L381.493,689.934z"/>
	<path id="path4220" inkscape:connector-curvature="0" fill="#CCCCCC" d="M378.093,655.729c-1.42-2.092-5.021-8.844-4.827-9.049
		c0.082-0.086,7.012,2.992,7.247,3.219c0.197,0.191-0.172,5.424-0.531,7.525l-0.148,0.869L378.093,655.729L378.093,655.729z"/>
	<path id="path4222" inkscape:connector-curvature="0" fill="#CCCCCC" d="M364.868,640.332c-2.815-1.367-8.48-4.838-8.258-5.061
		c0.041-0.041,1.653-0.242,3.582-0.445s3.833-0.424,4.233-0.49l0.726-0.121l1.671,3.707c0.918,2.039,1.67,3.777,1.67,3.863
		C368.493,642.065,368.178,641.94,364.868,640.332L364.868,640.332z"/>
	<path id="path4224" inkscape:connector-curvature="0" fill="#CCCCCC" d="M335.404,634.768c-2.514-0.146-10.097-0.83-10.833-0.977
		c-0.764-0.152-0.661-0.242,5.562-4.783c3.487-2.545,6.49-4.684,6.673-4.754c0.294-0.113,13.599,9.203,13.403,9.385
		c-0.098,0.092-9.939,1.002-11.999,1.111c-0.9,0.047-2.163,0.057-2.806,0.02V634.768z"/>
	<path id="path4226" inkscape:connector-curvature="0" fill="#666666" d="M306.057,641.762c0-0.092,0.704-1.773,1.564-3.738
		l1.564-3.57l0.716,0.113c0.394,0.063,1.926,0.225,3.405,0.359s3.047,0.301,3.483,0.373l0.794,0.129l-2.431,1.633
		C312.121,639.1,306.057,642.233,306.057,641.762L306.057,641.762z"/>
	<path id="path4228" inkscape:connector-curvature="0" fill="#666666" d="M335.178,634.739c-0.038-0.039-0.792-0.117-1.675-0.178
		c-1.792-0.119-3.769-0.281-5.699-0.467c-0.707-0.068-1.74-0.162-2.295-0.207c-0.555-0.047-1.062-0.137-1.126-0.199
		c-0.064-0.064,0.38-0.523,0.988-1.018c0.607-0.496,1.298-1.086,1.535-1.311c0.237-0.225,0.48-0.41,0.541-0.41
		c0.236,0,2.229-1.504,2.229-1.682c0-0.104,0.161-0.189,0.358-0.189s0.419-0.156,0.493-0.35c0.074-0.193,0.266-0.352,0.426-0.352
		c0.161,0,0.576-0.262,0.922-0.584c0.347-0.322,0.726-0.584,0.841-0.584c0.116,0,0.294-0.133,0.397-0.293
		c0.103-0.162,0.467-0.438,0.809-0.613s0.973-0.641,1.403-1.033c0.43-0.393,0.781-0.689,0.781-0.658c0,0.029,0.189-0.018,0.42-0.105
		c0.297-0.115,1.182,0.346,3.04,1.584c1.441,0.959,2.673,1.742,2.737,1.738c0.064-0.002,0.421,0.277,0.794,0.623
		s0.809,0.627,0.969,0.627c0.161,0,0.353,0.158,0.426,0.352c0.074,0.193,0.296,0.352,0.493,0.352c0.197,0,0.358,0.105,0.358,0.232
		c0,0.129,0.158,0.234,0.351,0.234s0.351,0.109,0.351,0.242c0,0.131,0.184,0.311,0.41,0.396c0.225,0.086,0.671,0.398,0.991,0.693
		c0.32,0.297,0.67,0.539,0.777,0.539s0.341,0.131,0.52,0.293c0.18,0.16,0.497,0.436,0.705,0.611c0.559,0.473,0.144,0.719-1.427,0.85
		c-0.765,0.063-1.917,0.166-2.56,0.23s-1.748,0.164-2.455,0.219c-0.708,0.057-1.918,0.156-2.689,0.223
		C338.424,634.705,335.264,634.825,335.178,634.739L335.178,634.739z"/>
	<path id="path4230" inkscape:connector-curvature="0" fill="#666666" d="M366.446,641.016c-0.804-0.381-1.461-0.641-1.461-0.576
		s-0.131,0.004-0.292-0.137c-0.416-0.359-4.61-2.779-5.378-3.104c-0.354-0.15-0.643-0.354-0.643-0.455
		c0-0.1-0.158-0.182-0.351-0.182s-0.351-0.105-0.351-0.234s-0.113-0.234-0.25-0.234c-0.404,0-0.954-0.652-0.688-0.816
		c0.129-0.08,0.735-0.188,1.347-0.238c1.404-0.119,3.854-0.398,5.962-0.678c0.778-0.104,0.891-0.053,1.019,0.457
		c0.079,0.316,0.238,0.574,0.353,0.574s0.187,0.08,0.161,0.176c-0.08,0.293,0.596,1.93,0.796,1.93c0.103,0,0.16,0.08,0.128,0.18
		c-0.06,0.184,0.764,2.18,0.987,2.393c0.068,0.064,0.163,0.273,0.21,0.467s0.139,0.535,0.203,0.76
		C368.354,641.852,368.145,641.819,366.446,641.016L366.446,641.016z"/>
	<path id="path4232" inkscape:connector-curvature="0" fill="#666666" d="M379.259,657.393c-0.133-0.248-0.373-0.594-0.535-0.77
		c-0.35-0.381-0.361-0.4-3.139-5.379c-1.201-2.15-2.182-4.012-2.182-4.137s0.21-0.211,0.467-0.191
		c0.258,0.02,0.469,0.105,0.469,0.193c0,0.166,1.158,0.549,1.461,0.482c0.096-0.021,0.176,0.066,0.176,0.195
		s0.078,0.211,0.175,0.186c0.097-0.027,0.505,0.127,0.905,0.342c0.402,0.213,0.797,0.322,0.877,0.242
		c0.081-0.08,0.146-0.045,0.146,0.08c0,0.195,1.553,0.893,1.871,0.84c0.447-0.076,0.621,2.354,0.35,4.857
		c-0.146,1.346-0.317,3.033-0.338,3.332C379.94,658.008,379.496,657.836,379.259,657.393L379.259,657.393z"/>
	<path id="path4234" inkscape:connector-curvature="0" fill="#666666" d="M381.576,690.672c-0.021-0.396-0.195-2.082-0.334-3.248
		c-0.135-1.131-0.246-2.418-0.467-5.379c-0.322-4.334,0.221-15.652,0.801-16.689c0.135-0.242,0.543,0.145,1.529,1.457
		c0.74,0.982,1.438,1.785,1.551,1.785s0.205,0.162,0.205,0.359s0.158,0.418,0.352,0.492s0.351,0.24,0.351,0.369
		c0,0.254,1.407,2.123,1.694,2.248c0.097,0.043,0.176,0.23,0.176,0.418c0,0.186,0.158,0.398,0.352,0.473s0.353,0.256,0.354,0.402
		s0.316,0.635,0.698,1.086c0.383,0.449,0.803,0.945,0.932,1.1c0.131,0.156,0.236,0.367,0.236,0.471s0.252,0.459,0.561,0.791
		l0.561,0.604l-1.586,2.377c-0.871,1.305-1.549,2.375-1.506,2.375s-0.18,0.277-0.495,0.617c-0.315,0.342-0.573,0.705-0.573,0.807
		c0,0.104-0.264,0.473-0.584,0.818c-0.322,0.348-0.586,0.773-0.586,0.947c0,0.176-0.107,0.318-0.24,0.318s-0.312,0.184-0.397,0.408
		s-0.398,0.672-0.694,0.992s-0.538,0.656-0.538,0.748c0,0.09-0.263,0.449-0.585,0.797c-0.321,0.346-0.584,0.715-0.584,0.818
		C382.757,689.702,381.59,690.926,381.576,690.672L381.576,690.672z"/>
	<path id="path4238" inkscape:connector-curvature="0" fill="#666666" d="M363.051,721.307c-0.083-0.084-1.085-0.191-4.118-0.443
		c-1.53-0.127-1.645-0.434-0.464-1.25c0.561-0.389,1.204-0.871,1.429-1.074c0.225-0.201,0.413-0.287,0.417-0.189
		c0.004,0.096,0.136,0.018,0.293-0.176c0.157-0.193,0.422-0.379,0.587-0.412c0.166-0.035,1.218-0.578,2.337-1.209
		c1.12-0.631,2.483-1.324,3.03-1.541c0.546-0.219,0.994-0.469,0.994-0.555c0-0.088,0.211-0.176,0.468-0.195
		c0.382-0.027,0.427,0.043,0.242,0.389c-0.125,0.232-0.16,0.488-0.079,0.568c0.082,0.082,0.037,0.148-0.1,0.148
		c-0.233,0-0.654,1.08-0.57,1.461c0.021,0.098-0.046,0.176-0.149,0.176c-0.2,0-0.875,1.637-0.796,1.93
		c0.026,0.096-0.036,0.176-0.139,0.176s-0.316,0.357-0.475,0.795s-0.416,0.896-0.573,1.021
		C365.089,721.161,363.212,721.467,363.051,721.307L363.051,721.307z"/>
	<path id="path4240" inkscape:connector-curvature="0" fill="#666666" d="M336.344,730.911c-0.741-0.445-1.382-0.811-1.424-0.811
		s-0.36-0.264-0.708-0.584c-0.347-0.322-0.715-0.586-0.818-0.586s-0.471-0.262-0.818-0.584s-0.714-0.584-0.816-0.584
		c-0.102,0-0.517-0.305-0.923-0.674c-0.405-0.371-1.011-0.818-1.346-0.994c-0.334-0.176-0.921-0.605-1.305-0.953
		s-0.784-0.578-0.891-0.512c-0.106,0.066-0.193,0.031-0.193-0.078s-0.55-0.607-1.221-1.109l-1.221-0.912l0.695-0.188
		c0.661-0.18,1.173-0.244,4.437-0.563c4.541-0.441,11.792-0.424,16.369,0.043c0.771,0.078,1.719,0.172,2.104,0.207
		s0.985,0.141,1.333,0.232c0.543,0.143,0.594,0.227,0.363,0.596c-0.148,0.236-0.327,0.41-0.397,0.387
		c-0.202-0.066-2.35,1.533-2.35,1.75c0,0.107-0.161,0.195-0.358,0.195c-0.197,0-0.418,0.156-0.492,0.35
		c-0.073,0.191-0.21,0.301-0.303,0.244c-0.093-0.059-0.509,0.205-0.925,0.586c-0.416,0.379-0.85,0.689-0.964,0.689
		s-0.292,0.133-0.395,0.293c-0.103,0.162-0.467,0.438-0.809,0.613c-0.342,0.176-0.954,0.623-1.359,0.994
		c-0.405,0.369-0.839,0.672-0.964,0.672c-0.125,0-0.288,0.158-0.361,0.352c-0.074,0.193-0.245,0.352-0.38,0.352
		s-0.571,0.244-0.969,0.541c-0.398,0.299-0.84,0.611-0.982,0.695C337.809,731.655,337.085,731.358,336.344,730.911L336.344,730.911z
		"/>
	<path id="path4242" inkscape:connector-curvature="0" fill="#666666" d="M309.087,720.909c-0.251-0.41-0.457-0.879-0.457-1.039
		c0-0.162-0.106-0.293-0.235-0.293s-0.208-0.08-0.175-0.18c0.082-0.254-0.814-2.24-1.104-2.447
		c-0.132-0.094-0.167-0.174-0.077-0.176c0.201-0.004-0.49-1.709-0.762-1.881c-0.107-0.066-0.11-0.26-0.006-0.428
		c0.149-0.242,0.445-0.178,1.391,0.301c0.661,0.336,1.203,0.529,1.205,0.43c0.002-0.098,0.081-0.068,0.175,0.068
		c0.229,0.33,5.236,3.043,5.478,2.969c0.104-0.033,0.189,0.047,0.189,0.174c0,0.129,0.158,0.234,0.351,0.234
		s0.351,0.105,0.351,0.234s0.149,0.234,0.331,0.234c0.183,0,0.367,0.082,0.41,0.184c0.042,0.102,0.42,0.424,0.838,0.717
		c0.928,0.652,0.954,0.848,0.117,0.873c-0.354,0.01-1.274,0.096-2.046,0.191C309.356,721.768,309.614,721.774,309.087,720.909
		L309.087,720.909z"/>
	<path id="path4246" inkscape:connector-curvature="0" fill="#666666" d="M291.782,689.69c-0.573-0.633-1.043-1.191-1.044-1.24
		c-0.005-0.229-1.619-2.313-1.792-2.313c-0.107,0-0.194-0.102-0.194-0.227c0-0.32-1.453-2.346-1.682-2.346
		c-0.104,0-0.189-0.152-0.189-0.34c0-0.186-0.184-0.441-0.409-0.566c-0.225-0.127-0.357-0.264-0.294-0.305
		c0.167-0.109-1.441-2.297-1.688-2.297c-0.115,0-0.147-0.098-0.074-0.217c0.074-0.121-0.077-0.367-0.335-0.549
		c-0.258-0.18-0.403-0.395-0.321-0.477c0.082-0.082-0.012-0.211-0.21-0.287c-0.299-0.115-0.265-0.238,0.203-0.744
		c0.309-0.334,0.52-0.648,0.468-0.699c-0.052-0.053,0.206-0.422,0.571-0.822s0.611-0.814,0.545-0.922s-0.005-0.193,0.135-0.193
		c0.141,0,0.32-0.17,0.399-0.377c0.08-0.207,0.392-0.643,0.694-0.969s0.55-0.678,0.55-0.781s0.263-0.471,0.584-0.818
		c0.322-0.348,0.585-0.715,0.585-0.816s0.303-0.518,0.673-0.922c0.37-0.406,0.817-1.012,0.994-1.346s0.605-0.922,0.953-1.305
		s0.607-0.758,0.577-0.832c-0.031-0.074,0.276-0.484,0.68-0.91l0.736-0.775l0.174,1.477c0.096,0.813,0.214,1.896,0.262,2.412
		c0.048,0.514,0.143,1.514,0.21,2.221c0.411,4.354,0.415,9.666,0.01,14.266c-0.074,0.836-0.181,2.105-0.238,2.82
		c-0.058,0.717-0.191,1.537-0.298,1.824C292.834,690.815,292.778,690.787,291.782,689.69L291.782,689.69z"/>
	<path id="path4250" inkscape:connector-curvature="0" fill="#666666" d="M294.497,658.102c-0.063-0.104-0.176-0.861-0.25-1.686
		c-0.074-0.824-0.19-1.971-0.257-2.549c-0.067-0.58-0.111-1.457-0.097-1.951c0.014-0.494-0.085-1.033-0.222-1.197
		c-0.288-0.346-0.179-0.449,1.454-1.381c0.611-0.35,1.111-0.576,1.111-0.504s0.447-0.104,0.994-0.389
		c0.546-0.287,1.046-0.529,1.111-0.541c0.435-0.078,1.871-0.705,1.871-0.816c0-0.076,0.21-0.152,0.468-0.172
		c0.585-0.045,0.586-0.049-0.106,1.318c-0.316,0.623-0.509,1.197-0.429,1.277s0.017,0.146-0.141,0.146s-0.227,0.096-0.154,0.213
		c0.072,0.117,0.044,0.25-0.064,0.293c-0.108,0.043-0.708,1.025-1.333,2.182c-0.625,1.158-1.485,2.652-1.91,3.322
		c-0.425,0.668-0.772,1.326-0.772,1.461s-0.105,0.246-0.234,0.246s-0.234,0.146-0.234,0.324
		C295.3,658.073,294.673,658.385,294.497,658.102L294.497,658.102z"/>
	<path id="path4252" inkscape:connector-curvature="0" fill="#999999" d="M293.323,645.858c-0.252-2.576-0.83-10.551-0.83-11.459
		v-0.877h1.152c1.43,0,12.468,0.916,12.597,1.045c0.129,0.129-2.426,6.086-3.134,7.309c-0.772,1.332-2.085,2.182-6.105,3.949
		c-1.869,0.822-3.43,1.494-3.468,1.494S293.402,646.662,293.323,645.858L293.323,645.858z"/>
</g>
</svg>
