<?xml version="1.0" encoding="UTF-8" standalone="no"?>
<!-- Created with Inkscape (http://www.inkscape.org/) -->

<svg
   xmlns:dc="http://purl.org/dc/elements/1.1/"
   xmlns:cc="http://creativecommons.org/ns#"
   xmlns:rdf="http://www.w3.org/1999/02/22-rdf-syntax-ns#"
   xmlns:svg="http://www.w3.org/2000/svg"
   xmlns="http://www.w3.org/2000/svg"
   xmlns:sodipodi="http://sodipodi.sourceforge.net/DTD/sodipodi-0.dtd"
   xmlns:inkscape="http://www.inkscape.org/namespaces/inkscape"
   width="744.09448"
   height="1046.3622"
   viewBox="0 0 744.09449 1046.3622"
   id="svg4316"
   version="1.1"
   inkscape:version="0.91 r13725"
   sodipodi:docname="icon.svg">
  <defs
     id="defs4318" />
  <sodipodi:namedview
     id="base"
     pagecolor="#ffffff"
     bordercolor="#666666"
     borderopacity="1.0"
     inkscape:pageopacity="0.0"
     inkscape:pageshadow="2"
     inkscape:zoom="1.0824912"
     inkscape:cx="375"
     inkscape:cy="331.14535"
     inkscape:document-units="px"
     inkscape:current-layer="layer1"
     showgrid="false"
     inkscape:snap-grids="false"
     inkscape:object-paths="true"
     inkscape:window-width="1280"
     inkscape:window-height="962"
     inkscape:window-x="-8"
     inkscape:window-y="-8"
     inkscape:window-maximized="1"
     units="px" />
  <metadata
     id="metadata4321">
    <rdf:RDF>
      <cc:Work
         rdf:about="">
        <dc:format>image/svg+xml</dc:format>
        <dc:type
           rdf:resource="http://purl.org/dc/dcmitype/StillImage" />
        <dc:title></dc:title>
      </cc:Work>
    </rdf:RDF>
  </metadata>
  <g
     inkscape:label="Layer 1"
     inkscape:groupmode="layer"
     id="layer1"
     transform="translate(0,-5.9998782)">
    <g
       id="g4144"
       transform="translate(-2.8147384,383.66327)">
      <path
         transform="matrix(0.99991424,0.01309658,-0.01309658,0.99991424,3.8849618,-4.4270313)"
         inkscape:transform-center-y="-21.809337"
         inkscape:transform-center-x="-0.21068722"
         d="m 417.14286,335.21933 c -5.56731,10.02115 -64.95261,1.07183 -76.41483,1.26098 -11.46223,0.18914 -70.51992,11.09298 -76.41483,1.26098 -5.89492,-9.83201 31.54807,-56.78653 37.11537,-66.80768 5.56731,-10.02115 25.65315,-66.61853 37.11538,-66.80767 11.46222,-0.18915 33.40453,55.71469 39.29945,65.54669 5.89492,9.83201 44.86677,55.52555 39.29946,65.5467 z"
         inkscape:randomized="0"
         inkscape:rounded="0.15"
         inkscape:flatsided="false"
         sodipodi:arg2="1.5542961"
         sodipodi:arg1="0.5070985"
         sodipodi:r2="44.12413"
         sodipodi:r1="88.24826"
         sodipodi:cy="292.36218"
         sodipodi:cx="340"
         sodipodi:sides="3"
         id="path3336"
         style="fill:none;fill-rule:evenodd;stroke:#000000;stroke-width:2;stroke-linecap:butt;stroke-linejoin:miter;stroke-miterlimit:4;stroke-dasharray:none;stroke-opacity:1"
         sodipodi:type="star" />
      <path
         sodipodi:type="star"
         style="fill:none;fill-rule:evenodd;stroke:#000000;stroke-width:2;stroke-linecap:butt;stroke-linejoin:miter;stroke-miterlimit:4;stroke-dasharray:none;stroke-opacity:1"
         id="path4138"
         sodipodi:sides="3"
         sodipodi:cx="340"
         sodipodi:cy="292.36218"
         sodipodi:r1="88.24826"
         sodipodi:r2="44.12413"
         sodipodi:arg1="0.5070985"
         sodipodi:arg2="1.5542961"
         inkscape:flatsided="false"
         inkscape:rounded="0.15"
         inkscape:randomized="0"
         d="m 417.14286,335.21933 c -5.56731,10.02115 -64.95261,1.07183 -76.41483,1.26098 -11.46223,0.18914 -70.51992,11.09298 -76.41483,1.26098 -5.89492,-9.83201 31.54807,-56.78653 37.11537,-66.80768 5.56731,-10.02115 25.65315,-66.61853 37.11538,-66.80767 11.46222,-0.18915 33.40453,55.71469 39.29945,65.54669 5.89492,9.83201 44.86677,55.52555 39.29946,65.5467 z"
         inkscape:transform-center-x="-21.809334"
         inkscape:transform-center-y="0.21068768"
         transform="matrix(-0.01309658,0.99991424,-0.99991424,-0.01309658,638.79785,-41.65941)" />
      <path
         transform="matrix(-0.99991424,-0.01309658,0.01309658,-0.99991424,676.03023,593.25348)"
         inkscape:transform-center-y="21.809337"
         inkscape:transform-center-x="0.21068938"
         d="m 417.14286,335.21933 c -5.56731,10.02115 -64.95261,1.07183 -76.41483,1.26098 -11.46223,0.18914 -70.51992,11.09298 -76.41483,1.26098 -5.89492,-9.83201 31.54807,-56.78653 37.11537,-66.80768 5.56731,-10.02115 25.65315,-66.61853 37.11538,-66.80767 11.46222,-0.18915 33.40453,55.71469 39.29945,65.54669 5.89492,9.83201 44.86677,55.52555 39.29946,65.5467 z"
         inkscape:randomized="0"
         inkscape:rounded="0.15"
         inkscape:flatsided="false"
         sodipodi:arg2="1.5542961"
         sodipodi:arg1="0.5070985"
         sodipodi:r2="44.12413"
         sodipodi:r1="88.24826"
         sodipodi:cy="292.36218"
         sodipodi:cx="340"
         sodipodi:sides="3"
         id="path4140"
         style="fill:none;fill-rule:evenodd;stroke:#000000;stroke-width:2;stroke-linecap:butt;stroke-linejoin:miter;stroke-miterlimit:4;stroke-dasharray:none;stroke-opacity:1"
         sodipodi:type="star" />
      <path
         sodipodi:type="star"
         style="fill:none;fill-rule:evenodd;stroke:#000000;stroke-width:2;stroke-linecap:butt;stroke-linejoin:miter;stroke-miterlimit:4;stroke-dasharray:none;stroke-opacity:1"
         id="path4142"
         sodipodi:sides="3"
         sodipodi:cx="340"
         sodipodi:cy="292.36218"
         sodipodi:r1="88.24826"
         sodipodi:r2="44.12413"
         sodipodi:arg1="0.5070985"
         sodipodi:arg2="1.5542961"
         inkscape:flatsided="false"
         inkscape:rounded="0.15"
         inkscape:randomized="0"
         d="m 417.14286,335.21933 c -5.56731,10.02115 -64.95261,1.07183 -76.41483,1.26098 -11.46223,0.18914 -70.51992,11.09298 -76.41483,1.26098 -5.89492,-9.83201 31.54807,-56.78653 37.11537,-66.80768 5.56731,-10.02115 25.65315,-66.61853 37.11538,-66.80767 11.46222,-0.18915 33.40453,55.71469 39.29945,65.54669 5.89492,9.83201 44.86677,55.52555 39.29946,65.5467 z"
         inkscape:transform-center-x="21.809337"
         inkscape:transform-center-y="-0.21068638"
         transform="matrix(0.01309658,-0.99991424,0.99991424,0.01309658,41.117341,630.48586)" />
    </g>
    <path
       style="fill:#808080;stroke-width:2;stroke-miterlimit:4;stroke-dasharray:none"
       d="m 298.75978,631.44026 -6.88559,-0.52125 0.24906,-11.04982 c 0.25807,-11.44899 0.6903,-14.03568 2.70705,-16.20041 1.84853,-1.98417 5.78431,-1.1499 14.08613,2.98584 3.88113,1.93347 7.30248,3.81438 7.603,4.17979 0.39036,0.47465 -0.35251,2.57403 -2.60135,7.35141 -1.73126,3.67787 -3.8779,8.31999 -4.77031,10.31582 -1.16563,2.60688 -1.88726,3.60501 -2.56248,3.54433 -0.51695,-0.0465 -4.03843,-0.31903 -7.82551,-0.60571 z"
       id="path4150"
       inkscape:connector-curvature="0" />
    <path
       style="fill:#808080;stroke-width:2;stroke-miterlimit:4;stroke-dasharray:none"
       d="m 329.41414,616.15437 c -3.72723,-2.56057 -7.22389,-4.93338 -7.77036,-5.27293 -0.939,-0.58345 -0.87837,-0.8336 1.10406,-4.55504 5.54153,-10.40257 11.09942,-17.0669 14.2334,-17.0669 2.1148,0 4.97438,2.58676 8.44734,7.64141 3.09208,4.50034 7.86122,12.68246 7.56494,12.97874 -0.89772,0.89772 -15.37434,10.64052 -15.99876,10.7672 -0.44211,0.0897 -3.85339,-1.93192 -7.58062,-4.49248 z"
       id="path4152"
       inkscape:connector-curvature="0" />
    <path
       style="fill:#808080;stroke-width:2;stroke-miterlimit:4;stroke-dasharray:none"
       d="m 365.1924,628.85435 c -0.70504,-1.58764 -2.88505,-6.25535 -4.84447,-10.37269 l -3.56257,-7.48608 1.22434,-0.94815 c 2.09127,-1.61952 12.88187,-6.82543 15.54688,-7.50058 6.5535,-1.66025 8.44049,2.68763 8.4486,19.46667 l 0.004,8.37118 -2.54546,0.31611 c -1.4,0.17386 -4.89537,0.47902 -7.76747,0.67813 l -5.22201,0.36203 -1.28189,-2.88662 z"
       id="path4154"
       inkscape:connector-curvature="0" />
    <path
       style="fill:#808080;stroke-width:2;stroke-miterlimit:4;stroke-dasharray:none"
       d="m 394.32226,653.62578 c -4.86998,-2.30865 -9.39641,-4.36955 -10.05875,-4.57977 -1.12659,-0.35757 -1.18353,-0.59563 -0.883,-3.69194 0.17669,-1.82035 0.48301,-5.3595 0.68073,-7.86477 l 0.35948,-4.55504 7.98392,-0.14875 c 8.99301,-0.16755 16.28664,0.79813 18.51014,2.45076 1.85395,1.37796 2.04198,4.20123 0.55776,8.37476 -1.42687,4.01226 -7.00167,14.24741 -7.74913,14.22714 -0.30066,-0.008 -4.53118,-1.90373 -9.40115,-4.21239 z"
       id="path4156"
       inkscape:connector-curvature="0" />
    <path
       style="fill:#808080;stroke-width:2;stroke-miterlimit:4;stroke-dasharray:none"
       d="m 400.22259,686.70779 c -2.79628,-4.1179 -5.31277,-7.81568 -5.59221,-8.2173 -0.36845,-0.52952 0.95679,-2.91344 4.8221,-8.67427 2.9316,-4.36924 5.37839,-8.03208 5.43733,-8.13966 0.16487,-0.30095 6.88875,3.50705 11.82407,6.69644 6.0554,3.91323 9.23806,7.15328 9.23806,9.40462 0,1.42025 -0.60394,2.32085 -3.34929,4.99444 -2.74714,2.67535 -10.82356,8.08722 -16.21737,10.86698 -0.97526,0.50261 -1.56552,-0.16126 -6.16269,-6.93125 z"
       id="path4158"
       inkscape:connector-curvature="0" />
    <path
       style="fill:#808080;stroke-width:2;stroke-miterlimit:4;stroke-dasharray:none"
       d="m 385.95964,722.90123 c -1.27393,-0.29418 -1.50356,-1.42521 -2.10905,-10.38778 l -0.34394,-5.09092 10.48636,-4.90172 10.48636,-4.90171 1.35042,2.30431 c 2.4834,4.23761 6.08971,11.76295 6.67545,13.92976 1.324,4.89787 0.22554,6.6429 -5.04781,8.01905 -3.16418,0.82574 -19.0792,1.58752 -21.49779,1.02901 z"
       id="path4160"
       inkscape:connector-curvature="0" />
    <path
       style="fill:#808080;stroke-width:2;stroke-miterlimit:4;stroke-dasharray:none"
       d="m 373.43504,753.00501 c -3.48935,-1.03403 -6.07683,-2.21187 -11.55639,-5.26054 l -4.85782,-2.70275 4.85782,-10.42962 4.85781,-10.42963 5.09092,0.33853 c 2.80001,0.18618 6.38744,0.48604 7.97206,0.66634 l 2.88112,0.32781 -0.27789,10.24561 c -0.27579,10.16797 -0.92663,14.22404 -2.6547,16.54438 -0.94751,1.27225 -3.44652,1.5493 -6.31293,0.69987 z"
       id="path4162"
       inkscape:connector-curvature="0" />
    <path
       style="fill:#808080;stroke-width:2;stroke-miterlimit:4;stroke-dasharray:none"
       d="m 335.02117,766.12989 c -1.82163,-1.11073 -5.1217,-5.03385 -7.91201,-9.40578 -2.90639,-4.55382 -5.75438,-9.88544 -5.56635,-10.42058 0.0986,-0.28047 3.71167,-2.92264 8.02917,-5.87148 l 7.85,-5.36153 8.08996,5.42882 8.08995,5.42882 -2.48204,4.59415 c -4.46917,8.27219 -9.07642,14.34546 -12.04863,15.88245 -1.89333,0.97908 -2.00608,0.97143 -4.05005,-0.27487 z"
       id="path4164"
       inkscape:connector-curvature="0" />
    <path
       style="fill:#808080;stroke-width:2;stroke-miterlimit:4;stroke-dasharray:none"
       d="m 294.86485,752.41639 c -0.49023,-0.74819 -1.21517,-2.73767 -1.61098,-4.42107 -0.87906,-3.7387 -1.56469,-16.66795 -1.06175,-20.02181 l 0.36643,-2.44356 5.2037,-0.35539 c 2.86203,-0.19546 6.3241,-0.49928 7.69348,-0.67515 2.28072,-0.2929 2.52309,-0.21333 2.88641,0.94765 0.21814,0.69706 2.39873,5.43354 4.84575,10.52549 l 4.44913,9.2581 -2.02061,1.27555 c -2.98088,1.88175 -10.27368,5.53359 -12.90394,6.4616 -1.26102,0.44491 -3.34205,0.80893 -4.62452,0.80893 -1.9053,0 -2.49478,-0.24879 -3.2231,-1.36034 z"
       id="path4166"
       inkscape:connector-curvature="0" />
    <path
       style="fill:#808080;stroke-width:2;stroke-miterlimit:4;stroke-dasharray:none"
       d="m 267.80889,722.49486 c -3.64636,-0.7848 -5.71222,-2.0581 -6.14651,-3.78844 -0.51106,-2.03623 1.18255,-6.99723 4.67539,-13.69538 1.76749,-3.38948 3.3898,-6.34445 3.60513,-6.5666 0.21533,-0.22214 4.76897,1.64677 10.1192,4.15313 5.35023,2.50636 10.0123,4.55702 10.36017,4.55702 0.62522,0 0.39515,8.04226 -0.39474,13.79908 l -0.3125,2.27752 -9.45114,-0.0449 c -5.19813,-0.0247 -10.80288,-0.33584 -12.455,-0.69142 z"
       id="path4168"
       inkscape:connector-curvature="0" />
    <path
       style="fill:#808080;stroke-width:2;stroke-miterlimit:4;stroke-dasharray:none"
       d="m 265.18593,692.3612 c -11.12621,-6.13236 -17.14837,-11.17694 -17.14837,-14.36469 0,-1.37909 4.66644,-6.06506 8.84213,-8.87913 4.11559,-2.77356 12.01483,-7.21868 12.2728,-6.90624 0.0894,0.10829 1.68701,2.48781 3.5502,5.28782 1.8632,2.80001 4.31587,6.35429 5.45038,7.89841 l 2.06276,2.80749 -5.37998,8.04422 c -2.95898,4.42433 -5.55697,8.04147 -5.77331,8.03809 -0.21634,-0.003 -1.96081,-0.87006 -3.87661,-1.92597 z"
       id="path4170"
       inkscape:connector-curvature="0" />
    <path
       style="fill:#b3b3b3;stroke-width:2;stroke-miterlimit:4;stroke-dasharray:none"
       d="m 267.21868,653.96607 c -4.10793,-7.19751 -5.38652,-10.47784 -5.45488,-13.99495 -0.0537,-2.7653 0.10061,-3.26692 1.27859,-4.15494 2.31222,-1.74309 8.11341,-2.5946 17.7451,-2.60467 l 8.90297,-0.009 0.37118,5.76078 c 0.20415,3.16843 0.49965,6.60641 0.65666,7.63995 l 0.28547,1.87917 -10.36345,4.96055 c -5.69991,2.72831 -10.48404,4.95655 -10.63141,4.95164 -0.14736,-0.005 -1.40297,-1.99761 -2.79023,-4.42823 z"
       id="path4172"
       inkscape:connector-curvature="0" />
    <path
       style="fill:#b3b3b3;stroke-width:2;stroke-miterlimit:4;stroke-dasharray:none"
       d="m 277.90099,670.60946 c -5.70336,-8.23184 -6.48728,-9.55336 -5.96803,-10.06073 0.64427,-0.62953 19.0149,-9.27444 19.21027,-9.04002 0.0832,0.0999 0.37105,2.40238 0.63957,5.11669 l 0.48822,4.9351 -4.92681,6.84056 c -2.70974,3.76231 -5.16572,6.9202 -5.45772,7.01753 -0.29201,0.0973 -2.08548,-2.06677 -3.9855,-4.80913 z"
       id="path4174"
       inkscape:connector-curvature="0" />
    <path
       style="fill:#b3b3b3;stroke-width:2;stroke-miterlimit:4;stroke-dasharray:none"
       d="m 284.47259,701.85405 c -3.68133,-1.69302 -8.0817,-3.78989 -9.77861,-4.6597 l -3.0853,-1.58149 4.94241,-7.35836 c 2.71832,-4.04711 5.08312,-7.35837 5.25512,-7.35837 0.172,0 2.62893,3.2113 5.45984,7.13623 l 5.14712,7.13621 -0.52567,4.78388 c -0.28912,2.63114 -0.56975,4.82797 -0.62363,4.88185 -0.0539,0.0539 -3.10996,-1.28724 -6.79128,-2.98025 z"
       id="path4176"
       inkscape:connector-curvature="0" />
    <path
       style="fill:#b3b3b3;stroke-width:2;stroke-miterlimit:4;stroke-dasharray:none"
       d="m 292.79105,717.68493 c 0.21194,-3.10944 0.53823,-6.35396 0.72509,-7.21004 l 0.33973,-1.5565 4.37194,1.89118 4.37194,1.89118 1.92473,4.4316 c 1.0586,2.43738 1.92473,4.53922 1.92473,4.67076 0,0.13154 -2.71292,0.40331 -6.02872,0.60394 -3.3158,0.20063 -6.47559,0.49227 -7.02176,0.6481 -0.93878,0.26784 -0.97197,-0.0255 -0.60768,-5.37022 z"
       id="path4178"
       inkscape:connector-curvature="0" />
    <path
       style="fill:#b3b3b3;stroke-width:2;stroke-miterlimit:4;stroke-dasharray:none"
       d="m 318.66267,741.31737 c -0.66302,-1.25264 -2.80558,-5.65361 -4.76126,-9.77994 l -3.55577,-7.50241 5.15229,-0.53589 5.15228,-0.53588 7.1005,5.05323 c 3.90527,2.77929 7.1005,5.21997 7.1005,5.42374 0,0.37833 -14.13497,10.15466 -14.68197,10.15466 -0.16559,0 -0.84355,-1.02488 -1.50657,-2.27751 z"
       id="path4180"
       inkscape:connector-curvature="0" />
    <path
       style="fill:#b3b3b3;stroke-width:2;stroke-miterlimit:4;stroke-dasharray:none"
       d="m 347.01824,738.46312 c -3.74449,-2.52773 -6.80816,-4.80779 -6.80816,-5.0668 0,-0.25901 3.17487,-2.76727 7.05527,-5.57391 4.90955,-3.55101 7.39499,-5.03349 8.17227,-4.87451 0.61435,0.12566 2.75457,0.38162 4.75606,0.56881 3.42309,0.32015 3.61759,0.40924 3.27718,1.5011 -0.90311,2.89675 -8.48487,18.04119 -9.03196,18.04119 -0.33687,0 -3.67617,-2.06815 -7.42066,-4.59588 z"
       id="path4182"
       inkscape:connector-curvature="0" />
    <path
       style="fill:#b3b3b3;stroke-width:2;stroke-miterlimit:4;stroke-dasharray:none"
       d="m 372.73829,722.14688 c -2.29901,-0.21919 -4.30312,-0.52161 -4.45356,-0.67205 -0.15044,-0.15045 0.52482,-2.14781 1.50059,-4.4386 l 1.77412,-4.16505 4.48523,-2.07962 c 2.46687,-1.14379 4.59349,-1.97135 4.72582,-1.83903 0.27441,0.27442 1.20229,9.37043 1.22422,12.00114 0.0144,1.73289 0.002,1.74126 -2.53094,1.66668 -1.4,-0.0412 -4.42647,-0.25429 -6.72548,-0.47347 z"
       id="path4184"
       inkscape:connector-curvature="0" />
    <path
       style="fill:#b3b3b3;stroke-width:2;stroke-miterlimit:4;stroke-dasharray:none"
       d="m 382.89089,702.48566 c -0.16011,-1.11631 -0.43244,-3.35598 -0.60519,-4.97703 l -0.31409,-2.94738 5.27535,-7.31391 5.27535,-7.31393 4.84144,7.04598 c 2.6628,3.87529 5.01925,7.35591 5.23656,7.73472 0.28359,0.49435 -2.07494,1.87416 -8.35636,4.88873 -11.50588,5.52188 -10.99322,5.39171 -11.35306,2.88282 z"
       id="path4186"
       inkscape:connector-curvature="0" />
    <path
       style="fill:#b3b3b3;stroke-width:2;stroke-miterlimit:4;stroke-dasharray:none"
       d="m 387.17686,668.31378 -5.22504,-7.22701 0.37154,-4.57892 c 0.20434,-2.5184 0.5778,-4.7064 0.82992,-4.86222 0.57761,-0.35698 19.21965,8.3346 19.21965,8.96089 0,0.40839 -8.65033,13.50387 -9.59831,14.53059 -0.205,0.22203 -2.72399,-2.84847 -5.59776,-6.82333 z"
       id="path4188"
       inkscape:connector-curvature="0" />
    <path
       style="fill:#b3b3b3;stroke-width:2;stroke-miterlimit:4;stroke-dasharray:none"
       d="m 375.68856,645.22101 -3.90918,-1.82616 -2.03484,-4.42646 -2.03485,-4.42646 1.54988,-0.33974 c 0.85242,-0.18686 4.08042,-0.51222 7.17332,-0.72303 l 5.62345,-0.3833 -0.26578,1.25892 c -0.14618,0.6924 -0.42114,3.85127 -0.61101,7.0197 -0.22997,3.83749 -0.55165,5.74608 -0.96352,5.71674 -0.34006,-0.0242 -2.37742,-0.86582 -4.52747,-1.87021 z"
       id="path4190"
       inkscape:connector-curvature="0" />
    <path
       style="fill:#b3b3b3;stroke-width:2;stroke-miterlimit:4;stroke-dasharray:none"
       d="m 346.61095,628.23415 c -3.70058,-2.72022 -6.83552,-5.16682 -6.96652,-5.43689 -0.131,-0.27007 3.13576,-2.78213 7.25945,-5.58234 l 7.49764,-5.0913 4.66528,9.60149 c 2.56591,5.28082 4.67811,9.75498 4.69378,9.94256 0.0296,0.35363 -2.40464,0.75556 -7.47391,1.2341 l -2.94738,0.27823 -6.72834,-4.94585 z"
       id="path4192"
       inkscape:connector-curvature="0" />
    <path
       style="fill:#b3b3b3;stroke-width:2;stroke-miterlimit:4;stroke-dasharray:none"
       d="m 313.85931,632.7185 c -1.67183,-0.17937 -3.14963,-0.44535 -3.28399,-0.59107 -0.27865,-0.30219 7.94647,-18.17868 8.72011,-18.95232 0.31798,-0.31798 3.10647,1.23824 7.49358,4.18205 3.84294,2.57867 7.11199,4.89047 7.26457,5.13734 0.15257,0.24687 -2.89055,2.75709 -6.76249,5.57828 -7.55675,5.50602 -7.0493,5.33051 -13.43178,4.64572 z"
       id="path4194"
       inkscape:connector-curvature="0" />
    <path
       style="fill:#666666;stroke-width:2;stroke-miterlimit:4;stroke-dasharray:none"
       d="m 292.6672,640.54658 c -0.29395,-3.89203 -0.50848,-7.10494 -0.47673,-7.13979 0.10765,-0.11811 13.98977,0.97619 14.13848,1.11451 0.0812,0.0756 -0.74739,2.12347 -1.84137,4.55093 -2.15625,4.78456 -1.64636,4.36962 -9.61909,7.8278 l -1.66682,0.72299 -0.53447,-7.07644 z"
       id="path4196"
       inkscape:connector-curvature="0" />
    <path
       style="fill:#666666;stroke-width:2;stroke-miterlimit:4;stroke-dasharray:none"
       d="m 267.54723,654.07493 c -1.15134,-2.04697 -2.28845,-3.72235 -2.52689,-3.72306 -0.23845,-7.1e-4 -0.29652,-0.22299 -0.12905,-0.49397 0.16747,-0.27098 -0.048,-0.84514 -0.47874,-1.27592 -0.43078,-0.43078 -0.63396,-0.93252 -0.4515,-1.11498 0.18246,-0.18245 0.10172,-0.33174 -0.17942,-0.33174 -0.28114,0 -0.5504,-0.52088 -0.59836,-1.15752 -0.048,-0.63664 -0.28013,-1.2998 -0.51595,-1.47369 -0.23582,-0.17389 -0.51019,-1.88741 -0.60971,-3.80783 -0.14906,-2.87619 -0.005,-3.65125 0.8195,-4.39706 1.41504,-1.28059 6.7628,-2.56107 10.69603,-2.56107 1.83648,0 3.48809,-0.24114 3.67025,-0.53588 0.37954,-0.61412 3.97381,-0.69223 8.77271,-0.19064 3.80913,0.39813 3.76549,0.32714 4.08932,6.65231 0.1123,2.19347 0.27864,5.05608 0.36966,6.36137 l 0.16547,2.37326 -6.69858,3.22463 c -3.68422,1.77355 -6.77947,3.42002 -6.87833,3.65881 -0.0989,0.2388 -0.40029,0.29787 -0.66985,0.13127 -0.26957,-0.1666 -0.49012,-0.0333 -0.49012,0.29623 0,0.32953 -0.22171,0.46212 -0.49268,0.29465 -0.27098,-0.16748 -0.84515,0.048 -1.27593,0.47874 -0.43078,0.43078 -0.93252,0.63395 -1.11497,0.45149 -0.18246,-0.18245 -0.33222,-0.11068 -0.33281,0.15949 -5.9e-4,0.27018 -0.68633,0.53886 -1.52388,0.59706 -1.36232,0.0947 -1.74345,-0.28644 -3.61617,-3.61595 z"
       id="path4198"
       inkscape:connector-curvature="0" />
    <path
       style="fill:#666666;stroke-width:2;stroke-miterlimit:4;stroke-dasharray:none"
       d="m 267.56668,653.69988 c -3.36629,-5.61465 -4.70248,-8.69929 -5.12864,-11.83967 -0.74997,-5.52654 0.63122,-6.57831 10.45108,-7.9585 6.66649,-0.93698 6.79465,-0.94598 11.42716,-0.80243 2.63464,0.0816 3.57678,0.35232 4.55503,1.30867 1.14971,1.12398 1.23336,1.63552 1.23336,7.54293 l 0,6.33719 -6.96653,3.50528 c -3.83159,1.92791 -7.87826,3.95944 -8.99261,4.51452 -3.44083,1.71397 -4.15806,1.42965 -6.57885,-2.60799 z"
       id="path4200"
       inkscape:connector-curvature="0" />
    <path
       style="fill:#666666;stroke-width:2;stroke-miterlimit:4;stroke-dasharray:none"
       d="m 267.19217,653.16399 c -3.12826,-5.20912 -4.42315,-8.27851 -4.85817,-11.51574 -0.66069,-4.91649 0.91565,-6.31802 8.29622,-7.37617 2.16355,-0.31019 5.38063,-0.80434 7.14905,-1.09811 4.18073,-0.6945 10.10328,0.0126 11.38542,1.35935 0.74068,0.77801 0.90188,1.70733 0.76028,4.38315 -0.0988,1.8677 0.0246,3.39581 0.27433,3.39581 0.24971,0 0.33058,1.35509 0.1797,3.01132 l -0.27433,3.01131 -8.84213,4.47121 c -4.86318,2.45917 -9.45732,4.48016 -10.2092,4.4911 -1.14103,0.0166 -1.77947,-0.66683 -3.86117,-4.13323 z"
       id="path4202"
       inkscape:connector-curvature="0" />
    <path
       style="fill:#cccccc;stroke-width:2;stroke-miterlimit:4;stroke-dasharray:none"
       d="m 293.8926,654.52501 c -0.23557,-2.38027 -0.38522,-4.3653 -0.33256,-4.41116 0.22506,-0.19599 7.54524,-3.4154 7.61262,-3.34802 0.20666,0.20666 -3.59237,7.44188 -5.04215,9.60274 -0.9167,1.36632 -1.69887,2.48422 -1.73816,2.48422 -0.0393,0 -0.26417,-1.9475 -0.49975,-4.32778 z"
       id="path4204"
       inkscape:connector-curvature="0" />
    <path
       style="fill:#cccccc;stroke-width:2;stroke-miterlimit:4;stroke-dasharray:none"
       d="m 287.9659,684.94533 c -2.59386,-3.54586 -4.71611,-6.50955 -4.71611,-6.58596 0,-0.21223 9.40215,-13.22233 9.49118,-13.1333 0.2597,0.2597 1.10282,9.99452 1.11888,12.91875 0.0186,3.38227 -0.68125,12.3016 -1.01509,12.93754 -0.10571,0.20135 -1.81578,-1.94971 -4.87886,-6.13703 z"
       id="path4206"
       inkscape:connector-curvature="0" />
    <path
       style="fill:#cccccc;stroke-width:2;stroke-miterlimit:4;stroke-dasharray:none"
       d="m 297.39728,707.82627 c -1.80059,-0.82123 -3.37167,-1.52807 -3.49128,-1.57075 -0.21004,-0.075 0.21681,-6.08414 0.54677,-7.69748 0.14844,-0.72578 0.18166,-0.69257 1.93528,1.93476 2.27122,3.40282 5.0583,8.9147 4.47417,8.84834 -0.10513,-0.0119 -1.66435,-0.69363 -3.46494,-1.51487 z"
       id="path4208"
       inkscape:connector-curvature="0" />
    <path
       style="fill:#cccccc;stroke-width:2;stroke-miterlimit:4;stroke-dasharray:none"
       d="m 308.75591,720.76269 c -0.2386,-0.5466 -1.01597,-2.28289 -1.7275,-3.8584 -0.71153,-1.57552 -1.20844,-2.86458 -1.10423,-2.86458 0.54578,0 8.34931,4.17213 10.03312,5.36418 l 1.95717,1.38558 -0.78796,0.12975 c -1.00512,0.16551 -7.07594,0.83731 -7.56653,0.83731 -0.21165,0 -0.55609,-0.42573 -0.80407,-0.99384 z"
       id="path4210"
       inkscape:connector-curvature="0" />
    <path
       style="fill:#cccccc;stroke-width:2;stroke-miterlimit:4;stroke-dasharray:none"
       d="m 332.35678,728.40017 c -8.18543,-5.88738 -8.02704,-5.76476 -7.68193,-5.94714 0.69852,-0.36914 8.95379,-1.04032 12.82648,-1.04284 5.1522,-0.003 13.27332,0.74311 12.81703,1.17809 -0.31801,0.30316 -11.61499,8.57277 -12.45667,9.11853 -0.4366,0.2831 -0.90581,10e-4 -5.50491,-3.30664 z"
       id="path4212"
       inkscape:connector-curvature="0" />
    <path
       style="fill:#cccccc;stroke-width:2;stroke-miterlimit:4;stroke-dasharray:none"
       d="m 360.34512,721.10395 c -2.74518,-0.28084 -3.39993,-0.41336 -3.15688,-0.63892 1.00843,-0.9359 5.14397,-3.45173 7.93132,-4.82498 1.78656,-0.88019 3.29064,-1.60034 3.34241,-1.60034 0.0518,0 -0.65398,1.68367 -1.56831,3.74149 -1.63588,3.68172 -1.67379,3.74097 -2.37373,3.70928 -0.39121,-0.0177 -2.26988,-0.19165 -4.17481,-0.38653 z"
       id="path4214"
       inkscape:connector-curvature="0" />
    <path
       style="fill:#cccccc;stroke-width:2;stroke-miterlimit:4;stroke-dasharray:none"
       d="m 373.84472,707.66749 c 1.51935,-3.33363 2.55694,-5.23984 4.19886,-7.71392 0.91651,-1.381 1.7263,-2.51222 1.79954,-2.51381 0.15543,-0.003 1.02571,8.38682 0.88457,8.52795 -0.16028,0.16028 -7.28246,3.39514 -7.47506,3.39514 -0.0993,0 0.16712,-0.76291 0.59209,-1.69536 z"
       id="path4216"
       inkscape:connector-curvature="0" />
    <path
       style="fill:#cccccc;stroke-width:2;stroke-miterlimit:4;stroke-dasharray:none"
       d="m 381.36852,690.00892 c -0.57747,-4.62711 -0.90866,-8.89717 -0.92926,-11.98102 -0.0231,-3.46314 0.68667,-12.79437 0.99998,-13.14595 0.11683,-0.1311 8.62442,11.21638 9.45566,12.61203 0.17371,0.29166 -2.63527,4.39525 -8.40664,12.2811 l -0.98155,1.34115 -0.13819,-1.10731 z"
       id="path4218"
       inkscape:connector-curvature="0" />
    <path
       style="fill:#cccccc;stroke-width:2;stroke-miterlimit:4;stroke-dasharray:none"
       d="m 377.96985,655.80433 c -1.41976,-2.0929 -5.02179,-8.84434 -4.82787,-9.04912 0.082,-0.0866 7.01199,2.992 7.24715,3.21949 0.19685,0.19042 -0.1723,5.42256 -0.53096,7.52565 l -0.14822,0.86908 -1.7401,-2.5651 z"
       id="path4220"
       inkscape:connector-curvature="0" />
    <path
       style="fill:#cccccc;stroke-width:2;stroke-miterlimit:4;stroke-dasharray:none"
       d="m 364.74401,640.40817 c -2.81549,-1.36686 -8.48006,-4.83898 -8.25754,-5.0615 0.041,-0.041 1.65272,-0.24092 3.58148,-0.44415 1.92877,-0.20323 3.83367,-0.42402 4.23312,-0.49064 l 0.72627,-0.12113 1.67062,3.70723 c 0.91884,2.03898 1.67061,3.77719 1.67061,3.86268 0,0.28044 -0.3151,0.15417 -3.62456,-1.45249 z"
       id="path4222"
       inkscape:connector-curvature="0" />
    <path
       style="fill:#cccccc;stroke-width:2;stroke-miterlimit:4;stroke-dasharray:none"
       d="m 335.27982,634.84409 c -2.51436,-0.14684 -10.09693,-0.83169 -10.83319,-0.97845 -0.76352,-0.15219 -0.66032,-0.24091 5.56176,-4.78182 3.48685,-2.54471 6.4899,-4.68438 6.67346,-4.75482 0.29435,-0.11295 13.59851,9.20421 13.40243,9.38598 -0.0974,0.0903 -9.93928,1.00125 -11.99835,1.11052 -0.90029,0.0478 -2.16304,0.0561 -2.80611,0.0186 z"
       id="path4224"
       inkscape:connector-curvature="0" />
    <path
       style="fill:#666666;stroke-width:2;stroke-miterlimit:4;stroke-dasharray:none"
       d="m 305.93254,641.8379 c 0,-0.0916 0.7038,-1.77377 1.56399,-3.73804 l 1.56399,-3.57141 0.71598,0.11397 c 0.39379,0.0627 1.92611,0.22396 3.40517,0.3584 1.47906,0.13443 3.04667,0.30233 3.48359,0.3731 l 0.79439,0.12868 -2.43129,1.6341 c -3.03192,2.0378 -9.09582,5.17193 -9.09582,4.7012 z"
       id="path4226"
       inkscape:connector-curvature="0" />
    <path
       style="fill:#666666;stroke-width:2;stroke-miterlimit:4;stroke-dasharray:none"
       d="m 335.05389,634.81412 c -0.0382,-0.0384 -0.79225,-0.11814 -1.67561,-0.17726 -1.79214,-0.11994 -3.76874,-0.28235 -5.69835,-0.46819 -0.70738,-0.0681 -1.7403,-0.16124 -2.29539,-0.20691 -0.55509,-0.0457 -1.06163,-0.13542 -1.12564,-0.19944 -0.064,-0.064 0.38044,-0.52184 0.98769,-1.01739 0.60725,-0.49554 1.29794,-1.08514 1.53487,-1.31022 0.23693,-0.22507 0.48032,-0.40922 0.54087,-0.40922 0.23594,0 2.22834,-1.50383 2.22834,-1.68192 0,-0.10385 0.16115,-0.18883 0.3581,-0.18883 0.19696,0 0.41868,-0.15784 0.49271,-0.35076 0.074,-0.19292 0.26582,-0.35076 0.4262,-0.35076 0.16038,0 0.57546,-0.26308 0.9224,-0.58461 0.34694,-0.32153 0.72538,-0.58461 0.84098,-0.58461 0.11559,0 0.29432,-0.13171 0.39717,-0.29268 0.10285,-0.16098 0.46677,-0.43669 0.80869,-0.61268 0.34193,-0.176 0.97331,-0.64115 1.40306,-1.03367 0.42975,-0.39252 0.78137,-0.68878 0.78137,-0.65836 0,0.0304 0.18889,-0.0172 0.41977,-0.10577 0.29761,-0.1142 1.18226,0.34675 3.03995,1.58399 1.44111,0.95979 2.67281,1.74273 2.73711,1.73987 0.0643,-0.003 0.42167,0.27723 0.79414,0.62242 0.37247,0.3452 0.80843,0.62762 0.96881,0.62762 0.16038,0 0.35217,0.15785 0.4262,0.35077 0.074,0.19292 0.29575,0.35076 0.49271,0.35076 0.19696,0 0.3581,0.10523 0.3581,0.23385 0,0.12861 0.15785,0.23384 0.35077,0.23384 0.19292,0 0.35075,0.10853 0.35075,0.24118 0,0.13265 0.18415,0.31138 0.40923,0.39718 0.22507,0.0858 0.67122,0.39819 0.99144,0.69419 0.32022,0.29601 0.66973,0.53819 0.77669,0.53819 0.10696,0 0.34115,0.13154 0.52042,0.29231 0.17927,0.16076 0.49618,0.43615 0.70424,0.61196 0.5589,0.47227 0.14371,0.71936 -1.42685,0.84917 -0.76481,0.0632 -1.91671,0.1676 -2.55977,0.23195 -0.64306,0.0644 -1.74797,0.16273 -2.45535,0.2186 -0.70737,0.0559 -1.91751,0.15542 -2.68919,0.22121 -1.89014,0.16116 -5.05053,0.28065 -5.13663,0.19422 z"
       id="path4228"
       inkscape:connector-curvature="0" />
    <path
       style="fill:#666666;stroke-width:2;stroke-miterlimit:4;stroke-dasharray:none"
       d="m 366.32245,641.09048 c -0.80384,-0.38028 -1.46152,-0.63912 -1.46152,-0.57521 0,0.0639 -0.13153,0.003 -0.2923,-0.13634 -0.41624,-0.35963 -4.60994,-2.78049 -5.37839,-3.10473 -0.35368,-0.14923 -0.64307,-0.35349 -0.64307,-0.45391 0,-0.10041 -0.15784,-0.18257 -0.35076,-0.18257 -0.19292,0 -0.35076,-0.10523 -0.35076,-0.23385 0,-0.12861 -0.11275,-0.23384 -0.25055,-0.23384 -0.40405,0 -0.95348,-0.65241 -0.68774,-0.81665 0.12898,-0.0797 0.73486,-0.18747 1.34639,-0.23945 1.4046,-0.1194 3.85467,-0.39752 5.9624,-0.67683 0.77851,-0.10316 0.8911,-0.0526 1.01918,0.45772 0.0792,0.31552 0.23781,0.57368 0.35248,0.57368 0.11467,0 0.18713,0.0789 0.16103,0.17538 -0.0793,0.29283 0.5959,1.92921 0.79597,1.92921 0.10277,0 0.16056,0.0811 0.1284,0.18014 -0.0598,0.1842 0.76432,2.18073 0.98738,2.39213 0.0679,0.0643 0.16251,0.27476 0.21035,0.46768 0.0478,0.19293 0.13902,0.53492 0.20265,0.75999 0.15682,0.55473 -0.0528,0.52091 -1.75114,-0.28255 z"
       id="path4230"
       inkscape:connector-curvature="0" />
    <path
       style="fill:#666666;stroke-width:2;stroke-miterlimit:4;stroke-dasharray:none"
       d="m 379.1351,657.46796 c -0.13229,-0.24719 -0.37276,-0.59326 -0.53437,-0.76903 -0.34975,-0.3804 -0.36154,-0.4006 -3.14008,-5.37968 -1.19976,-2.14993 -2.18138,-4.01121 -2.18138,-4.13617 0,-0.12497 0.21046,-0.21136 0.46769,-0.19198 0.25723,0.0194 0.46769,0.10666 0.46769,0.19396 0,0.16624 1.15829,0.54795 1.46151,0.48163 0.0965,-0.0211 0.17539,0.0669 0.17539,0.19548 0,0.12862 0.0789,0.21221 0.17538,0.18577 0.0965,-0.0264 0.50403,0.1272 0.90572,0.34144 0.40169,0.21423 0.7963,0.32356 0.87691,0.24294 0.0806,-0.0806 0.14657,-0.0449 0.14657,0.0793 0,0.19654 1.55243,0.89391 1.87074,0.84037 0.44706,-0.0752 0.62144,2.35271 0.34892,4.85781 -0.14638,1.34562 -0.31707,3.03255 -0.33716,3.33226 -0.0229,0.34175 -0.46642,0.16897 -0.70353,-0.27407 z"
       id="path4232"
       inkscape:connector-curvature="0" />
    <path
       style="fill:#666666;stroke-width:2;stroke-miterlimit:4;stroke-dasharray:none"
       d="m 381.45202,690.74803 c -0.0222,-0.39621 -0.19575,-2.08198 -0.33447,-3.24948 -0.13415,-1.12907 -0.24576,-2.41661 -0.46622,-5.3784 -0.32262,-4.33414 0.21979,-15.65244 0.79978,-16.68883 0.13606,-0.24312 0.54313,0.14411 1.5304,1.45582 0.73978,0.98288 1.43752,1.78705 1.55055,1.78705 0.11304,0 0.20551,0.16114 0.20551,0.3581 0,0.19696 0.15785,0.41867 0.35077,0.49271 0.19292,0.074 0.35076,0.23973 0.35076,0.36823 0,0.25483 1.40672,2.12337 1.69362,2.24963 0.0974,0.0429 0.17713,0.23032 0.17713,0.41656 0,0.18624 0.15784,0.39919 0.35076,0.47322 0.19292,0.074 0.35245,0.25488 0.3545,0.40188 0.002,0.14701 0.31662,0.63559 0.69903,1.08574 0.38241,0.45015 0.80165,0.94554 0.93164,1.10088 0.12998,0.15534 0.23634,0.36687 0.23634,0.47008 0,0.1032 0.25193,0.45934 0.55985,0.79142 l 0.55986,0.60378 -1.58506,2.37533 c -0.87178,1.30643 -1.54966,2.37532 -1.50639,2.37532 0.0433,0 -0.17939,0.27844 -0.49478,0.61876 -0.31539,0.34031 -0.57344,0.70319 -0.57344,0.8064 0,0.1032 -0.26307,0.47151 -0.58461,0.81845 -0.32153,0.34694 -0.5846,0.77328 -0.5846,0.94742 0,0.17414 -0.10854,0.31662 -0.24119,0.31662 -0.13265,0 -0.31138,0.18415 -0.39718,0.40922 -0.0858,0.22507 -0.39819,0.67123 -0.69419,0.99145 -0.296,0.32022 -0.53819,0.6568 -0.53819,0.74794 0,0.0911 -0.26307,0.44959 -0.5846,0.79653 -0.32154,0.34694 -0.58461,0.71524 -0.58461,0.81845 0,0.26768 -1.16679,1.49252 -1.18097,1.23972 z"
       id="path4234"
       inkscape:connector-curvature="0" />
    <path
       style="fill:#666666;stroke-width:2;stroke-miterlimit:4;stroke-dasharray:none"
       d="m 362.92726,721.38181 c -0.0834,-0.0834 -1.08508,-0.19102 -4.11778,-0.44228 -1.53045,-0.12681 -1.64437,-0.43407 -0.46396,-1.25141 0.56106,-0.38849 1.20426,-0.87125 1.42933,-1.07279 0.22507,-0.20155 0.41257,-0.28753 0.41666,-0.19107 0.004,0.0965 0.13601,0.0175 0.29315,-0.17538 0.15714,-0.19292 0.42134,-0.37856 0.5871,-0.41253 0.16576,-0.034 1.21767,-0.57748 2.33758,-1.20779 1.11991,-0.63031 2.48342,-1.32423 3.03003,-1.54206 0.54661,-0.21782 0.99383,-0.46745 0.99383,-0.55473 0,-0.0873 0.21067,-0.17456 0.46816,-0.19396 0.38223,-0.0288 0.42666,0.0423 0.24207,0.38718 -0.12435,0.23234 -0.15964,0.48889 -0.0784,0.57011 0.0812,0.0812 0.0363,0.14767 -0.0998,0.14767 -0.23277,0 -0.65397,1.07928 -0.57037,1.46152 0.0211,0.0965 -0.0457,0.17538 -0.1485,0.17538 -0.20007,0 -0.87522,1.63638 -0.79597,1.9292 0.0261,0.0965 -0.0366,0.17538 -0.1394,0.17538 -0.10278,0 -0.31631,0.35797 -0.47452,0.79549 -0.15821,0.43752 -0.41612,0.89684 -0.57313,1.02071 -0.29832,0.23537 -2.17559,0.54183 -2.33606,0.38136 z"
       id="path4238"
       inkscape:connector-curvature="0" />
    <path
       style="fill:#666666;stroke-width:2;stroke-miterlimit:4;stroke-dasharray:none"
       d="m 336.22023,730.98649 c -0.74131,-0.44639 -1.38228,-0.81162 -1.42438,-0.81162 -0.0421,0 -0.3604,-0.26308 -0.70734,-0.58461 -0.34694,-0.32153 -0.71525,-0.58461 -0.81845,-0.58461 -0.10321,0 -0.47151,-0.26307 -0.81845,-0.5846 -0.34694,-0.32154 -0.71417,-0.58461 -0.81607,-0.58461 -0.10189,0 -0.51706,-0.30306 -0.9226,-0.67346 -0.40554,-0.3704 -1.011,-0.81762 -1.34548,-0.99383 -0.33448,-0.1762 -0.92167,-0.60481 -1.30486,-0.95246 -0.38319,-0.34765 -0.78389,-0.57821 -0.89045,-0.51235 -0.10656,0.0659 -0.19375,0.0308 -0.19375,-0.078 0,-0.10876 -0.54955,-0.60801 -1.22122,-1.10946 l -1.22123,-0.91173 0.69508,-0.18793 c 0.66115,-0.17875 1.17303,-0.24358 4.43656,-0.56185 4.54103,-0.44286 11.79205,-0.42444 16.36899,0.0416 0.77168,0.0786 1.71875,0.17212 2.10459,0.20788 0.38584,0.0358 0.98552,0.13993 1.33262,0.23146 0.54284,0.14316 0.59356,0.22654 0.36267,0.59626 -0.14764,0.2364 -0.3264,0.41086 -0.39725,0.3877 -0.2024,-0.0662 -2.35034,1.53285 -2.35034,1.7497 0,0.10681 -0.16114,0.1942 -0.3581,0.1942 -0.19696,0 -0.41844,0.15724 -0.49219,0.34942 -0.0737,0.19218 -0.21024,0.30235 -0.30333,0.24482 -0.0931,-0.0575 -0.50946,0.20615 -0.92529,0.58595 -0.41583,0.3798 -0.84956,0.69055 -0.96384,0.69055 -0.11429,0 -0.29195,0.13171 -0.3948,0.29269 -0.10285,0.16097 -0.46676,0.43668 -0.80869,0.61268 -0.34193,0.17599 -0.95349,0.62305 -1.35903,0.99345 -0.40553,0.3704 -0.83937,0.67345 -0.96409,0.67345 -0.12471,0 -0.28732,0.15785 -0.36135,0.35077 -0.074,0.19292 -0.24494,0.35076 -0.37981,0.35076 -0.13487,0 -0.57083,0.24422 -0.96881,0.54272 -0.39798,0.29849 -0.84012,0.61111 -0.98254,0.6947 -0.14241,0.0836 -0.86546,-0.21324 -1.60677,-0.65964 z"
       id="path4240"
       inkscape:connector-curvature="0" />
    <path
       style="fill:#666666;stroke-width:2;stroke-miterlimit:4;stroke-dasharray:none"
       d="m 308.9627,720.98464 c -0.25087,-0.41145 -0.45653,-0.87963 -0.45701,-1.0404 -4.8e-4,-0.16076 -0.10611,-0.2923 -0.23472,-0.2923 -0.12861,0 -0.20753,-0.0811 -0.17538,-0.18014 0.0823,-0.25359 -0.81385,-2.23935 -1.1043,-2.44701 -0.13216,-0.0945 -0.16675,-0.17341 -0.0768,-0.17538 0.20055,-0.004 -0.49023,-1.70914 -0.76199,-1.8805 -0.10737,-0.0677 -0.11002,-0.26096 -0.006,-0.42946 0.14906,-0.24117 0.44497,-0.17683 1.39072,0.30242 0.66075,0.33483 1.20298,0.52808 1.20495,0.42946 0.002,-0.0986 0.0809,-0.0679 0.17538,0.0682 0.22888,0.32972 5.23606,3.04255 5.47788,2.96784 0.10407,-0.0322 0.18923,0.0468 0.18923,0.17539 0,0.12861 0.15784,0.23384 0.35076,0.23384 0.19292,0 0.35077,0.10523 0.35077,0.23384 0,0.12861 0.14907,0.23384 0.33127,0.23384 0.18221,0 0.36636,0.0827 0.40923,0.18383 0.0429,0.10111 0.41994,0.42396 0.83794,0.71745 0.92818,0.65172 0.95428,0.8465 0.11692,0.87257 -0.35369,0.011 -1.27445,0.0968 -2.04613,0.19072 -5.70354,0.69392 -5.44524,0.70102 -5.97279,-0.16418 z"
       id="path4242"
       inkscape:connector-curvature="0" />
    <path
       style="fill:#666666;stroke-width:2;stroke-miterlimit:4;stroke-dasharray:none"
       d="m 291.65843,689.76451 c -0.57343,-0.63211 -1.04347,-1.19009 -1.04454,-1.23994 -0.005,-0.22869 -1.61924,-2.31217 -1.79152,-2.31217 -0.10681,0 -0.1942,-0.10215 -0.1942,-0.227 0,-0.31938 -1.45287,-2.34527 -1.68191,-2.34527 -0.10386,0 -0.18883,-0.15261 -0.18883,-0.33914 0,-0.18653 -0.18415,-0.44221 -0.40923,-0.56816 -0.22507,-0.12596 -0.35748,-0.26273 -0.29425,-0.30393 0.16693,-0.10876 -1.4415,-2.29641 -1.68839,-2.29641 -0.1144,0 -0.14742,-0.098 -0.0734,-0.21785 0.074,-0.11981 -0.0769,-0.36601 -0.33548,-0.54712 -0.25856,-0.1811 -0.4031,-0.39628 -0.3212,-0.47818 0.0819,-0.0819 -0.0126,-0.21088 -0.20999,-0.28662 -0.29893,-0.11471 -0.26506,-0.23898 0.20269,-0.74369 0.30888,-0.33328 0.5194,-0.64815 0.46784,-0.69971 -0.0516,-0.0516 0.20553,-0.42141 0.57131,-0.82189 0.36578,-0.40048 0.61117,-0.81533 0.54531,-0.92189 -0.0659,-0.10657 -0.005,-0.19375 0.13524,-0.19375 0.14024,0 0.31996,-0.16933 0.39937,-0.37628 0.0794,-0.20695 0.3918,-0.64323 0.69419,-0.96952 0.30239,-0.32628 0.5498,-0.67768 0.5498,-0.78089 0,-0.1032 0.26307,-0.47151 0.58461,-0.81845 0.32153,-0.34694 0.58461,-0.71417 0.58461,-0.81606 0,-0.1019 0.30305,-0.51707 0.67345,-0.92261 0.3704,-0.40553 0.81762,-1.011 0.99383,-1.34548 0.17621,-0.33448 0.60482,-0.92166 0.95247,-1.30485 0.34765,-0.38319 0.60726,-0.75759 0.57693,-0.832 -0.0303,-0.0744 0.27592,-0.48407 0.68059,-0.91036 l 0.73576,-0.77507 0.17412,1.4766 c 0.0958,0.81213 0.21383,1.89752 0.26236,2.41197 0.0485,0.51446 0.14288,1.51414 0.20968,2.22151 0.41108,4.35355 0.41491,9.6655 0.0103,14.26442 -0.0736,0.83598 -0.18059,2.10567 -0.23786,2.8215 -0.0573,0.71584 -0.19119,1.53689 -0.29761,1.82455 -0.1848,0.49957 -0.24025,0.47147 -1.23607,-0.62626 z"
       id="path4246"
       inkscape:connector-curvature="0" />
    <path
       style="fill:#666666;stroke-width:2;stroke-miterlimit:4;stroke-dasharray:none"
       d="m 294.37326,658.17704 c -0.0638,-0.10319 -0.17655,-0.86151 -0.25059,-1.68514 -0.074,-0.82364 -0.1899,-1.97105 -0.25746,-2.54981 -0.0675,-0.57876 -0.11117,-1.4566 -0.0969,-1.95076 0.0143,-0.49416 -0.0854,-1.03265 -0.22156,-1.19665 -0.28732,-0.3462 -0.17909,-0.4491 1.45366,-1.38212 0.61091,-0.3491 1.11075,-0.57554 1.11075,-0.5032 0,0.0723 0.44723,-0.10262 0.99383,-0.3888 0.54661,-0.28618 1.04645,-0.52977 1.11076,-0.54131 0.43519,-0.0781 1.87074,-0.70412 1.87074,-0.81582 0,-0.0754 0.21046,-0.15296 0.46769,-0.17233 0.58563,-0.0441 0.58597,-0.0483 -0.10643,1.31805 -0.31576,0.62313 -0.50868,1.19839 -0.42871,1.27836 0.08,0.08 0.0164,0.14541 -0.14122,0.14541 -0.15764,0 -0.22714,0.0962 -0.15444,0.21387 0.0727,0.11762 0.0439,0.24916 -0.0641,0.2923 -0.10794,0.0431 -0.70795,1.0255 -1.33336,2.18302 -0.62541,1.15752 -1.48482,2.65198 -1.90979,3.32103 -0.42498,0.66904 -0.77268,1.32672 -0.77268,1.46151 0,0.1348 -0.10523,0.24508 -0.23385,0.24508 -0.12861,0 -0.23384,0.14659 -0.23384,0.32575 0,0.37159 -0.6271,0.68538 -0.80251,0.40156 z"
       id="path4250"
       inkscape:connector-curvature="0" />
    <path
       style="fill:#999999;stroke-width:2;stroke-miterlimit:4;stroke-dasharray:none"
       d="m 293.19922,645.93297 c -0.2521,-2.57599 -0.82947,-10.55125 -0.82952,-11.4583 l -4e-5,-0.87691 1.15238,0 c 1.42964,0 12.46789,0.91481 12.59708,1.044 0.12887,0.12887 -2.42559,6.08653 -3.13363,7.30842 -0.77214,1.33252 -2.08535,2.18214 -6.10503,3.94985 -1.86908,0.82195 -3.4298,1.49446 -3.46826,1.49446 -0.0385,0 -0.13431,-0.65769 -0.21298,-1.46152 z"
       id="path4252"
       inkscape:connector-curvature="0" />
  </g>
</svg>
